<?xml version="1.0" encoding="UTF-8" standalone="no"?>
<!-- Created with Inkscape (http://www.inkscape.org/) -->

<svg
   xmlns:dc="http://purl.org/dc/elements/1.1/"
   xmlns:cc="http://creativecommons.org/ns#"
   xmlns:rdf="http://www.w3.org/1999/02/22-rdf-syntax-ns#"
   xmlns:svg="http://www.w3.org/2000/svg"
   xmlns="http://www.w3.org/2000/svg"
   xmlns:sodipodi="http://sodipodi.sourceforge.net/DTD/sodipodi-0.dtd"
   xmlns:inkscape="http://www.inkscape.org/namespaces/inkscape"
   width="64px"
   height="64px"
   id="svg6950"
   version="1.1"
   inkscape:version="0.48.5 r10040"
   sodipodi:docname="AddPhrase.svg">
  <defs
     id="defs6952" />
  <sodipodi:namedview
     id="base"
     pagecolor="#ffffff"
     bordercolor="#666666"
     borderopacity="1.0"
     inkscape:pageopacity="0.0"
     inkscape:pageshadow="2"
     inkscape:zoom="5.5"
     inkscape:cx="32"
     inkscape:cy="32"
     inkscape:current-layer="svg6950"
     showgrid="true"
     inkscape:document-units="px"
     inkscape:grid-bbox="true"
     inkscape:window-width="1920"
     inkscape:window-height="1003"
     inkscape:window-x="-9"
     inkscape:window-y="-9"
     inkscape:window-maximized="1" />
  <metadata
     id="metadata6955">
    <rdf:RDF>
      <cc:Work
         rdf:about="">
        <dc:format>image/svg+xml</dc:format>
        <dc:type
           rdf:resource="http://purl.org/dc/dcmitype/StillImage" />
        <dc:title />
      </cc:Work>
    </rdf:RDF>
  </metadata>
  <path
     sodipodi:type="inkscape:offset"
     inkscape:radius="0.1"
     inkscape:original="M 16.09375 11.875 C 10.146513 11.875 5.313119 16.859275 5.3125 22.90625 L 5.3125 30.78125 L 5.34375 30.78125 L 5.34375 36.125 C 5.34375 42.167951 10.150776 47.125 16.09375 47.125 L 35.75 47.125 C 36.436754 48.740339 37.505627 50.739814 39.15625 52.53125 C 41.030568 54.565465 43.621298 56.276903 46.84375 56.25 C 46.85466 56.249909 46.86408 56.250131 46.875 56.25 C 48.834277 56.29116 50.21875 55.96875 50.21875 55.96875 A 1.092217 1.092217 0 0 0 50.8125 54.1875 C 50.187148 53.452218 49.49385 52.293437 49.46875 52.25 C 48.614393 50.599113 48.36653 48.789703 48.3125 47.125 L 48.375 47.125 C 54.317974 47.125 59.15625 42.172112 59.15625 36.125 L 59.15625 22.90625 C 59.155631 16.859275 54.322237 11.875 48.375 11.875 L 29.6875 11.875 L 20.8125 11.875 L 16.09375 11.875 z M 16.09375 17.375 L 22.125 17.375 L 29.6875 17.375 L 48.375 17.375 C 51.323578 17.375 53.71875 19.836699 53.71875 22.90625 L 53.71875 36.125 C 53.71875 39.195105 51.329433 41.625 48.375 41.625 L 44.1875 41.625 A 1.092217 1.092217 0 0 0 43.09375 42.59375 L 42.9375 44.09375 C 42.800432 45.41019 42.84076 47.070509 43.03125 48.8125 C 41.470728 47.066548 40.451501 44.606274 40.125 43.5625 L 39.78125 42.40625 A 1.092217 1.092217 0 0 0 38.75 41.625 L 16.09375 41.625 C 13.138778 41.625 10.75 39.194552 10.75 36.125 L 10.75 30.78125 L 10.75 28.3125 A 1.092217 1.092217 0 0 0 10.75 28.21875 L 10.75 22.90625 C 10.75 19.836699 13.145172 17.375 16.09375 17.375 z M 31.9375 19.5625 C 30.288197 19.5625 28.96875 20.958564 28.96875 22.59375 L 28.96875 26.28125 L 25.375 26.28125 C 23.725696 26.28125 22.375 27.656042 22.375 29.3125 C 22.375 30.968957 23.725695 32.34375 25.375 32.34375 L 28.96875 32.34375 L 28.96875 36.0625 C 28.96875 37.697686 30.288197 39.09375 31.9375 39.09375 C 33.586803 39.09375 34.9375 37.718958 34.9375 36.0625 L 34.9375 32.34375 L 38.53125 32.34375 C 40.18055 32.34375 41.5 30.947686 41.5 29.3125 C 41.49914 27.678004 40.18055 26.28125 38.53125 26.28125 L 34.9375 26.28125 L 34.9375 22.59375 C 34.9375 20.937293 33.586804 19.5625 31.9375 19.5625 z"
     style="stroke-width:10.10000038;stroke-miterlimit:4;stroke-dasharray:none"
     id="path3940"
     d="m 16.09375,11.625 c -6.086917,0 -11.0306174,5.101071 -11.03125,11.28125 l 0,7.875 a 0.250025,0.250025 0 0 0 0,0.0625 0.250025,0.250025 0 0 0 0.03125,0.03125 0.250025,0.250025 0 0 0 0,0.0625 l 0,5.1875 c 0,6.17553 4.918009,11.25 11,11.25 l 19.53125,0 c 0.696124,1.606019 1.717456,3.547468 3.34375,5.3125 1.904759,2.067253 4.562922,3.840151 7.875,3.8125 0.0063,-5.3e-5 0.01522,1.92e-4 0.03125,0 1.989157,0.04179 3.40625,-0.28125 3.40625,-0.28125 0.0089,-0.0019 0.02245,-0.02903 0.03125,-0.03125 0.0088,-0.0022 0.02253,0.0025 0.03125,0 0.0087,-0.0025 0.05386,0.0028 0.0625,0 0.0086,-0.0028 0.02271,-0.02819 0.03125,-0.03125 0.0085,-0.0031 0.02281,0.0033 0.03125,0 0.0084,-0.0033 0.05417,-0.02764 0.0625,-0.03125 0.0083,-0.0036 0.02304,0.0039 0.03125,0 0.0082,-0.0039 0.02317,-0.02711 0.03125,-0.03125 0.0081,-0.0041 0.02331,-0.02685 0.03125,-0.03125 0.0079,-0.0044 0.05471,0.0046 0.0625,0 0.0078,-0.0046 0.02361,-0.02635 0.03125,-0.03125 0.0076,-0.0049 0.02377,-0.02611 0.03125,-0.03125 0.0075,-0.0051 0.02394,-0.02587 0.03125,-0.03125 0.0073,-0.0054 0.02412,0.0056 0.03125,0 0.0071,-0.0056 0.02431,-0.02541 0.03125,-0.03125 0.0069,-0.0058 0.0245,-0.02519 0.03125,-0.03125 0.0068,-0.0061 0.0247,-0.02497 0.03125,-0.03125 0.0066,-0.0063 0.0249,-0.02476 0.03125,-0.03125 0.0063,-0.0065 0.02512,-0.02456 0.03125,-0.03125 0.0061,-0.0067 0.02534,-0.02437 0.03125,-0.03125 0.0059,-0.0069 0.02556,-0.02418 0.03125,-0.03125 0.0057,-0.0071 0.02579,-0.024 0.03125,-0.03125 0.0055,-0.0073 0.02603,-0.02383 0.03125,-0.03125 0.0052,-0.0074 -0.005,-0.05491 0,-0.0625 0.005,-0.0076 0.02652,-0.0235 0.03125,-0.03125 0.0047,-0.0077 0.02678,-0.02336 0.03125,-0.03125 0.0045,-0.0079 0.02703,-0.02322 0.03125,-0.03125 0.0042,-0.008 -0.004,-0.02308 0,-0.03125 0.004,-0.0082 0.02756,-0.05421 0.03125,-0.0625 0.0037,-0.0083 -0.0034,-0.02284 0,-0.03125 0.0034,-0.0084 0.0281,-0.02274 0.03125,-0.03125 0.0031,-0.0085 -0.0029,-0.05389 0,-0.0625 0.0029,-0.0086 0.02866,-0.02255 0.03125,-0.03125 0.0026,-0.0087 -0.0023,-0.02247 0,-0.03125 0.0023,-0.0088 -0.002,-0.05365 0,-0.0625 0.002,-0.0088 0.02951,-0.02234 0.03125,-0.03125 0.0017,-0.0089 -0.0014,-0.02229 0,-0.03125 0.0014,-0.009 -0.0012,-0.0535 0,-0.0625 0.0012,-0.009 -8.65e-4,-0.02222 0,-0.03125 8.65e-4,-0.009 -5.73e-4,-0.02219 0,-0.03125 5.73e-4,-0.0091 -2.8e-4,-0.05343 0,-0.0625 2.8e-4,-0.0091 0.03126,-0.02217 0.03125,-0.03125 -1.4e-5,-0.0091 -0.03094,-0.05343 -0.03125,-0.0625 -3.07e-4,-0.0091 6e-4,-0.0222 0,-0.03125 -6e-4,-0.0091 8.92e-4,-0.02222 0,-0.03125 -8.92e-4,-0.009 0.0012,-0.0535 0,-0.0625 -0.0012,-0.009 0.0015,-0.0223 0,-0.03125 -0.0015,-0.009 0.0018,-0.02235 0,-0.03125 -0.0018,-0.0089 -0.0292,-0.05366 -0.03125,-0.0625 -0.002,-0.0088 0.0023,-0.02248 0,-0.03125 -0.0023,-0.0088 0.0026,-0.05381 0,-0.0625 -0.0026,-0.0087 -0.02835,-0.02265 -0.03125,-0.03125 -0.0029,-0.0086 0.0032,-0.02275 0,-0.03125 -0.0032,-0.0085 -0.02781,-0.02285 -0.03125,-0.03125 -0.0034,-0.0084 0.0037,-0.05422 0,-0.0625 -0.0037,-0.0083 -0.02727,-0.02309 -0.03125,-0.03125 -0.004,-0.0082 0.0042,-0.02323 0,-0.03125 -0.0042,-0.008 -0.02675,-0.02337 -0.03125,-0.03125 -0.0045,-0.0079 -0.0265,-0.05477 -0.03125,-0.0625 -0.0048,-0.0077 -0.02625,-0.02368 -0.03125,-0.03125 -0.005,-0.0076 0.0052,-0.02384 0,-0.03125 -0.0052,-0.0074 -0.02577,-0.02401 -0.03125,-0.03125 -0.0055,-0.0072 -0.02554,-0.0242 -0.03125,-0.03125 -0.0057,-0.0071 -0.02532,-0.02438 -0.03125,-0.03125 -0.300225,-0.353001 -0.623365,-0.836268 -0.875,-1.21875 -0.251635,-0.382482 -0.442003,-0.695293 -0.4375,-0.6875 -0.793205,-1.532722 -1.025983,-3.19702 -1.09375,-4.78125 5.978333,-0.123341 10.8125,-5.114785 10.8125,-11.21875 l 0,-13.21875 C 59.405617,16.726071 54.461917,11.625 48.375,11.625 l -18.6875,0 -8.875,0 -4.71875,0 z m 0,6 6.03125,0 7.5625,0 18.6875,0 c 2.809432,0 5.09375,2.341749 5.09375,5.28125 l 0,13.21875 c 0,2.940396 -2.276393,5.25 -5.09375,5.25 l -4.1875,0 c -0.01286,-1e-4 -0.04965,-4.88e-4 -0.0625,0 -0.01285,4.88e-4 -0.04969,-0.0011 -0.0625,0 -0.01281,0.0011 -0.04975,-0.0017 -0.0625,0 -0.01275,0.0017 -0.04984,0.02901 -0.0625,0.03125 -0.01266,0.0022 -0.04996,-0.0028 -0.0625,0 -0.01254,0.0028 -0.0501,0.02786 -0.0625,0.03125 -0.0124,0.0034 -0.01902,-0.004 -0.03125,0 -0.01223,0.004 -0.05046,0.02674 -0.0625,0.03125 -0.01204,0.0045 -0.05068,-0.0051 -0.0625,0 -0.01182,0.0051 -0.05092,0.02566 -0.0625,0.03125 -0.01158,0.0056 -0.05119,0.02513 -0.0625,0.03125 -0.01131,0.0061 -0.02023,0.02462 -0.03125,0.03125 -0.01102,0.0066 -0.0518,0.02412 -0.0625,0.03125 -0.0107,0.0071 -0.05214,0.02364 -0.0625,0.03125 -0.01036,0.0076 -0.02125,0.05443 -0.03125,0.0625 -0.01,0.0081 -0.05288,0.02273 -0.0625,0.03125 -0.0096,0.0085 -0.02203,0.02229 -0.03125,0.03125 -0.0092,0.009 -0.0537,0.05313 -0.0625,0.0625 -0.0088,0.0094 -0.02288,0.02149 -0.03125,0.03125 -0.0084,0.0098 -0.02334,0.05237 -0.03125,0.0625 -0.0079,0.01013 -0.02381,0.02076 -0.03125,0.03125 -0.0074,0.01049 -0.0243,0.05168 -0.03125,0.0625 -0.007,0.01082 -0.0248,0.02013 -0.03125,0.03125 -0.0064,0.01112 -0.02532,0.05109 -0.03125,0.0625 -0.0059,0.01141 -0.02585,0.05083 -0.03125,0.0625 -0.0054,0.01167 -0.02639,0.0506 -0.03125,0.0625 -0.0049,0.0119 -0.02694,0.05039 -0.03125,0.0625 -0.0043,0.01211 0.0038,0.01895 0,0.03125 -0.0038,0.0123 -0.02806,0.05005 -0.03125,0.0625 -0.0032,0.01245 0.0026,0.04991 0,0.0625 -0.0026,0.01259 -0.02921,0.04981 -0.03125,0.0625 -0.002,0.01269 0.0015,0.04973 0,0.0625 l -0.15625,1.5 C 42.57099,45.181496 42.601289,46.565981 42.71875,48 41.486189,46.372207 40.653333,44.389787 40.375,43.5 l -0.34375,-1.15625 c -0.0032,-0.01066 -0.02766,-0.05197 -0.03125,-0.0625 -0.0036,-0.01053 0.004,-0.02087 0,-0.03125 -0.004,-0.01038 -0.02684,-0.05229 -0.03125,-0.0625 -0.0044,-0.01021 -0.02644,-0.05247 -0.03125,-0.0625 -0.0048,-0.01003 -0.02605,-0.02142 -0.03125,-0.03125 -0.0052,-0.0098 0.0056,-0.05288 0,-0.0625 -0.0056,-0.0096 -0.02529,-0.02186 -0.03125,-0.03125 -0.006,-0.0094 -0.02492,-0.05336 -0.03125,-0.0625 -0.0063,-0.0091 -0.02456,-0.02236 -0.03125,-0.03125 -0.0067,-0.0089 -0.02421,-0.02264 -0.03125,-0.03125 -0.007,-0.0086 -0.02388,-0.05417 -0.03125,-0.0625 -0.0074,-0.0083 -0.02356,-0.02322 -0.03125,-0.03125 -0.0077,-0.008 -0.05449,-0.02353 -0.0625,-0.03125 -0.008,-0.0077 -0.02294,-0.02385 -0.03125,-0.03125 -0.0083,-0.0074 -0.02266,-0.02419 -0.03125,-0.03125 -0.0086,-0.0071 -0.05363,-0.02453 -0.0625,-0.03125 -0.0089,-0.0067 -0.02213,-0.02489 -0.03125,-0.03125 -0.0091,-0.0064 -0.02188,-0.02526 -0.03125,-0.03125 -0.0094,-0.006 -0.0529,-0.02563 -0.0625,-0.03125 -0.0096,-0.0056 -0.02144,-0.02602 -0.03125,-0.03125 -0.0098,-0.0052 -0.05249,-0.02641 -0.0625,-0.03125 -0.01001,-0.0048 -0.02105,0.0044 -0.03125,0 -0.0102,-0.0044 -0.05213,-0.02722 -0.0625,-0.03125 -0.01037,-0.004 -0.05198,-0.02763 -0.0625,-0.03125 -0.01052,-0.0036 -0.0206,0.0032 -0.03125,0 -0.01065,-0.0032 -0.05173,-0.02848 -0.0625,-0.03125 -0.01077,-0.0028 -0.02038,0.0023 -0.03125,0 -0.01087,-0.0023 -0.05154,0.0019 -0.0625,0 -0.01096,-0.0019 -0.05148,-0.02977 -0.0625,-0.03125 -0.01102,-0.0015 -0.02018,0.001 -0.03125,0 -0.01107,-0.001 -0.05139,6.01e-4 -0.0625,0 -0.01111,-6.01e-4 -0.05138,1.61e-4 -0.0625,0 l -22.65625,0 C 13.27586,41.375 11,39.064849 11,36.125 l 0,-5.34375 0,-2.46875 c 5.17e-4,-0.01204 0,-0.05045 0,-0.0625 0,-0.01205 5.17e-4,-0.01921 0,-0.03125 l 0,-5.3125 C 11,19.966749 13.284318,17.625 16.09375,17.625 z m 15.84375,1.6875 c -1.790379,0 -3.21875,1.511579 -3.21875,3.28125 l 0,3.4375 -3.34375,0 c -1.78823,0 -3.25,1.48889 -3.25,3.28125 0,1.792359 1.461769,3.28125 3.25,3.28125 l 3.34375,0 0,3.46875 c 0,1.769671 1.428371,3.28125 3.21875,3.28125 1.78823,0 3.25,-1.48889 3.25,-3.28125 l 0,-3.46875 3.34375,0 c 1.790376,0 3.21875,-1.511579 3.21875,-3.28125 -9.31e-4,-1.768875 -1.428304,-3.28125 -3.21875,-3.28125 l -3.34375,0 0,-3.4375 c 0,-1.792359 -1.461769,-3.28125 -3.25,-3.28125 z" />
</svg>
