<?xml version="1.0" encoding="UTF-8" standalone="no"?>
<!-- Created with Inkscape (http://www.inkscape.org/) -->

<svg
   xmlns:dc="http://purl.org/dc/elements/1.1/"
   xmlns:cc="http://creativecommons.org/ns#"
   xmlns:rdf="http://www.w3.org/1999/02/22-rdf-syntax-ns#"
   xmlns:svg="http://www.w3.org/2000/svg"
   xmlns="http://www.w3.org/2000/svg"
   xmlns:sodipodi="http://sodipodi.sourceforge.net/DTD/sodipodi-0.dtd"
   xmlns:inkscape="http://www.inkscape.org/namespaces/inkscape"
   width="64px"
   height="64px"
   id="svg6950"
   version="1.1"
   inkscape:version="0.48.5 r10040"
   sodipodi:docname="AddPhrase.svg">
  <defs
     id="defs6952" />
  <sodipodi:namedview
     id="base"
     pagecolor="#ffffff"
     bordercolor="#666666"
     borderopacity="1.0"
     inkscape:pageopacity="0.0"
     inkscape:pageshadow="2"
     inkscape:zoom="5.5"
     inkscape:cx="32"
     inkscape:cy="33.090909"
     inkscape:current-layer="svg6950"
     showgrid="true"
     inkscape:document-units="px"
     inkscape:grid-bbox="true"
     inkscape:window-width="1920"
     inkscape:window-height="1003"
     inkscape:window-x="-9"
     inkscape:window-y="-9"
     inkscape:window-maximized="1" />
  <metadata
     id="metadata6955">
    <rdf:RDF>
      <cc:Work
         rdf:about="">
        <dc:format>image/svg+xml</dc:format>
        <dc:type
           rdf:resource="http://purl.org/dc/dcmitype/StillImage" />
        <dc:title></dc:title>
      </cc:Work>
    </rdf:RDF>
  </metadata>
  <g
     id="g3005"
     transform="matrix(0.65532332,0,0,0.65532332,12.757972,6.887662)">
    <path
       id="path3009"
       style="fill:#000000;fill-opacity:1;fill-rule:nonzero;stroke:none"
       d="m 9.5669293,17.114172 0,51.129919 c 0,1.488189 2.3385827,1.488189 2.3385827,0 l 0,-51.129919 c 0,-1.523622 -2.3385827,-1.523622 -2.3385827,0 z m 49.8188987,-6.838582 -4.677166,0 0,-8.6811019 c 0,-0.85039365 -0.708661,-1.55905503 -1.559055,-1.55905503 l -45.9566935,0 C -0.03543307,0.03543307 0,6.3425193 0,11.55118 l 0,26.964566 0,25.157479 c 0,2.551181 0.07086614,4.322834 1.3818898,6.69685 1.3818898,2.480315 4.6062993,4.570866 7.5118112,4.570866 l 47.515749,0 2.976378,0 c 0.850394,0 1.559055,-0.708662 1.559055,-1.559055 l 0,-61.547241 c 0,-0.850394 -0.708661,-1.559055 -1.559055,-1.559055 z m -1.559055,61.547241 -44.75197,0 c -4.6062989,0 -9.9566927,-0.318898 -9.9566927,-6.661417 l 0,-22.925196 0,-27.496061 c 0,-4.181102 -1.6299213,-11.5866139 4.5708662,-11.5866139 l 43.9015755,0 0,7.1220469 -1.73622,0 -2.338583,-5.2440942 C 47.303151,4.5354328 46.665355,4.2519683 46.169292,4.2519683 l -21.791339,0 -12.791339,0 c -2.1259839,0 -4.8543304,-0.2834646 -5.633858,2.3740156 C 4.8897639,10.098425 9.0000002,13.3937 12.259843,13.3937 l 7.866142,0 29.125984,0 8.574804,0 0,58.429131 z M 46.452757,10.27559 l -32.492127,0 -1.771653,0 c -0.03543,0 -0.07087,0 -0.1063,-0.03543 C 11.515748,10.098425 10.984252,9.8503932 10.488189,9.6023617 9.8503939,9.2834641 8.5393702,8.0787397 9.2834647,7.3700783 l 8.6456693,0 26.716536,0 0.531496,0 c 0.425197,0.9566929 0.850394,1.9488188 1.275591,2.9055117 z M 9.0354332,7.3700783 c -0.2125984,0.035433 -0.3188976,0 0,0 l 0,0 z M 32.596652,24.192356 c -2.602888,0 -4.673266,2.191314 -4.673266,4.768637 l 0,5.483934 -5.340875,0 c -2.601579,0 -4.720952,2.15799 -4.720952,4.768639 0,2.610647 2.119372,4.768638 4.720952,4.768638 l 5.340875,0 0,5.531621 c 0,2.577323 2.070378,4.768638 4.673266,4.768638 2.601577,0 4.720952,-2.15799 4.720952,-4.768638 l 0,-5.531621 5.340875,0 c 2.602885,0 4.673266,-2.191315 4.673266,-4.768638 -0.0014,-2.576207 -2.07034,-4.768639 -4.673266,-4.768639 l -5.340875,0 0,-5.483934 c 0,-2.610647 -2.119374,-4.768637 -4.720952,-4.768637 z" />
  </g>
</svg>
