<?xml version="1.0" encoding="UTF-8" standalone="no"?>
<!-- Created with Inkscape (http://www.inkscape.org/) -->

<svg
   xmlns:dc="http://purl.org/dc/elements/1.1/"
   xmlns:cc="http://creativecommons.org/ns#"
   xmlns:rdf="http://www.w3.org/1999/02/22-rdf-syntax-ns#"
   xmlns:svg="http://www.w3.org/2000/svg"
   xmlns="http://www.w3.org/2000/svg"
   xmlns:sodipodi="http://sodipodi.sourceforge.net/DTD/sodipodi-0.dtd"
   xmlns:inkscape="http://www.inkscape.org/namespaces/inkscape"
   width="64px"
   height="64px"
   id="svg4427"
   version="1.1"
   inkscape:version="0.48.5 r10040"
   sodipodi:docname="ReCalibrate.svg">
  <defs
     id="defs4429" />
  <sodipodi:namedview
     id="base"
     pagecolor="#ffffff"
     bordercolor="#666666"
     borderopacity="1.0"
     inkscape:pageopacity="0.0"
     inkscape:pageshadow="2"
     inkscape:zoom="5.5"
     inkscape:cx="32"
     inkscape:cy="33.090909"
     inkscape:current-layer="svg4427"
     showgrid="true"
     inkscape:document-units="px"
     inkscape:grid-bbox="true"
     inkscape:window-width="1920"
     inkscape:window-height="1003"
     inkscape:window-x="-9"
     inkscape:window-y="-9"
     inkscape:window-maximized="1" />
  <metadata
     id="metadata4432">
    <rdf:RDF>
      <cc:Work
         rdf:about="">
        <dc:format>image/svg+xml</dc:format>
        <dc:type
           rdf:resource="http://purl.org/dc/dcmitype/StillImage" />
        <dc:title />
      </cc:Work>
    </rdf:RDF>
  </metadata>
  <g
     transform="matrix(0.50907359,0,0,0.50907359,7.9099759,5.0928745)"
     id="g3" />
  <path
     inkscape:connector-curvature="0"
     id="path43"
     d="m 23.413331,46.922944 c -0.630288,-0.404167 -1.243363,-0.854033 -1.82083,-1.340102 -0.317518,-0.267071 -0.792903,-0.225527 -1.059975,0.09258 -0.26707,0.317518 -0.22612,0.792904 0.09199,1.059975 0.62732,0.52702 1.292623,1.016056 1.977512,1.454646 0.125227,0.08071 0.265884,0.118698 0.40476,0.118698 0.24808,0 0.490817,-0.122852 0.634442,-0.346599 0.223747,-0.349565 0.121666,-0.815455 -0.2279,-1.039202 z M 16.609552,38.69182 c -0.276566,-0.696758 -0.510996,-1.420224 -0.694978,-2.14903 -0.10208,-0.403574 -0.510402,-0.646905 -0.914569,-0.544824 -0.40298,0.101487 -0.646905,0.510995 -0.544825,0.913976 0.2006,0.792309 0.454614,1.578091 0.755514,2.335979 0.116918,0.294965 0.400013,0.474793 0.699726,0.474793 0.09199,0 0.185762,-0.01662 0.27716,-0.05342 0.386362,-0.153714 0.575686,-0.591117 0.421972,-0.977479 z m 1.429126,2.818488 c -0.220185,-0.35194 -0.685482,-0.458175 -1.037422,-0.236803 -0.35194,0.221373 -0.458175,0.686076 -0.236803,1.037422 0.433842,0.690823 0.918724,1.360281 1.439216,1.989381 0.148966,0.179829 0.36381,0.272413 0.580433,0.272413 0.169145,0 0.338884,-0.05697 0.480134,-0.172706 0.319892,-0.265291 0.364404,-0.739489 0.09971,-1.059974 -0.480727,-0.579247 -0.925846,-1.194104 -1.325265,-1.829733 z m 10.323773,7.578878 c -0.726433,-0.189324 -1.447525,-0.429094 -2.143096,-0.712189 -0.384582,-0.157275 -0.824359,0.02849 -0.98104,0.41307 -0.156682,0.384582 0.02848,0.824358 0.413663,0.980446 0.756108,0.308616 1.540702,0.569158 2.330045,0.775693 0.0641,0.01602 0.1276,0.02433 0.190511,0.02433 0.334135,0 0.63919,-0.22434 0.728213,-0.562629 0.104454,-0.401794 -0.13591,-0.813083 -0.538296,-0.918724 z m 10.872746,-0.712189 c -0.69616,0.283688 -1.41785,0.522865 -2.142494,0.712189 -0.402385,0.105641 -0.64335,0.51693 -0.537702,0.918724 0.08784,0.338289 0.392891,0.562629 0.727616,0.562629 0.0623,0 0.12641,-0.0083 0.18992,-0.02433 0.78934,-0.206535 1.57394,-0.467077 2.33123,-0.775693 0.38399,-0.156681 0.56916,-0.595864 0.41248,-0.980446 -0.15669,-0.384582 -0.59528,-0.569159 -0.98105,-0.41307 z m 4.62686,-2.793561 c -0.57746,0.484882 -1.18995,0.935935 -1.82024,1.339508 -0.35015,0.224339 -0.45224,0.689637 -0.22849,1.039796 0.14363,0.22434 0.38695,0.346599 0.63444,0.346599 0.13887,0 0.27954,-0.03798 0.40536,-0.118105 0.68488,-0.439183 1.35019,-0.928219 1.97751,-1.454646 0.31811,-0.267664 0.35906,-0.742457 0.0914,-1.060568 -0.26706,-0.318705 -0.74186,-0.360249 -1.05997,-0.09258 z m 4.59065,-4.310524 c -0.35134,-0.221372 -0.81605,-0.114544 -1.03742,0.236803 -0.39942,0.635035 -0.84513,1.249891 -1.32348,1.829138 -0.26529,0.319892 -0.22079,0.794685 0.0997,1.059975 0.13947,0.11573 0.3104,0.172706 0.47954,0.172706 0.21603,0 0.43147,-0.09258 0.58044,-0.272412 0.52049,-0.629694 1.00478,-1.298558 1.43921,-1.989381 0.22019,-0.350754 0.11455,-0.815457 -0.23799,-1.036829 z m 2.00184,-5.274946 c -0.40475,-0.103862 -0.81248,0.14125 -0.91457,0.544824 -0.18457,0.728213 -0.41841,1.451085 -0.69556,2.14903 -0.15313,0.386363 0.0356,0.824359 0.42137,0.976886 0.0908,0.0368 0.18517,0.05342 0.27776,0.05342 0.29971,0 0.58281,-0.179828 0.70032,-0.474793 0.30149,-0.758481 0.55551,-1.544857 0.75551,-2.33598 0.10208,-0.402386 -0.14243,-0.811895 -0.54483,-0.913382 z M 39.803177,14.592533 c -0.7567,-0.308616 -1.54189,-0.568565 -2.33124,-0.7751 -0.402381,-0.106828 -0.813075,0.13591 -0.917529,0.537703 -0.105648,0.402387 0.13591,0.813083 0.537702,0.91813 0.725237,0.189917 1.446927,0.429687 2.142497,0.712783 0.0926,0.03799 0.18873,0.05579 0.28369,0.05579 0.29734,0 0.57925,-0.176861 0.69736,-0.468858 0.15667,-0.385176 -0.0285,-0.823766 -0.41248,-0.980447 z m 2.23805,2.848162 c 0.63029,0.403574 1.24337,0.854033 1.82024,1.339509 0.14065,0.118698 0.31277,0.17686 0.48369,0.17686 0.21425,0 0.42791,-0.0914 0.57628,-0.268852 0.26766,-0.318111 0.22671,-0.792903 -0.0914,-1.059974 -0.62732,-0.52702 -1.29262,-1.016649 -1.97751,-1.454646 -0.35016,-0.225527 -0.81605,-0.122259 -1.03979,0.2279 -0.22375,0.35016 -0.12167,0.814863 0.22849,1.039203 z m 6.80319,8.231124 c 0.27715,0.697945 0.51099,1.421411 0.69556,2.149624 0.0861,0.340663 0.39289,0.567971 0.7294,0.567971 0.0617,0 0.12345,-0.0077 0.18517,-0.02315 0.4024,-0.102081 0.64691,-0.510996 0.54483,-0.91457 -0.2006,-0.791123 -0.45461,-1.576905 -0.75551,-2.335979 -0.15372,-0.38577 -0.59112,-0.575093 -0.97748,-0.421379 -0.38636,0.153714 -0.5751,0.591116 -0.42197,0.977479 z m -1.42913,-2.818488 c 0.14244,0.2279 0.38695,0.352534 0.63741,0.352534 0.1365,0 0.27597,-0.0368 0.40001,-0.115138 0.35254,-0.220778 0.45758,-0.685481 0.2368,-1.037422 -0.43384,-0.690823 -0.91872,-1.36028 -1.43921,-1.989381 -0.26529,-0.319298 -0.73949,-0.364996 -1.05938,-0.09911 -0.32049,0.264696 -0.365,0.739489 -0.0997,1.05938 0.47895,0.578654 0.92466,1.194104 1.32408,1.829139 z m -32.415282,5.512936 c 0.06172,0.01543 0.12404,0.02315 0.185169,0.02315 0.335916,0 0.64275,-0.227308 0.7294,-0.567971 0.183982,-0.729401 0.418412,-1.452866 0.694978,-2.149624 0.153714,-0.386363 -0.03561,-0.824359 -0.421972,-0.976886 -0.386362,-0.153714 -0.824359,0.03561 -0.976886,0.421378 -0.301493,0.757295 -0.555507,1.54367 -0.755514,2.33598 -0.10208,0.402981 0.141845,0.811895 0.544825,0.913976 z M 25.935667,16.04243 c 0.09436,0 0.19051,-0.01721 0.284282,-0.05579 0.695571,-0.283689 1.417256,-0.522865 2.143095,-0.712782 0.402387,-0.105048 0.642751,-0.515744 0.537703,-0.91813 -0.105641,-0.402387 -0.513963,-0.643344 -0.918724,-0.537703 -0.789343,0.206535 -1.573344,0.466484 -2.330045,0.775099 -0.385176,0.156682 -0.570345,0.595271 -0.413663,0.980447 0.119292,0.291997 0.400607,0.468857 0.697352,0.468857 z m -4.826861,2.914634 c 0.170925,0 0.342444,-0.05816 0.483102,-0.176267 0.57806,-0.484882 1.190542,-0.935935 1.820829,-1.340102 0.35016,-0.223746 0.452241,-0.689043 0.227901,-1.039203 -0.223153,-0.350159 -0.68845,-0.452833 -1.039202,-0.228494 -0.684889,0.438591 -1.350192,0.927627 -1.977512,1.454647 -0.318111,0.26707 -0.359062,0.742456 -0.09199,1.060567 0.148967,0.176861 0.362029,0.268852 0.576873,0.268852 z m -4.10755,4.133663 c 0.12404,0.07775 0.262917,0.115138 0.400013,0.115138 0.250453,0 0.494378,-0.124634 0.637409,-0.352534 0.399419,-0.635035 0.844538,-1.250485 1.324078,-1.829139 0.264697,-0.320485 0.220185,-0.794684 -0.09971,-1.059974 -0.319892,-0.26529 -0.794091,-0.220185 -1.059975,0.09971 -0.520492,0.629101 -1.00478,1.297964 -1.439216,1.988788 -0.221372,0.351346 -0.114543,0.816643 0.237397,1.038015 z m 19.623178,21.862421 -3.306335,-3.533644 c -0.140064,-0.150747 -0.336509,-0.236209 -0.543044,-0.238583 -0.202974,-0.0035 -0.404167,0.08131 -0.547199,0.22968 l -3.421474,3.533645 c -0.288437,0.298526 -0.281908,0.775099 0.01721,1.064723 0.29912,0.288436 0.775693,0.281314 1.06413,-0.01721 l 2.141314,-2.212534 v 5.850633 c -0.179235,-0.0077 -0.357874,-0.0077 -0.535329,-0.02078 -0.41663,-0.02552 -0.775692,0.281908 -0.805367,0.695571 -0.03086,0.41485 0.280721,0.775693 0.695572,0.805961 0.213657,0.01543 0.43028,0.01602 0.645718,0.02493 v 3.260638 c 0,0.416037 0.336509,0.75314 0.752546,0.75314 0.416037,0 0.75314,-0.336509 0.75314,-0.75314 v -3.265386 c 0.179234,-0.0077 0.358469,-0.0077 0.535328,-0.02018 0.414257,-0.03086 0.726433,-0.39111 0.696165,-0.805961 -0.03086,-0.413662 -0.383395,-0.722278 -0.805961,-0.695571 -0.14125,0.01068 -0.283688,0.01009 -0.425532,0.01602 v -5.770511 l 1.990568,2.127071 c 0.147779,0.158461 0.348379,0.23799 0.550166,0.23799 0.183982,0 0.367967,-0.06706 0.513371,-0.203568 0.303868,-0.283689 0.319299,-0.759669 0.03501,-1.062942 z m -7.826361,-25.542657 3.306337,3.533644 c 0.140658,0.150747 0.337103,0.236209 0.543044,0.23799 0.0024,0 0.0047,0 0.0065,0 0.204161,0 0.398826,-0.08249 0.54067,-0.229088 l 3.421471,-3.533644 c 0.289038,-0.298526 0.281322,-0.775098 -0.01723,-1.064129 -0.298523,-0.28903 -0.775689,-0.281908 -1.064125,0.01662 l -2.141316,2.212533 v -5.851225 c 0.189324,0.0077 0.379241,0.0083 0.567378,0.02196 0.01899,0.0012 0.03739,0.0018 0.05579,0.0018 0.39111,0 0.721091,-0.302087 0.750766,-0.697352 0.03027,-0.41485 -0.281908,-0.775692 -0.696165,-0.80596 -0.22434,-0.01603 -0.451647,-0.01721 -0.677767,-0.02611 V 9.9675007 c 0,-0.416037 -0.336509,-0.75314 -0.753139,-0.75314 -0.415444,0 -0.752547,0.336509 -0.752547,0.75314 v 3.2659803 c -0.167958,0.0083 -0.336509,0.0077 -0.503873,0.01958 -0.414851,0.03086 -0.726433,0.391111 -0.695571,0.805961 0.02908,0.395858 0.359061,0.697352 0.749578,0.697352 0.01899,0 0.03739,-5.94e-4 0.05638,-0.0018 0.130568,-0.01009 0.261729,-0.0089 0.393485,-0.01543 v 5.770511 L 29.89717,18.38199 c -0.284281,-0.303273 -0.759668,-0.318705 -1.064129,-0.03561 -0.303273,0.284282 -0.319297,0.760855 -0.03501,1.064129 z m -8.581877,8.834704 c -0.29912,-0.28903 -0.776286,-0.281315 -1.064722,0.01721 -0.288437,0.298527 -0.281909,0.775099 0.01721,1.064129 l 2.21194,2.141316 h -5.978826 c 0.0066,-0.175081 0.0059,-0.351347 0.01721,-0.52524 0.0279,-0.414257 -0.286063,-0.773319 -0.700912,-0.801213 -0.416038,-0.03146 -0.773319,0.28547 -0.801213,0.700913 -0.01424,0.206535 -0.01306,0.416631 -0.02078,0.62554 h -3.133039 c -0.415443,0 -0.753139,0.336509 -0.753139,0.753139 0,0.415444 0.337103,0.752547 0.753139,0.752547 h 3.135412 c 0.0077,0.183388 0.0059,0.366183 0.0184,0.547198 0.02611,0.397639 0.357282,0.702693 0.750172,0.702693 0.01662,0 0.03383,-5.94e-4 0.05104,-0.0018 0.414257,-0.0273 0.728807,-0.386362 0.700913,-0.801212 -0.01009,-0.147797 -0.0089,-0.297356 -0.01484,-0.446916 h 5.901673 l -2.127665,1.991162 c -0.303867,0.284282 -0.319298,0.759668 -0.03561,1.063536 0.147779,0.158461 0.348379,0.23799 0.550166,0.23799 0.184576,0 0.368558,-0.06706 0.513963,-0.202975 l 3.533644,-3.30693 c 0.150153,-0.140658 0.23621,-0.33651 0.23799,-0.543044 0.0018,-0.205942 -0.08131,-0.404167 -0.229087,-0.547199 l -3.533051,-3.420881 z m 34.474691,3.081404 h -3.13778 c -0.006,-0.160835 -0.006,-0.322858 -0.0155,-0.483101 -0.0279,-0.41485 -0.38578,-0.731774 -0.80122,-0.700913 -0.41485,0.0279 -0.7294,0.386363 -0.7015,0.801213 0.009,0.1276 0.007,0.255794 0.0125,0.383395 h -5.8987 l 2.12766,-1.990568 c 0.30328,-0.283689 0.3193,-0.759668 0.0356,-1.063536 -0.28427,-0.30268 -0.76025,-0.318704 -1.06412,-0.03561 l -3.53305,3.30693 c -0.15075,0.140658 -0.23681,0.33651 -0.23858,0.543045 -0.002,0.205941 0.0813,0.403574 0.22968,0.547198 l 3.53305,3.420882 c 0.146,0.141844 0.33472,0.211875 0.52405,0.211875 0.19704,0 0.39289,-0.07656 0.54067,-0.229087 0.28903,-0.298525 0.28132,-0.775099 -0.0166,-1.064129 l -2.21312,-2.141315 h 5.9812 c -0.007,0.196446 -0.006,0.392891 -0.0195,0.58815 -0.0279,0.414257 0.28606,0.773911 0.7015,0.801213 0.0166,0.0012 0.0338,0.0018 0.051,0.0018 0.39289,0 0.72346,-0.305054 0.75017,-0.702693 0.0155,-0.228494 0.0155,-0.458175 0.022,-0.68845 h 3.13126 c 0.41544,0 0.75314,-0.337102 0.75314,-0.75314 0,-0.416036 -0.3383,-0.753139 -0.75374,-0.753139 z M 32.711551,39.05741 c 0.416037,0 0.752546,-0.336509 0.752546,-0.75314 v -1.305086 c 2.106299,-0.32642 3.770444,-1.990568 4.09627,-4.096273 h 1.30509 c 0.41604,0 0.75255,-0.336509 0.75255,-0.752546 0,-0.416038 -0.33592,-0.75314 -0.75255,-0.75314 h -1.30509 c -0.325826,-2.106299 -1.990564,-3.770447 -4.09627,-4.09568 v -1.30568 c 0,-0.416037 -0.335915,-0.75314 -0.752546,-0.75314 -0.415443,0 -0.75314,0.336509 -0.75314,0.75314 v 1.30568 c -2.105705,0.325826 -3.769853,1.989974 -4.096273,4.09568 h -1.305086 c -0.415444,0 -0.752547,0.336509 -0.752547,0.75314 0,0.415443 0.336509,0.752546 0.752547,0.752546 h 1.305679 c 0.326421,2.106299 1.990569,3.770447 4.09568,4.096273 v 1.305086 c 0,0.416631 0.337103,0.75314 0.75314,0.75314 z m -3.321174,-6.154499 h 1.013088 c 0.416038,0 0.752547,-0.336509 0.752547,-0.752546 0,-0.416038 -0.335916,-0.75314 -0.752547,-0.75314 h -1.013088 c 0.288436,-1.274818 1.293216,-2.279005 2.568034,-2.568035 v 1.013089 c 0,0.415443 0.337103,0.752546 0.75314,0.752546 0.416037,0 0.752546,-0.336509 0.752546,-0.752546 V 28.82919 c 1.274819,0.28903 2.279598,1.293217 2.568629,2.568035 h -1.013089 c -0.415444,0 -0.75314,0.336509 -0.75314,0.75314 0,0.415443 0.337103,0.752546 0.75314,0.752546 h 1.012495 c -0.288437,1.274818 -1.293216,2.279598 -2.568035,2.568628 V 34.45845 c 0,-0.416037 -0.335915,-0.75314 -0.752546,-0.75314 -0.415443,0 -0.75314,0.33651 -0.75314,0.75314 v 1.013089 c -1.274818,-0.28903 -2.279004,-1.29381 -2.568034,-2.568628 z" />
</svg>
