<?xml version="1.0" encoding="UTF-8" standalone="no"?>
<!-- Created with Inkscape (http://www.inkscape.org/) -->

<svg
   xmlns:dc="http://purl.org/dc/elements/1.1/"
   xmlns:cc="http://creativecommons.org/ns#"
   xmlns:rdf="http://www.w3.org/1999/02/22-rdf-syntax-ns#"
   xmlns:svg="http://www.w3.org/2000/svg"
   xmlns="http://www.w3.org/2000/svg"
   xmlns:sodipodi="http://sodipodi.sourceforge.net/DTD/sodipodi-0.dtd"
   xmlns:inkscape="http://www.inkscape.org/namespaces/inkscape"
   width="64px"
   height="64px"
   id="svg6906"
   version="1.1"
   inkscape:version="0.48.5 r10040"
   sodipodi:docname="Clear - Alt 3.svg">
  <defs
     id="defs6908" />
  <sodipodi:namedview
     id="base"
     pagecolor="#ffffff"
     bordercolor="#666666"
     borderopacity="1.0"
     inkscape:pageopacity="0.0"
     inkscape:pageshadow="2"
     inkscape:zoom="5.5"
     inkscape:cx="10.187697"
     inkscape:cy="35.250242"
     inkscape:current-layer="svg6906"
     showgrid="true"
     inkscape:document-units="px"
     inkscape:grid-bbox="true"
     inkscape:window-width="1920"
     inkscape:window-height="1003"
     inkscape:window-x="-9"
     inkscape:window-y="-9"
     inkscape:window-maximized="1" />
  <metadata
     id="metadata6911">
    <rdf:RDF>
      <cc:Work
         rdf:about="">
        <dc:type
           rdf:resource="http://purl.org/dc/dcmitype/StillImage" />
        <dc:title></dc:title>
        <dc:format>image/svg+xml</dc:format>
      </cc:Work>
      <dc:format>image/svg+xml</dc:format>
    </rdf:RDF>
  </metadata>
  <g
     transform="matrix(0.49818182,0,0,0.49818182,7.8184312,6.7272731)"
     id="Captions" />
  <g
     transform="matrix(0.49818182,0,0,0.49818182,7.8184312,6.7272731)"
     id="Your_Icon">
    <path
       style="fill:#000000"
       inkscape:connector-curvature="0"
       d="M 66.667,0 H 65.068 60.14 58.333 21.907 C 15.572,0 10.416,5.155 10.416,11.491 v 77.018 c 0,6.335 5.155,11.491 11.491,11.491 h 56.185 c 6.335,0 11.491,-5.155 11.491,-11.491 V 29.167 26.461 22.319 20.834 L 66.667,0 z m 0,8.333 14.583,12.5 H 69.824 c -1.741,0 -3.157,-1.416 -3.157,-3.158 V 8.333 z M 81.25,88.509 c 0,1.741 -1.416,3.158 -3.158,3.158 H 21.907 c -1.741,0 -3.157,-1.416 -3.157,-3.158 V 11.491 c 0,-1.741 1.416,-3.158 3.157,-3.158 h 36.426 v 1.278 8.065 c 0,6.335 5.155,11.491 11.491,11.491 H 81.25 v 59.342 z"
       id="path6" />
  </g>
</svg>
