<?xml version="1.0" encoding="UTF-8" standalone="no"?>
<!-- Created with Inkscape (http://www.inkscape.org/) -->

<svg
   xmlns:dc="http://purl.org/dc/elements/1.1/"
   xmlns:cc="http://creativecommons.org/ns#"
   xmlns:rdf="http://www.w3.org/1999/02/22-rdf-syntax-ns#"
   xmlns:svg="http://www.w3.org/2000/svg"
   xmlns="http://www.w3.org/2000/svg"
   xmlns:sodipodi="http://sodipodi.sourceforge.net/DTD/sodipodi-0.dtd"
   xmlns:inkscape="http://www.inkscape.org/namespaces/inkscape"
   width="64px"
   height="64px"
   id="svg6906"
   version="1.1"
   inkscape:version="0.48.5 r10040"
   sodipodi:docname="Clear.xaml">
  <defs
     id="defs6908" />
  <sodipodi:namedview
     id="base"
     pagecolor="#ffffff"
     bordercolor="#666666"
     borderopacity="1.0"
     inkscape:pageopacity="0.0"
     inkscape:pageshadow="2"
     inkscape:zoom="5.5"
     inkscape:cx="-1"
     inkscape:cy="35.250242"
     inkscape:current-layer="svg6906"
     showgrid="true"
     inkscape:document-units="px"
     inkscape:grid-bbox="true"
     inkscape:window-width="1920"
     inkscape:window-height="1003"
     inkscape:window-x="-9"
     inkscape:window-y="-9"
     inkscape:window-maximized="1" />
  <metadata
     id="metadata6911">
    <rdf:RDF>
      <cc:Work
         rdf:about="">
        <dc:type
           rdf:resource="http://purl.org/dc/dcmitype/StillImage" />
        <dc:title></dc:title>
        <dc:format>image/svg+xml</dc:format>
      </cc:Work>
      <dc:format>image/svg+xml</dc:format>
    </rdf:RDF>
  </metadata>
  <path
     style="fill-rule:evenodd"
     d="M 37.1875 11.1875 C 36.121027 11.1875 35.035822 11.589178 34.25 12.375 L 12.46875 34.125 C 10.897106 35.696644 10.897106 38.397105 12.46875 39.96875 L 21.6875 49.1875 L 25.71875 49.1875 L 29.78125 49.1875 L 32.78125 49.1875 L 52.5625 49.1875 L 52.5625 45.28125 L 33.65625 45.3125 L 50.4375 28.53125 C 52.009145 26.959605 52.009145 24.259144 50.4375 22.6875 L 40.09375 12.375 C 39.307928 11.589178 38.253973 11.1875 37.1875 11.1875 z M 24.84375 27.40625 L 35.46875 38.03125 L 28.1875 45.40625 C 27.169254 46.438938 25.424496 46.438938 24.40625 45.40625 L 17.71875 38.625 C 17.454414 38.356915 17.252094 38.029197 17.125 37.6875 C 17.066245 37.536407 17.03163 37.377398 17 37.21875 C 16.9976 37.20557 17.0022 37.20071 17 37.1875 C 16.97062 37.02837 16.9397 36.849277 16.9375 36.6875 C 16.9375 36.68053 16.937449 36.66325 16.9375 36.65625 C 16.93633 36.488293 16.97192 36.35312 17 36.1875 C 17.0023 36.17472 16.9974 36.13774 17 36.125 C 17.02946 35.965475 17.06827 35.808549 17.125 35.65625 C 17.252105 35.315044 17.454747 35.017748 17.71875 34.75 L 20.46875 31.96875 C 20.480794 31.949695 20.487438 31.925022 20.5 31.90625 C 20.589545 31.772438 20.696738 31.648654 20.8125 31.53125 L 24.84375 27.40625 z "
     id="path5" />
</svg>
