<?xml version="1.0" encoding="UTF-8" standalone="no"?>
<!-- Created with Inkscape (http://www.inkscape.org/) -->

<svg
   xmlns:dc="http://purl.org/dc/elements/1.1/"
   xmlns:cc="http://creativecommons.org/ns#"
   xmlns:rdf="http://www.w3.org/1999/02/22-rdf-syntax-ns#"
   xmlns:svg="http://www.w3.org/2000/svg"
   xmlns="http://www.w3.org/2000/svg"
   xmlns:sodipodi="http://sodipodi.sourceforge.net/DTD/sodipodi-0.dtd"
   xmlns:inkscape="http://www.inkscape.org/namespaces/inkscape"
   width="64px"
   height="64px"
   id="svg6906"
   version="1.1"
   inkscape:version="0.48.5 r10040"
   sodipodi:docname="Clear.xaml">
  <defs
     id="defs6908" />
  <sodipodi:namedview
     id="base"
     pagecolor="#ffffff"
     bordercolor="#666666"
     borderopacity="1.0"
     inkscape:pageopacity="0.0"
     inkscape:pageshadow="2"
     inkscape:zoom="5.5"
     inkscape:cx="32"
     inkscape:cy="32"
     inkscape:current-layer="svg6906"
     showgrid="true"
     inkscape:document-units="px"
     inkscape:grid-bbox="true"
     inkscape:window-width="1920"
     inkscape:window-height="1003"
     inkscape:window-x="-9"
     inkscape:window-y="-9"
     inkscape:window-maximized="1" />
  <metadata
     id="metadata6911">
    <rdf:RDF>
      <cc:Work
         rdf:about="">
        <dc:type
           rdf:resource="http://purl.org/dc/dcmitype/StillImage" />
        <dc:title></dc:title>
      </cc:Work>
      <dc:format>image/svg+xml</dc:format>
    </rdf:RDF>
  </metadata>
  <g
     transform="matrix(0.55747873,0,0,0.55747873,4.3081225,4.3083252)"
     id="Your_Icon">
    <path
       style="fill:#000000;fill-rule:evenodd"
       inkscape:connector-curvature="0"
       d="m 50.003,61.176 20.715,21.206 c 2.078,2.145 3.429,2.166 5.546,0 l 4.156,-4.256 c 2.035,-2.084 2.174,-3.451 0,-5.678 L 58.49,50 80.421,27.551 c 2.055,-2.109 2.094,-3.533 0,-5.68 l -4.156,-4.254 c -2.156,-2.207 -3.488,-2.105 -5.546,0 L 50.003,38.824 29.289,17.617 c -2.059,-2.105 -3.391,-2.207 -5.547,0 l -4.154,4.254 c -2.096,2.146 -2.059,3.57 0,5.68 L 41.517,50 19.588,72.448 c -2.174,2.227 -2.059,3.594 0,5.678 l 4.154,4.256 c 2.098,2.166 3.449,2.145 5.547,0 L 50.003,61.176 z"
       id="path6" />
  </g>
</svg>
