<?xml version="1.0" encoding="UTF-8" standalone="no"?>
<!-- Created with Inkscape (http://www.inkscape.org/) -->

<svg
   xmlns:dc="http://purl.org/dc/elements/1.1/"
   xmlns:cc="http://creativecommons.org/ns#"
   xmlns:rdf="http://www.w3.org/1999/02/22-rdf-syntax-ns#"
   xmlns:svg="http://www.w3.org/2000/svg"
   xmlns="http://www.w3.org/2000/svg"
   xmlns:sodipodi="http://sodipodi.sourceforge.net/DTD/sodipodi-0.dtd"
   xmlns:inkscape="http://www.inkscape.org/namespaces/inkscape"
   width="64px"
   height="64px"
   id="svg6906"
   version="1.1"
   inkscape:version="0.48.5 r10040"
   sodipodi:docname="Clear.svg">
  <defs
     id="defs6908" />
  <sodipodi:namedview
     id="base"
     pagecolor="#ffffff"
     bordercolor="#666666"
     borderopacity="1.0"
     inkscape:pageopacity="0.0"
     inkscape:pageshadow="2"
     inkscape:zoom="5.5"
     inkscape:cx="32"
     inkscape:cy="32"
     inkscape:current-layer="svg6906"
     showgrid="true"
     inkscape:document-units="px"
     inkscape:grid-bbox="true"
     inkscape:window-width="1920"
     inkscape:window-height="1003"
     inkscape:window-x="-9"
     inkscape:window-y="-9"
     inkscape:window-maximized="1" />
  <metadata
     id="metadata6911">
    <rdf:RDF>
      <cc:Work
         rdf:about="">
        <dc:format>image/svg+xml</dc:format>
        <dc:type
           rdf:resource="http://purl.org/dc/dcmitype/StillImage" />
        <dc:title />
      </cc:Work>
    </rdf:RDF>
  </metadata>
  <path
     id="path6870"
     d="m 46.822327,12.236678 c -1.359031,-1.35845 -3.582157,-1.35845 -4.940024,0 l -9.882375,9.881806 -9.881794,-9.881806 c -1.358449,-1.35845 -3.582158,-1.35845 -4.940606,0 l -4.940606,4.940612 c -1.358448,1.359032 -1.358448,3.582162 0,4.940612 l 9.881212,9.881807 -9.881212,9.881805 c -1.358448,1.358451 -1.358448,3.58158 0,4.940612 l 4.940606,4.940612 c 1.358448,1.35845 3.582157,1.35845 4.940606,0 l 9.881794,-9.881806 9.881793,9.882388 c 1.357866,1.35845 3.580993,1.35845 4.940024,0 l 4.941188,-4.940612 c 1.357866,-1.359032 1.357866,-3.582161 0,-4.940611 l -9.881212,-9.881806 9.881794,-9.881807 c 1.357866,-1.35845 1.357866,-3.582162 0,-4.940612 l -4.941188,-4.941194 z"
     inkscape:connector-curvature="0" />
</svg>
