<?xml version="1.0" encoding="UTF-8" standalone="no"?>
<!-- Created with Inkscape (http://www.inkscape.org/) -->

<svg
   xmlns:dc="http://purl.org/dc/elements/1.1/"
   xmlns:cc="http://creativecommons.org/ns#"
   xmlns:rdf="http://www.w3.org/1999/02/22-rdf-syntax-ns#"
   xmlns:svg="http://www.w3.org/2000/svg"
   xmlns="http://www.w3.org/2000/svg"
   xmlns:sodipodi="http://sodipodi.sourceforge.net/DTD/sodipodi-0.dtd"
   xmlns:inkscape="http://www.inkscape.org/namespaces/inkscape"
   width="64px"
   height="64px"
   id="svg3470"
   version="1.1"
   inkscape:version="0.48.5 r10040"
   sodipodi:docname="Enter.svg">
  <defs
     id="defs3472" />
  <sodipodi:namedview
     id="base"
     pagecolor="#ffffff"
     bordercolor="#666666"
     borderopacity="1.0"
     inkscape:pageopacity="0.0"
     inkscape:pageshadow="2"
     inkscape:zoom="5.5"
     inkscape:cx="32"
     inkscape:cy="32"
     inkscape:current-layer="svg3470"
     showgrid="true"
     inkscape:document-units="px"
     inkscape:grid-bbox="true"
     inkscape:window-width="1920"
     inkscape:window-height="1003"
     inkscape:window-x="-9"
     inkscape:window-y="-9"
     inkscape:window-maximized="1" />
  <metadata
     id="metadata3475">
    <rdf:RDF>
      <cc:Work
         rdf:about="">
        <dc:format>image/svg+xml</dc:format>
        <dc:type
           rdf:resource="http://purl.org/dc/dcmitype/StillImage" />
        <dc:title />
      </cc:Work>
    </rdf:RDF>
  </metadata>
  <path
     inkscape:connector-curvature="0"
     id="path3189"
     style="fill-rule:evenodd"
     d="m 30.118354,21.59225 c 2.771821,1.273418 -0.55976,5.388823 -1.78606,9.637493 h 12.279867 c 0.136567,-0.133263 0.273697,-0.266527 0.423191,-0.388441 l 0.02361,-15.01299 c 0,-2.124827 1.959159,-3.843447 4.376354,-3.843447 h 2.187895 c 2.416633,0 4.375792,1.71862 4.375792,3.843447 0,0 0,11.698652 0,19.214278 0,3.183542 -2.938739,5.76443 -6.563687,5.76443 l -17.142917,0.03356 c 1.192017,4.57887 4.850126,7.496377 1.827086,9.573822 -2.287366,1.572034 -20.118746,-12.24898 -20.118746,-14.167987 0,-1.918516 17.645354,-15.790366 20.117626,-14.654163 z" />
</svg>
