<?xml version="1.0" encoding="UTF-8" standalone="no"?>
<!-- Created with Inkscape (http://www.inkscape.org/) -->

<svg
   xmlns:dc="http://purl.org/dc/elements/1.1/"
   xmlns:cc="http://creativecommons.org/ns#"
   xmlns:rdf="http://www.w3.org/1999/02/22-rdf-syntax-ns#"
   xmlns:svg="http://www.w3.org/2000/svg"
   xmlns="http://www.w3.org/2000/svg"
   xmlns:sodipodi="http://sodipodi.sourceforge.net/DTD/sodipodi-0.dtd"
   xmlns:inkscape="http://www.inkscape.org/namespaces/inkscape"
   width="64px"
   height="64px"
   id="svg6906"
   version="1.1"
   inkscape:version="0.48.5 r10040"
   sodipodi:docname="PositionSettings.xaml">
  <defs
     id="defs6908" />
  <sodipodi:namedview
     id="base"
     pagecolor="#ffffff"
     bordercolor="#666666"
     borderopacity="1.0"
     inkscape:pageopacity="0.0"
     inkscape:pageshadow="2"
     inkscape:zoom="5.5"
     inkscape:cx="10.187697"
     inkscape:cy="35.250242"
     inkscape:current-layer="svg6906"
     showgrid="true"
     inkscape:document-units="px"
     inkscape:grid-bbox="true"
     inkscape:window-width="1920"
     inkscape:window-height="1003"
     inkscape:window-x="-9"
     inkscape:window-y="-9"
     inkscape:window-maximized="1" />
  <metadata
     id="metadata6911">
    <rdf:RDF>
      <cc:Work
         rdf:about="">
        <dc:type
           rdf:resource="http://purl.org/dc/dcmitype/StillImage" />
        <dc:title></dc:title>
        <dc:format>image/svg+xml</dc:format>
      </cc:Work>
      <dc:format>image/svg+xml</dc:format>
    </rdf:RDF>
  </metadata>
  <g
     transform="matrix(0.49818182,0,0,0.49818182,7.8184312,6.7272731)"
     id="Captions" />
  <path
     inkscape:connector-curvature="0"
     id="rect24"
     d="m 15.835255,22.754197 33.05622,0 0,4.300653 -33.05622,0 z m 0,15.414412 4.969738,0 0,4.300652 -4.969738,0 z m 0,-7.952225 4.969738,0 0,4.30011 -4.969738,0 z m 9.194664,7.952225 4.969738,0 0,4.300652 -4.969738,0 z m 0,-7.952225 4.969738,0 0,4.30011 -4.969738,0 z m 9.280123,7.952225 4.970822,0 0,4.300652 -4.970822,0 z m 0,-7.952225 4.970822,0 0,4.30011 -4.970822,0 z m 9.610078,7.952225 4.970814,0 0,4.300652 -4.970814,0 z m 0,-7.952225 4.970814,0 0,4.30011 -4.970814,0 z M 7.7586192,14.652668 V 50.438242 H 56.96865 V 14.652668 H 7.7586192 z M 52.991458,46.462123 H 11.734194 v -27.8328 h 41.257264 v 27.8328 z" />
</svg>
