<?xml version="1.0" encoding="UTF-8" standalone="no"?>
<!-- Created with Inkscape (http://www.inkscape.org/) -->

<svg
   xmlns:dc="http://purl.org/dc/elements/1.1/"
   xmlns:cc="http://creativecommons.org/ns#"
   xmlns:rdf="http://www.w3.org/1999/02/22-rdf-syntax-ns#"
   xmlns:svg="http://www.w3.org/2000/svg"
   xmlns="http://www.w3.org/2000/svg"
   xmlns:sodipodi="http://sodipodi.sourceforge.net/DTD/sodipodi-0.dtd"
   xmlns:inkscape="http://www.inkscape.org/namespaces/inkscape"
   width="64px"
   height="64px"
   id="svg6986"
   version="1.1"
   inkscape:version="0.48.5 r10040"
   sodipodi:docname="More.svg">
  <defs
     id="defs6988" />
  <sodipodi:namedview
     id="base"
     pagecolor="#ffffff"
     bordercolor="#666666"
     borderopacity="1.0"
     inkscape:pageopacity="0.0"
     inkscape:pageshadow="2"
     inkscape:zoom="5.5"
     inkscape:cx="34.727273"
     inkscape:cy="32"
     inkscape:current-layer="svg6986"
     showgrid="true"
     inkscape:document-units="px"
     inkscape:grid-bbox="true"
     inkscape:window-width="1920"
     inkscape:window-height="1003"
     inkscape:window-x="-9"
     inkscape:window-y="-9"
     inkscape:window-maximized="1" />
  <metadata
     id="metadata6991">
    <rdf:RDF>
      <cc:Work
         rdf:about="">
        <dc:format>image/svg+xml</dc:format>
        <dc:type
           rdf:resource="http://purl.org/dc/dcmitype/StillImage" />
        <dc:title />
      </cc:Work>
    </rdf:RDF>
  </metadata>
  <path
     id="path7010"
     style="fill:#000000"
     d="m 48.457052,24.89893 c -3.664095,0 -6.639527,2.979785 -6.639527,6.657441 0,3.676103 2.975948,6.658993 6.639527,6.658993 3.665643,0 6.642108,-2.98289 6.642108,-6.658993 0,-3.677656 -2.976465,-6.657441 -6.642108,-6.657441 z m -16.404085,0 c -3.665127,0 -6.637464,2.979785 -6.637464,6.657441 0,3.676103 2.972337,6.658993 6.637464,6.658993 3.666674,0 6.640043,-2.98289 6.640043,-6.658993 0,-3.677656 -2.972853,-6.657441 -6.640043,-6.657441 z m -16.400474,0 c -3.668222,0 -6.642107,2.979785 -6.642107,6.657441 0,3.676103 2.973885,6.658993 6.642107,6.658993 3.663579,0 6.639528,-2.98289 6.639528,-6.658993 0,-3.677656 -2.975949,-6.657441 -6.639528,-6.657441 z"
     inkscape:connector-curvature="0" />
</svg>
