<?xml version="1.0" encoding="UTF-8" standalone="no"?>
<!-- Created with Inkscape (http://www.inkscape.org/) -->

<svg
   xmlns:dc="http://purl.org/dc/elements/1.1/"
   xmlns:cc="http://creativecommons.org/ns#"
   xmlns:rdf="http://www.w3.org/1999/02/22-rdf-syntax-ns#"
   xmlns:svg="http://www.w3.org/2000/svg"
   xmlns="http://www.w3.org/2000/svg"
   xmlns:sodipodi="http://sodipodi.sourceforge.net/DTD/sodipodi-0.dtd"
   xmlns:inkscape="http://www.inkscape.org/namespaces/inkscape"
   width="64px"
   height="64px"
   id="svg6840"
   version="1.1"
   inkscape:version="0.48.5 r10040"
   sodipodi:docname="MultiKeySelection.svg">
  <defs
     id="defs6842" />
  <sodipodi:namedview
     id="base"
     pagecolor="#ffffff"
     bordercolor="#666666"
     borderopacity="1.0"
     inkscape:pageopacity="0.0"
     inkscape:pageshadow="2"
     inkscape:zoom="5.5"
     inkscape:cx="32"
     inkscape:cy="32"
     inkscape:current-layer="svg6840"
     showgrid="true"
     inkscape:document-units="px"
     inkscape:grid-bbox="true"
     inkscape:window-width="1920"
     inkscape:window-height="1003"
     inkscape:window-x="-9"
     inkscape:window-y="-9"
     inkscape:window-maximized="1" />
  <metadata
     id="metadata6845">
    <rdf:RDF>
      <cc:Work
         rdf:about="">
        <dc:format>image/svg+xml</dc:format>
        <dc:type
           rdf:resource="http://purl.org/dc/dcmitype/StillImage" />
        <dc:title />
      </cc:Work>
    </rdf:RDF>
  </metadata>
  <path
     inkscape:connector-curvature="0"
     d="m 47.018178,9.8386242 c -3.554705,0 -6.436363,3.0010168 -6.436363,6.7029588 0,0.322825 0.02468,0.638946 0.06704,0.949585 -0.958568,0.566479 -2.972756,1.707655 -4.800454,2.48568 -1.809226,0.769898 -3.977326,1.404663 -5.055228,1.703669 -1.163013,-1.736435 -3.096102,-2.862722 -5.28318,-2.862722 -3.554469,0 -6.436364,3.001264 -6.436364,6.702958 0,2.139049 0.969063,4.037427 2.467273,5.264615 -0.277522,1.122226 -0.86727,3.379049 -1.595682,5.27858 -0.750366,1.955944 -1.876796,4.108073 -2.400227,5.083076 -0.186279,-0.01688 -0.372699,-0.02793 -0.563182,-0.02793 -3.554704,0 -6.436362,3.001016 -6.436362,6.702958 0,3.701941 2.881658,6.702958 6.436362,6.702958 3.554705,0 6.436363,-3.001017 6.436363,-6.702958 0,-2.295767 -1.112755,-4.32189 -2.8025,-5.529941 0.277659,-1.121743 0.882449,-3.383488 1.609091,-5.278579 0.70815,-1.846549 1.726128,-3.847902 2.279545,-4.887574 0.328141,0.05371 0.663057,0.09775 1.005683,0.09775 3.554467,0 6.436363,-3.001263 6.436363,-6.702958 0,-0.217244 -0.02082,-0.430415 -0.04023,-0.642366 0.928688,-0.550852 2.99056,-1.742245 4.867499,-2.541539 1.861643,-0.791712 4.103579,-1.443562 5.14909,-1.731597 1.176476,1.596665 3.013588,2.639289 5.095455,2.639289 3.554705,0 6.436363,-3.001016 6.436363,-6.702957 -2e-6,-3.701942 -2.881661,-6.7029588 -6.436365,-6.7029588 z"
     id="path6827" />
</svg>
