<?xml version="1.0" encoding="UTF-8" standalone="no"?>
<!-- Created with Inkscape (http://www.inkscape.org/) -->

<svg
   xmlns:dc="http://purl.org/dc/elements/1.1/"
   xmlns:cc="http://creativecommons.org/ns#"
   xmlns:rdf="http://www.w3.org/1999/02/22-rdf-syntax-ns#"
   xmlns:svg="http://www.w3.org/2000/svg"
   xmlns="http://www.w3.org/2000/svg"
   xmlns:sodipodi="http://sodipodi.sourceforge.net/DTD/sodipodi-0.dtd"
   xmlns:inkscape="http://www.inkscape.org/namespaces/inkscape"
   width="64px"
   height="64px"
   id="svg6906"
   version="1.1"
   inkscape:version="0.48.5 r10040"
   sodipodi:docname="PhysicalKeys.svg">
  <defs
     id="defs6908" />
  <sodipodi:namedview
     id="base"
     pagecolor="#ffffff"
     bordercolor="#666666"
     borderopacity="1.0"
     inkscape:pageopacity="0.0"
     inkscape:pageshadow="2"
     inkscape:zoom="5.5"
     inkscape:cx="10.187697"
     inkscape:cy="35.250242"
     inkscape:current-layer="svg6906"
     showgrid="true"
     inkscape:document-units="px"
     inkscape:grid-bbox="true"
     inkscape:window-width="1920"
     inkscape:window-height="1003"
     inkscape:window-x="-9"
     inkscape:window-y="-9"
     inkscape:window-maximized="1" />
  <metadata
     id="metadata6911">
    <rdf:RDF>
      <cc:Work
         rdf:about="">
        <dc:type
           rdf:resource="http://purl.org/dc/dcmitype/StillImage" />
        <dc:title></dc:title>
        <dc:format>image/svg+xml</dc:format>
      </cc:Work>
      <dc:format>image/svg+xml</dc:format>
    </rdf:RDF>
  </metadata>
  <g
     transform="matrix(0.49818182,0,0,0.49818182,7.8184312,6.7272731)"
     id="Captions" />
  <path
     inkscape:connector-curvature="0"
     id="path28"
     d="m 30.69067,20.574686 v 3.492098 H 30.262155 V 20.574686 H 29.194979 L 30.477,18.356392 31.75902,20.574686 H 30.69067 z M 16.197496,40.25523 h -3.492097 v 1.067177 l -2.219469,-1.282021 2.219469,-1.282021 v 1.066002 h 3.492097 v 0.430863 z m 14.27833,2.643874 -1.281434,-2.218295 h 1.066002 v -3.492098 h 0.429102 v 3.492098 h 1.06659 l -1.28026,2.218295 z M 49.67385,41.322993 v -1.066002 h -3.49151 v -0.428515 h 3.49151 V 38.7613 l 2.218882,1.283195 -2.218882,1.278498 z m 0,-1.496278 -3.49151,0 0,0.428515 3.49151,0 0,1.067763 2.219469,-1.280846 -2.219469,-1.282021 z m -18.98318,-2.638004 -0.429688,0 0,3.492098 -1.066003,0 1.280847,2.218295 1.281433,-2.218295 -1.066589,0 z m -17.985271,1.571415 -2.219469,1.282021 2.219469,1.280846 0,-1.067763 3.492097,0 0,-0.428515 -3.492097,0 z m 16.48958,-18.18544 1.066003,0 0,3.492098 0.429688,0 0,-3.492098 1.066589,0 -1.281433,-2.218294 z m 27.122016,11.61391 H 44.446564 c -1.357745,0 -2.461903,1.104158 -2.461903,2.461316 v 12.393453 c 0,1.357744 1.104745,2.461315 2.461903,2.461315 h 11.870431 c 1.357744,0 2.461902,-1.104158 2.461902,-2.461315 V 34.649912 c 0,-1.357158 -1.104744,-2.461316 -2.461902,-2.461316 z m -2.443705,1.083613 c 0.953297,0 1.728145,0.774848 1.728145,1.726384 v 9.252385 c 0,0.95271 -0.774848,1.727558 -1.728145,1.727558 h -7.157949 c -0.952124,0 -1.726971,-0.774848 -1.726971,-1.727558 v -9.252385 c 0,-0.951536 0.774847,-1.726384 1.726971,-1.726384 h 7.157949 z m -11.50414,1.377703 c 0,-1.145249 0.932166,-2.07624 2.077414,-2.07624 h 10.497424 l -1.097701,0.312874 h -7.130946 c -1.164032,0 -2.112047,0.94684 -2.112047,2.112047 v 9.176662 l -2.234731,2.382656 V 34.649912 z M 38.298265,13.40441 H 26.429007 c -1.357744,0 -2.461901,1.104159 -2.461901,2.461903 v 12.393453 c 0,1.357157 1.104157,2.462489 2.461901,2.462489 h 11.869258 c 1.357745,0 2.461902,-1.105332 2.461902,-2.462489 V 15.866313 c 5.88e-4,-1.357744 -1.103571,-2.461903 -2.461902,-2.461903 z m -2.443118,1.083614 c 0.95271,0 1.727558,0.774848 1.727558,1.726971 v 9.251797 c 0,0.952711 -0.774848,1.727558 -1.727558,1.727558 h -7.157362 c -0.95271,0 -1.726971,-0.774847 -1.726971,-1.727558 v -9.251797 c 0,-0.952711 0.774261,-1.726971 1.726971,-1.726971 h 7.157362 z m -11.503553,1.378289 c 0,-1.145248 0.932165,-2.077414 2.077413,-2.077414 h 10.496838 l -1.097113,0.314049 h -7.130947 c -1.164619,0 -2.112634,0.947427 -2.112634,2.112047 v 9.175487 l -2.234144,2.382657 V 15.866313 z M 38.298265,32.188596 H 26.429007 c -1.357744,0 -2.461901,1.104158 -2.461901,2.461316 v 12.393453 c 0,1.357744 1.104157,2.461315 2.461901,2.461315 h 11.869258 c 1.357745,0 2.461902,-1.104158 2.461902,-2.461315 V 34.649912 c 5.88e-4,-1.357158 -1.103571,-2.461316 -2.461902,-2.461316 z m -2.443118,1.083613 c 0.95271,0 1.727558,0.774848 1.727558,1.726384 v 9.252385 c 0,0.95271 -0.774848,1.727558 -1.727558,1.727558 h -7.157362 c -0.95271,0 -1.726971,-0.774848 -1.726971,-1.727558 v -9.252385 c 0,-0.951536 0.774261,-1.726384 1.726971,-1.726384 h 7.157362 z m -11.503553,1.377703 c 0,-1.145249 0.932165,-2.07624 2.077413,-2.07624 h 10.496838 l -1.097113,0.312874 h -7.130947 c -1.164619,0 -2.112634,0.94684 -2.112634,2.112047 v 9.176662 l -2.234144,2.382656 V 34.649912 z M 20.280709,32.188596 H 8.4102778 c -1.3571574,0 -2.4619024,1.104158 -2.4619024,2.461316 v 12.393453 c 0,1.357744 1.104745,2.461315 2.4619024,2.461315 H 20.280709 c 1.357744,0 2.461903,-1.104158 2.461903,-2.461315 V 34.649912 c 0,-1.357158 -1.104159,-2.461316 -2.461903,-2.461316 z m -2.443705,1.083613 c 0.95271,0 1.728145,0.774848 1.728145,1.726384 v 9.252385 c 0,0.95271 -0.775435,1.727558 -1.728145,1.727558 h -7.157362 c -0.9521232,0 -1.7269709,-0.774848 -1.7269709,-1.727558 v -9.252385 c 0,-0.951536 0.7748477,-1.726384 1.7269709,-1.726384 h 7.157362 z M 6.3328642,34.649912 c 0,-1.145249 0.9321652,-2.07624 2.0774136,-2.07624 H 18.907702 l -1.0977,0.312874 h -7.13036 c -1.1640323,0 -2.1120467,0.94684 -2.1120467,2.112047 v 9.176662 L 6.3328642,46.557911 V 34.649912 z" />
</svg>
