<?xml version="1.0" encoding="UTF-8" standalone="no"?>
<!-- Created with Inkscape (http://www.inkscape.org/) -->

<svg
   xmlns:dc="http://purl.org/dc/elements/1.1/"
   xmlns:cc="http://creativecommons.org/ns#"
   xmlns:rdf="http://www.w3.org/1999/02/22-rdf-syntax-ns#"
   xmlns:svg="http://www.w3.org/2000/svg"
   xmlns="http://www.w3.org/2000/svg"
   xmlns:sodipodi="http://sodipodi.sourceforge.net/DTD/sodipodi-0.dtd"
   xmlns:inkscape="http://www.inkscape.org/namespaces/inkscape"
   width="64px"
   height="64px"
   id="svg6906"
   version="1.1"
   inkscape:version="0.48.5 r10040"
   sodipodi:docname="PointingAndSelectingSettings.svg">
  <defs
     id="defs6908" />
  <sodipodi:namedview
     id="base"
     pagecolor="#ffffff"
     bordercolor="#666666"
     borderopacity="1.0"
     inkscape:pageopacity="0.0"
     inkscape:pageshadow="2"
     inkscape:zoom="5.5"
     inkscape:cx="10.187697"
     inkscape:cy="35.250242"
     inkscape:current-layer="svg6906"
     showgrid="true"
     inkscape:document-units="px"
     inkscape:grid-bbox="true"
     inkscape:window-width="1920"
     inkscape:window-height="1003"
     inkscape:window-x="-9"
     inkscape:window-y="-9"
     inkscape:window-maximized="1" />
  <metadata
     id="metadata6911">
    <rdf:RDF>
      <cc:Work
         rdf:about="">
        <dc:type
           rdf:resource="http://purl.org/dc/dcmitype/StillImage" />
        <dc:title></dc:title>
        <dc:format>image/svg+xml</dc:format>
      </cc:Work>
      <dc:format>image/svg+xml</dc:format>
    </rdf:RDF>
  </metadata>
  <g
     transform="matrix(0.49818182,0,0,0.49818182,7.8184312,6.7272731)"
     id="Captions" />
  <path
     inkscape:connector-curvature="0"
     id="path3"
     d="m 46.66892,24.15347 c -0.619533,0 -1.209957,0.122768 -1.752919,0.339193 -0.548025,-2.014907 -2.388906,-3.503306 -4.575309,-3.503306 -0.84735,0 -1.641543,0.225284 -2.330687,0.616369 -0.844186,-1.319436 -2.318663,-2.198427 -3.997542,-2.198427 -0.555618,0 -1.086557,0.100619 -1.582057,0.277176 v -8.187462 c 0,-2.6173548 -2.128817,-4.746171 -4.745539,-4.746171 -2.617355,0 -4.746171,2.1288162 -4.746171,4.746171 v 17.402629 4.746171 2.00858 L 20.352349,31.17464 c -0.634089,-1.097947 -1.657364,-1.883281 -2.881876,-2.211083 -1.225145,-0.3297 -2.504713,-0.159471 -3.600762,0.473985 -1.097947,0.633455 -1.88328,1.65673 -2.211715,2.881875 -0.328435,1.225145 -0.160104,2.503447 0.473984,3.601394 l 5.537199,9.590431 c 0.627761,1.08719 1.813671,2.149066 2.960346,3.176771 0.799888,0.716355 2.12945,1.907327 2.309171,2.418648 l -6.33e-4,3.105262 c 0,0.420195 0.166432,0.82267 0.463226,1.119464 0.296794,0.296794 0.69927,0.463226 1.118831,0.463226 h 22.1488 c 0.873928,0 1.582057,-0.708129 1.582057,-1.582057 v -3.160318 c 0.02152,-0.415131 0.823302,-1.575728 1.301716,-2.268669 0.957461,-1.387148 1.862398,-2.696459 1.862398,-4.063356 v -11.0744 -4.746171 c 0,-2.617356 -2.128815,-4.746172 -4.746171,-4.746172 z m 1.582057,6.328229 v 2.7686 0.395514 11.070603 c -0.02152,0.415132 -0.823303,1.575729 -1.301717,2.268671 -0.957461,1.387147 -1.862397,2.696458 -1.862397,4.063355 v 1.582057 H 26.102177 l 0,-1.582057 c 0,-1.70609 -1.633316,-3.169177 -3.362188,-4.717694 -0.91696,-0.821405 -1.956055,-1.752288 -2.331319,-2.401564 l -5.5372,-9.590429 c -0.211363,-0.365773 -0.267051,-0.792295 -0.158206,-1.200466 0.109479,-0.40817 0.370834,-0.749262 0.737238,-0.960625 0.365773,-0.211362 0.791029,-0.268316 1.200466,-0.158205 0.40817,0.109478 0.749262,0.371467 0.960625,0.737238 l 5.5372,9.590431 c 0.199339,0.344888 0.508789,0.586626 0.858108,0.705597 0.08037,0.02784 0.163901,0.04873 0.249965,0.06391 0,0 0,0 0,0 h 0 c 0.167698,0.02784 0.33856,0.02974 0.508157,0.0026 0.757488,-0.117704 1.337154,-0.772676 1.337154,-1.563072 V 33.645813 32.854785 30.481699 11.497013 c 0,-0.872662 0.710028,-1.5820568 1.582058,-1.5820568 0.872029,0 1.581424,0.7093948 1.581424,1.5820568 v 12.656457 6.328229 c 0,0.254395 0.06582,0.491703 0.17276,0.704332 0.260723,0.518915 0.790396,0.877726 1.409929,0.877726 0.873929,0 1.582058,-0.708129 1.582058,-1.582058 V 24.15347 c 0,-0.872662 0.709395,-1.582057 1.582057,-1.582057 0.872663,0 1.582057,0.709395 1.582057,1.582057 v 1.582058 4.746171 c 0,0.873929 0.708129,1.582058 1.582057,1.582058 0.741036,0 1.358038,-0.511955 1.530166,-1.199833 0.03101,-0.122768 0.05189,-0.249332 0.05189,-0.382225 v -4.746171 c 0,-0.872663 0.709394,-1.582058 1.582057,-1.582058 0.872662,0 1.582056,0.709395 1.582056,1.582058 v 3.164114 2.7686 0.395515 c 0,0.873928 0.708129,1.582056 1.582058,1.582056 0.741036,0 1.358038,-0.511954 1.530165,-1.199832 0.03101,-0.122768 0.05189,-0.249332 0.05189,-0.382224 v -3.164115 c 0,-0.872663 0.709394,-1.582057 1.582057,-1.582057 0.872663,0 1.582058,0.709394 1.582058,1.582057 v 1.582057 z" />
</svg>
