<?xml version="1.0" encoding="UTF-8" standalone="no"?>
<!-- Created with Inkscape (http://www.inkscape.org/) -->

<svg
   xmlns:dc="http://purl.org/dc/elements/1.1/"
   xmlns:cc="http://creativecommons.org/ns#"
   xmlns:rdf="http://www.w3.org/1999/02/22-rdf-syntax-ns#"
   xmlns:svg="http://www.w3.org/2000/svg"
   xmlns="http://www.w3.org/2000/svg"
   xmlns:sodipodi="http://sodipodi.sourceforge.net/DTD/sodipodi-0.dtd"
   xmlns:inkscape="http://www.inkscape.org/namespaces/inkscape"
   width="64px"
   height="64px"
   id="svg3019"
   version="1.1"
   inkscape:version="0.48.5 r10040"
   sodipodi:docname="Shift.svg">
  <defs
     id="defs3021" />
  <sodipodi:namedview
     id="base"
     pagecolor="#ffffff"
     bordercolor="#666666"
     borderopacity="1.0"
     inkscape:pageopacity="0.0"
     inkscape:pageshadow="2"
     inkscape:zoom="5.5"
     inkscape:cx="42.545455"
     inkscape:cy="32"
     inkscape:current-layer="svg3019"
     showgrid="true"
     inkscape:document-units="px"
     inkscape:grid-bbox="true"
     inkscape:snap-page="true"
     inkscape:window-width="1920"
     inkscape:window-height="1003"
     inkscape:window-x="-9"
     inkscape:window-y="-9"
     inkscape:window-maximized="1" />
  <metadata
     id="metadata3024">
    <rdf:RDF>
      <cc:Work
         rdf:about="">
        <dc:format>image/svg+xml</dc:format>
        <dc:type
           rdf:resource="http://purl.org/dc/dcmitype/StillImage" />
        <dc:title />
      </cc:Work>
    </rdf:RDF>
  </metadata>
  <path
     style="fill:#000000"
     d="M 32 10.90625 C 30.465032 10.90625 29.107477 11.644036 28.375 12.75 L 11.875 28.75 C 11.142973 29.429724 10.6875 30.38505 10.6875 31.40625 C 10.6875 33.491838 12.556389 35.15625 14.875 35.15625 L 16.9375 35.15625 C 18.440154 35.23576 19.644974 36.309316 19.75 37.65625 L 19.75 48.375 C 19.75 49.966941 21.198601 51.28125 22.96875 51.28125 L 41.03125 51.28125 C 42.8014 51.28125 44.21875 49.966941 44.21875 48.375 L 44.21875 37.75 C 44.27396 36.360685 45.496729 35.239803 47.03125 35.15625 L 49.125 35.15625 L 49.28125 35.15625 C 51.519971 35.07432 53.3125 33.439365 53.3125 31.40625 C 53.3125 30.273243 52.753344 29.254737 51.875 28.5625 L 35.65625 12.8125 C 34.934096 11.667383 33.567734 10.90625 32 10.90625 z M 32 17.15625 C 32.992998 17.15625 33.85509 17.640643 34.3125 18.34375 L 44.59375 28 C 45.150091 28.425036 45.5 29.023078 45.5 29.71875 C 45.5 30.967092 44.386749 32.0122 42.96875 32.0625 L 42.84375 32.0625 L 41.53125 32.0625 C 40.559289 32.113802 39.78497 32.803204 39.75 33.65625 L 39.75 39.8125 L 39.75 40.15625 L 39.75 45.34375 C 39.75 46.321209 38.839958 47.125 37.71875 47.125 L 26.28125 47.125 C 25.160042 47.125 24.25 46.321209 24.25 45.34375 L 24.25 40.15625 L 24.25 39.8125 L 24.25 33.59375 C 24.183476 32.766726 23.420527 32.11132 22.46875 32.0625 L 21.15625 32.0625 C 19.687647 32.0625 18.5 30.99931 18.5 29.71875 C 18.5 29.091728 18.786336 28.542354 19.25 28.125 L 29.71875 18.28125 C 30.182699 17.602183 31.027755 17.15625 32 17.15625 z "
     id="path2995" />
</svg>
