<?xml version="1.0" encoding="UTF-8" standalone="no"?>
<!-- Created with Inkscape (http://www.inkscape.org/) -->

<svg
   xmlns:dc="http://purl.org/dc/elements/1.1/"
   xmlns:cc="http://creativecommons.org/ns#"
   xmlns:rdf="http://www.w3.org/1999/02/22-rdf-syntax-ns#"
   xmlns:svg="http://www.w3.org/2000/svg"
   xmlns="http://www.w3.org/2000/svg"
   xmlns:sodipodi="http://sodipodi.sourceforge.net/DTD/sodipodi-0.dtd"
   xmlns:inkscape="http://www.inkscape.org/namespaces/inkscape"
   width="64px"
   height="64px"
   id="svg3019"
   version="1.1"
   inkscape:version="0.48.5 r10040"
   sodipodi:docname="Shift.svg">
  <defs
     id="defs3021" />
  <sodipodi:namedview
     id="base"
     pagecolor="#ffffff"
     bordercolor="#666666"
     borderopacity="1.0"
     inkscape:pageopacity="0.0"
     inkscape:pageshadow="2"
     inkscape:zoom="5.5"
     inkscape:cx="32"
     inkscape:cy="32"
     inkscape:current-layer="layer1"
     showgrid="true"
     inkscape:document-units="px"
     inkscape:grid-bbox="true"
     inkscape:snap-page="true"
     inkscape:window-width="1920"
     inkscape:window-height="1003"
     inkscape:window-x="-9"
     inkscape:window-y="-9"
     inkscape:window-maximized="1" />
  <metadata
     id="metadata3024">
    <rdf:RDF>
      <cc:Work
         rdf:about="">
        <dc:format>image/svg+xml</dc:format>
        <dc:type
           rdf:resource="http://purl.org/dc/dcmitype/StillImage" />
        <dc:title />
      </cc:Work>
    </rdf:RDF>
  </metadata>
  <g
     id="layer1"
     inkscape:label="Layer 1"
     inkscape:groupmode="layer">
    <path
       style="fill:#000000"
       inkscape:connector-curvature="0"
       d="m 16.94541,35.168443 c 1.502654,0.07951 2.707738,1.153593 2.812764,2.500527 v 10.72139 c 0,1.591941 1.434882,2.882366 3.205031,2.882366 h 18.065504 c 1.77015,0 3.205034,-1.290425 3.205034,-2.882366 V 37.763824 c 0.05521,-1.389315 1.27824,-2.511424 2.812761,-2.594977 h 2.074004 l 0.17235,-4.04e-4 c 2.238721,-0.08193 4.026823,-1.742499 4.026823,-3.775614 0,-1.133007 -0.55519,-2.149363 -1.433534,-2.8416 L 35.652283,12.825962 c -0.722154,-1.145117 -2.089262,-1.916871 -3.656996,-1.916871 -1.534968,0 -2.877391,0.74027 -3.609868,1.846234 L 11.862061,28.762733 c -0.732027,0.679724 -1.181745,1.608089 -1.181745,2.629289 0,2.085588 1.880112,3.776018 4.198723,3.776018 h 2.066371 z"
       id="path2995" />
  </g>
</svg>
