<?xml version="1.0" encoding="UTF-8" standalone="no"?>
<!-- Created with Inkscape (http://www.inkscape.org/) -->

<svg
   xmlns:dc="http://purl.org/dc/elements/1.1/"
   xmlns:cc="http://creativecommons.org/ns#"
   xmlns:rdf="http://www.w3.org/1999/02/22-rdf-syntax-ns#"
   xmlns:svg="http://www.w3.org/2000/svg"
   xmlns="http://www.w3.org/2000/svg"
   xmlns:sodipodi="http://sodipodi.sourceforge.net/DTD/sodipodi-0.dtd"
   xmlns:inkscape="http://www.inkscape.org/namespaces/inkscape"
   width="64px"
   height="64px"
   id="svg6950"
   version="1.1"
   inkscape:version="0.48.5 r10040"
   sodipodi:docname="AddPhrase.svg">
  <defs
     id="defs6952" />
  <sodipodi:namedview
     id="base"
     pagecolor="#ffffff"
     bordercolor="#666666"
     borderopacity="1.0"
     inkscape:pageopacity="0.0"
     inkscape:pageshadow="2"
     inkscape:zoom="5.5"
     inkscape:cx="32"
     inkscape:cy="33.090909"
     inkscape:current-layer="svg6950"
     showgrid="true"
     inkscape:document-units="px"
     inkscape:grid-bbox="true"
     inkscape:window-width="1920"
     inkscape:window-height="1003"
     inkscape:window-x="-9"
     inkscape:window-y="-9"
     inkscape:window-maximized="1" />
  <metadata
     id="metadata6955">
    <rdf:RDF>
      <cc:Work
         rdf:about="">
        <dc:format>image/svg+xml</dc:format>
        <dc:type
           rdf:resource="http://purl.org/dc/dcmitype/StillImage" />
        <dc:title></dc:title>
      </cc:Work>
    </rdf:RDF>
  </metadata>
  <g
     transform="matrix(0.57865497,0,0,0.57865497,2.838104,2.1673461)"
     id="g3">
    <path
       style="fill:#000000"
       inkscape:connector-curvature="0"
       d="m 3.792,59.268 c 0,8.378 7.3,18.046 16.31,18.046 H 80.69 C 89.7,77.314 97,67.646 97,59.268 97,51.75 91.082,42.663 83.345,41.475 c 0.13,-0.604 0.271,-1.223 0.2,-1.862 C 82.525,30.425 71.367,26.824 65.97,27.585 62.926,28.014 57.407,29.286 56.499,33.07 53.122,23.606 46.167,20.769 37.429,20.769 c -11.262,0 -20.388,8.478 -20.388,18.94 0,0.605 0.031,1.201 0.097,1.787 C 9.549,42.801 3.792,51.845 3.792,59.268 z m 37.46,5.929 H 28.156 c -1.763,0 -2.797,-1 -2.797,-2.398 0,-0.664 0.231,-1.332 0.667,-1.934 l 10.73,-14.993 h -8.764 c -1.334,0 -2.333,-0.769 -2.333,-2.131 0,-1.272 1.065,-2.269 2.333,-2.269 h 12.195 c 1.93,0 2.801,1.235 2.801,2.399 0,0.734 -0.302,1.566 -0.735,2.133 L 31.589,60.801 h 9.663 c 1.398,0 2.399,0.766 2.399,2.198 10e-4,1.267 -1.201,2.198 -2.399,2.198 z m 16.635,0 H 46.724 c -1.065,0 -1.969,-0.534 -1.969,-1.631 0,-0.536 0.268,-1.036 0.437,-1.303 l 7.529,-10.595 h -5.564 c -1.202,0 -2.168,-0.766 -2.168,-2.1 0,-1.332 0.966,-2.097 2.168,-2.097 h 10.895 c 0.436,0 1.567,0.198 1.567,1.498 0,0.633 -0.135,0.933 -0.499,1.433 L 51.558,61 h 6.33 c 1.198,0 2.164,0.764 2.164,2.097 -10e-4,1.335 -0.967,2.1 -2.165,2.1 z m 16.026,0 H 62.75 c -1.062,0 -1.963,-0.534 -1.963,-1.631 0,-0.536 0.265,-1.036 0.435,-1.303 L 68.75,51.668 h -5.564 c -1.201,0 -2.167,-0.766 -2.167,-2.1 0,-1.332 0.966,-2.097 2.167,-2.097 H 74.08 c 0.438,0 1.571,0.198 1.571,1.498 0,0.633 -0.139,0.933 -0.503,1.433 L 67.585,61 h 6.328 c 1.202,0 2.168,0.764 2.168,2.097 0,1.335 -0.966,2.1 -2.168,2.1 z"
       id="path5" />
  </g>
</svg>
