<?xml version="1.0" encoding="UTF-8" standalone="no"?>
<!-- Created with Inkscape (http://www.inkscape.org/) -->

<svg
   xmlns:dc="http://purl.org/dc/elements/1.1/"
   xmlns:cc="http://creativecommons.org/ns#"
   xmlns:rdf="http://www.w3.org/1999/02/22-rdf-syntax-ns#"
   xmlns:svg="http://www.w3.org/2000/svg"
   xmlns="http://www.w3.org/2000/svg"
   xmlns:sodipodi="http://sodipodi.sourceforge.net/DTD/sodipodi-0.dtd"
   xmlns:inkscape="http://www.inkscape.org/namespaces/inkscape"
   width="64px"
   height="64px"
   id="svg7033"
   version="1.1"
   inkscape:version="0.48.5 r10040"
   sodipodi:docname="SuggestionsLeft.xaml">
  <defs
     id="defs7035" />
  <sodipodi:namedview
     id="base"
     pagecolor="#ffffff"
     bordercolor="#666666"
     borderopacity="1.0"
     inkscape:pageopacity="0.0"
     inkscape:pageshadow="2"
     inkscape:zoom="5.5"
     inkscape:cx="32"
     inkscape:cy="32"
     inkscape:current-layer="svg7033"
     showgrid="true"
     inkscape:document-units="px"
     inkscape:grid-bbox="true"
     inkscape:window-width="1920"
     inkscape:window-height="1003"
     inkscape:window-x="-9"
     inkscape:window-y="-9"
     inkscape:window-maximized="1" />
  <metadata
     id="metadata7038">
    <rdf:RDF>
      <cc:Work
         rdf:about="">
        <dc:format>image/svg+xml</dc:format>
        <dc:type
           rdf:resource="http://purl.org/dc/dcmitype/StillImage" />
        <dc:title></dc:title>
      </cc:Work>
    </rdf:RDF>
  </metadata>
  <path
     d="M 31.90625 8.53125 C 31.254404 8.53125 30.59233 8.7822027 30.09375 9.28125 L 9.28125 30.09375 C 8.7812682 30.59233 8.53125 31.2516 8.53125 31.90625 C 8.53125 32.560899 8.7812682 33.22017 9.28125 33.71875 L 30.09375 54.53125 C 30.59233 55.029363 31.254872 55.28125 31.90625 55.28125 L 52.875 55.28125 C 54.196447 55.28125 55.28125 54.196447 55.28125 52.875 L 55.28125 10.9375 C 55.28125 9.6169869 54.196447 8.53125 52.875 8.53125 L 31.90625 8.53125 z M 34 15.1875 L 48.78125 15.1875 C 49.711919 15.1875 50.46875 15.960825 50.46875 16.90625 L 50.46875 46.9375 C 50.46875 47.883593 49.711919 48.625 48.78125 48.625 L 34 48.625 C 33.541247 48.625 33.06989 48.450374 32.71875 48.09375 L 18.0625 33.21875 C 17.710373 32.86179 17.53125 32.374947 17.53125 31.90625 C 17.53125 31.43755 17.710373 30.98196 18.0625 30.625 L 32.71875 15.71875 C 33.06989 15.361455 33.540918 15.1875 34 15.1875 z "
     id="path7055" />
</svg>
