<?xml version="1.0" encoding="UTF-8" standalone="no"?>
<!-- Created with Inkscape (http://www.inkscape.org/) -->

<svg
   xmlns:dc="http://purl.org/dc/elements/1.1/"
   xmlns:cc="http://creativecommons.org/ns#"
   xmlns:rdf="http://www.w3.org/1999/02/22-rdf-syntax-ns#"
   xmlns:svg="http://www.w3.org/2000/svg"
   xmlns="http://www.w3.org/2000/svg"
   xmlns:sodipodi="http://sodipodi.sourceforge.net/DTD/sodipodi-0.dtd"
   xmlns:inkscape="http://www.inkscape.org/namespaces/inkscape"
   width="64px"
   height="64px"
   id="svg4427"
   version="1.1"
   inkscape:version="0.48.5 r10040"
   sodipodi:docname="2of2.svg">
  <defs
     id="defs4429" />
  <sodipodi:namedview
     id="base"
     pagecolor="#ffffff"
     bordercolor="#666666"
     borderopacity="1.0"
     inkscape:pageopacity="0.0"
     inkscape:pageshadow="2"
     inkscape:zoom="7.7781746"
     inkscape:cx="42.903563"
     inkscape:cy="31.178346"
     inkscape:current-layer="svg4427"
     showgrid="true"
     inkscape:document-units="px"
     inkscape:grid-bbox="true"
     inkscape:window-width="942"
     inkscape:window-height="985"
     inkscape:window-x="960"
     inkscape:window-y="0"
     inkscape:window-maximized="0" />
  <metadata
     id="metadata4432">
    <rdf:RDF>
      <cc:Work
         rdf:about="">
        <dc:format>image/svg+xml</dc:format>
        <dc:type
           rdf:resource="http://purl.org/dc/dcmitype/StillImage" />
        <dc:title></dc:title>
      </cc:Work>
    </rdf:RDF>
  </metadata>
  <g
     transform="matrix(0.50907359,0,0,0.50907359,3.5387703,0.85023382)"
     id="g3" />
  <g
     style="font-size:32px;font-style:normal;font-variant:normal;font-weight:normal;font-stretch:normal;line-height:125%;letter-spacing:0px;word-spacing:0px;fill:#000000;fill-opacity:1;stroke:none;font-family:Roboto;-inkscape-font-specification:Roboto"
     id="text3061"
     transform="translate(-4.3712056,-4.2426407)" />
  <g
     style="font-size:32px;font-style:normal;font-variant:normal;font-weight:normal;font-stretch:normal;line-height:125%;letter-spacing:0px;word-spacing:0px;fill:#000000;fill-opacity:1;stroke:none;font-family:Roboto;-inkscape-font-specification:Roboto"
     id="text3069"
     transform="translate(-4.3712056,-4.2426407)" />
  <g
     style="font-size:32px;font-style:normal;font-variant:normal;font-weight:normal;font-stretch:normal;line-height:125%;letter-spacing:0px;word-spacing:0px;fill:#000000;fill-opacity:1;stroke:none;font-family:Roboto;-inkscape-font-specification:Roboto"
     id="text2986" />
  <g
     style="font-size:32px;font-style:normal;font-variant:normal;font-weight:normal;font-stretch:normal;line-height:125%;letter-spacing:0px;word-spacing:0px;fill:#000000;fill-opacity:1;stroke:none;font-family:Roboto;-inkscape-font-specification:Roboto"
     id="text2990" />
  <g
     style="font-size:32px;font-style:normal;font-variant:normal;font-weight:normal;font-stretch:normal;line-height:125%;letter-spacing:0px;word-spacing:0px;fill:#000000;fill-opacity:1;stroke:none;font-family:Roboto;-inkscape-font-specification:Roboto"
     id="text2994">
    <path
       id="path3058"
       style=""
       d="m 59.706524,53.200554 -15.875,0 0,-3.4375 7.3125,-7.6875 c 0.96874,-1.104155 1.661448,-2.049466 2.078125,-2.835938 0.416655,-0.786443 0.624988,-1.471338 0.625,-2.054687 -1.2e-5,-0.97915 -0.213553,-1.723941 -0.640625,-2.234375 -0.427094,-0.510398 -1.046885,-0.765606 -1.859375,-0.765625 -0.406259,1.9e-5 -0.77605,0.09117 -1.109375,0.273437 -0.333341,0.182311 -0.617195,0.434915 -0.851563,0.757813 -0.234381,0.322934 -0.416673,0.700538 -0.546875,1.132812 -0.130214,0.432308 -0.195318,0.903662 -0.195312,1.414063 l -5.28125,0 c -1e-6,-1.04165 0.195311,-2.026024 0.585937,-2.953125 0.390623,-0.927064 0.942706,-1.739563 1.65625,-2.4375 0.713538,-0.697895 1.567704,-1.247374 2.5625,-1.648438 0.994785,-0.401018 2.096347,-0.601539 3.304688,-0.601562 1.260406,2.3e-5 2.367176,0.14846 3.320312,0.445312 0.953112,0.296898 1.75259,0.726585 2.398438,1.289063 0.645818,0.562521 1.132797,1.252624 1.460937,2.070312 0.328109,0.817727 0.492171,1.747414 0.492188,2.789063 -1.7e-5,0.791682 -0.125017,1.549494 -0.375,2.273437 -0.250016,0.723972 -0.609391,1.445326 -1.078125,2.164063 -0.468765,0.718761 -1.041681,1.453135 -1.71875,2.203125 -0.677096,0.750009 -1.437512,1.546883 -2.28125,2.390625 l -2.9375,3.390625 8.953125,0 z m -23.255493,-13.756443 0,-9.9375 -1.839844,0 0,-2.742188 1.839844,0 0,-1.03125 c -2e-6,-0.73436 0.113279,-1.38475 0.339843,-1.951172 0.22656,-0.56639 0.550779,-1.040998 0.972657,-1.423828 0.421871,-0.382795 0.931636,-0.671857 1.529297,-0.867187 0.59765,-0.195294 1.271478,-0.292951 2.021484,-0.292969 0.33593,1.8e-5 0.656242,0.02346 0.960937,0.07031 0.30468,0.04689 0.601555,0.105486 0.890625,0.175781 l 0.01172,2.90625 c -0.132821,-0.03905 -0.275399,-0.06639 -0.427734,-0.08203 -0.152352,-0.01561 -0.333992,-0.02342 -0.544922,-0.02344 -0.578132,1.5e-5 -1.021491,0.126968 -1.330078,0.380859 -0.3086,0.253921 -0.462897,0.623062 -0.462891,1.107422 l 0,1.03125 2.472656,0 0,2.742188 -2.472656,0 0,9.9375 z M 21.579937,32.98708 c -1e-6,-0.921868 0.132812,-1.777336 0.398437,-2.566407 0.265624,-0.789052 0.656249,-1.472645 1.171875,-2.050781 0.515623,-0.578113 1.154294,-1.029285 1.916016,-1.353516 0.761714,-0.324206 1.63476,-0.486315 2.619141,-0.486328 0.999992,1.3e-5 1.880851,0.162122 2.642578,0.486328 0.761708,0.324231 1.40038,0.775403 1.916015,1.353516 0.515614,0.578136 0.906238,1.261729 1.171875,2.050781 0.265613,0.789071 0.398425,1.644539 0.398438,2.566407 l 0,0.246093 c -1.3e-5,0.929693 -0.130872,1.787114 -0.392578,2.572266 -0.261731,0.785159 -0.650403,1.464846 -1.166016,2.039062 -0.515636,0.57422 -1.154307,1.023439 -1.916015,1.347657 -0.761728,0.324218 -1.63868,0.486328 -2.63086,0.486328 -0.992193,0 -1.869145,-0.16211 -2.630859,-0.486328 -0.761722,-0.324218 -1.402347,-0.773437 -1.921875,-1.347657 -0.519533,-0.574216 -0.912111,-1.253903 -1.177735,-2.039062 -0.265625,-0.785152 -0.398438,-1.642573 -0.398437,-2.572266 z m 3.949219,0.246093 c -5e-6,0.476569 0.0332,0.921881 0.09961,1.335938 0.0664,0.414067 0.183589,0.773441 0.351563,1.078125 0.167963,0.304691 0.392572,0.544925 0.673828,0.720703 0.281244,0.175784 0.632806,0.263675 1.054687,0.263672 0.414056,3e-6 0.759758,-0.08789 1.03711,-0.263672 0.277335,-0.175778 0.498038,-0.416012 0.662109,-0.720703 0.164054,-0.304684 0.281241,-0.664058 0.351562,-1.078125 0.0703,-0.414057 0.10546,-0.859369 0.105469,-1.335938 l 0,-0.246093 c -9e-6,-0.460931 -0.03321,-0.898431 -0.09961,-1.3125 -0.06641,-0.414055 -0.183603,-0.775382 -0.351563,-1.083985 -0.167977,-0.308584 -0.392586,-0.554678 -0.673828,-0.738281 -0.281257,-0.183584 -0.632819,-0.275381 -1.054687,-0.275391 -0.414069,10e-6 -0.759772,0.09181 -1.03711,0.275391 -0.277349,0.183603 -0.498052,0.429697 -0.662109,0.738281 -0.164067,0.308603 -0.281255,0.66993 -0.351563,1.083985 -0.07032,0.414069 -0.105473,0.851569 -0.105468,1.3125 z m -9.252535,-0.217304 -5.28125,0 0,-16.8125 -5.1874997,1.515625 0,-4 9.9843747,-3.453125 0.484375,0 z" />
  </g>
</svg>
