<?xml version="1.0" encoding="UTF-8" standalone="no"?>
<!-- Created with Inkscape (http://www.inkscape.org/) -->

<svg
   xmlns:dc="http://purl.org/dc/elements/1.1/"
   xmlns:cc="http://creativecommons.org/ns#"
   xmlns:rdf="http://www.w3.org/1999/02/22-rdf-syntax-ns#"
   xmlns:svg="http://www.w3.org/2000/svg"
   xmlns="http://www.w3.org/2000/svg"
   xmlns:sodipodi="http://sodipodi.sourceforge.net/DTD/sodipodi-0.dtd"
   xmlns:inkscape="http://www.inkscape.org/namespaces/inkscape"
   width="64px"
   height="64px"
   id="svg6906"
   version="1.1"
   inkscape:version="0.48.5 r10040"
   sodipodi:docname="Currencies.xaml">
  <defs
     id="defs6908" />
  <sodipodi:namedview
     id="base"
     pagecolor="#ffffff"
     bordercolor="#666666"
     borderopacity="1.0"
     inkscape:pageopacity="0.0"
     inkscape:pageshadow="2"
     inkscape:zoom="5.5"
     inkscape:cx="10.187697"
     inkscape:cy="35.250242"
     inkscape:current-layer="svg6906"
     showgrid="true"
     inkscape:document-units="px"
     inkscape:grid-bbox="true"
     inkscape:window-width="1920"
     inkscape:window-height="1003"
     inkscape:window-x="-9"
     inkscape:window-y="-9"
     inkscape:window-maximized="1" />
  <metadata
     id="metadata6911">
    <rdf:RDF>
      <cc:Work
         rdf:about="">
        <dc:type
           rdf:resource="http://purl.org/dc/dcmitype/StillImage" />
        <dc:title></dc:title>
        <dc:format>image/svg+xml</dc:format>
      </cc:Work>
      <dc:format>image/svg+xml</dc:format>
    </rdf:RDF>
  </metadata>
  <g
     transform="matrix(0.49818182,0,0,0.49818182,7.8184312,6.7272731)"
     id="Captions" />
  <path
     inkscape:connector-curvature="0"
     id="polygon31"
     d="m 58.78416,43.959369 -0.759324,0.759325 0.379959,0.380554 0.759324,-0.761108 0.760513,0 0,-0.75873 -0.379364,0.379959 z m 2.279756,-1.520431 -0.759324,0.760513 0,0.759918 0.759324,-0.759918 z m -13.676752,-9.117241 1.519242,1.519242 0,-0.759918 -1.139283,-1.139878 0.380554,-0.379365 0.758729,0.759919 0.760514,-0.759919 0,-0.759918 -0.760514,-0.759919 0.760514,-0.759919 0.759918,0 0.759324,-0.759918 0,-1.519838 -0.759324,-0.759918 0,-0.759324 0.379365,-0.380555 0.379959,0.380555 0.760514,0 0.759918,-0.759919 0,-1.519837 -1.520432,-1.519838 1.520432,0 0.759324,-0.759324 1.899202,1.899202 0,-1.519837 1.139878,-1.139878 -0.759324,-0.759324 -5.318836,0 -0.379959,-0.37996 -3.038486,0 -0.381148,-0.379959 -2.278567,0 -0.760514,-0.759919 -3.040269,0 -0.758729,0.759919 -0.760514,0 -0.759324,0.759919 -3.039674,0 -0.379365,0.379959 -0.379365,-0.379959 -3.040269,0 -1.899797,1.899202 0.380554,0.379959 -5.94e-4,0.759919 -0.764081,0.759919 -0.759919,0 -0.379959,0.379959 0.379959,0.379959 0,0.759919 -1.519837,0 -0.37996,0.379364 0,0.759919 0.384122,0.37996 0.760513,0 1.519243,-1.519243 0.760513,0 0.379365,-0.379959 0.759324,0.759323 0.380554,-0.379364 0.759919,0.759919 0.759324,0 0.759918,0.759324 1.519838,0 0,0.759918 -0.37996,0.37996 -1.519242,0 -0.380554,-0.37996 -0.759919,0 -0.379365,0.37996 -0.379959,-0.37996 -0.759919,0 -0.759324,-0.759918 -1.520432,0 -0.379364,0.380554 -0.760514,0 -1.899202,1.899202 0,3.039674 1.519838,1.519243 1.519242,0 0.380554,-0.379365 0.759324,0 0.380554,0.379365 0,1.519837 1.138689,1.139283 0,0.759919 -0.379365,0.380554 0,1.519243 0.379365,0.379959 0,0.759919 0.380554,0.379959 0,0.759919 0.759919,0.759325 0.759324,0 1.521026,-1.519244 0,-0.759324 1.898608,-1.899797 0,-0.760513 -0.37996,-0.379365 0,-1.519837 2.279756,-2.279161 0,-0.759919 -1.519242,0 -0.760514,-0.759918 0,-0.759919 -1.139283,-1.139878 -5.95e-4,-0.759919 0.37996,-0.379364 0,0.759324 1.520432,1.519837 0,0.759919 0.379364,0.379959 0.37996,-0.379959 0.759918,0 1.519838,-1.519838 -0.760514,-0.759918 -0.759324,0 -0.759918,-0.759324 0.379959,-0.380554 0.759324,0.759918 0.760513,0 0.37996,0.37996 1.519242,0 1.140473,1.139283 0,0.760513 0.759324,0.759919 0,0.759324 0.379959,0.380554 0.379366,-0.380554 0,-1.519243 1.139878,-1.139878 0.760513,0 1.519243,1.519838 z m -20.520183,-9.118429 0,0 0.759918,0 0.759919,-0.759919 0,-0.759919 0,0 -0.759919,0 -0.759918,0.759919 z m 25.837921,3.796628 1.51888,-1.51931 0.380143,0.380035 -1.51888,1.519311 z m 4.56061,12.160474 0,-0.760513 -0.380554,-0.379959 0,-1.519838 -0.37996,-0.379365 -0.379364,0.379365 0,0.760513 -0.37996,0.379365 -1.139878,-1.139878 -0.380554,0.380554 -0.759324,0 -1.519242,1.519243 -0.760514,0 -0.759324,0.760513 -5.94e-4,1.519243 -0.379365,0.37996 0.379959,0.379365 1.519838,0 0.759918,-0.759325 0.759324,0 1.519838,1.519838 0.759918,0 1.899202,-1.899797 0,-0.759919 z m -1.900392,-4.939471 -0.379364,0.379959 -0.760514,-0.759919 0,0.759919 0.380554,0.380554 0.759324,0 0.760514,0.758729 0.759324,0 0.380554,0.380554 0,-0.759918 -1.139878,-1.139878 z m 0,9.117241 0.380554,-0.378771 -0.759918,0 z m -2.658528,-11.016444 0.759324,0 0,0.759919 -0.759324,0 z m -1.14047,0.37996 -0.759919,0 0,0.758729 -0.759324,0.760514 0.379959,0.379959 0.759324,0 0.37996,-0.379959 0,-0.760514 0.380554,-0.379364 z m -1.139284,2.659121 -0.759918,0 -2.279756,-2.279756 0,0.759918 1.899202,1.899202 1.519837,0 z m -13.676752,2.279161 0,1.520432 0.379364,0.379365 0.37996,-0.379365 0,-0.760513 0.759918,-0.759919 0,-0.759324 -0.379959,-0.380554 z m -9.498984,-20.135466 -0.379364,-0.37996 -6.07935,0 -0.759324,0.759919 0.379365,0.379959 0.760513,0 0.379365,0.37996 0,0.759919 -0.759919,0.759324 0.759919,0.760513 0.759919,0 0.760513,-0.760513 0.759324,0 0.759919,-0.759324 0.759918,0 z m -7.218038,17.096386 -0.760513,-0.759919 -0.759325,0 -1.519837,-1.519242 -0.759324,0 -0.760513,-0.759919 -1.519243,0 -0.379959,0.379365 -0.759919,0 -1.899796,-1.899202 -0.759324,0 -0.760514,-0.759919 0,-0.759918 0.760514,-0.759324 2.279161,0 3.03908,-3.039675 0.760513,0 1.519243,-1.519837 0.759918,0 0.759325,-0.759919 -0.759325,-0.759919 -0.759918,0 0,-0.759324 -0.759919,0 -1.899202,1.899202 -1.519837,-1.519837 0.759324,-0.759919 0.760513,0 0.379365,-0.379959 0.760513,0 0.759324,-0.759324 1.519837,1.519837 0.759325,-0.760513 0,-0.759324 -0.759325,-0.759919 1.519838,-1.519838 -2.279756,0 -1.519243,1.519838 -0.760513,0 -0.759919,0.759919 -0.759324,-0.759919 -2.279756,0 -0.759918,0.759919 -2.279162,0 -0.379959,-0.37996 -2.2797562,0 -0.379959,0.37996 -0.7593242,0 -1.9003918,1.899202 0.3805539,0.379959 0.759919,0 0.7599189,-0.759324 1.5192423,0 0.759919,0.759324 0,1.519838 -0.759919,0.759918 0,0.759919 -0.7599181,0.759919 0,0.759324 1.5198371,1.520432 0,0.759324 2.2791611,2.279756 0.760514,0 1.519242,1.519837 0.759919,0 0.379959,0.379959 0,0.758729 -0.379959,0.380554 0,1.519838 0.379959,0.379364 0,0.759919 1.899202,1.899797 0,3.799594 0.759919,0.759918 0,1.519243 0.760513,0.760514 0.759324,0 0,-0.760514 -0.379959,-0.379364 0,-0.761108 1.139878,-1.138689 0,-0.760513 1.519243,-1.519244 5.94e-4,-0.759324 1.519243,-1.520432 5.94e-4,-0.759324 0.759325,-0.759919 0,-0.759918 -0.759919,-0.759919 z" />
</svg>
