<?xml version="1.0" encoding="UTF-8" standalone="no"?>
<!-- Created with Inkscape (http://www.inkscape.org/) -->

<svg
   xmlns:dc="http://purl.org/dc/elements/1.1/"
   xmlns:cc="http://creativecommons.org/ns#"
   xmlns:rdf="http://www.w3.org/1999/02/22-rdf-syntax-ns#"
   xmlns:svg="http://www.w3.org/2000/svg"
   xmlns="http://www.w3.org/2000/svg"
   xmlns:sodipodi="http://sodipodi.sourceforge.net/DTD/sodipodi-0.dtd"
   xmlns:inkscape="http://www.inkscape.org/namespaces/inkscape"
   width="64px"
   height="64px"
   id="svg6906"
   version="1.1"
   inkscape:version="0.91 r13725"
   sodipodi:docname="AccentedLetters.svg">
  <defs
     id="defs6908" />
  <sodipodi:namedview
     id="base"
     pagecolor="#ffffff"
     bordercolor="#666666"
     borderopacity="1.0"
     inkscape:pageopacity="0.0"
     inkscape:pageshadow="2"
     inkscape:zoom="5.5"
     inkscape:cx="29.446205"
     inkscape:cy="33.548578"
     inkscape:current-layer="svg6906"
     showgrid="true"
     inkscape:document-units="px"
     inkscape:grid-bbox="true"
     inkscape:window-width="747"
     inkscape:window-height="580"
     inkscape:window-x="16"
     inkscape:window-y="418"
     inkscape:window-maximized="0" />
  <metadata
     id="metadata6911">
    <rdf:RDF>
      <cc:Work
         rdf:about="">
        <dc:type
           rdf:resource="http://purl.org/dc/dcmitype/StillImage" />
        <dc:title />
        <dc:format>image/svg+xml</dc:format>
      </cc:Work>
      <dc:format>image/svg+xml</dc:format>
    </rdf:RDF>
  </metadata>
  <g
     style="font-style:normal;font-weight:normal;font-size:27.3004818px;line-height:125%;font-family:sans-serif;letter-spacing:0px;word-spacing:0px;fill:#000000;fill-opacity:1;stroke:none;stroke-width:1px;stroke-linecap:butt;stroke-linejoin:miter;stroke-opacity:1"
     id="text3368">
    <path
       id="path3379"
       style="font-style:normal;font-variant:normal;font-weight:normal;font-stretch:normal;font-family:Roboto;-inkscape-font-specification:Roboto"
       d="m 18.866653,34.32965 q -3.279257,0 -5.145501,-1.986217 -1.852913,-1.986217 -1.852913,-5.025528 l 0,-0.506552 q 0,-3.305918 1.746271,-5.385447 1.759601,-2.079529 5.078849,-2.066198 2.919339,0 4.518976,1.746271 1.612968,1.746271 1.612968,4.785582 l 0,2.359466 -8.264794,0 -0.02666,0.07998 q 0.106643,1.133076 0.83981,1.839583 0.733167,0.693176 2.10619,0.693176 1.29304,0 2.14618,-0.213285 0.86647,-0.213285 1.972886,-0.679846 l 1.079756,2.746045 q -0.933122,0.679846 -2.506099,1.146407 -1.572977,0.466561 -3.305918,0.466561 z M 18.693359,22.825589 q -1.079755,0 -1.599638,0.693177 -0.506551,0.679846 -0.586533,1.852913 l 0.02666,0.06665 3.892452,0 0,-0.346588 q 0,-1.119747 -0.39991,-1.69295 -0.386579,-0.573204 -1.333031,-0.573204 z m 0.213285,-9.38454 4.945546,0 0.02666,0.07998 -3.745818,3.465881 -3.972433,0 2.746044,-3.545863 z m 23.5829,23.312533 -4.505646,0 0,-14.823308 q 0,-3.012651 1.786262,-4.625619 1.786262,-1.626298 5.025528,-1.626298 2.532759,0 4.225709,1.346361 1.70628,1.333032 1.70628,3.719158 0,1.359692 -0.639855,2.57275 -0.626525,1.199728 -0.626525,2.212832 0,0.573204 1.839584,2.452778 1.839583,1.879574 1.839583,3.745818 0,2.666063 -1.599638,3.985764 -1.599637,1.319701 -4.758922,1.319701 -1.066425,0 -2.066198,-0.173294 -0.986443,-0.159964 -1.506326,-0.466561 l 0.786489,-3.412561 q 0.479891,0.253276 1.186398,0.42657 0.719837,0.159964 1.626298,0.159964 0.813149,0 1.333031,-0.4399 0.519883,-0.439901 0.519883,-1.226389 0,-0.86647 -1.852914,-2.586081 -1.839583,-1.732941 -1.839583,-3.585854 0,-1.27971 0.626525,-2.53276 0.626524,-1.266379 0.626524,-2.266153 0,-0.706507 -0.573203,-1.253049 -0.573204,-0.546543 -1.293041,-0.546543 -0.826479,0 -1.346361,0.786488 -0.519882,0.786489 -0.519882,2.092859 l 0,14.743327 z m -13.714592,-0.995169 0.173294,2.026208 q 0.706506,-1.079756 1.746271,-1.67962 1.039764,-0.613194 2.319474,-0.613194 2.11952,0 3.305918,1.439674 1.199728,1.439674 1.199728,4.572297 l 0,8.678034 -4.505646,0 0,-8.691364 q 0,-1.373022 -0.4399,-1.946226 -0.4399,-0.586534 -1.27971,-0.586534 -0.719837,0 -1.293041,0.253276 -0.573203,0.253276 -0.959782,0.719837 l 0,10.251011 -4.492316,0 0,-14.423399 4.22571,0 z m 7.424984,-6.091953 q 0,1.27971 -0.799819,2.199502 -0.799819,0.906461 -1.999547,0.906461 -0.933122,0 -2.199501,-0.559873 -1.25305,-0.559873 -1.946226,-0.559873 -0.439901,0 -0.733167,0.4399 -0.293267,0.42657 -0.293267,1.026434 l -2.372796,-0.666516 q 0,-1.253049 0.786488,-2.172841 0.799819,-0.933122 1.999547,-0.933122 0.746498,0 2.09286,0.559874 1.359692,0.546542 2.052868,0.546542 0.41324,0 0.719837,-0.42657 0.319927,-0.42657 0.319927,-1.039764 l 2.372796,0.679846 z" />
  </g>
</svg>
