<?xml version="1.0" encoding="UTF-8" standalone="no"?>
<!-- Created with Inkscape (http://www.inkscape.org/) -->

<svg
   xmlns:dc="http://purl.org/dc/elements/1.1/"
   xmlns:cc="http://creativecommons.org/ns#"
   xmlns:rdf="http://www.w3.org/1999/02/22-rdf-syntax-ns#"
   xmlns:svg="http://www.w3.org/2000/svg"
   xmlns="http://www.w3.org/2000/svg"
   xmlns:sodipodi="http://sodipodi.sourceforge.net/DTD/sodipodi-0.dtd"
   xmlns:inkscape="http://www.inkscape.org/namespaces/inkscape"
   width="64px"
   height="64px"
   id="svg4427"
   version="1.1"
   inkscape:version="0.48.5 r10040"
   sodipodi:docname="ArrangeWindowsHorizontally.svg">
  <defs
     id="defs4429" />
  <sodipodi:namedview
     id="base"
     pagecolor="#ffffff"
     bordercolor="#666666"
     borderopacity="1.0"
     inkscape:pageopacity="0.0"
     inkscape:pageshadow="2"
     inkscape:zoom="11"
     inkscape:cx="28.785395"
     inkscape:cy="31.152154"
     inkscape:current-layer="svg4427"
     showgrid="true"
     inkscape:document-units="px"
     inkscape:grid-bbox="true"
     inkscape:window-width="942"
     inkscape:window-height="985"
     inkscape:window-x="960"
     inkscape:window-y="0"
     inkscape:window-maximized="0"
     showguides="true"
     inkscape:guide-bbox="true" />
  <metadata
     id="metadata4432">
    <rdf:RDF>
      <cc:Work
         rdf:about="">
        <dc:format>image/svg+xml</dc:format>
        <dc:type
           rdf:resource="http://purl.org/dc/dcmitype/StillImage" />
        <dc:title></dc:title>
      </cc:Work>
    </rdf:RDF>
  </metadata>
  <g
     transform="matrix(0.50907359,0,0,0.50907359,7.9099759,5.0928745)"
     id="g3" />
  <path
     id="path3097-4"
     d="m 12.055398,10.90483 39.34375,0 c 2.459816,0 2.46875,0.01969 2.46875,2.15625 l 0,12.8125 c 0,2.136561 -0.0089,2.125 -2.46875,2.125 l -39.34375,0 c -2.4598152,0 -2.4687502,0.01156 -2.4687502,-2.125 l 0,-12.8125 c 0,-2.136048 0.0089,-2.155737 2.4687502,-2.15625 z m -1.625,-2 c -2.6618502,6.39e-4 -2.6562502,-0.005 -2.6562502,2.65625 l 0,15.96875 c 0,2.661849 -0.0056,2.65625 2.6562502,2.65625 l 42.59375,0 c 2.661849,0 2.65625,0.0056 2.65625,-2.65625 l 0,-15.96875 c 0,-2.661849 0.0056,-2.65625 -2.65625,-2.65625 l -42.59375,0 z m 1.811079,26.399147 39.34375,0 c 2.459816,0 2.46875,0.01969 2.46875,2.15625 l 0,12.8125 c 0,2.136561 -0.0089,2.125 -2.46875,2.125 l -39.34375,0 c -2.4598151,0 -2.4687497,0.01156 -2.4687497,-2.125 l 0,-12.8125 c 0,-2.136048 0.00893,-2.155737 2.4687497,-2.15625 z m -1.625,-2 c -2.6618492,6.39e-4 -2.6562497,-0.005 -2.6562497,2.65625 l 0,15.96875 c 0,2.661849 -0.0056,2.65625 2.6562497,2.65625 l 42.59375,0 c 2.661849,0 2.65625,0.0056 2.65625,-2.65625 l 0,-15.96875 c 0,-2.661849 0.0056,-2.65625 -2.65625,-2.65625 l -42.59375,0 z"
     inkscape:connector-curvature="0" />
</svg>
