<?xml version="1.0" encoding="UTF-8" standalone="no"?>
<!-- Created with Inkscape (http://www.inkscape.org/) -->

<svg
   xmlns:dc="http://purl.org/dc/elements/1.1/"
   xmlns:cc="http://creativecommons.org/ns#"
   xmlns:rdf="http://www.w3.org/1999/02/22-rdf-syntax-ns#"
   xmlns:svg="http://www.w3.org/2000/svg"
   xmlns="http://www.w3.org/2000/svg"
   xmlns:sodipodi="http://sodipodi.sourceforge.net/DTD/sodipodi-0.dtd"
   xmlns:inkscape="http://www.inkscape.org/namespaces/inkscape"
   width="64px"
   height="64px"
   id="svg4427"
   version="1.1"
   inkscape:version="0.48.5 r10040"
   sodipodi:docname="ArrangeWindowsHorizontally.svg">
  <defs
     id="defs4429" />
  <sodipodi:namedview
     id="base"
     pagecolor="#ffffff"
     bordercolor="#666666"
     borderopacity="1.0"
     inkscape:pageopacity="0.0"
     inkscape:pageshadow="2"
     inkscape:zoom="11"
     inkscape:cx="25.838674"
     inkscape:cy="31.152154"
     inkscape:current-layer="svg4427"
     showgrid="true"
     inkscape:document-units="px"
     inkscape:grid-bbox="true"
     inkscape:window-width="1920"
     inkscape:window-height="1003"
     inkscape:window-x="-9"
     inkscape:window-y="-9"
     inkscape:window-maximized="1"
     showguides="true"
     inkscape:guide-bbox="true" />
  <metadata
     id="metadata4432">
    <rdf:RDF>
      <cc:Work
         rdf:about="">
        <dc:format>image/svg+xml</dc:format>
        <dc:type
           rdf:resource="http://purl.org/dc/dcmitype/StillImage" />
        <dc:title />
      </cc:Work>
    </rdf:RDF>
  </metadata>
  <g
     transform="matrix(0.50907359,0,0,0.50907359,7.9099759,5.0928745)"
     id="g3" />
  <path
     id="path4"
     d="M 10.34375,34.03125 C 7.6819005,34.031889 7.6875,34.02629 7.6875,36.6875 l 0,15.96875 c 0,2.661849 -0.0056,2.65625 2.65625,2.65625 l 42.59375,0 c 2.661849,0 2.65625,0.0056 2.65625,-2.65625 l 0,-15.96875 c 0,-2.661849 0.0056,-2.65625 -2.65625,-2.65625 l -42.59375,0 z m 1.625,2 39.34375,0 c 2.459816,0 2.46875,0.01969 2.46875,2.15625 l 0,12.8125 c 0,2.136561 -0.0089,2.125 -2.46875,2.125 l -39.34375,0 C 9.5089346,53.125 9.5,53.136561 9.5,51 l 0,-12.8125 c 0,-2.136048 0.00893,-2.155737 2.46875,-2.15625 z m 6.34375,-28.625 c -2.661849,0 -2.65625,-0.0056 -2.65625,2.65625 l 0,15.96875 c 0,2.66185 -0.0056,2.65625 2.65625,2.65625 l 26.625,0 c 2.661849,0 2.65625,0.0056 2.65625,-2.65625 l 0,-15.96875 c 0,-2.6618496 0.0056,-2.65625 -2.65625,-2.65625 l -26.625,0 z m 1.71875,2 23.1875,0 c 2.31839,0 2.3125,-0.011563 2.3125,2.125 l 0,12.84375 c 0,2.136562 0.0059,2.125 -2.3125,2.125 l -23.1875,0 c -2.318392,0 -2.3125,0.01156 -2.3125,-2.125 l 0,-12.84375 c 0,-2.1365629 -0.0059,-2.125 2.3125,-2.125 z" />
</svg>
