<?xml version="1.0" encoding="UTF-8" standalone="no"?>
<!-- Created with Inkscape (http://www.inkscape.org/) -->

<svg
   xmlns:dc="http://purl.org/dc/elements/1.1/"
   xmlns:cc="http://creativecommons.org/ns#"
   xmlns:rdf="http://www.w3.org/1999/02/22-rdf-syntax-ns#"
   xmlns:svg="http://www.w3.org/2000/svg"
   xmlns="http://www.w3.org/2000/svg"
   xmlns:sodipodi="http://sodipodi.sourceforge.net/DTD/sodipodi-0.dtd"
   xmlns:inkscape="http://www.inkscape.org/namespaces/inkscape"
   width="64px"
   height="64px"
   id="svg4427"
   version="1.1"
   inkscape:version="0.48.5 r10040"
   sodipodi:docname="ArrowPointingToTop.xaml">
  <defs
     id="defs4429" />
  <sodipodi:namedview
     id="base"
     pagecolor="#ffffff"
     bordercolor="#666666"
     borderopacity="1.0"
     inkscape:pageopacity="0.0"
     inkscape:pageshadow="2"
     inkscape:zoom="11"
     inkscape:cx="28.609516"
     inkscape:cy="31.152154"
     inkscape:current-layer="svg4427"
     showgrid="true"
     inkscape:document-units="px"
     inkscape:grid-bbox="true"
     inkscape:window-width="1920"
     inkscape:window-height="1003"
     inkscape:window-x="-9"
     inkscape:window-y="-9"
     inkscape:window-maximized="1" />
  <metadata
     id="metadata4432">
    <rdf:RDF>
      <cc:Work
         rdf:about="">
        <dc:format>image/svg+xml</dc:format>
        <dc:type
           rdf:resource="http://purl.org/dc/dcmitype/StillImage" />
        <dc:title></dc:title>
      </cc:Work>
    </rdf:RDF>
  </metadata>
  <g
     transform="matrix(0.50907359,0,0,0.50907359,7.9099759,5.0928745)"
     id="g3" />
  <path
     d="m 15.877772,48.011495 c 1.585149,1.585147 4.157377,1.585914 5.743295,1e-6 l 18.913824,-18.913825 -7.44e-4,8.470213 c -7.42e-4,2.242951 1.817947,4.061656 4.060892,4.060891 2.242186,0.0016 4.060896,-1.817177 4.060894,-4.060891 l 7.71e-4,-18.270573 c 7.65e-4,-0.268784 -0.0268,-0.536805 -0.0804,-0.800232 -0.02298,-0.117932 -0.06586,-0.225138 -0.09956,-0.338476 -0.04058,-0.14014 -0.07352,-0.283334 -0.130167,-0.419641 -0.0559,-0.132479 -0.131708,-0.254236 -0.199866,-0.379059 -0.05744,-0.106429 -0.105683,-0.217475 -0.17306,-0.318559 -0.297121,-0.444149 -0.680003,-0.827033 -1.125685,-1.125684 -0.101088,-0.0674 -0.211356,-0.114864 -0.317795,-0.172309 -0.126345,-0.06815 -0.246579,-0.143964 -0.380591,-0.201397 -0.134778,-0.05513 -0.278742,-0.08729 -0.418876,-0.129415 -0.113338,-0.03369 -0.220545,-0.07658 -0.338473,-0.09954 -0.263423,-0.0536 -0.52915,-0.0804 -0.799466,-0.07965 l -18.270575,7.64e-4 c -1.121089,10e-7 -2.13727,0.454103 -2.871647,1.18848 -0.734376,0.734373 -1.19001,1.750556 -1.188481,2.871647 -0.0016,2.242182 1.81718,4.060891 4.06166,4.061659 l 8.469443,-0.0016 -18.913053,18.913057 c -1.58746,1.585904 -1.588982,4.157383 -0.0023,5.744066 z"
     id="path19"
     inkscape:connector-curvature="0" />
</svg>
