<?xml version="1.0" encoding="UTF-8" standalone="no"?>
<!-- Created with Inkscape (http://www.inkscape.org/) -->

<svg
   xmlns:dc="http://purl.org/dc/elements/1.1/"
   xmlns:cc="http://creativecommons.org/ns#"
   xmlns:rdf="http://www.w3.org/1999/02/22-rdf-syntax-ns#"
   xmlns:svg="http://www.w3.org/2000/svg"
   xmlns="http://www.w3.org/2000/svg"
   xmlns:sodipodi="http://sodipodi.sourceforge.net/DTD/sodipodi-0.dtd"
   xmlns:inkscape="http://www.inkscape.org/namespaces/inkscape"
   width="64px"
   height="64px"
   id="svg4427"
   version="1.1"
   inkscape:version="0.48.5 r10040"
   sodipodi:docname="ArrowPointingToTopRightBoundary.xaml">
  <defs
     id="defs4429" />
  <sodipodi:namedview
     id="base"
     pagecolor="#ffffff"
     bordercolor="#666666"
     borderopacity="1.0"
     inkscape:pageopacity="0.0"
     inkscape:pageshadow="2"
     inkscape:zoom="11"
     inkscape:cx="28.609516"
     inkscape:cy="31.152154"
     inkscape:current-layer="svg4427"
     showgrid="true"
     inkscape:document-units="px"
     inkscape:grid-bbox="true"
     inkscape:window-width="1920"
     inkscape:window-height="1003"
     inkscape:window-x="-9"
     inkscape:window-y="-9"
     inkscape:window-maximized="1" />
  <metadata
     id="metadata4432">
    <rdf:RDF>
      <cc:Work
         rdf:about="">
        <dc:format>image/svg+xml</dc:format>
        <dc:type
           rdf:resource="http://purl.org/dc/dcmitype/StillImage" />
        <dc:title></dc:title>
      </cc:Work>
    </rdf:RDF>
  </metadata>
  <g
     transform="matrix(0.50907359,0,0,0.50907359,7.9099759,5.0928745)"
     id="g3" />
  <path
     id="path19"
     d="m 28.273908,12.449876 23.082246,23.082247 c 1.275064,1.275063 3.341696,1.274758 4.616451,2e-6 1.274756,-1.274756 1.275062,-3.341387 -2e-6,-4.616452 L 32.890358,7.8334273 c -1.274756,-1.2747551 -3.341693,-1.2747558 -4.61645,0 -1.274755,1.2747552 -1.274755,3.3416937 0,4.6164487 z M 8.0205661,55.512925 c 1.585149,1.585148 4.1573769,1.585914 5.7432949,0 l 18.913824,-18.913823 -7.43e-4,8.470212 c -7.42e-4,2.24295 1.817946,4.061657 4.060892,4.060891 2.242186,0.0016 4.060895,-1.817178 4.060894,-4.060891 L 40.7995,26.798741 c 7.63e-4,-0.268784 -0.0268,-0.536807 -0.0804,-0.800232 -0.02298,-0.117931 -0.06586,-0.225139 -0.09956,-0.338475 -0.04058,-0.14014 -0.07352,-0.283335 -0.130167,-0.419641 -0.0559,-0.13248 -0.131709,-0.254237 -0.199866,-0.37906 -0.05744,-0.106431 -0.105681,-0.217475 -0.173059,-0.318558 -0.297121,-0.444149 -0.680004,-0.827034 -1.125687,-1.125687 -0.101087,-0.0674 -0.211354,-0.114861 -0.317794,-0.172306 -0.126344,-0.06815 -0.246578,-0.143963 -0.380589,-0.201399 -0.134778,-0.05513 -0.278743,-0.08729 -0.418877,-0.129413 -0.113339,-0.03369 -0.220544,-0.07658 -0.338473,-0.09954 -0.263424,-0.0536 -0.52915,-0.0804 -0.799465,-0.07965 l -18.270577,7.64e-4 c -1.121089,10e-7 -2.137268,0.454103 -2.871647,1.18848 -0.734375,0.734374 -1.190009,1.750556 -1.188479,2.871647 -0.0016,2.242184 1.817178,4.060892 4.061658,4.06166 l 8.469444,-0.0016 -18.9130559,18.913058 c -1.587459,1.585904 -1.58898,4.157382 -0.0023,5.744063 z"
     inkscape:connector-curvature="0" />
</svg>
