<?xml version="1.0" encoding="UTF-8" standalone="no"?>
<!-- Created with Inkscape (http://www.inkscape.org/) -->

<svg
   xmlns:dc="http://purl.org/dc/elements/1.1/"
   xmlns:cc="http://creativecommons.org/ns#"
   xmlns:rdf="http://www.w3.org/1999/02/22-rdf-syntax-ns#"
   xmlns:svg="http://www.w3.org/2000/svg"
   xmlns="http://www.w3.org/2000/svg"
   xmlns:sodipodi="http://sodipodi.sourceforge.net/DTD/sodipodi-0.dtd"
   xmlns:inkscape="http://www.inkscape.org/namespaces/inkscape"
   width="64px"
   height="64px"
   id="svg4427"
   version="1.1"
   inkscape:version="0.48.5 r10040"
   sodipodi:docname="ArrowPointingToTopRight.xaml">
  <defs
     id="defs4429" />
  <sodipodi:namedview
     id="base"
     pagecolor="#ffffff"
     bordercolor="#666666"
     borderopacity="1.0"
     inkscape:pageopacity="0.0"
     inkscape:pageshadow="2"
     inkscape:zoom="11"
     inkscape:cx="28.609516"
     inkscape:cy="31.152154"
     inkscape:current-layer="svg4427"
     showgrid="true"
     inkscape:document-units="px"
     inkscape:grid-bbox="true"
     inkscape:window-width="1920"
     inkscape:window-height="1003"
     inkscape:window-x="-9"
     inkscape:window-y="-9"
     inkscape:window-maximized="1" />
  <metadata
     id="metadata4432">
    <rdf:RDF>
      <cc:Work
         rdf:about="">
        <dc:format>image/svg+xml</dc:format>
        <dc:type
           rdf:resource="http://purl.org/dc/dcmitype/StillImage" />
        <dc:title></dc:title>
      </cc:Work>
    </rdf:RDF>
  </metadata>
  <g
     transform="matrix(0.50907359,0,0,0.50907359,7.9099759,5.0928745)"
     id="g3" />
  <path
     d="m 9.3355933,32.216698 c 1.4e-6,2.241738 1.8182987,4.06112 4.0611217,4.061124 l 26.748188,-10e-7 -5.989872,5.988819 c -1.58653,1.585481 -1.586541,4.157507 10e-7,5.742968 1.584334,1.586596 4.156425,1.586549 5.742969,2e-6 L 52.817793,35.090909 c 0.1906,-0.189518 0.360628,-0.398529 0.508998,-0.622701 0.06714,-0.09964 0.112626,-0.205766 0.168939,-0.309738 0.0704,-0.127788 0.148361,-0.252334 0.204689,-0.388773 0.05415,-0.133204 0.08664,-0.272904 0.126708,-0.409362 0.03464,-0.115873 0.07905,-0.228507 0.102884,-0.347627 0.103964,-0.524157 0.103966,-1.065635 -10e-7,-1.591958 -0.02382,-0.119139 -0.06823,-0.230673 -0.102874,-0.346556 -0.04115,-0.137529 -0.07256,-0.276156 -0.126709,-0.411528 -0.05632,-0.134285 -0.135377,-0.258823 -0.20468,-0.3877 -0.05632,-0.103964 -0.101799,-0.210099 -0.168951,-0.309722 -0.148368,-0.224169 -0.317315,-0.431017 -0.508987,-0.621629 L 39.898021,16.424908 c -0.79273,-0.792729 -1.832377,-1.190179 -2.870943,-1.190179 -1.038563,-2e-6 -2.079294,0.396366 -2.870944,1.190178 -1.586594,1.584331 -1.586543,4.156424 10e-7,5.744054 l 5.989931,5.987669 -26.747098,3e-6 c -2.243908,-0.0011 -4.0632941,1.816134 -4.0632948,4.060042 z"
     id="path19"
     inkscape:connector-curvature="0" />
</svg>
