<?xml version="1.0" encoding="UTF-8" standalone="no"?>
<!-- Created with Inkscape (http://www.inkscape.org/) -->

<svg
   xmlns:dc="http://purl.org/dc/elements/1.1/"
   xmlns:cc="http://creativecommons.org/ns#"
   xmlns:rdf="http://www.w3.org/1999/02/22-rdf-syntax-ns#"
   xmlns:svg="http://www.w3.org/2000/svg"
   xmlns="http://www.w3.org/2000/svg"
   xmlns:sodipodi="http://sodipodi.sourceforge.net/DTD/sodipodi-0.dtd"
   xmlns:inkscape="http://www.inkscape.org/namespaces/inkscape"
   width="64px"
   height="64px"
   id="svg4427"
   version="1.1"
   inkscape:version="0.48.5 r10040"
   sodipodi:docname="ArrowPointingToTopLeftBoundary.svg">
  <defs
     id="defs4429" />
  <sodipodi:namedview
     id="base"
     pagecolor="#ffffff"
     bordercolor="#666666"
     borderopacity="1.0"
     inkscape:pageopacity="0.0"
     inkscape:pageshadow="2"
     inkscape:zoom="11"
     inkscape:cx="28.609516"
     inkscape:cy="31.152154"
     inkscape:current-layer="svg4427"
     showgrid="true"
     inkscape:document-units="px"
     inkscape:grid-bbox="true"
     inkscape:window-width="1920"
     inkscape:window-height="1003"
     inkscape:window-x="-9"
     inkscape:window-y="-9"
     inkscape:window-maximized="1" />
  <metadata
     id="metadata4432">
    <rdf:RDF>
      <cc:Work
         rdf:about="">
        <dc:format>image/svg+xml</dc:format>
        <dc:type
           rdf:resource="http://purl.org/dc/dcmitype/StillImage" />
        <dc:title></dc:title>
      </cc:Work>
    </rdf:RDF>
  </metadata>
  <g
     transform="matrix(0.50907359,0,0,0.50907359,7.9099759,5.0928745)"
     id="g3" />
  <path
     id="path19"
     d="m 15.881636,13.117744 32.643226,10e-7 c 1.803212,-10e-7 3.264326,-1.461546 3.264325,-3.264323 0,-1.802777 -1.461112,-3.264322 -3.264326,-3.264323 l -32.643225,0 c -1.802776,0 -3.264322,1.461545 -3.264323,3.264323 0,1.802776 1.461547,3.264322 3.264323,3.264322 z m 16.128898,44.77145 c 2.241739,-1e-6 4.06112,-1.818299 4.061123,-4.061123 l 0,-26.748186 5.98882,5.98987 c 1.58548,1.586529 4.157507,1.586543 5.742968,-10e-7 1.586596,-1.584333 1.586547,-4.156425 10e-7,-5.742969 l -12.9187,-12.919792 c -0.189519,-0.190599 -0.39853,-0.360629 -0.622701,-0.508998 -0.09964,-0.06714 -0.205767,-0.112627 -0.309737,-0.168938 -0.127789,-0.0704 -0.252335,-0.148362 -0.388773,-0.20469 -0.133205,-0.05415 -0.272905,-0.08664 -0.409363,-0.126709 -0.115875,-0.03464 -0.228505,-0.07905 -0.347625,-0.102883 -0.524157,-0.103965 -1.065637,-0.103966 -1.591962,0 -0.119139,0.02382 -0.230669,0.06823 -0.346553,0.102875 -0.137528,0.04115 -0.276154,0.07256 -0.411528,0.126707 -0.134284,0.05632 -0.258824,0.135377 -0.387699,0.204682 -0.103966,0.05632 -0.210099,0.101798 -0.309722,0.168951 -0.22417,0.148368 -0.431017,0.317314 -0.621628,0.508986 L 16.218746,27.326765 c -0.792729,0.79273 -1.190178,1.832376 -1.190179,2.870943 -1e-6,1.038563 0.396367,2.079294 1.19018,2.870943 1.584332,1.586595 4.156423,1.586545 5.744053,10e-7 l 5.98767,-5.989932 1e-6,26.747102 c -0.0011,2.243906 1.816134,4.063291 4.06004,4.063292 z"
     inkscape:connector-curvature="0" />
</svg>
