<?xml version="1.0" encoding="UTF-8" standalone="no"?>
<!-- Created with Inkscape (http://www.inkscape.org/) -->

<svg
   xmlns:dc="http://purl.org/dc/elements/1.1/"
   xmlns:cc="http://creativecommons.org/ns#"
   xmlns:rdf="http://www.w3.org/1999/02/22-rdf-syntax-ns#"
   xmlns:svg="http://www.w3.org/2000/svg"
   xmlns="http://www.w3.org/2000/svg"
   xmlns:sodipodi="http://sodipodi.sourceforge.net/DTD/sodipodi-0.dtd"
   xmlns:inkscape="http://www.inkscape.org/namespaces/inkscape"
   width="64px"
   height="64px"
   id="svg4427"
   version="1.1"
   inkscape:version="0.48.5 r10040"
   sodipodi:docname="ArrowPointingToTopRightBoundary.svg">
  <defs
     id="defs4429" />
  <sodipodi:namedview
     id="base"
     pagecolor="#ffffff"
     bordercolor="#666666"
     borderopacity="1.0"
     inkscape:pageopacity="0.0"
     inkscape:pageshadow="2"
     inkscape:zoom="11"
     inkscape:cx="28.609516"
     inkscape:cy="31.152154"
     inkscape:current-layer="svg4427"
     showgrid="true"
     inkscape:document-units="px"
     inkscape:grid-bbox="true"
     inkscape:window-width="1920"
     inkscape:window-height="1003"
     inkscape:window-x="-9"
     inkscape:window-y="-9"
     inkscape:window-maximized="1" />
  <metadata
     id="metadata4432">
    <rdf:RDF>
      <cc:Work
         rdf:about="">
        <dc:format>image/svg+xml</dc:format>
        <dc:type
           rdf:resource="http://purl.org/dc/dcmitype/StillImage" />
        <dc:title></dc:title>
      </cc:Work>
    </rdf:RDF>
  </metadata>
  <g
     transform="matrix(0.50907359,0,0,0.50907359,7.9099759,5.0928745)"
     id="g3" />
  <path
     id="path19"
     d="m 51.096385,15.382589 -10e-7,32.643226 c 10e-7,1.803212 1.461546,3.264326 3.264322,3.264326 1.802778,0 3.264323,-1.461113 3.264324,-3.264326 l 0,-32.643225 c -1e-6,-1.802776 -1.461545,-3.264322 -3.264323,-3.264323 -1.802776,0 -3.264322,1.461546 -3.264322,3.264322 z M 6.3249355,31.511488 c 7e-7,2.241738 1.8182986,4.06112 4.0611225,4.061123 l 26.748186,0 -5.98987,5.988819 c -1.58653,1.585481 -1.586543,4.157507 1e-6,5.742968 1.584333,1.586596 4.156425,1.586548 5.742969,2e-6 L 49.807136,34.3857 c 0.190599,-0.189519 0.360629,-0.39853 0.508998,-0.622701 0.06714,-0.09964 0.112627,-0.205767 0.168939,-0.309737 0.0704,-0.127789 0.148361,-0.252335 0.204689,-0.388773 0.05415,-0.133205 0.08664,-0.272905 0.126709,-0.409363 0.03464,-0.115874 0.07905,-0.228506 0.102883,-0.347625 0.103965,-0.524158 0.103966,-1.065637 0,-1.591962 -0.02382,-0.119139 -0.06823,-0.230669 -0.102875,-0.346553 -0.04115,-0.137528 -0.07256,-0.276155 -0.126707,-0.411528 -0.05632,-0.134285 -0.135378,-0.258824 -0.204682,-0.3877 C 50.42877,29.465793 50.383292,29.35966 50.316139,29.260036 50.167771,29.035867 49.998825,28.82902 49.807153,28.638408 L 36.887364,15.7197 c -0.79273,-0.792729 -1.832376,-1.190178 -2.870943,-1.190179 -1.038563,-1e-6 -2.079294,0.396366 -2.870943,1.190179 -1.586595,1.584332 -1.586545,4.156423 -1e-6,5.744054 l 5.989932,5.987669 -26.747101,2e-6 c -2.2439069,-0.0011 -4.0632919,1.816134 -4.0632926,4.06004 z"
     inkscape:connector-curvature="0" />
</svg>
