<?xml version="1.0" encoding="UTF-8" standalone="no"?>
<!-- Created with Inkscape (http://www.inkscape.org/) -->

<svg
   xmlns:dc="http://purl.org/dc/elements/1.1/"
   xmlns:cc="http://creativecommons.org/ns#"
   xmlns:rdf="http://www.w3.org/1999/02/22-rdf-syntax-ns#"
   xmlns:svg="http://www.w3.org/2000/svg"
   xmlns="http://www.w3.org/2000/svg"
   xmlns:sodipodi="http://sodipodi.sourceforge.net/DTD/sodipodi-0.dtd"
   xmlns:inkscape="http://www.inkscape.org/namespaces/inkscape"
   width="64px"
   height="64px"
   id="svg4427"
   version="1.1"
   inkscape:version="0.48.5 r10040"
   sodipodi:docname="ArrowPointingToLeftBoundary.xaml">
  <defs
     id="defs4429" />
  <sodipodi:namedview
     id="base"
     pagecolor="#ffffff"
     bordercolor="#666666"
     borderopacity="1.0"
     inkscape:pageopacity="0.0"
     inkscape:pageshadow="2"
     inkscape:zoom="11"
     inkscape:cx="28.609516"
     inkscape:cy="31.152154"
     inkscape:current-layer="svg4427"
     showgrid="true"
     inkscape:document-units="px"
     inkscape:grid-bbox="true"
     inkscape:window-width="1920"
     inkscape:window-height="1003"
     inkscape:window-x="-9"
     inkscape:window-y="-9"
     inkscape:window-maximized="1" />
  <metadata
     id="metadata4432">
    <rdf:RDF>
      <cc:Work
         rdf:about="">
        <dc:format>image/svg+xml</dc:format>
        <dc:type
           rdf:resource="http://purl.org/dc/dcmitype/StillImage" />
        <dc:title></dc:title>
      </cc:Work>
    </rdf:RDF>
  </metadata>
  <g
     transform="matrix(0.50907359,0,0,0.50907359,7.9099759,5.0928745)"
     id="g3" />
  <path
     d="m 47.466517,48.011744 c 1.585147,-1.585148 1.585914,-4.157377 0,-5.743294 l -18.913824,-18.913824 8.470213,7.44e-4 c 2.24295,7.41e-4 4.061656,-1.817947 4.060891,-4.060893 0.0016,-2.242185 -1.817178,-4.060895 -4.060891,-4.060893 l -18.270573,-7.72e-4 c -0.268784,-7.64e-4 -0.536806,0.0268 -0.800232,0.0804 -0.117931,0.02298 -0.225138,0.06586 -0.338476,0.09956 -0.14014,0.04058 -0.283334,0.07352 -0.419641,0.130167 -0.132479,0.0559 -0.254236,0.131709 -0.379059,0.199867 -0.106429,0.05744 -0.217475,0.105682 -0.318559,0.173059 -0.444149,0.297121 -0.827033,0.680003 -1.125685,1.125686 -0.0674,0.101087 -0.114864,0.211355 -0.172308,0.317794 -0.06815,0.126345 -0.143964,0.24658 -0.201398,0.380591 -0.05513,0.134778 -0.08729,0.278742 -0.129414,0.418876 -0.03369,0.113339 -0.07658,0.220545 -0.09954,0.338474 -0.0536,0.263422 -0.0804,0.52915 -0.07965,0.799465 l 7.64e-4,18.270575 c 0,1.121089 0.454102,2.13727 1.188479,2.871647 0.734374,0.734377 1.750557,1.190011 2.871648,1.188481 2.242182,0.0016 4.060891,-1.817179 4.061659,-4.061659 l -0.0016,-8.469443 18.913057,18.913053 c 1.585904,1.58746 4.157382,1.588981 5.744066,0.0023 z"
     id="path19"
     inkscape:connector-curvature="0" />
</svg>
