<?xml version="1.0" encoding="UTF-8" standalone="no"?>
<!-- Created with Inkscape (http://www.inkscape.org/) -->

<svg
   xmlns:dc="http://purl.org/dc/elements/1.1/"
   xmlns:cc="http://creativecommons.org/ns#"
   xmlns:rdf="http://www.w3.org/1999/02/22-rdf-syntax-ns#"
   xmlns:svg="http://www.w3.org/2000/svg"
   xmlns="http://www.w3.org/2000/svg"
   xmlns:sodipodi="http://sodipodi.sourceforge.net/DTD/sodipodi-0.dtd"
   xmlns:inkscape="http://www.inkscape.org/namespaces/inkscape"
   width="64px"
   height="64px"
   id="svg6906"
   version="1.1"
   inkscape:version="0.48.5 r10040"
   sodipodi:docname="CollapseDock.svg">
  <defs
     id="defs6908">
    <clipPath
       id="SVGID_2_">
      <rect
         height="88.038002"
         width="90"
         y="6.4619999"
         x="4.5"
         id="use3343" />
    </clipPath>
  </defs>
  <sodipodi:namedview
     id="base"
     pagecolor="#ffffff"
     bordercolor="#666666"
     borderopacity="1.0"
     inkscape:pageopacity="0.0"
     inkscape:pageshadow="2"
     inkscape:zoom="5.6568543"
     inkscape:cx="-2.4327728"
     inkscape:cy="63.953819"
     inkscape:current-layer="svg6906"
     showgrid="true"
     inkscape:document-units="px"
     inkscape:grid-bbox="true"
     inkscape:window-width="942"
     inkscape:window-height="985"
     inkscape:window-x="960"
     inkscape:window-y="0"
     inkscape:window-maximized="0"
     showguides="true"
     inkscape:snap-global="false">
    <inkscape:grid
       type="xygrid"
       id="grid3220" />
  </sodipodi:namedview>
  <metadata
     id="metadata6911">
    <rdf:RDF>
      <cc:Work
         rdf:about="">
        <dc:type
           rdf:resource="http://purl.org/dc/dcmitype/StillImage" />
        <dc:title></dc:title>
        <dc:format>image/svg+xml</dc:format>
      </cc:Work>
      <dc:format>image/svg+xml</dc:format>
    </rdf:RDF>
  </metadata>
  <path
     inkscape:connector-curvature="0"
     id="rect16-2-7-1-1-5-2-8"
     style="fill:#000000;fill-opacity:1;stroke-width:0.2;stroke-linejoin:round"
     d="m 45.54113,39.007179 c 2.401283,-2.401283 3.556694,-5.576688 3.466186,-8.72289 l 4.151989,4.15199 -3e-5,-4.57091 -6.094504,-6.094536 -6.094578,6.094537 4.2e-5,4.570915 4.258757,-4.258757 c 0.122718,2.215108 -0.662046,4.471107 -2.354226,6.163288 l -0.812149,0.711474 2.682552,2.682549 0.795961,-0.727659 z m -15.381916,12.02267 0,-5.84807 -6.467411,0 0,5.84807 6.467411,0 z m -17.246452,-5.84808 6.467412,0 0,5.84811 -6.467412,0 z m -8.6231786,-2.92411 4.311603,0 0,8.77219 -4.311603,0 z m 8e-6,-14.620273 4.311597,0 0,8.77219 -4.311597,0 z m 56.1210946,8.779607 -4.3116,0 0,-8.77219 4.3116,0 z m -4.31162,14.620266 4.31158,0 3e-5,-8.77219 -4.31161,0 0,8.77219 z m -4.311621,0 -6.467414,0 0,-5.84812 6.467414,0 z m -17.246451,-5.84824 0,5.84816 6.467471,8e-5 0,-5.84816 -6.467471,-8e-5 z m 25.779092,-23.341295 -56.0285036,-1.9e-5 0,-8.878127 56.0285036,1.8e-5 0,8.878128 z" />
</svg>
