<?xml version="1.0" encoding="UTF-8" standalone="no"?>
<!-- Created with Inkscape (http://www.inkscape.org/) -->

<svg
   xmlns:dc="http://purl.org/dc/elements/1.1/"
   xmlns:cc="http://creativecommons.org/ns#"
   xmlns:rdf="http://www.w3.org/1999/02/22-rdf-syntax-ns#"
   xmlns:svg="http://www.w3.org/2000/svg"
   xmlns="http://www.w3.org/2000/svg"
   xmlns:sodipodi="http://sodipodi.sourceforge.net/DTD/sodipodi-0.dtd"
   xmlns:inkscape="http://www.inkscape.org/namespaces/inkscape"
   width="64px"
   height="64px"
   id="svg6906"
   version="1.1"
   inkscape:version="0.48.5 r10040"
   sodipodi:docname="Currencies.xaml">
  <defs
     id="defs6908" />
  <sodipodi:namedview
     id="base"
     pagecolor="#ffffff"
     bordercolor="#666666"
     borderopacity="1.0"
     inkscape:pageopacity="0.0"
     inkscape:pageshadow="2"
     inkscape:zoom="5.5"
     inkscape:cx="10.187697"
     inkscape:cy="35.250242"
     inkscape:current-layer="svg6906"
     showgrid="true"
     inkscape:document-units="px"
     inkscape:grid-bbox="true"
     inkscape:window-width="1920"
     inkscape:window-height="1003"
     inkscape:window-x="-9"
     inkscape:window-y="-9"
     inkscape:window-maximized="1" />
  <metadata
     id="metadata6911">
    <rdf:RDF>
      <cc:Work
         rdf:about="">
        <dc:type
           rdf:resource="http://purl.org/dc/dcmitype/StillImage" />
        <dc:title></dc:title>
        <dc:format>image/svg+xml</dc:format>
      </cc:Work>
      <dc:format>image/svg+xml</dc:format>
    </rdf:RDF>
  </metadata>
  <g
     transform="matrix(0.49818182,0,0,0.49818182,7.8184312,6.7272731)"
     id="Captions" />
  <path
     inkscape:connector-curvature="0"
     id="path3"
     d="m 57.799738,26.136097 c 0,-2.994526 -3.45518,-5.340434 -7.866453,-5.340434 -1.817363,0 -3.47145,0.399494 -4.789445,1.077288 v -2.887919 h -0.02525 v -3.041096 c -4e-6,-2.994526 -3.455182,-5.340434 -7.866455,-5.340434 -3.859724,0 -6.987226,1.796042 -7.709347,4.250801 H 7.2911703 v 19.988755 h 4.1301677 v 4.130729 h 4.130728 v 4.130168 h 14.137731 c 0.797868,1.920603 3.103377,3.368771 6.036744,3.745822 V 48.4197 c 0,2.994527 3.455179,5.340435 7.866452,5.340435 4.411273,0 7.866451,-2.345908 7.866451,-5.340435 v -1.569923 c 3.65605,-0.46963 6.340294,-2.604009 6.340294,-5.243366 v -5.035203 h -0.0045 c 0.0011,-0.04039 0.0045,-0.0808 0.0045,-0.121756 V 31.41425 h -0.0045 c 0.0011,-0.0404 0.0045,-0.0808 0.0045,-0.121756 v -5.035202 h -0.0045 c 0.0011,-0.03984 0.0045,-0.08024 0.0045,-0.121195 z m -14.206745,9.491362 c 2.938978,0 4.814694,1.355588 4.814694,2.288677 0,0.93309 -1.875716,2.288677 -4.814694,2.288677 -2.938978,0 -4.814695,-1.355587 -4.814695,-2.288677 0,-0.933089 1.875155,-2.288677 4.814695,-2.288677 z m -4.814695,6.539479 c 1.321923,0.685649 2.985548,1.089632 4.814695,1.089632 1.829146,0 3.492211,-0.403983 4.814694,-1.089632 v 1.027913 c 0,0.933088 -1.875716,2.288677 -4.814694,2.288677 -2.938978,0 -4.814695,-1.355589 -4.814695,-2.288677 v -1.027913 z m -1.526159,-28.51168 c 2.938978,0 4.814695,1.355589 4.814695,2.288678 0,0.933089 -1.875717,2.288677 -4.814695,2.288677 -2.938978,0 -4.814695,-1.355588 -4.814695,-2.288677 0,-0.933089 1.875717,-2.288678 4.814695,-2.288678 z m -4.814695,6.539479 c 1.321923,0.68565 2.985548,1.089633 4.814695,1.089633 1.829146,0 3.49221,-0.403983 4.814695,-1.089633 V 20.9797 c 0,0.933088 -1.875717,2.288677 -4.814695,2.288677 -2.938978,0 -4.814695,-1.355589 -4.814695,-2.288677 v -0.784963 z m 0,5.035203 c 1.321923,0.685649 2.985548,1.089632 4.814695,1.089632 1.829146,0 3.49221,-0.403983 4.814695,-1.089632 v 0.906157 c 0,0.933089 -1.875717,2.288677 -4.814695,2.288677 -2.938978,0 -4.814695,-1.355588 -4.814695,-2.288677 V 25.22994 z m 0,5.156959 c 1.321923,0.685649 2.985548,1.089632 4.814695,1.089632 1.829146,0 3.49221,-0.403983 4.814695,-1.089632 v 0.906156 c 0,0.933089 -1.875717,2.288678 -4.814695,2.288678 -2.938978,0 -4.814695,-1.355589 -4.814695,-2.288678 v -0.906156 z m 0,5.156958 c 1.006031,0.521812 2.209564,0.879785 3.532609,1.021741 -0.159349,0.430354 -0.244073,0.882591 -0.244073,1.351099 0,0.185159 0.01347,0.368074 0.03928,0.548183 h -0.03928 v 0.144761 c -2.046287,-0.36078 -3.288536,-1.399915 -3.288536,-2.159066 V 35.543857 z M 10.342927,31.791863 V 17.906621 h 19.043322 v 1.078972 H 11.421338 v 12.80627 h -1.078411 z m 4.130168,4.130167 V 22.036789 h 14.912593 v 1.078972 H 15.552066 V 35.92203 h -1.078971 z m 4.130729,-9.754513 H 29.38681 c 0.0011,0.13354 0.01066,0.264834 0.02525,0.395568 h -0.02637 v 4.72997 c 0,0.144199 0.01066,0.286155 0.02637,0.426988 h -0.02637 v 4.729971 c 0,0.1442 0.01066,0.286154 0.02637,0.426988 h -0.02637 v 3.175756 H 18.603824 V 26.167517 z m 13.83362,15.439455 v -0.906157 c 0.94375,0.489269 2.061437,0.834338 3.288536,0.992004 v 1.502032 c 0,0.167204 0.01235,0.332164 0.03366,0.494879 h -0.03366 v 0.07631 c -2.046287,-0.36078 -3.288536,-1.399353 -3.288536,-2.159066 z m 11.155549,9.101967 c -2.938978,0 -4.814695,-1.355588 -4.814695,-2.288677 v -0.97461 c 1.321923,0.68565 2.985548,1.089633 4.814695,1.089633 1.829146,0 3.492211,-0.403983 4.814694,-1.089633 v 0.97461 c -5.6e-4,0.933089 -1.875716,2.288677 -4.814694,2.288677 z m 11.154988,-9.101967 c 0,0.759713 -1.242249,1.798286 -3.288537,2.159066 v -0.38154 h -0.0067 c 0.0033,-0.0634 0.0067,-0.126245 0.0067,-0.190208 v -1.502033 c 1.227099,-0.158226 2.345348,-0.502734 3.288537,-0.992003 v 0.906718 z m 0,-5.156958 c 0,0.759712 -1.242249,1.798286 -3.288537,2.159066 v -0.449432 h -0.009 c 0.0051,-0.0808 0.009,-0.161593 0.009,-0.242951 0,-0.468508 -0.08472,-0.920745 -0.244073,-1.351099 1.323606,-0.141956 2.52714,-0.499929 3.53261,-1.021741 v 0.906157 z m 0,-5.156959 c 0,0.933089 -1.875718,2.288678 -4.814696,2.288678 -2.938977,0 -4.814695,-1.355589 -4.814695,-2.288678 v -0.906156 c 1.321923,0.685649 2.985549,1.089632 4.814695,1.089632 1.829147,0 3.492211,-0.403983 4.814696,-1.089632 v 0.906156 z m -4.814696,-2.86772 c -2.938977,0 -4.814695,-1.355588 -4.814695,-2.288677 0,-0.933089 1.875718,-2.288678 4.814695,-2.288678 2.938978,0 4.814696,1.355589 4.814696,2.288678 0,0.933089 -1.875718,2.288677 -4.814696,2.288677 z" />
</svg>
