<?xml version="1.0" encoding="UTF-8" standalone="no"?>
<!-- Created with Inkscape (http://www.inkscape.org/) -->

<svg
   xmlns:dc="http://purl.org/dc/elements/1.1/"
   xmlns:cc="http://creativecommons.org/ns#"
   xmlns:rdf="http://www.w3.org/1999/02/22-rdf-syntax-ns#"
   xmlns:svg="http://www.w3.org/2000/svg"
   xmlns="http://www.w3.org/2000/svg"
   xmlns:sodipodi="http://sodipodi.sourceforge.net/DTD/sodipodi-0.dtd"
   xmlns:inkscape="http://www.inkscape.org/namespaces/inkscape"
   width="64px"
   height="64px"
   id="svg4427"
   version="1.1"
   inkscape:version="0.48.5 r10040"
   sodipodi:docname="DecreaseOpacity.svg">
  <defs
     id="defs4429" />
  <sodipodi:namedview
     id="base"
     pagecolor="#ffffff"
     bordercolor="#666666"
     borderopacity="1.0"
     inkscape:pageopacity="0.0"
     inkscape:pageshadow="2"
     inkscape:zoom="11"
     inkscape:cx="24.499255"
     inkscape:cy="31.152154"
     inkscape:current-layer="svg4427"
     showgrid="true"
     inkscape:document-units="px"
     inkscape:grid-bbox="true"
     inkscape:window-width="942"
     inkscape:window-height="985"
     inkscape:window-x="960"
     inkscape:window-y="0"
     inkscape:window-maximized="0" />
  <metadata
     id="metadata4432">
    <rdf:RDF>
      <cc:Work
         rdf:about="">
        <dc:format>image/svg+xml</dc:format>
        <dc:type
           rdf:resource="http://purl.org/dc/dcmitype/StillImage" />
        <dc:title></dc:title>
      </cc:Work>
    </rdf:RDF>
  </metadata>
  <g
     transform="matrix(0.50907359,0,0,0.50907359,7.9099759,5.0928745)"
     id="g3" />
  <path
     id="path19-7"
     d="m 15.767676,33.428281 h 14.282827 c 0.788984,0 1.428284,-0.63949 1.428284,-1.428282 0,-0.788793 -0.6393,-1.428283 -1.428284,-1.428283 H 15.767676 c -0.788792,0 -1.428283,0.63949 -1.428283,1.428283 0,0.788792 0.639491,1.428282 1.428283,1.428282 z M 27.59375,51.25 27.125,53.125 c 0.163601,0.04222 0.304189,0.05585 0.46875,0.09375 L 27.625,53.25 c 0.0082,0.0019 0.02213,-0.0018 0.03125,0 0.0034,0.0014 0.02787,-4e-4 0.03125,0 l 0.03125,0 c 0.0034,9.72e-4 0.02835,-5e-4 0.03125,0 0.0034,9.71e-4 -0.0028,0.03025 0,0.03125 0.0028,9.71e-4 0.02835,-5e-4 0.03125,0 0.0028,9.71e-4 0.02745,-10e-4 0.03125,0 0.0024,4.8e-4 0.02885,-4.28e-4 0.03125,0 0.0024,4.8e-4 0.02885,-4.92e-4 0.03125,0 0.0024,4.8e-4 0.02935,-4.29e-4 0.03125,0 0.0019,4.79e-4 -0.0018,0.03076 0,0.03125 0.0034,4.8e-4 0.02785,-9.29e-4 0.03125,0 0.0014,4.8e-4 0.02945,-4.29e-4 0.03125,0 0.0019,4.79e-4 0.02885,-4.92e-4 0.03125,0 0.0034,9.72e-4 0.02789,-5e-4 0.03125,0 0.0038,9.72e-4 -0.0038,0.03025 0,0.03125 0.0034,4.8e-4 0.02885,-4.28e-4 0.03125,0 0.0038,9.72e-4 0.02746,-10e-4 0.03125,0 l 0.03125,0 c 0.0082,0.0014 0.02309,-0.002 0.03125,0 0.0082,0.0014 0.02261,-0.0015 0.03125,0 0.0058,9.72e-4 -0.0057,0.03035 0,0.03125 0.0082,0.0014 0.02309,-0.0014 0.03125,0 0.0077,0.0019 0.02309,-0.0014 0.03125,0 0.243242,0.04846 0.472628,0.08518 0.71875,0.125 0.02255,0.0038 0.07216,-0.0029 0.09375,0 0.0086,0.0014 -0.0082,0.03035 0,0.03125 0.01391,0.0024 0.04907,-0.0024 0.0625,0 4.8e-4,0 0.03082,0 0.03125,0 0.0048,4.8e-4 0.02694,-5e-4 0.03125,0 0.0048,9.71e-4 0.02646,-5e-4 0.03125,0 0.0048,0 0.02791,-9.2e-4 0.03125,0 0.0034,0 0.02788,-4.28e-4 0.03125,0 0.0014,4.8e-4 -0.0015,0.03077 0,0.03125 0.0019,4.8e-4 0.02985,-4.92e-4 0.03125,0 0.0028,4.8e-4 0.02785,0 0.03125,0 0.0024,4.8e-4 0.02935,-4.29e-4 0.03125,0 0.0024,0 0.02875,-4.93e-4 0.03125,0 0.0028,4.79e-4 0.02845,-4.29e-4 0.03125,0 0.0014,4.79e-4 0.03025,0 0.03125,0 0.0034,4.8e-4 0.02835,-4.28e-4 0.03125,0 0.0038,4.79e-4 -0.0034,0.03082 0,0.03125 0.0038,4.79e-4 0.02793,-4.28e-4 0.03125,0 0.0038,9.71e-4 0.02743,-5e-4 0.03125,0 0.0082,0.0014 0.0231,-0.0014 0.03125,0 0.26819,0.03262 0.535673,0.06784 0.8125,0.09375 l 0.1875,-1.90625 c -1.012311,-0.09307 -2.014556,-0.28129 -3,-0.53125 z m -5.625,-2.40625 -1,1.625 c 0.399647,0.250438 0.80423,0.495179 1.21875,0.71875 0.0082,0.0043 0.02357,-0.0039 0.03125,0 0.01152,0.0062 0.02022,0.02453 0.03125,0.03125 0.0034,0.0014 0.02789,0.02925 0.03125,0.03125 l 0.03125,0 c 0.0043,0.0019 0.02791,0.02935 0.03125,0.03125 0.0034,0.0019 0.02787,-0.0019 0.03125,0 0.0038,0.0019 -0.0034,0.02925 0,0.03125 0.0077,0.0038 0.02405,-0.0028 0.03125,0 0.0038,0.0019 0.02789,-0.0024 0.03125,0 0.0038,0.0019 -0.0029,0.02975 0,0.03125 0.0034,0.0019 0.02838,-0.002 0.03125,0 0.0067,0.0038 0.02453,0.02791 0.03125,0.03125 0.0043,0.0024 0.02791,-0.002 0.03125,0 0.0043,0.0014 0.02791,-0.0018 0.03125,0 0.0034,0.0019 -0.0034,0.02925 0,0.03125 0.0038,0.0019 0.02789,-0.0018 0.03125,0 0.0043,0.0014 0.02789,0.02945 0.03125,0.03125 0.0072,0.0034 0.02405,-0.0038 0.03125,0 0.0034,0.0014 0.02741,-0.0018 0.03125,0 l 0,0.03125 c 0.0048,0.0019 0.02793,-0.002 0.03125,0 0.0034,0.0019 0.02787,-0.002 0.03125,0 0.0038,0.0019 -0.0039,0.02985 0,0.03125 0.0034,0.0019 0.02787,-0.0014 0.03125,0 0.0038,0.0024 0.02837,0.02985 0.03125,0.03125 0.0034,0.0019 0.02838,-0.0018 0.03125,0 0.0034,0.0024 0.02838,0.02985 0.03125,0.03125 0.0077,0.0034 0.02405,-0.0029 0.03125,0 0.0034,0.0019 0.02788,-0.0018 0.03125,0 9.72e-4,0 -5e-4,0.03076 0,0.03125 0.0067,0.0038 0.02453,-0.0029 0.03125,0 0.0038,0.0014 0.02789,0.02885 0.03125,0.03125 0.0077,0.0034 0.02405,-0.0034 0.03125,0 0.0077,0.0034 0.02357,0.02739 0.03125,0.03125 0.0038,0.0019 0.02791,-0.002 0.03125,0 0.0072,0.0038 0.02357,-0.0034 0.03125,0 0.0043,0.0019 -0.0043,0.02985 0,0.03125 0.0043,0.0019 0.02743,-0.0014 0.03125,0 0.0038,0.0019 0.02791,0.02925 0.03125,0.03125 0.0082,0.0034 0.02357,-0.0029 0.03125,0 0.01199,0.0052 0.01974,0.0255 0.03125,0.03125 0.012,0.0058 0.05098,-0.0053 0.0625,0 0.205821,0.09211 0.415821,0.191054 0.625,0.28125 l 0.75,-1.75 c -0.935067,-0.401086 -1.855647,-0.895841 -2.71875,-1.4375 z m -4.59375,-4 -1.46875,1.25 c 0.723491,0.857826 1.499358,1.641434 2.34375,2.375 l 1.28125,-1.4375 C 18.761702,46.362933 18.031804,45.620495 17.375,44.84375 z M 14.21875,39.65625 12.4375,40.375 c 0.0038,0.0077 0.02787,0.02405 0.03125,0.03125 0.0019,0.0034 -0.0015,0.02788 0,0.03125 0.0034,0.0072 -0.0029,0.02309 0,0.03125 0.0038,0.0086 0.02885,0.02357 0.03125,0.03125 0.0034,0.0082 -0.0039,0.0231 0,0.03125 0.0038,0.0082 0.02837,0.02261 0.03125,0.03125 0.408763,0.974889 0.866031,1.921091 1.40625,2.8125 l 1.65625,-1 c -0.527265,-0.869819 -0.990226,-1.778405 -1.375,-2.71875 z M 12.8125,33.71875 10.90625,33.875 c 0.0048,0.05613 -0.0048,0.09868 0,0.15625 4.8e-4,0.0014 -4.92e-4,0.02985 0,0.03125 0.01679,0.198624 0.03947,0.394647 0.0625,0.59375 9.71e-4,0.01775 -0.0024,0.04523 0,0.0625 0,0 0.03077,-4.92e-4 0.03125,0 4.79e-4,0.0028 0,0.02785 0,0.03125 0,0.0024 -4.92e-4,0.02885 0,0.03125 9.72e-4,0.0014 -4.28e-4,0.02975 0,0.03125 0,9.72e-4 0,0.03025 0,0.03125 4.8e-4,0.0029 0,0.02835 0,0.03125 0,0.0019 -4.92e-4,0.02925 0,0.03125 -4.79e-4,0.0014 0,0.02975 0,0.03125 0,0.0019 0,0.02925 0,0.03125 4.8e-4,0.0014 0.03076,-0.0014 0.03125,0 -4.8e-4,0.0014 -4.93e-4,0.02985 0,0.03125 0,0.0014 0,0.02985 0,0.03125 0,0.0014 0,0.02985 0,0.03125 0,9.71e-4 0,0.03025 0,0.03125 -4.79e-4,0.0019 0,0.02945 0,0.03125 0,0.0019 -4.92e-4,0.02885 0,0.03125 0,0.0024 0,0.02885 0,0.03125 0,9.72e-4 0.03077,-10e-4 0.03125,0 0,0.0024 0,0.02885 0,0.03125 4.8e-4,0.0024 -4.28e-4,0.02875 0,0.03125 0.0034,0.01631 -0.0029,0.01493 0,0.03125 -4.8e-4,0.0024 0,0.02925 0,0.03125 4.8e-4,0.0034 -4.91e-4,0.02835 0,0.03125 0.0052,0.03406 0.02598,0.09142 0.03125,0.125 0.0331,0.217335 0.05345,0.441314 0.09375,0.65625 0.0014,0.0058 -5e-4,0.0255 0,0.03125 4.79e-4,0.0029 0.03076,-0.0024 0.03125,0 0.0048,0.02255 -0.0039,0.04091 0,0.0625 4.8e-4,0.0019 -4.29e-4,0.02885 0,0.03125 9.71e-4,0.0014 0,0.02975 0,0.03125 4.79e-4,0.0014 0,0.03025 0,0.03125 0,0.0019 0.03076,-0.0019 0.03125,0 4.8e-4,0.0028 -5e-4,0.02835 0,0.03125 0,0.0014 -4.79e-4,0.02975 0,0.03125 4.8e-4,0.0019 0,0.02945 0,0.03125 9.71e-4,0.0019 -4.29e-4,0.02885 0,0.03125 0.04702,0.235086 0.09868,0.507237 0.15625,0.75 l 1.875,-0.46875 C 13.116689,36.025965 12.995966,35.336016 12.90625,34.625 12.86883,34.323705 12.83649,34.020045 12.8125,33.71875 z M 11.40625,27.1875 c -0.106989,0.448583 -0.204007,0.916821 -0.28125,1.375 -4.8e-4,0.0052 10e-4,0.0255 0,0.03125 -0.0014,0.0077 0.0014,0.02309 0,0.03125 0,4.8e-4 -4.79e-4,0.03075 0,0.03125 -4.8e-4,0.0048 10e-4,0.02742 0,0.03125 -9.72e-4,0.0043 9e-4,0.0274 0,0.03125 -9.72e-4,0.0067 -0.02975,-0.0072 -0.03125,0 -4.8e-4,0.0034 4.92e-4,0.02791 0,0.03125 -4.8e-4,0.0034 9.29e-4,0.02785 0,0.03125 -4.79e-4,0.0019 0,0.02985 0,0.03125 4.76e-4,0.0028 0,0.02835 0,0.03125 -4.79e-4,0.0019 0,0.02925 0,0.03125 0,0.0024 0,0.02885 0,0.03125 4.8e-4,0.0028 -0.02985,-0.0039 -0.03125,0 0,0.0014 -4.8e-4,0.02985 0,0.03125 0,0.0029 9.2e-4,0.02875 0,0.03125 -4.8e-4,0.0014 0,0.02985 0,0.03125 -4.8e-4,0.0029 9.2e-4,0.02785 0,0.03125 -4.8e-4,0.0028 0,0.02825 0,0.03125 -4.79e-4,0.0038 4.29e-4,0.02741 0,0.03125 -9.71e-4,0.0038 10e-4,0.02839 0,0.03125 -4.79e-4,4.8e-4 -0.03125,-9.29e-4 -0.03125,0 -4.79e-4,4.79e-4 0,0.03025 0,0.03125 0,0.0043 0.0014,0.02793 0,0.03125 -9.72e-4,0.0038 10e-4,0.02745 0,0.03125 -4.8e-4,0.0038 0,0.02746 0,0.03125 -0.0019,0.0082 9e-4,0.02357 0,0.03125 4.8e-4,4.8e-4 0,0.03076 0,0.03125 -0.0014,0.0043 4.28e-4,0.02745 0,0.03125 C 11.030771,29.35285 11.001,29.36637 11,29.375 c -0.0043,0.03071 0.0038,0.03275 0,0.0625 l 0,0.03125 c -0.03358,0.26915 -0.06976,0.539991 -0.09375,0.8125 -9.71e-4,0.0091 5e-4,0.02213 0,0.03125 -0.0014,0.01295 5e-4,0.04955 0,0.0625 -9.72e-4,0.0086 0.0014,0.02261 0,0.03125 -4.79e-4,0.0043 0,0.02737 0,0.03125 -4.8e-4,0.0086 0.0014,0.02309 0,0.03125 0,0.0048 0,0.02737 0,0.03125 l 1.90625,0.15625 c 0.07724,-1.01375 0.233664,-2.042448 0.46875,-3.03125 l -1.875,-0.4375 z M 13.96875,21 c -0.0048,0.0082 -0.02549,0.02261 -0.03125,0.03125 -4.8e-4,0.0019 10e-4,0.02975 0,0.03125 -0.0019,0.0019 -0.02985,-0.0024 -0.03125,0 -0.0019,0.0024 0.0019,0.02835 0,0.03125 -0.0014,0.0034 -0.02975,0.02795 -0.03125,0.03125 -0.0019,0.0024 0.0014,0.02885 0,0.03125 -4.8e-4,9.71e-4 -0.03031,-0.0014 -0.03125,0 -0.0024,0.0034 0.0019,0.02785 0,0.03125 -0.0024,0.0034 0.0019,0.02788 0,0.03125 -0.0024,0.0038 -0.02885,-0.0034 -0.03125,0 -0.0038,0.0077 0.0043,0.02309 0,0.03125 -0.517185,0.879967 -0.984949,1.79958 -1.375,2.75 l 1.78125,0.71875 C 14.604964,23.778405 15.066485,22.87126 15.59375,22 l -1.625,-1 z M 18.25,15.875 c -0.846791,0.735965 -1.623139,1.550344 -2.34375,2.40625 L 17.375,19.5 c 0.655843,-0.779144 1.389581,-1.488892 2.15625,-2.15625 L 18.25,15.875 z m 5.6875,-3.5625 c -0.0038,0.0019 -0.02839,0.02925 -0.03125,0.03125 -0.0038,0.0014 -0.02791,-0.0014 -0.03125,0 -0.0028,0.0014 -0.02739,0.02985 -0.03125,0.03125 -0.0034,9.59e-4 -0.02787,-5e-4 -0.03125,0 -9.72e-4,4.8e-4 -0.03085,0 -0.03125,0 -0.0034,0 0.0029,0.02975 0,0.03125 -0.0028,0.0014 -0.02835,-0.0019 -0.03125,0 -9.71e-4,9.58e-4 -0.02985,-5e-4 -0.03125,0 -0.0034,0.0019 0.0033,0.03035 0,0.03125 -0.0019,4.8e-4 -0.02885,-10e-4 -0.03125,0 -9.71e-4,0 -0.02985,0 -0.03125,0 -0.0019,9.59e-4 -0.02925,0.03025 -0.03125,0.03125 -0.0019,4.8e-4 -0.02985,-0.0014 -0.03125,0 -0.0014,9.59e-4 -0.02945,-0.0015 -0.03125,0 -0.0019,9.59e-4 0.0024,0.02985 0,0.03125 -0.0034,9.58e-4 -0.02825,-0.0019 -0.03125,0 0.0029,-0.0014 -0.02793,-0.0014 -0.03125,0 -0.0014,4.79e-4 0.0015,0.03075 0,0.03125 -0.0019,9.59e-4 -0.02935,-5e-4 -0.03125,0 -0.0034,0.0019 -0.02791,-10e-4 -0.03125,0 -0.0043,0.0014 0.0029,0.02985 0,0.03125 -0.0024,9.59e-4 -0.02935,-0.0015 -0.03125,0 -0.0043,0.0024 -0.02642,-0.0024 -0.03125,0 -0.0034,0.0019 0.0029,0.02975 0,0.03125 l -0.03125,0 c -0.0067,0.0029 -0.02357,-0.0034 -0.03125,0 -0.0048,0.0024 -0.02692,0.02885 -0.03125,0.03125 -0.0067,0.0034 -0.02405,-0.0029 -0.03125,0 -0.0052,0.0024 -0.02594,0.02845 -0.03125,0.03125 -0.0072,0.0038 -0.02261,-0.0034 -0.03125,0 -0.0048,0.0024 -0.02644,0.02885 -0.03125,0.03125 -4.8e-4,0 -0.03075,-4.79e-4 -0.03125,0 l -0.03125,0 c -0.0077,0.0043 0.0072,0.0284 0,0.03125 -0.0072,0.0034 -0.02357,-0.0034 -0.03125,0 -0.0052,0.0024 -0.02644,-0.0024 -0.03125,0 -0.0028,4.79e-4 0.0024,0.02975 0,0.03125 -0.0072,0.0029 -0.02405,-0.0034 -0.03125,0 -0.0072,0.0029 -0.02405,-0.0029 -0.03125,0 -0.0043,0.0019 0.0038,0.02885 0,0.03125 -0.0077,0.0034 -0.02357,-0.0044 -0.03125,0 -0.0072,0.0029 -0.02405,-0.0034 -0.03125,0 -0.0038,0.0019 0.0028,0.02925 0,0.03125 -0.0038,0.0019 -0.02785,-0.0019 -0.03125,0 -9.71e-4,0 -0.03035,-9.21e-4 -0.03125,0 -0.0038,0.0019 0.0029,0.02935 0,0.03125 -0.0038,0.0019 -0.02841,-0.0019 -0.03125,0 -0.0038,0.0019 -0.02837,-0.0019 -0.03125,0 -9.72e-4,4.8e-4 0.001,0.03081 0,0.03125 -0.0038,0.0024 -0.02737,-0.002 -0.03125,0 -0.0034,0.0019 -0.02795,-0.0014 -0.03125,0 -0.0019,0.0014 0.0024,0.03025 0,0.03125 -0.0014,4.8e-4 -0.02925,-5e-4 -0.03125,0 -0.0029,9.59e-4 -0.02845,-0.0014 -0.03125,0 -0.0019,9.58e-4 0.0019,0.03075 0,0.03125 -0.0014,4.79e-4 -0.02985,-10e-4 -0.03125,0 -0.0028,9.59e-4 -0.02885,-0.0019 -0.03125,0 -0.0028,0.0014 0.0019,0.02935 0,0.03125 -0.0014,4.8e-4 -0.02925,-5e-4 -0.03125,0 -0.0029,0.0024 -0.02785,-0.0014 -0.03125,0 -0.0014,4.8e-4 0.001,0.03033 0,0.03125 -0.0028,0.0014 -0.02785,-0.0019 -0.03125,0 -0.0024,0.0019 -0.02825,-9e-4 -0.03125,0 -0.0034,0.0014 0.0029,0.02935 0,0.03125 -0.0014,4.8e-4 -0.02982,-4.8e-4 -0.03125,0 -0.0028,0.0024 -0.02795,-0.002 -0.03125,0 -0.0028,0.0024 0.0029,0.02925 0,0.03125 -0.0038,0.0024 -0.02739,-0.002 -0.03125,0 0,4.8e-4 -0.03033,-4.79e-4 -0.03125,0 -0.0034,0.0014 0.0034,0.02935 0,0.03125 -0.0038,0.0019 -0.02741,-0.0024 -0.03125,0 -0.01152,0.0058 -0.02022,0.02501 -0.03125,0.03125 -0.448303,0.238469 -0.885986,0.48277 -1.3125,0.75 l 1,1.625 c 0.862144,-0.540219 1.782722,-1.007563 2.71875,-1.40625 l -0.75,-1.78125 z m 6.46875,-1.625 C 30.264718,10.70045 30.140572,10.70243 30,10.71875 c -0.0034,4.8e-4 -0.02788,-4.29e-4 -0.03125,0 -0.01008,4.8e-4 -0.02117,0.02975 -0.03125,0.03125 -0.0034,0 -0.02835,0 -0.03125,0 -0.0028,4.8e-4 -0.02885,-4.29e-4 -0.03125,0 -0.0067,4.8e-4 -0.02453,-9.28e-4 -0.03125,0 -0.0024,9.71e-4 -0.02935,0 -0.03125,0 -0.0067,0.0014 -0.02453,-4e-4 -0.03125,0 -0.0024,4.8e-4 -0.02935,-4.91e-4 -0.03125,0 0.0014,0 -0.02882,-4.8e-4 -0.03125,0 -0.0034,4.8e-4 -0.02788,0 -0.03125,0 -0.0024,9.71e-4 0.0029,0.03082 0,0.03125 -0.0024,4.8e-4 -0.02935,0 -0.03125,0 -0.0024,0 -0.02885,0 -0.03125,0 -0.0028,4.8e-4 -0.02785,0 -0.03125,0 -0.0014,0 -0.02975,-9.71e-4 -0.03125,0 -0.0014,0 -0.02935,0 -0.03125,0 -0.0014,0 -0.02985,-4.79e-4 -0.03125,0 -0.0014,0 -0.02975,0 -0.03125,0 -0.0014,0 0.0014,0.03077 0,0.03125 -0.0019,4.8e-4 -0.02935,-9.2e-4 -0.03125,0 -0.0028,0 -0.02825,-9.2e-4 -0.03125,0 -0.0014,0 -0.02975,0 -0.03125,0 -0.0014,9.72e-4 -0.02975,0 -0.03125,0 -0.0014,0 -0.02975,0 -0.03125,0 -0.0014,4.8e-4 -0.02985,0 -0.03125,0 -0.0014,0 -0.02935,-4.8e-4 -0.03125,0 -0.0014,0 0.0014,0.03076 0,0.03125 -0.0024,4.8e-4 -0.02935,-9.2e-4 -0.03125,0 -0.0019,4.8e-4 -0.02925,-4.8e-4 -0.03125,0 -0.0014,4.79e-4 -0.02975,0 -0.03125,0 -0.0019,0 -0.02885,0 -0.03125,0 -0.0014,4.8e-4 -0.02975,-4.28e-4 -0.03125,0 -0.0067,9.72e-4 -0.02453,-10e-4 -0.03125,0 -0.0019,-9.71e-4 -0.02885,0 -0.03125,0 -0.0043,4.8e-4 0.0043,0.02985 0,0.03125 -0.0024,4.8e-4 -0.02885,0 -0.03125,0 -0.0077,4.8e-4 -0.02405,-0.0014 -0.03125,0 -0.0024,0 -0.02885,-4.29e-4 -0.03125,0 -0.0024,4.79e-4 -0.02885,-9.21e-4 -0.03125,0 -0.0082,9.72e-4 -0.02358,-9e-4 -0.03125,0 -0.0024,0 -0.02875,-9.2e-4 -0.03125,0 -0.0091,0.0014 0.0091,0.02985 0,0.03125 l -0.03125,0 c -0.01056,0.0024 -0.02021,-0.002 -0.03125,0 -0.01104,0.0019 -0.05099,-0.0024 -0.0625,0 -0.01104,0.0014 -0.01974,-0.0023 -0.03125,0 -0.531103,0.09356 -1.077999,0.213732 -1.59375,0.34375 l 0.5,1.875 C 28.372954,12.928999 29.197166,12.756722 30,12.65625 c 0.202462,-0.02495 0.393207,-0.04379 0.59375,-0.0625 l -0.1875,-1.90625 z m 2.03125,-0.09375 0,43.1875 C 44.361178,53.78125 54,44.111179 54,32.1875 54,20.263822 44.361178,10.59375 32.4375,10.59375 z" />
</svg>
