<?xml version="1.0" encoding="UTF-8" standalone="no"?>
<!-- Created with Inkscape (http://www.inkscape.org/) -->

<svg
   xmlns:dc="http://purl.org/dc/elements/1.1/"
   xmlns:cc="http://creativecommons.org/ns#"
   xmlns:rdf="http://www.w3.org/1999/02/22-rdf-syntax-ns#"
   xmlns:svg="http://www.w3.org/2000/svg"
   xmlns="http://www.w3.org/2000/svg"
   xmlns:sodipodi="http://sodipodi.sourceforge.net/DTD/sodipodi-0.dtd"
   xmlns:inkscape="http://www.inkscape.org/namespaces/inkscape"
   width="64px"
   height="64px"
   id="svg4427"
   version="1.1"
   inkscape:version="0.48.5 r10040"
   sodipodi:docname="Dictionary.svg">
  <defs
     id="defs4429" />
  <sodipodi:namedview
     id="base"
     pagecolor="#ffffff"
     bordercolor="#666666"
     borderopacity="1.0"
     inkscape:pageopacity="0.0"
     inkscape:pageshadow="2"
     inkscape:zoom="11"
     inkscape:cx="28.609516"
     inkscape:cy="31.152154"
     inkscape:current-layer="svg4427"
     showgrid="true"
     inkscape:document-units="px"
     inkscape:grid-bbox="true"
     inkscape:window-width="1920"
     inkscape:window-height="1003"
     inkscape:window-x="-9"
     inkscape:window-y="-9"
     inkscape:window-maximized="1" />
  <metadata
     id="metadata4432">
    <rdf:RDF>
      <cc:Work
         rdf:about="">
        <dc:format>image/svg+xml</dc:format>
        <dc:type
           rdf:resource="http://purl.org/dc/dcmitype/StillImage" />
        <dc:title></dc:title>
      </cc:Work>
    </rdf:RDF>
  </metadata>
  <g
     transform="matrix(0.50907359,0,0,0.50907359,7.9099759,5.0928745)"
     id="g3" />
  <path
     id="path15"
     d="m 12.524149,40.461366 c 6.506447,0 11.7121,0.423225 14.314928,1.194986 V 38.906019 C 22.28444,37.987997 17.729182,37.598381 12.524149,37.598381 v 2.862985 z m 0,-9.149727 c 6.506447,0 11.7121,0.421979 14.314928,1.194985 V 29.755668 C 22.28444,28.837646 17.729182,28.44803 12.524149,28.44803 v 2.863609 z m 0,-9.150351 c 6.506447,0 11.7121,0.422601 14.314928,1.194363 v -2.750956 c -4.554637,-0.9174 -9.109895,-1.307637 -14.314928,-1.307637 v 2.86423 z m 24.273138,19.495064 c 2.602828,-0.771761 7.808481,-1.194986 14.314927,-1.194986 v -2.862985 c -5.205032,0 -9.76029,0.389616 -14.314927,1.307638 v 2.750333 z m 0,-9.149728 c 2.602828,-0.773006 7.808481,-1.194985 14.314927,-1.194985 V 28.44803 c -5.205032,0 -9.76029,0.389616 -14.314927,1.307638 v 2.750956 z m 0,-9.150973 c 2.602828,-0.772384 7.808481,-1.194363 14.314927,-1.194363 v -2.86423 c -5.205032,0 -9.76029,0.390237 -14.314927,1.307637 v 2.750956 z M 56.037795,13.073176 c -0.500401,-1.867164 -2.731662,-2.911531 -4.554637,-3.007379 -0.04855,-0.0031 -1.206188,-0.1058059 -2.970036,-0.1058059 -5.910198,0 -12.679292,1.2460209 -15.202453,3.1131849 h -1.492487 -1.492487 c -2.523161,-1.867164 -9.305325,-3.1131849 -15.2149,-3.1131849 -1.764471,0 -2.935183,0.1033169 -2.983729,0.1058059 -1.823598,0.09585 -4.0280967,1.140215 -4.5284967,3.007379 0,0 -1.2983014,0 -1.2983014,1.244777 0,1.244776 0,34.231348 0,35.476124 0,1.867164 1.8671642,1.867164 1.8671642,1.867164 H 27.338854 c 0,0 -0.0069,0.0137 -0.0069,0.02738 0,1.283364 1.997243,2.315907 4.486174,2.351383 2.48893,-0.0361 4.486173,-1.06864 4.486173,-2.351383 0,-0.01307 -0.0069,-0.02738 -0.0069,-0.02738 h 19.171446 c 0,0 1.867165,0 1.867165,-1.867164 0,-1.244776 0,-34.231348 0,-35.476124 0,-1.244777 -1.298301,-1.244777 -1.298301,-1.244777 z M 29.951017,49.794077 c -1.867164,-1.508046 -6.25749,-3.271895 -17.878099,-3.271895 -1.403486,0 -2.4098872,-0.99831 -2.6824932,-2.322752 -0.033609,-0.191696 -0.064729,-28.954119 -0.031742,-29.149549 0.2750955,-1.352449 1.348093,-2.424202 2.764026,-2.498267 0.0074,-6.22e-4 1.113453,-0.06162 2.859252,-0.06162 9.452831,0 14.968434,1.615719 14.968434,4.320618 v 32.98346 z M 54.245316,44.19943 c -0.272606,1.324442 -1.279007,2.322752 -2.682492,2.322752 -11.619987,0 -16.010313,1.763849 -17.877477,3.271895 V 16.809994 c 0,-2.705521 5.515603,-4.320618 14.968434,-4.320618 1.745799,0 2.851782,0.061 2.859252,0.06162 1.415932,0.07469 2.488929,1.145817 2.764025,2.498266 0.03361,0.19543 0.0019,28.958476 -0.03174,29.150172 z"
     inkscape:connector-curvature="0" />
</svg>
