<?xml version="1.0" encoding="UTF-8" standalone="no"?>
<!-- Created with Inkscape (http://www.inkscape.org/) -->

<svg
   xmlns:dc="http://purl.org/dc/elements/1.1/"
   xmlns:cc="http://creativecommons.org/ns#"
   xmlns:rdf="http://www.w3.org/1999/02/22-rdf-syntax-ns#"
   xmlns:svg="http://www.w3.org/2000/svg"
   xmlns="http://www.w3.org/2000/svg"
   xmlns:sodipodi="http://sodipodi.sourceforge.net/DTD/sodipodi-0.dtd"
   xmlns:inkscape="http://www.inkscape.org/namespaces/inkscape"
   width="64px"
   height="64px"
   id="svg6906"
   version="1.1"
   inkscape:version="0.48.5 r10040"
   sodipodi:docname="ExpandDock.svg">
  <defs
     id="defs6908">
    <clipPath
       id="SVGID_2_">
      <rect
         height="88.038002"
         width="90"
         y="6.4619999"
         x="4.5"
         id="use3343" />
    </clipPath>
  </defs>
  <sodipodi:namedview
     id="base"
     pagecolor="#ffffff"
     bordercolor="#666666"
     borderopacity="1.0"
     inkscape:pageopacity="0.0"
     inkscape:pageshadow="2"
     inkscape:zoom="4"
     inkscape:cx="3.8798548"
     inkscape:cy="35.373378"
     inkscape:current-layer="svg6906"
     showgrid="true"
     inkscape:document-units="px"
     inkscape:grid-bbox="true"
     inkscape:window-width="942"
     inkscape:window-height="985"
     inkscape:window-x="0"
     inkscape:window-y="0"
     inkscape:window-maximized="0">
    <inkscape:grid
       type="xygrid"
       id="grid3220" />
  </sodipodi:namedview>
  <metadata
     id="metadata6911">
    <rdf:RDF>
      <cc:Work
         rdf:about="">
        <dc:type
           rdf:resource="http://purl.org/dc/dcmitype/StillImage" />
        <dc:title />
        <dc:format>image/svg+xml</dc:format>
      </cc:Work>
      <dc:format>image/svg+xml</dc:format>
    </rdf:RDF>
  </metadata>
  <path
     id="rect16-2-7-1-1-5"
     style="fill:#000000;fill-opacity:1;stroke-width:0.2;stroke-linejoin:round"
     d="m 45.905685,21.734856 6.457405,0 0,4.304932 -6.457405,0 z m -8.464069,-0.0057 6.457404,0 0,4.304932 -6.457404,0 z m -8.464027,0 6.457404,0 0,4.304932 -6.457404,0 z m -8.441943,0 6.457405,0 0,4.304932 -6.457405,0 z m -8.468591,4.27e-4 6.457404,0 0,4.304933 -6.457404,0 z M 59.53329,51.066582 4.8860683,51.0665 l 0,-38.905796 54.6472217,8.4e-5 0,38.905794 z m -4.751899,-5.985551 -6.7e-5,-26.934776 -45.1433516,0 0,26.934776 45.1434186,0 z M 20.043162,28.159172 c -2.401283,2.401283 -3.556694,5.576688 -3.466186,8.72289 l -4.151991,-4.15199 3.4e-5,4.57091 6.094502,6.094536 6.094578,-6.094537 -4.2e-5,-4.570915 -4.258757,4.258757 c -0.122718,-2.215108 0.662046,-4.471107 2.354226,-6.163288 l 0.812149,-0.711474 -2.682552,-2.682554 -0.795961,0.727664 z" />
</svg>
