<?xml version="1.0" encoding="UTF-8" standalone="no"?>
<!-- Created with Inkscape (http://www.inkscape.org/) -->

<svg
   xmlns:dc="http://purl.org/dc/elements/1.1/"
   xmlns:cc="http://creativecommons.org/ns#"
   xmlns:rdf="http://www.w3.org/1999/02/22-rdf-syntax-ns#"
   xmlns:svg="http://www.w3.org/2000/svg"
   xmlns="http://www.w3.org/2000/svg"
   xmlns:sodipodi="http://sodipodi.sourceforge.net/DTD/sodipodi-0.dtd"
   xmlns:inkscape="http://www.inkscape.org/namespaces/inkscape"
   width="64px"
   height="64px"
   id="svg4427"
   version="1.1"
   inkscape:version="0.48.5 r10040"
   sodipodi:docname="Keyboard.svg">
  <defs
     id="defs4429" />
  <sodipodi:namedview
     id="base"
     pagecolor="#ffffff"
     bordercolor="#666666"
     borderopacity="1.0"
     inkscape:pageopacity="0.0"
     inkscape:pageshadow="2"
     inkscape:zoom="11"
     inkscape:cx="25.838674"
     inkscape:cy="31.152154"
     inkscape:current-layer="svg4427"
     showgrid="true"
     inkscape:document-units="px"
     inkscape:grid-bbox="true"
     inkscape:window-width="1920"
     inkscape:window-height="1003"
     inkscape:window-x="-9"
     inkscape:window-y="-9"
     inkscape:window-maximized="1" />
  <metadata
     id="metadata4432">
    <rdf:RDF>
      <cc:Work
         rdf:about="">
        <dc:format>image/svg+xml</dc:format>
        <dc:type
           rdf:resource="http://purl.org/dc/dcmitype/StillImage" />
        <dc:title></dc:title>
      </cc:Work>
    </rdf:RDF>
  </metadata>
  <g
     transform="matrix(0.50907359,0,0,0.50907359,7.9099759,5.0928745)"
     id="g3" />
  <path
     id="path4"
     d="m 11.363636,20.5 c -0.412727,0 -0.687879,0.275152 -0.687879,0.687879 v 19.260605 c 0,0.412727 0.275152,0.687879 0.687879,0.687879 h 41.272728 c 0.412727,0 0.687879,-0.275152 0.687879,-0.687879 V 21.187879 C 53.324243,20.775152 53.049091,20.5 52.636364,20.5 H 11.363636 z m 2.322279,2.751515 h 2.063636 c 0.275152,0 0.430612,0.154084 0.430612,0.430611 v 2.063637 c 0,0.137575 -0.119691,0.258642 -0.258642,0.258642 h -2.235606 c -0.137576,0 -0.258643,-0.119691 -0.258643,-0.258642 v -2.063637 c 0,-0.275151 0.119691,-0.430611 0.258643,-0.430611 z m 4.127273,0 h 2.063636 c 0.275152,0 0.430612,0.154084 0.430612,0.430611 v 2.063637 c 0,0.137575 -0.121067,0.258642 -0.258642,0.258642 h -2.235606 c -0.137576,0 -0.258643,-0.119691 -0.258643,-0.258642 v -2.063637 c 0,-0.275151 0.121067,-0.430611 0.258643,-0.430611 z m 4.127272,0 h 2.063637 c 0.275151,0 0.430612,0.154084 0.430612,0.430611 v 2.063637 c 0,0.137575 -0.121067,0.258642 -0.258642,0.258642 H 21.94046 c -0.137575,0 -0.258642,-0.119691 -0.258642,-0.258642 v -2.063637 c 0,-0.275151 0.121067,-0.430611 0.258642,-0.430611 z m 4.127273,0 h 2.063637 c 0.275151,0 0.430612,0.154084 0.430612,0.430611 v 2.063637 c 0,0.137575 -0.121067,0.258642 -0.258643,0.258642 h -2.063636 c -0.275152,0 -0.430612,-0.119691 -0.430612,-0.258642 v -2.063637 c 0,-0.275151 0.121066,-0.430611 0.258642,-0.430611 z m 4.127273,0 h 2.063636 c 0.275152,0 0.430613,0.154084 0.430613,0.430611 v 2.063637 c 0,0.137575 -0.121067,0.258642 -0.258643,0.258642 h -2.063636 c -0.275152,0 -0.430612,-0.119691 -0.430612,-0.258642 v -2.063637 c 0,-0.275151 0.121066,-0.430611 0.258642,-0.430611 z m 4.127273,0 h 2.063636 c 0.275152,0 0.430612,0.154084 0.430612,0.430611 v 2.063637 c 0,0.137575 -0.119691,0.258642 -0.258642,0.258642 h -2.063636 c -0.275152,0 -0.430613,-0.119691 -0.430613,-0.258642 v -2.063637 c 0,-0.275151 0.119691,-0.430611 0.258643,-0.430611 z m 4.127273,0 h 2.063636 c 0.275152,0 0.430612,0.154084 0.430612,0.430611 v 2.063637 c 0,0.137575 -0.119691,0.258642 -0.258642,0.258642 h -2.063637 c -0.275151,0 -0.430612,-0.119691 -0.430612,-0.258642 v -2.063637 c 0,-0.275151 0.119691,-0.430611 0.258643,-0.430611 z m 4.127272,0 h 2.063637 c 0.275151,0 0.430612,0.154084 0.430612,0.430611 v 2.063637 c 0,0.137575 -0.119691,0.258642 -0.258642,0.258642 h -2.063637 c -0.275151,0 -0.430612,-0.119691 -0.430612,-0.258642 v -2.063637 c 0,-0.275151 0.119691,-0.430611 0.258642,-0.430611 z m 4.127273,0 h 3.439394 c 0.275152,0 0.430612,0.154084 0.430612,0.430611 v 2.063637 c 0,0.137575 -0.119691,0.258642 -0.258642,0.258642 h -3.439394 c -0.275152,0 -0.430612,-0.119691 -0.430612,-0.258642 v -2.063637 c 0,-0.275151 0.119691,-0.430611 0.258642,-0.430611 z m -33.018182,4.127272 h 3.439394 c 0.275151,0 0.430612,0.121066 0.430612,0.258642 v 2.063637 c 0,0.275151 -0.121067,0.430612 -0.258642,0.430612 h -3.611364 c -0.137576,0 -0.258643,-0.121067 -0.258643,-0.258643 v -2.235606 c 0,-0.137576 0.119691,-0.258642 0.258643,-0.258642 z m 5.50303,0 h 2.063637 c 0.275151,0 0.430612,0.121066 0.430612,0.258642 v 2.063637 c 0,0.275151 -0.121067,0.430612 -0.258643,0.430612 h -2.235606 c -0.137576,0 -0.258642,-0.121067 -0.258642,-0.258643 v -2.235606 c 0,-0.137576 0.121066,-0.258642 0.258642,-0.258642 z m 4.127273,0 h 2.063636 c 0.275152,0 0.430613,0.121066 0.430613,0.258642 v 2.063637 c 0,0.275151 -0.121067,0.430612 -0.258643,0.430612 h -2.235606 c -0.137576,0 -0.258642,-0.121067 -0.258642,-0.258643 v -2.235606 c 0,-0.137576 0.121066,-0.258642 0.258642,-0.258642 z m 4.127273,0 h 2.063636 c 0.275152,0 0.430612,0.121066 0.430612,0.258642 v 2.063637 c 0,0.275151 -0.121066,0.430612 -0.258642,0.430612 h -2.063636 c -0.275152,0 -0.430613,-0.121067 -0.430613,-0.258643 v -2.235606 c 0,-0.137576 0.121067,-0.258642 0.258643,-0.258642 z m 4.127273,0 H 33.6344 c 0.275152,0 0.430612,0.121066 0.430612,0.258642 v 2.063637 c 0,0.275151 -0.119691,0.430612 -0.258642,0.430612 h -2.063637 c -0.275151,0 -0.430612,-0.121067 -0.430612,-0.258643 v -2.235606 c 0,-0.137576 0.121067,-0.258642 0.258643,-0.258642 z m 4.127272,0 h 2.063637 c 0.275151,0 0.430612,0.121066 0.430612,0.258642 v 2.063637 c 0,0.275151 -0.119691,0.430612 -0.258642,0.430612 h -2.063637 c -0.275151,0 -0.430612,-0.121067 -0.430612,-0.258643 v -2.235606 c 0,-0.137576 0.119691,-0.258642 0.258642,-0.258642 z m 4.127273,0 h 2.063637 c 0.275151,0 0.430612,0.121066 0.430612,0.258642 v 2.063637 c 0,0.275151 -0.119691,0.430612 -0.258643,0.430612 h -2.063636 c -0.275152,0 -0.430612,-0.121067 -0.430612,-0.258643 v -2.235606 c 0,-0.137576 0.119691,-0.258642 0.258642,-0.258642 z m 4.127273,0 h 2.063636 c 0.275152,0 0.430613,0.121066 0.430613,0.258642 v 2.063637 c 0,0.275151 -0.119691,0.430612 -0.258643,0.430612 h -2.063636 c -0.275152,0 -0.430612,-0.121067 -0.430612,-0.258643 v -2.235606 c 0,-0.137576 0.119691,-0.258642 0.258642,-0.258642 z m 4.127273,0 h 2.063636 c 0.275152,0 0.430612,0.121066 0.430612,0.258642 v 2.235606 c 0,0.137576 -0.119691,0.258643 -0.258642,0.258643 h -2.063636 c -0.275152,0 -0.430613,-0.121067 -0.430613,-0.258643 v -2.235606 c 0,-0.137576 0.119691,-0.258642 0.258643,-0.258642 z m -34.39394,4.127273 h 4.815151 c 0.275152,0 0.430613,0.121066 0.430613,0.258642 v 2.063636 c 0,0.275152 -0.121067,0.430613 -0.258643,0.430613 h -4.987121 c -0.137576,0 -0.258643,-0.121067 -0.258643,-0.258643 v -2.235606 c 0,-0.137576 0.119691,-0.258642 0.258643,-0.258642 z m 6.878788,0 h 2.063636 c 0.275152,0 0.430612,0.121066 0.430612,0.258642 v 2.063636 c 0,0.275152 -0.121066,0.430613 -0.258642,0.430613 h -2.235606 c -0.137576,0 -0.258643,-0.121067 -0.258643,-0.258643 v -2.235606 c 0,-0.137576 0.121067,-0.258642 0.258643,-0.258642 z m 4.127273,0 h 2.063636 c 0.275152,0 0.430612,0.121066 0.430612,0.258642 v 2.063636 c 0,0.137576 -0.121067,0.301291 -0.258642,0.301291 h -2.063637 c -0.275151,0.137576 -0.430612,0.0083 -0.430612,-0.129321 v -2.235606 c 0,-0.137576 0.121067,-0.258642 0.258643,-0.258642 z m 4.127272,0 h 2.063637 c 0.275151,0 0.430612,0.121066 0.430612,0.258642 v 2.063636 c 0,0.137576 -0.121067,0.301291 -0.258642,0.301291 h -2.063637 c -0.275151,0.137576 -0.430612,0.0083 -0.430612,-0.129321 v -2.235606 c 0,-0.137576 0.121067,-0.258642 0.258642,-0.258642 z m 4.127273,0 h 2.063637 c 0.275151,0 0.430612,0.121066 0.430612,0.258642 v 2.063636 c 0,0.137576 -0.119691,0.301291 -0.258643,0.301291 h -2.063636 c -0.275152,0.137576 -0.430612,0.0083 -0.430612,-0.129321 v -2.235606 c 0,-0.137576 0.119691,-0.258642 0.258642,-0.258642 z m 4.127273,0 h 2.063636 c 0.275152,0 0.430613,0.121066 0.430613,0.258642 v 2.063636 c 0,0.137576 -0.119691,0.301291 -0.258643,0.301291 h -2.063636 c -0.275152,0.137576 -0.430612,0.0083 -0.430612,-0.129321 v -2.235606 c 0,-0.137576 0.119691,-0.258642 0.258642,-0.258642 z m 4.127273,0 h 2.063636 c 0.275152,0 0.430612,0.121066 0.430612,0.258642 v 2.063636 c 0,0.275152 -0.119691,0.430613 -0.258642,0.430613 h -2.063636 c -0.275152,0 -0.430613,-0.121067 -0.430613,-0.258643 v -2.235606 c 0,-0.137576 0.119691,-0.258642 0.258643,-0.258642 z m 4.127273,0 h 4.815151 c 0.275152,0 0.430612,0.121066 0.430612,0.258642 v 2.235606 c 0,0.137576 -0.119691,0.258643 -0.258642,0.258643 h -4.815152 c -0.275151,0 -0.430612,-0.121067 -0.430612,-0.258643 v -2.235606 c 0,-0.137576 0.119691,-0.258642 0.258643,-0.258642 z m -31.642425,4.127272 h 2.063636 c 0.275152,0 0.430612,0.121067 0.430612,0.258643 v 2.235606 c 0,0.137576 -0.119691,0.258642 -0.258642,0.258642 h -2.235606 c -0.137576,0 -0.258643,-0.121066 -0.258643,-0.258642 v -2.063636 c 0,-0.275152 0.119691,-0.430613 0.258643,-0.430613 z m 4.127273,0 h 2.063636 c 0.275152,0 0.430612,0.121067 0.430612,0.258643 v 2.235606 c 0,0.137576 -0.121067,0.258642 -0.258642,0.258642 h -2.235606 c -0.137576,0 -0.258643,-0.121066 -0.258643,-0.258642 v -2.063636 c 0,-0.275152 0.121067,-0.430613 0.258643,-0.430613 z m 4.127272,0 h 19.948486 c 0.137575,0 0.301291,0.121067 0.301291,0.258643 v 2.235606 h 0.129321 c 0,0.137576 -0.119691,0.258642 -0.258643,0.258642 H 21.94046 c -0.137575,0 -0.258642,-0.121066 -0.258642,-0.258642 v -2.063636 c 0,-0.275152 0.121067,-0.430613 0.258642,-0.430613 z m 22.184092,0.129322 h 2.063636 c 0.137576,0 0.258643,0.163715 0.258643,0.301291 v 2.063636 c 0,0.137576 -0.119691,0.258642 -0.258643,0.258642 h -2.063636 c -0.137576,0 -0.301291,-0.121066 -0.301291,-0.258642 v -2.063636 c 0,-0.137576 0.163715,-0.301291 0.301291,-0.301291 z m 4.127273,0 h 2.063636 c 0.137576,0 0.258642,0.163715 0.258642,0.301291 v 2.063636 c 0,0.137576 -0.119691,0.258642 -0.258642,0.258642 h -2.063636 c -0.137576,0 -0.301291,-0.121066 -0.301291,-0.258642 v -2.063636 c 0,-0.137576 0.163715,-0.301291 0.301291,-0.301291 z" />
</svg>
