<?xml version="1.0" encoding="UTF-8" standalone="no"?>
<!-- Created with Inkscape (http://www.inkscape.org/) -->

<svg
   xmlns:dc="http://purl.org/dc/elements/1.1/"
   xmlns:cc="http://creativecommons.org/ns#"
   xmlns:rdf="http://www.w3.org/1999/02/22-rdf-syntax-ns#"
   xmlns:svg="http://www.w3.org/2000/svg"
   xmlns="http://www.w3.org/2000/svg"
   xmlns:sodipodi="http://sodipodi.sourceforge.net/DTD/sodipodi-0.dtd"
   xmlns:inkscape="http://www.inkscape.org/namespaces/inkscape"
   width="64px"
   height="64px"
   id="svg4427"
   version="1.1"
   inkscape:version="0.91 r13725"
   sodipodi:docname="ManipulateWindow.svg">
  <defs
     id="defs4429" />
  <sodipodi:namedview
     id="base"
     pagecolor="#ffffff"
     bordercolor="#666666"
     borderopacity="1.0"
     inkscape:pageopacity="0.0"
     inkscape:pageshadow="2"
     inkscape:zoom="7.7781746"
     inkscape:cx="40.329985"
     inkscape:cy="34.051449"
     inkscape:current-layer="svg4427"
     showgrid="true"
     inkscape:document-units="px"
     inkscape:grid-bbox="true"
     inkscape:window-width="1280"
     inkscape:window-height="740"
     inkscape:window-x="-8"
     inkscape:window-y="-8"
     inkscape:window-maximized="1" />
  <metadata
     id="metadata4432">
    <rdf:RDF>
      <cc:Work
         rdf:about="">
        <dc:format>image/svg+xml</dc:format>
        <dc:type
           rdf:resource="http://purl.org/dc/dcmitype/StillImage" />
        <dc:title />
      </cc:Work>
    </rdf:RDF>
  </metadata>
  <g
     transform="matrix(0.50907359,0,0,0.50907359,7.9099759,5.0928745)"
     id="g3" />
  <path
     id="path3262"
     d="m 23.247315,32.265788 6.893355,0 c 0.380788,0 0.689335,-0.308639 0.689335,-0.689335 0,-0.380697 -0.308547,-0.689336 -0.689335,-0.689336 l -6.893355,0 c -0.380696,0 -0.689336,0.308639 -0.689336,0.689336 0,0.380696 0.30864,0.689335 0.689336,0.689335 z m 13.042517,-4.667943 c 0.384157,0 0.698351,0.314191 0.698351,0.698351 l 0,2.581784 2.83573,0 c 0.384251,0 0.698351,0.314191 0.698351,0.698352 0,0.384159 -0.3141,0.69835 -0.698351,0.69835 l -2.83573,0 0,3.005027 c 0,0.384253 -0.314194,0.677189 -0.698351,0.677189 -0.384161,0 -0.677189,-0.292936 -0.677189,-0.677189 l 0,-3.005027 -2.729919,0 c -0.384159,0 -0.698351,-0.314191 -0.698351,-0.69835 0,-0.384161 0.314192,-0.698352 0.698351,-0.698352 l 2.729919,0 0,-2.581784 c 0,-0.38416 0.293028,-0.698351 0.677189,-0.698351 z m -4.782648,-6.517946 0,21.500756 c 5.932977,0 10.729215,-4.8174 10.729215,-10.750378 0,-5.932977 -4.796238,-10.750378 -10.729215,-10.750378 z m -1.008519,0.05628 c -0.07042,0.0064 -0.132195,0.0074 -0.202141,0.01555 -0.0017,2.39e-4 -0.01388,-2.13e-4 -0.01555,0 -0.005,2.39e-4 -0.01054,0.0148 -0.01555,0.01555 -0.0017,0 -0.01411,0 -0.01555,0 -0.0015,2.39e-4 -0.01436,-2.13e-4 -0.01555,0 -0.0033,2.39e-4 -0.01221,-4.62e-4 -0.01555,0 -0.0012,4.82e-4 -0.01461,0 -0.01555,0 -0.0033,6.76e-4 -0.01221,-2e-4 -0.01555,0 -0.0012,2.39e-4 -0.0146,-2.45e-4 -0.01555,0 6.77e-4,0 -0.01434,-2.39e-4 -0.01555,0 -0.0017,2.39e-4 -0.01388,0 -0.01555,0 -0.0012,4.82e-4 0.0015,0.01534 0,0.01555 -0.0012,2.4e-4 -0.0146,0 -0.01555,0 -0.0012,0 -0.01436,0 -0.01555,0 -0.0015,2.4e-4 -0.01385,0 -0.01555,0 -6.76e-4,0 -0.0148,-4.82e-4 -0.01555,0 -6.78e-4,0 -0.01461,0 -0.01555,0 -6.78e-4,0 -0.01485,-2.38e-4 -0.01555,0 -6.77e-4,0 -0.0148,0 -0.01555,0 -6.76e-4,0 6.78e-4,0.01531 0,0.01555 -9.16e-4,2.39e-4 -0.0146,-4.57e-4 -0.01555,0 -0.0015,0 -0.01406,-4.57e-4 -0.01555,0 -6.77e-4,0 -0.0148,0 -0.01555,0 -6.77e-4,4.84e-4 -0.0148,0 -0.01555,0 -6.78e-4,0 -0.0148,0 -0.01555,0 -6.77e-4,2.39e-4 -0.01485,0 -0.01555,0 -6.76e-4,0 -0.0146,-2.39e-4 -0.01555,0 -6.78e-4,0 6.76e-4,0.01531 0,0.01555 -0.0012,2.38e-4 -0.01461,-4.58e-4 -0.01555,0 -9.17e-4,2.38e-4 -0.01455,-2.39e-4 -0.01555,0 -6.77e-4,2.38e-4 -0.0148,0 -0.01555,0 -9.16e-4,0 -0.01436,0 -0.01555,0 -6.78e-4,2.38e-4 -0.0148,-2.13e-4 -0.01555,0 -0.0033,4.83e-4 -0.0122,-4.97e-4 -0.01555,0 -9.16e-4,-4.84e-4 -0.01436,0 -0.01555,0 -0.0021,2.38e-4 0.0021,0.01485 0,0.01555 -0.0012,2.39e-4 -0.01436,0 -0.01555,0 -0.0039,2.39e-4 -0.01197,-6.78e-4 -0.01555,0 -0.0012,0 -0.01436,-2.14e-4 -0.01555,0 -0.0012,2.38e-4 -0.01436,-4.58e-4 -0.01555,0 -0.004,4.83e-4 -0.01173,-4.48e-4 -0.01555,0 -0.0012,0 -0.01431,-4.58e-4 -0.01555,0 -0.0045,6.77e-4 0.0045,0.01485 0,0.01555 l -0.01555,0 c -0.0053,0.0012 -0.01006,-9.93e-4 -0.01555,0 -0.0055,9.17e-4 -0.02537,-0.0012 -0.03109,0 -0.0055,6.77e-4 -0.0098,-0.0011 -0.01555,0 -0.264265,0.04655 -0.536389,0.106349 -0.793016,0.171044 l 0.24879,0.932961 c 0.387716,-0.09753 0.797827,-0.183248 1.1973,-0.233241 0.100741,-0.01241 0.195652,-0.02178 0.295438,-0.03109 l -0.0933,-0.948511 z m -3.218717,0.808564 c -0.0019,9.17e-4 -0.01413,0.01455 -0.01555,0.01555 -0.0019,6.77e-4 -0.01389,-6.77e-4 -0.01555,0 -0.0015,6.77e-4 -0.01363,0.01485 -0.01555,0.01555 -0.0017,4.78e-4 -0.01387,-2.48e-4 -0.01555,0 -4.84e-4,2.39e-4 -0.01535,0 -0.01555,0 -0.0017,0 0.0015,0.0148 0,0.01555 -0.0015,6.78e-4 -0.01411,-9.16e-4 -0.01555,0 -4.83e-4,4.76e-4 -0.01485,-2.49e-4 -0.01555,0 -0.0017,9.17e-4 0.0016,0.0151 0,0.01555 -9.16e-4,2.39e-4 -0.01436,-4.98e-4 -0.01555,0 -4.84e-4,0 -0.01485,0 -0.01555,0 -9.17e-4,4.77e-4 -0.01455,0.01505 -0.01555,0.01555 -9.16e-4,2.38e-4 -0.01485,-6.78e-4 -0.01555,0 -6.77e-4,4.76e-4 -0.01466,-7.46e-4 -0.01555,0 -9.17e-4,4.76e-4 0.0012,0.01485 0,0.01555 -0.0017,4.78e-4 -0.01406,-9.16e-4 -0.01555,0 0.0015,-6.76e-4 -0.01389,-6.76e-4 -0.01555,0 -6.77e-4,2.39e-4 7.45e-4,0.0153 0,0.01555 -9.16e-4,4.77e-4 -0.0146,-2.48e-4 -0.01555,0 -0.0017,9.17e-4 -0.01389,-4.97e-4 -0.01555,0 -0.0021,6.77e-4 0.0015,0.01485 0,0.01555 -0.0012,4.76e-4 -0.0146,-7.45e-4 -0.01555,0 -0.0021,0.0012 -0.01314,-0.0012 -0.01555,0 -0.0017,9.16e-4 0.0015,0.0148 0,0.01555 l -0.01555,0 c -0.0033,0.0015 -0.01173,-0.0017 -0.01555,0 -0.0024,0.0012 -0.0134,0.01436 -0.01555,0.01555 -0.0033,0.0017 -0.01197,-0.0015 -0.01555,0 -0.0026,0.0012 -0.01291,0.01415 -0.01555,0.01555 -0.0036,0.0019 -0.01125,-0.0017 -0.01555,0 -0.0024,0.0012 -0.01316,0.01436 -0.01555,0.01555 -2.39e-4,0 -0.0153,-2.39e-4 -0.01555,0 l -0.01555,0 c -0.0039,0.0021 0.0036,0.01413 0,0.01555 -0.0036,0.0017 -0.01173,-0.0017 -0.01555,0 -0.0026,0.0012 -0.01316,-0.0012 -0.01555,0 -0.0015,2.39e-4 0.0012,0.0148 0,0.01555 -0.0036,0.0015 -0.01197,-0.0017 -0.01555,0 -0.0036,0.0015 -0.01197,-0.0015 -0.01555,0 -0.0021,9.16e-4 0.0019,0.01436 0,0.01555 -0.0039,0.0017 -0.01173,-0.0021 -0.01555,0 -0.0036,0.0015 -0.01197,-0.0017 -0.01555,0 -0.0019,9.16e-4 0.0015,0.01455 0,0.01555 -0.0019,9.17e-4 -0.01385,-9.16e-4 -0.01555,0 -4.83e-4,0 -0.0151,-4.58e-4 -0.01555,0 -0.0019,9.17e-4 0.0015,0.0146 0,0.01555 -0.0019,9.17e-4 -0.01413,-9.16e-4 -0.01555,0 -0.0019,9.17e-4 -0.01412,-9.16e-4 -0.01555,0 -4.83e-4,2.39e-4 4.97e-4,0.01533 0,0.01555 -0.0019,0.0012 -0.01362,-9.93e-4 -0.01555,0 -0.0017,9.16e-4 -0.01391,-6.78e-4 -0.01555,0 -9.17e-4,6.77e-4 0.0012,0.01505 0,0.01555 -6.77e-4,2.4e-4 -0.01455,-2.49e-4 -0.01555,0 -0.0015,4.78e-4 -0.01415,-6.77e-4 -0.01555,0 -9.16e-4,4.77e-4 9.17e-4,0.0153 0,0.01555 -6.77e-4,2.39e-4 -0.01485,-4.98e-4 -0.01555,0 -0.0015,4.78e-4 -0.01436,-9.16e-4 -0.01555,0 -0.0015,6.77e-4 9.16e-4,0.0146 0,0.01555 -6.78e-4,2.38e-4 -0.01455,-2.49e-4 -0.01555,0 -0.0015,0.0012 -0.01385,-6.77e-4 -0.01555,0 -6.76e-4,2.38e-4 4.98e-4,0.01509 0,0.01555 -0.0015,6.77e-4 -0.01385,-9.17e-4 -0.01555,0 -0.0012,9.16e-4 -0.01406,-4.48e-4 -0.01555,0 -0.0017,6.77e-4 0.0015,0.0146 0,0.01555 -6.78e-4,2.39e-4 -0.01484,-2.39e-4 -0.01555,0 -0.0015,0.0012 -0.01391,-9.93e-4 -0.01555,0 -0.0015,0.0012 0.0015,0.01455 0,0.01555 -0.0019,0.0012 -0.01363,-9.93e-4 -0.01555,0 0,2.39e-4 -0.01509,-2.38e-4 -0.01555,0 -0.0017,6.77e-4 0.0017,0.0146 0,0.01555 -0.0019,9.16e-4 -0.01364,-0.0012 -0.01555,0 -0.0057,0.0029 -0.01007,0.01245 -0.01555,0.01555 -0.223067,0.118658 -0.440849,0.240217 -0.653074,0.373185 l 0.49758,0.808567 c 0.428985,-0.268802 0.887046,-0.501343 1.352794,-0.699721 l -0.373113,-0.886351 z m -2.829983,1.772626 c -0.421346,0.366201 -0.80764,0.77142 -1.166202,1.1973 l 0.73082,0.606426 c 0.326334,-0.387686 0.691427,-0.740843 1.072906,-1.072906 l -0.637524,-0.73082 z m -2.130262,2.550095 c -0.0024,0.004 -0.01269,0.01125 -0.01555,0.01555 -2.39e-4,9.16e-4 4.98e-4,0.0148 0,0.01555 -9.16e-4,9.16e-4 -0.01485,-0.0012 -0.01555,0 -9.17e-4,0.0012 9.16e-4,0.01411 0,0.01555 -6.78e-4,0.0017 -0.0148,0.01391 -0.01555,0.01555 -9.17e-4,0.0012 6.77e-4,0.01436 0,0.01555 -2.39e-4,4.84e-4 -0.01508,-6.77e-4 -0.01555,0 -0.0012,0.0017 9.17e-4,0.01386 0,0.01555 -0.0012,0.0017 9.17e-4,0.01388 0,0.01555 -0.0012,0.0019 -0.01436,-0.0017 -0.01555,0 -0.0019,0.0039 0.0021,0.0115 0,0.01555 -0.257341,0.437853 -0.490091,0.895434 -0.684172,1.368343 l 0.886313,0.357636 c 0.192172,-0.467897 0.421816,-0.919274 0.684172,-1.352794 l -0.808555,-0.497602 z m -1.275048,3.078771 c -0.05323,0.223206 -0.101508,0.456191 -0.139943,0.684171 -2.39e-4,0.0026 4.97e-4,0.01269 0,0.01555 -6.77e-4,0.0039 6.77e-4,0.0115 0,0.01555 0,2.38e-4 -2.38e-4,0.0153 0,0.01555 -2.39e-4,0.0024 4.97e-4,0.01365 0,0.01555 -4.83e-4,0.0021 4.48e-4,0.01363 0,0.01555 -4.83e-4,0.0033 -0.0148,-0.0036 -0.01555,0 -2.39e-4,0.0017 2.46e-4,0.01388 0,0.01555 -2.39e-4,0.0017 4.62e-4,0.01385 0,0.01555 -2.38e-4,9.17e-4 0,0.01485 0,0.01555 2.37e-4,0.0015 0,0.01411 0,0.01555 -2.38e-4,9.16e-4 0,0.01455 0,0.01555 0,0.0012 0,0.01436 0,0.01555 2.39e-4,0.0015 -0.01485,-0.002 -0.01555,0 0,6.78e-4 -2.39e-4,0.01485 0,0.01555 0,0.0015 4.57e-4,0.0143 0,0.01555 -2.39e-4,6.76e-4 0,0.01485 0,0.01555 -2.39e-4,0.0015 4.57e-4,0.01385 0,0.01555 -2.39e-4,0.0015 0,0.01406 0,0.01555 -2.38e-4,0.0019 2.14e-4,0.01364 0,0.01555 -4.83e-4,0.0019 4.98e-4,0.01413 0,0.01555 -2.38e-4,2.38e-4 -0.01555,-4.63e-4 -0.01555,0 -2.38e-4,2.38e-4 0,0.01505 0,0.01555 0,0.0021 6.77e-4,0.01389 0,0.01555 -4.84e-4,0.0019 4.98e-4,0.01366 0,0.01555 -2.39e-4,0.0019 0,0.01366 0,0.01555 -9.17e-4,0.004 4.48e-4,0.01173 0,0.01555 2.39e-4,2.38e-4 0,0.01531 0,0.01555 -6.77e-4,0.0021 2.13e-4,0.01366 0,0.01555 -2.38e-4,0.0045 -0.01505,0.01126 -0.01555,0.01555 -0.0021,0.01528 0.0019,0.01629 0,0.03109 l 0,0.01555 c -0.0167,0.133924 -0.03471,0.268689 -0.04665,0.404284 -4.83e-4,0.0045 2.5e-4,0.01101 0,0.01555 -6.77e-4,0.0064 2.5e-4,0.02466 0,0.03109 -4.83e-4,0.0043 6.78e-4,0.01125 0,0.01555 -2.38e-4,0.0021 0,0.01362 0,0.01555 -2.38e-4,0.0043 6.78e-4,0.0115 0,0.01555 0,0.0024 0,0.01362 0,0.01555 l 0.948512,0.07775 c 0.03843,-0.504422 0.116266,-1.016281 0.23324,-1.508288 l -0.932962,-0.217692 z m 0.699722,3.249816 -0.948511,0.07775 c 0.0024,0.02792 -0.0024,0.0491 0,0.07775 2.39e-4,6.77e-4 -2.45e-4,0.01485 0,0.01555 0.0084,0.09883 0.01964,0.196368 0.03109,0.295438 4.83e-4,0.0088 -0.0012,0.0225 0,0.03109 0,0 0.01531,-2.45e-4 0.01555,0 2.38e-4,0.0015 0,0.01385 0,0.01555 0,0.0012 -2.45e-4,0.01436 0,0.01555 4.83e-4,6.77e-4 -2.13e-4,0.0148 0,0.01555 0,4.83e-4 0,0.01505 0,0.01555 2.39e-4,0.0015 0,0.01411 0,0.01555 0,9.17e-4 -2.45e-4,0.01455 0,0.01555 -2.39e-4,6.77e-4 0,0.0148 0,0.01555 0,9.16e-4 0,0.01455 0,0.01555 2.39e-4,6.77e-4 0.01531,-6.77e-4 0.01555,0 -2.39e-4,6.77e-4 -2.45e-4,0.01485 0,0.01555 0,6.78e-4 0,0.01485 0,0.01555 0,6.77e-4 0,0.01485 0,0.01555 0,4.82e-4 0,0.01505 0,0.01555 -2.38e-4,9.17e-4 0,0.01466 0,0.01555 0,9.17e-4 -2.45e-4,0.01436 0,0.01555 0,0.0012 0,0.01436 0,0.01555 0,4.84e-4 0.01531,-4.97e-4 0.01555,0 0,0.0012 0,0.01436 0,0.01555 2.39e-4,0.0012 -2.12e-4,0.01431 0,0.01555 0.0017,0.0081 -0.0015,0.0074 0,0.01555 -2.38e-4,0.0012 0,0.01455 0,0.01555 2.39e-4,0.0017 -2.43e-4,0.01411 0,0.01555 0.0026,0.01695 0.01293,0.04548 0.01555,0.0622 0.01647,0.108141 0.0266,0.219589 0.04665,0.326536 6.77e-4,0.0029 -2.49e-4,0.0127 0,0.01555 2.38e-4,0.0015 0.01531,-0.0012 0.01555,0 0.0024,0.01122 -0.002,0.02036 0,0.03109 2.38e-4,9.17e-4 -2.14e-4,0.01436 0,0.01555 4.82e-4,6.77e-4 0,0.0148 0,0.01555 2.38e-4,6.78e-4 0,0.01506 0,0.01555 0,9.17e-4 0.01531,-9.16e-4 0.01555,0 2.4e-4,0.0015 -2.48e-4,0.01411 0,0.01555 0,6.77e-4 -2.38e-4,0.0148 0,0.01555 2.4e-4,9.16e-4 0,0.01466 0,0.01555 4.84e-4,9.17e-4 -2.13e-4,0.01436 0,0.01555 0.02339,0.116973 0.0491,0.25239 0.07775,0.373185 l 0.932962,-0.233241 c -0.08188,-0.344715 -0.141952,-0.68802 -0.186593,-1.041807 -0.01861,-0.149918 -0.03471,-0.301014 -0.04664,-0.450931 z m 0.699721,2.954377 -0.886313,0.357636 c 0.0019,0.0039 0.01387,0.01197 0.01555,0.01555 9.17e-4,0.0017 -7.44e-4,0.01388 0,0.01555 0.0017,0.0036 -0.0015,0.01149 0,0.01555 0.0019,0.0043 0.01436,0.01173 0.01555,0.01555 0.0017,0.004 -0.002,0.01149 0,0.01555 0.0019,0.004 0.01412,0.01125 0.01555,0.01555 0.203392,0.485085 0.430919,0.955896 0.699721,1.399443 l 0.824116,-0.49758 C 22.865918,36.470424 22.635558,36.01833 22.444103,35.550433 Z m 1.570485,2.581195 -0.73082,0.621974 c 0.359995,0.426836 0.74605,0.816744 1.166202,1.181751 l 0.637524,-0.715271 c -0.382911,-0.33254 -0.746093,-0.701963 -1.072906,-1.088454 z m 2.285756,1.990317 -0.49758,0.808567 c 0.198856,0.124613 0.400169,0.24639 0.606425,0.357635 0.004,0.0021 0.01173,-0.002 0.01555,0 0.0057,0.0031 0.01006,0.01221 0.01555,0.01555 0.0017,6.77e-4 0.01388,0.01455 0.01555,0.01555 l 0.01555,0 c 0.0021,9.17e-4 0.01389,0.01461 0.01555,0.01555 0.0017,9.17e-4 0.01387,-9.16e-4 0.01555,0 0.0019,9.17e-4 -0.0017,0.01455 0,0.01555 0.0039,0.0019 0.01197,-0.0015 0.01555,0 0.0019,9.16e-4 0.01388,-0.0012 0.01555,0 0.0019,9.16e-4 -0.0015,0.0148 0,0.01555 0.0017,9.17e-4 0.01412,-9.92e-4 0.01555,0 0.0033,0.0019 0.01221,0.01389 0.01555,0.01555 0.0021,0.0012 0.01389,-9.93e-4 0.01555,0 0.0021,6.78e-4 0.01389,-9.16e-4 0.01555,0 0.0017,9.17e-4 -0.0017,0.01455 0,0.01555 0.0019,9.16e-4 0.01388,-9.17e-4 0.01555,0 0.0021,6.77e-4 0.01388,0.01466 0.01555,0.01555 0.0036,0.0017 0.01197,-0.0019 0.01555,0 0.0017,6.77e-4 0.01364,-9.17e-4 0.01555,0 l 0,0.01555 c 0.0024,9.17e-4 0.01389,-9.93e-4 0.01555,0 0.0017,9.17e-4 0.01387,-9.93e-4 0.01555,0 0.0019,9.17e-4 -0.002,0.01485 0,0.01555 0.0017,9.17e-4 0.01387,-6.77e-4 0.01555,0 0.0019,0.0012 0.01412,0.01485 0.01555,0.01555 0.0017,9.16e-4 0.01412,-9.17e-4 0.01555,0 0.0017,0.0012 0.01412,0.01485 0.01555,0.01555 0.0039,0.0017 0.01197,-0.0015 0.01555,0 0.0017,9.17e-4 0.01388,-9.16e-4 0.01555,0 4.84e-4,0 -2.48e-4,0.01531 0,0.01555 0.0033,0.0019 0.01221,-0.0015 0.01555,0 0.0019,6.78e-4 0.01388,0.01436 0.01555,0.01555 0.0039,0.0017 0.01197,-0.0017 0.01555,0 0.0039,0.0017 0.01173,0.01363 0.01555,0.01555 0.0019,9.16e-4 0.01389,-9.93e-4 0.01555,0 0.0036,0.0019 0.01173,-0.0017 0.01555,0 0.0021,9.16e-4 -0.0021,0.01485 0,0.01555 0.0021,9.17e-4 0.01365,-6.76e-4 0.01555,0 0.0019,9.17e-4 0.01389,0.01455 0.01555,0.01555 0.004,0.0017 0.01173,-0.0015 0.01555,0 0.006,0.0026 0.0098,0.01269 0.01555,0.01555 0.006,0.0029 0.02537,-0.0027 0.03109,0 0.102413,0.04584 0.206904,0.09507 0.310988,0.139944 l 0.373183,-0.870764 c -0.46535,-0.199616 -0.923411,-0.445796 -1.352874,-0.715315 z m 2.798884,1.1973 -0.23324,0.932962 c 0.0814,0.021 0.151358,0.02779 0.23324,0.04664 l 0.01555,0.01555 c 0.004,9.17e-4 0.01101,-9.16e-4 0.01555,0 0.0017,6.77e-4 0.01387,-1.99e-4 0.01555,0 l 0.01555,0 c 0.0017,4.84e-4 0.01411,-2.5e-4 0.01555,0 0.0017,4.83e-4 -0.0015,0.01505 0,0.01555 0.0015,4.83e-4 0.01411,-2.49e-4 0.01555,0 0.0015,4.83e-4 0.01366,-4.97e-4 0.01555,0 0.0012,2.39e-4 0.01436,-2.13e-4 0.01555,0 0.0012,2.39e-4 0.01436,-2.45e-4 0.01555,0 0.0012,2.39e-4 0.0146,-2.14e-4 0.01555,0 9.16e-4,2.38e-4 -9.17e-4,0.01531 0,0.01555 0.0017,2.39e-4 0.01385,-4.62e-4 0.01555,0 6.78e-4,2.39e-4 0.01466,-2.13e-4 0.01555,0 9.17e-4,2.38e-4 0.01436,-2.45e-4 0.01555,0 0.0017,4.83e-4 0.01388,-2.49e-4 0.01555,0 0.0019,4.83e-4 -0.0019,0.01505 0,0.01555 0.0017,2.39e-4 0.01436,-2.13e-4 0.01555,0 0.0019,4.84e-4 0.01366,-4.98e-4 0.01555,0 l 0.01555,0 c 0.004,6.78e-4 0.0115,-9.93e-4 0.01555,0 0.004,6.78e-4 0.01125,-7.44e-4 0.01555,0 0.0029,4.84e-4 -0.0028,0.0151 0,0.01555 0.004,6.78e-4 0.01149,-6.77e-4 0.01555,0 0.0039,9.17e-4 0.0115,-6.77e-4 0.01555,0 0.121032,0.02411 0.235171,0.04238 0.357635,0.0622 0.01122,0.0019 0.03591,-0.0015 0.04665,0 0.0043,6.77e-4 -0.004,0.0151 0,0.01555 0.007,0.0012 0.02442,-0.0012 0.03109,0 2.39e-4,0 0.01534,0 0.01555,0 0.0024,2.39e-4 0.01341,-2.49e-4 0.01555,0 0.0024,4.83e-4 0.01317,-2.49e-4 0.01555,0 0.0024,0 0.01389,-4.59e-4 0.01555,0 0.0017,0 0.01388,-2.13e-4 0.01555,0 6.77e-4,2.39e-4 -7.45e-4,0.01531 0,0.01555 9.16e-4,2.39e-4 0.01485,-2.45e-4 0.01555,0 0.0015,2.39e-4 0.01385,0 0.01555,0 0.0012,2.39e-4 0.0146,-2.14e-4 0.01555,0 0.0012,0 0.01431,-2.45e-4 0.01555,0 0.0015,2.39e-4 0.01415,-2.14e-4 0.01555,0 6.78e-4,2.39e-4 0.01506,0 0.01555,0 0.0017,2.39e-4 0.01411,-2.14e-4 0.01555,0 0.0019,2.39e-4 -0.0017,0.01534 0,0.01555 0.0019,2.38e-4 0.01389,-2.13e-4 0.01555,0 0.0019,4.83e-4 0.01365,-2.49e-4 0.01555,0 0.004,6.78e-4 0.0115,-6.77e-4 0.01555,0 0.133447,0.01623 0.26654,0.03376 0.404283,0.04665 l 0.0933,-0.948511 c -0.503705,-0.04631 -1.002402,-0.139964 -1.492738,-0.26434 z M 13.400435,12.349364 c -0.09976,-2.84e-4 -0.20979,0.0037 -0.30756,0.02365 -0.04377,0.0085 -0.07623,0.03481 -0.118292,0.04732 -0.05201,0.01506 -0.115024,0.02629 -0.165609,0.04732 -0.04918,0.02074 -0.09562,0.04567 -0.141951,0.07098 -0.0395,0.02132 -0.08077,0.04596 -0.118292,0.07097 -0.164845,0.11028 -0.291347,0.23678 -0.402193,0.402194 -0.02501,0.03751 -0.04965,0.07879 -0.07097,0.118291 -0.0253,0.0469 -0.04966,0.09222 -0.07098,0.141951 -0.02046,0.05002 -0.03171,0.113604 -0.04732,0.165609 -0.0125,0.04207 -0.03879,0.07452 -0.04732,0.118292 -0.0199,0.09777 -0.02394,0.207233 -0.02365,0.30756 l 0,6.766308 c 0,0.41609 0.176949,0.792069 0.449511,1.064629 0.272561,0.272563 0.648538,0.450079 1.064628,0.44951 0.832181,5.69e-4 1.490197,-0.681107 1.490481,-1.514139 l 0,-3.14657 3.122913,3.122912 c 0.615339,-0.796445 1.312549,-1.533728 2.105599,-2.152916 l -3.099253,-3.099253 3.146569,0 c 0.832465,2.84e-4 1.514426,-0.658017 1.514139,-1.490481 5.72e-4,-0.832181 -0.68139,-1.51414 -1.514139,-1.514139 l -6.766309,0 z m 29.282248,0 c -0.832465,-2.84e-4 -1.514421,0.681676 -1.514139,1.514139 2.87e-4,0.415807 0.176664,0.791784 0.449511,1.064629 0.272563,0.272562 0.648537,0.426422 1.064628,0.425852 l 3.146574,0 -3.170232,3.170229 c 0.794351,0.625648 1.51513,1.325259 2.129258,2.129257 l 3.17023,-3.170229 0,3.146571 c 0,0.416091 0.153292,0.792066 0.42585,1.064629 0.272848,0.272846 0.648257,0.449795 1.064628,0.44951 0.832467,2.85e-4 1.51443,-0.681673 1.51414,-1.514139 l 0,-6.766309 c -2.83e-4,-0.09976 -0.0046,-0.209221 -0.02368,-0.30756 -0.0088,-0.04519 -0.03491,-0.07451 -0.04728,-0.118292 -0.01474,-0.05002 -0.02681,-0.117297 -0.04728,-0.165609 -0.021,-0.05174 -0.04422,-0.09363 -0.07095,-0.14195 -0.02108,-0.03751 -0.02314,-0.08163 -0.04728,-0.118293 -0.05507,-0.08298 -0.119067,-0.142725 -0.189266,-0.212925 -0.07019,-0.07019 -0.153315,-0.133844 -0.236591,-0.189267 -0.03613,-0.02417 -0.08079,-0.04994 -0.118288,-0.07098 -0.04827,-0.02672 -0.09023,-0.04994 -0.14195,-0.07097 -0.04827,-0.02048 -0.09221,-0.03282 -0.14195,-0.04732 -0.0443,-0.01307 -0.09647,-0.03823 -0.14195,-0.04732 -0.09834,-0.01933 -0.208078,-0.02365 -0.307561,-0.02365 l -6.766309,0 z M 13.400435,41.631613 c -0.832749,0 -1.513855,0.681106 -1.51414,1.514139 l 0,6.766309 c -2.84e-4,0.09976 0.0048,0.209221 0.02365,0.30756 0.0088,0.04406 0.03509,0.07596 0.04732,0.118291 0.01534,0.05174 0.02656,0.115868 0.04732,0.165609 0.02046,0.05002 0.04486,0.09531 0.07098,0.141951 0.02103,0.03979 0.04567,0.07992 0.07097,0.118292 0.0557,0.08242 0.119636,0.143295 0.189268,0.212926 0.06963,0.06962 0.130218,0.133279 0.212925,0.189267 0.0378,0.0253 0.07879,0.05021 0.118293,0.07098 0.04662,0.02614 0.09193,0.05052 0.14195,0.07097 0.05002,0.02106 0.113316,0.03198 0.165608,0.04732 0.04207,0.01194 0.07424,0.03795 0.118293,0.04732 0.09806,0.01848 0.207517,0.02365 0.307559,0.02365 l 6.76631,0 c 0.833034,-2.84e-4 1.514139,-0.68139 1.514139,-1.514139 0,-0.83275 -0.681959,-1.491047 -1.514139,-1.490481 l -3.14657,0 3.170228,-3.170228 c -0.797558,-0.613646 -1.508395,-1.337335 -2.129258,-2.129259 l -3.170229,3.170229 0,-3.146569 c 5.76e-4,-0.832176 -0.657725,-1.514133 -1.490474,-1.514133 z m 36.072218,0 c -0.832459,-2.83e-4 -1.514422,0.681677 -1.51414,1.514139 l 0,3.14657 -3.217547,-3.217545 c -0.616573,0.795439 -1.335201,1.511301 -2.129258,2.129258 l 3.217549,3.217545 -3.146574,0 c -0.833034,2.84e-4 -1.514708,0.658301 -1.514139,1.490481 -5.69e-4,0.415522 0.176665,0.791784 0.449511,1.064629 0.272561,0.272562 0.648256,0.449794 1.064628,0.44951 l 6.766308,0 c 0.100033,-1e-6 0.209782,-0.004 0.307562,-0.02365 0.04354,-0.0088 0.07623,-0.03479 0.118288,-0.04732 0.05262,-0.01505 0.115018,-0.02742 0.165612,-0.04732 0.04949,-0.02161 0.09476,-0.04599 0.14195,-0.07097 0.03895,-0.0219 0.08078,-0.04598 0.118295,-0.07098 0.165123,-0.110557 0.315291,-0.237065 0.42585,-0.402194 0.02528,-0.03723 0.02566,-0.07908 0.04728,-0.118292 0.02475,-0.0469 0.04988,-0.09307 0.07096,-0.14195 0.02039,-0.05117 0.03231,-0.113587 0.04728,-0.165609 0.01253,-0.04207 0.03827,-0.0751 0.04728,-0.118293 0.01994,-0.09777 0.02398,-0.207802 0.02368,-0.307559 l 0,-6.766309 c 0,-0.832748 -0.658858,-1.515278 -1.490477,-1.514139 z"
     inkscape:connector-curvature="0" />
</svg>
