<?xml version="1.0" encoding="UTF-8" standalone="no"?>
<!-- Created with Inkscape (http://www.inkscape.org/) -->

<svg
   xmlns:dc="http://purl.org/dc/elements/1.1/"
   xmlns:cc="http://creativecommons.org/ns#"
   xmlns:rdf="http://www.w3.org/1999/02/22-rdf-syntax-ns#"
   xmlns:svg="http://www.w3.org/2000/svg"
   xmlns="http://www.w3.org/2000/svg"
   xmlns:sodipodi="http://sodipodi.sourceforge.net/DTD/sodipodi-0.dtd"
   xmlns:inkscape="http://www.inkscape.org/namespaces/inkscape"
   width="64px"
   height="64px"
   id="svg4427"
   version="1.1"
   inkscape:version="0.48.5 r10040"
   sodipodi:docname="ManipulateWindow.svg">
  <defs
     id="defs4429" />
  <sodipodi:namedview
     id="base"
     pagecolor="#ffffff"
     bordercolor="#666666"
     borderopacity="1.0"
     inkscape:pageopacity="0.0"
     inkscape:pageshadow="2"
     inkscape:zoom="11"
     inkscape:cx="67.236675"
     inkscape:cy="34.051449"
     inkscape:current-layer="svg4427"
     showgrid="true"
     inkscape:document-units="px"
     inkscape:grid-bbox="true"
     inkscape:window-width="1920"
     inkscape:window-height="1003"
     inkscape:window-x="-9"
     inkscape:window-y="-9"
     inkscape:window-maximized="1" />
  <metadata
     id="metadata4432">
    <rdf:RDF>
      <cc:Work
         rdf:about="">
        <dc:format>image/svg+xml</dc:format>
        <dc:type
           rdf:resource="http://purl.org/dc/dcmitype/StillImage" />
        <dc:title></dc:title>
      </cc:Work>
    </rdf:RDF>
  </metadata>
  <g
     transform="matrix(0.50907359,0,0,0.50907359,7.9099759,5.0928745)"
     id="g3" />
  <path
     id="path3262"
     d="m 51.054249,40.64504 c -1.08991,-3.71e-4 -1.98278,0.892495 -1.98241,1.982409 l 0,4.119694 -4.212622,-4.212619 c -0.807257,1.04144 -1.748132,1.978693 -2.787762,2.787762 l 4.212624,4.212619 -4.119699,0 c -1.090663,3.72e-4 -1.983155,0.86189 -1.982409,1.951434 -7.46e-4,0.544029 0.231301,1.036655 0.588528,1.393882 0.356855,0.356856 0.848739,0.5889 1.393881,0.588528 l 8.858889,0 c 0.13097,-2e-6 0.27466,-0.0052 0.40268,-0.03097 0.057,-0.01147 0.0998,-0.04555 0.15487,-0.06195 0.0689,-0.0197 0.15059,-0.0359 0.21683,-0.06195 0.0648,-0.02829 0.12407,-0.06021 0.18585,-0.09292 0.051,-0.02867 0.10576,-0.0602 0.15488,-0.09293 0.21619,-0.144748 0.4128,-0.31038 0.55755,-0.526578 0.0331,-0.04874 0.0336,-0.103534 0.0619,-0.154876 0.0324,-0.0614 0.0653,-0.121857 0.0929,-0.18585 0.0267,-0.067 0.0423,-0.148715 0.0619,-0.216826 0.0164,-0.05508 0.0501,-0.09833 0.0619,-0.154876 0.0261,-0.128003 0.0314,-0.272068 0.031,-0.402677 l 0,-8.85889 c 0,-1.090288 -0.86262,-1.983901 -1.95143,-1.98241 z m -39.228089,0 c -1.090289,0 -1.9820372,0.891748 -1.9824102,1.982409 l 0,8.85889 c -3.72e-4,0.130613 0.0063,0.273926 0.03097,0.402678 0.01147,0.05769 0.04594,0.09945 0.06195,0.154875 0.02009,0.06774 0.03478,0.151701 0.06195,0.216826 0.02679,0.06549 0.05873,0.124791 0.09293,0.185851 0.02754,0.0521 0.0598,0.104636 0.09292,0.154876 0.07292,0.107908 0.156635,0.18761 0.247801,0.278776 0.09116,0.09115 0.17049,0.174498 0.278776,0.247801 0.04949,0.03312 0.103159,0.06574 0.154876,0.09293 0.06104,0.03423 0.120364,0.06614 0.185851,0.09292 0.06549,0.02757 0.148361,0.04187 0.216825,0.06195 0.05508,0.01563 0.0972,0.04968 0.154877,0.06195 0.128379,0.02419 0.271694,0.03097 0.402676,0.03097 l 8.858891,0 c 1.090662,-3.72e-4 1.982409,-0.89212 1.982409,-1.982409 0,-1.09029 -0.892865,-1.952176 -1.982409,-1.951434 l -4.119693,0 4.150668,-4.150669 C 19.671803,44.580805 18.74113,43.633305 17.928255,42.596467 l -4.150669,4.150669 0,-4.119693 c 7.54e-4,-1.089538 -0.861137,-1.982401 -1.951425,-1.982401 z M 42.16438,10.306819 c -1.089918,-3.72e-4 -1.982779,0.892495 -1.982409,1.982409 3.75e-4,0.544402 0.2313,1.036655 0.588528,1.393882 0.356858,0.356856 0.849107,0.558299 1.393881,0.557553 l 4.119699,0 -4.150674,4.150669 c 1.040016,0.81914 1.983706,1.735115 2.787763,2.787762 l 4.150671,-4.150669 0,4.119694 c 0,0.544774 0.2007,1.037025 0.55755,1.393881 0.35723,0.357228 0.84874,0.588901 1.39388,0.588528 1.08992,3.73e-4 1.98279,-0.89249 1.98241,-1.982409 l 0,-8.858891 c -3.7e-4,-0.130613 -0.006,-0.273925 -0.031,-0.402677 -0.0115,-0.05916 -0.0457,-0.09756 -0.0619,-0.154875 -0.0193,-0.06549 -0.0351,-0.153573 -0.0619,-0.216826 -0.0275,-0.06774 -0.0579,-0.122586 -0.0929,-0.185851 -0.0276,-0.04911 -0.0303,-0.106873 -0.0619,-0.154876 -0.0721,-0.108647 -0.15589,-0.186865 -0.2478,-0.278776 -0.0919,-0.0919 -0.20073,-0.175237 -0.30976,-0.247801 -0.0473,-0.03164 -0.10577,-0.06538 -0.15487,-0.09293 -0.0632,-0.03498 -0.11814,-0.06539 -0.18585,-0.09292 -0.0632,-0.02681 -0.12073,-0.04297 -0.18585,-0.06195 -0.058,-0.01711 -0.12631,-0.05005 -0.18585,-0.06195 -0.12875,-0.02531 -0.27243,-0.03097 -0.40268,-0.03097 l -8.85889,0 z m -30.33822,0 c -0.130613,-3.72e-4 -0.27467,0.0049 -0.402677,0.03097 -0.05731,0.01116 -0.0998,0.04557 -0.154876,0.06195 -0.06809,0.01972 -0.150596,0.03442 -0.216826,0.06195 -0.06439,0.02715 -0.125192,0.0598 -0.185851,0.09293 -0.05171,0.02791 -0.105754,0.06017 -0.154876,0.09292 -0.215825,0.144386 -0.38145,0.310007 -0.526577,0.526578 -0.03275,0.04911 -0.06501,0.103152 -0.09292,0.154875 -0.03312,0.0614 -0.06502,0.120736 -0.09293,0.185851 -0.02679,0.06549 -0.04151,0.148737 -0.06195,0.216826 -0.01637,0.05508 -0.05079,0.09757 -0.06195,0.154876 -0.02605,0.128003 -0.03134,0.271322 -0.03097,0.402677 l 0,8.85889 c 0,0.544772 0.231673,1.037028 0.588528,1.393881 0.356855,0.356857 0.849109,0.589272 1.393881,0.588528 1.089545,7.44e-4 1.951062,-0.89175 1.951434,-1.982409 l 0,-4.119694 4.08872,4.088719 c 0.805642,-1.042757 1.718475,-2.008056 2.756787,-2.818738 l -4.057743,-4.057743 4.119693,0 c 1.089917,3.72e-4 1.982784,-0.861518 1.982409,-1.951434 7.49e-4,-1.089546 -0.89212,-1.982411 -1.982409,-1.982409 l -8.858891,0 z m 16.149273,35.517949 -0.344424,1.377697 c 0.120209,0.03102 0.223509,0.04104 0.344424,0.06888 l 0.02296,0.02296 c 0.006,0.0014 0.01626,-0.0013 0.02296,0 0.0025,10e-4 0.02048,-2.94e-4 0.02296,0 l 0.02296,0 c 0.0025,7.14e-4 0.02083,-3.68e-4 0.02296,0 0.0025,7.13e-4 -0.0021,0.02223 0,0.02296 0.0021,7.14e-4 0.02083,-3.67e-4 0.02296,0 0.0021,7.14e-4 0.02017,-7.34e-4 0.02296,0 0.0018,3.53e-4 0.0212,-3.14e-4 0.02296,0 0.0018,3.53e-4 0.0212,-3.61e-4 0.02296,0 0.0018,3.53e-4 0.02157,-3.15e-4 0.02296,0 0.0014,3.52e-4 -0.0013,0.0226 0,0.02296 0.0025,3.53e-4 0.02046,-6.83e-4 0.02296,0 10e-4,3.53e-4 0.02164,-3.15e-4 0.02296,0 0.0014,3.52e-4 0.0212,-3.61e-4 0.02296,0 0.0025,7.14e-4 0.02049,-3.67e-4 0.02296,0 0.0028,7.14e-4 -0.0028,0.02223 0,0.02296 0.0025,3.52e-4 0.0212,-3.15e-4 0.02296,0 0.0028,7.14e-4 0.02018,-7.35e-4 0.02296,0 l 0.02296,0 c 0.006,10e-4 0.01697,-0.0015 0.02296,0 0.006,10e-4 0.01661,-0.0011 0.02296,0 0.0043,7.14e-4 -0.0042,0.0223 0,0.02296 0.006,10e-4 0.01696,-10e-4 0.02296,0 0.0057,0.0014 0.01697,-10e-4 0.02296,0 0.178727,0.03561 0.347273,0.06259 0.528117,0.09185 0.01657,0.0028 0.05302,-0.0021 0.06889,0 0.0063,10e-4 -0.006,0.0223 0,0.02296 0.01022,0.0018 0.03606,-0.0018 0.04592,0 3.53e-4,0 0.02265,0 0.02296,0 0.0035,3.53e-4 0.01979,-3.67e-4 0.02296,0 0.0035,7.14e-4 0.01944,-3.67e-4 0.02296,0 0.0035,0 0.02051,-6.76e-4 0.02296,0 0.0025,0 0.02049,-3.14e-4 0.02296,0 0.001,3.53e-4 -0.0011,0.02261 0,0.02296 0.0014,3.53e-4 0.02193,-3.62e-4 0.02296,0 0.0021,3.53e-4 0.02046,0 0.02296,0 0.0018,3.53e-4 0.02157,-3.15e-4 0.02296,0 0.0018,0 0.02113,-3.62e-4 0.02296,0 0.0021,3.52e-4 0.0209,-3.15e-4 0.02296,0 10e-4,3.52e-4 0.02223,0 0.02296,0 0.0025,3.53e-4 0.02083,-3.15e-4 0.02296,0 0.0028,3.52e-4 -0.0025,0.02265 0,0.02296 0.0028,3.52e-4 0.02052,-3.15e-4 0.02296,0 0.0028,7.13e-4 0.02015,-3.68e-4 0.02296,0 0.006,10e-4 0.01697,-10e-4 0.02296,0 0.197059,0.02397 0.393598,0.04985 0.597002,0.06888 l 0.13777,-1.400658 c -0.743817,-0.06838 -1.480239,-0.206684 -2.204315,-0.390348 z m -4.133091,-1.768044 -0.734772,1.194004 c 0.293649,0.184015 0.590926,0.363843 0.895503,0.528117 0.006,0.0032 0.01732,-0.0029 0.02296,0 0.0085,0.0046 0.01486,0.01802 0.02296,0.02296 0.0025,10e-4 0.02049,0.02149 0.02296,0.02296 l 0.02296,0 c 0.0032,0.0014 0.02051,0.02157 0.02296,0.02296 0.0025,0.0014 0.02048,-0.0014 0.02296,0 0.0028,0.0014 -0.0025,0.02149 0,0.02296 0.0057,0.0028 0.01767,-0.0021 0.02296,0 0.0028,0.0014 0.02049,-0.0018 0.02296,0 0.0028,0.0014 -0.0021,0.02186 0,0.02296 0.0025,0.0014 0.02085,-0.0015 0.02296,0 0.0049,0.0028 0.01802,0.02051 0.02296,0.02296 0.0032,0.0018 0.02051,-0.0015 0.02296,0 0.0032,0.001 0.02051,-0.0013 0.02296,0 0.0025,0.0014 -0.0025,0.02149 0,0.02296 0.0028,0.0014 0.02049,-0.0013 0.02296,0 0.0032,10e-4 0.02049,0.02164 0.02296,0.02296 0.0053,0.0025 0.01767,-0.0028 0.02296,0 0.0025,10e-4 0.02014,-0.0013 0.02296,0 l 0,0.02296 c 0.0035,0.0014 0.02052,-0.0015 0.02296,0 0.0025,0.0014 0.02048,-0.0015 0.02296,0 0.0028,0.0014 -0.0029,0.02193 0,0.02296 0.0025,0.0014 0.02048,-0.001 0.02296,0 0.0028,0.0018 0.02085,0.02193 0.02296,0.02296 0.0025,0.0014 0.02085,-0.0013 0.02296,0 0.0025,0.0018 0.02085,0.02193 0.02296,0.02296 0.0057,0.0025 0.01767,-0.0021 0.02296,0 0.0025,0.0014 0.02049,-0.0013 0.02296,0 7.14e-4,0 -3.67e-4,0.0226 0,0.02296 0.0049,0.0028 0.01802,-0.0021 0.02296,0 0.0028,10e-4 0.02049,0.0212 0.02296,0.02296 0.0057,0.0025 0.01767,-0.0025 0.02296,0 0.0057,0.0025 0.01732,0.02013 0.02296,0.02296 0.0028,0.0014 0.02051,-0.0015 0.02296,0 0.0053,0.0028 0.01732,-0.0025 0.02296,0 0.0032,0.0014 -0.0032,0.02193 0,0.02296 0.0032,0.0014 0.02015,-0.001 0.02296,0 0.0028,0.0014 0.02051,0.02149 0.02296,0.02296 0.006,0.0025 0.01732,-0.0021 0.02296,0 0.0088,0.0038 0.0145,0.01874 0.02296,0.02296 0.0088,0.0043 0.03746,-0.0039 0.04592,0 0.151232,0.06768 0.305534,0.140381 0.459233,0.206655 l 0.551078,-1.285851 c -0.68706,-0.294706 -1.363477,-0.658238 -1.99766,-1.056234 z m -3.375358,-2.939087 -1.079196,0.918465 c 0.531601,0.630306 1.101686,1.206079 1.722121,1.745082 l 0.941427,-1.056234 c -0.565442,-0.49106 -1.101751,-1.036583 -1.584352,-1.607313 z m -2.319123,-3.811629 -1.308812,0.528118 c 0.0028,0.0057 0.02048,0.01767 0.02296,0.02296 0.0014,0.0025 -0.0011,0.02049 0,0.02296 0.0025,0.0053 -0.0021,0.01697 0,0.02296 0.0028,0.0063 0.0212,0.01732 0.02296,0.02296 0.0025,0.006 -0.0029,0.01697 0,0.02296 0.0028,0.006 0.02084,0.01661 0.02296,0.02296 0.300348,0.716321 0.636336,1.411564 1.033273,2.066546 l 1.216966,-0.734772 c -0.387419,-0.639118 -0.72759,-1.306722 -1.010311,-1.997661 z m -1.033273,-4.362707 -1.400659,0.114808 c 0.0035,0.04124 -0.0035,0.07251 0,0.114808 3.53e-4,0.001 -3.61e-4,0.02193 0,0.02296 0.01234,0.145943 0.029,0.289975 0.04592,0.436271 7.13e-4,0.01304 -0.0018,0.03323 0,0.04592 0,0 0.02261,-3.62e-4 0.02296,0 3.52e-4,0.0021 0,0.02046 0,0.02296 0,0.0018 -3.61e-4,0.0212 0,0.02296 7.14e-4,0.001 -3.14e-4,0.02186 0,0.02296 0,7.14e-4 0,0.02223 0,0.02296 3.53e-4,0.0021 0,0.02083 0,0.02296 0,0.0014 -3.61e-4,0.02149 0,0.02296 -3.52e-4,10e-4 0,0.02186 0,0.02296 0,0.0014 0,0.02149 0,0.02296 3.53e-4,0.001 0.0226,-10e-4 0.02296,0 -3.53e-4,0.001 -3.62e-4,0.02193 0,0.02296 0,10e-4 0,0.02193 0,0.02296 0,10e-4 0,0.02193 0,0.02296 0,7.13e-4 0,0.02223 0,0.02296 -3.52e-4,0.0014 0,0.02164 0,0.02296 0,0.0014 -3.62e-4,0.0212 0,0.02296 0,0.0018 0,0.0212 0,0.02296 0,7.14e-4 0.02261,-7.35e-4 0.02296,0 0,0.0018 0,0.0212 0,0.02296 3.53e-4,0.0018 -3.14e-4,0.02112 0,0.02296 0.0025,0.01198 -0.0021,0.01097 0,0.02296 -3.52e-4,0.0018 0,0.02149 0,0.02296 3.53e-4,0.0025 -3.6e-4,0.02083 0,0.02296 0.0038,0.02503 0.01909,0.06717 0.02296,0.09185 0.02432,0.159691 0.03927,0.324265 0.06889,0.482194 10e-4,0.0043 -3.67e-4,0.01874 0,0.02296 3.52e-4,0.0021 0.0226,-0.0018 0.02296,0 0.0035,0.01657 -0.0029,0.03006 0,0.04592 3.52e-4,0.0014 -3.16e-4,0.0212 0,0.02296 7.13e-4,0.001 0,0.02186 0,0.02296 3.52e-4,10e-4 0,0.02223 0,0.02296 0,0.0014 0.0226,-0.0014 0.02296,0 3.53e-4,0.0021 -3.67e-4,0.02083 0,0.02296 0,0.001 -3.52e-4,0.02186 0,0.02296 3.53e-4,0.0014 0,0.02164 0,0.02296 7.14e-4,0.0014 -3.15e-4,0.0212 0,0.02296 0.03455,0.172734 0.07251,0.372703 0.114808,0.551079 l 1.377697,-0.344425 c -0.120914,-0.509038 -0.209618,-1.015993 -0.275539,-1.538428 -0.02749,-0.221383 -0.05126,-0.444504 -0.06888,-0.665887 z m -1.033273,-4.798978 c -0.07861,0.329606 -0.149898,0.673654 -0.206654,1.010311 -3.53e-4,0.0038 7.34e-4,0.01874 0,0.02296 -10e-4,0.0057 10e-4,0.01697 0,0.02296 0,3.52e-4 -3.52e-4,0.02259 0,0.02296 -3.53e-4,0.0035 7.34e-4,0.02015 0,0.02296 -7.14e-4,0.0032 6.61e-4,0.02013 0,0.02296 -7.14e-4,0.0049 -0.02186,-0.0053 -0.02296,0 -3.53e-4,0.0025 3.62e-4,0.02051 0,0.02296 -3.53e-4,0.0025 6.83e-4,0.02046 0,0.02296 -3.52e-4,0.0014 0,0.02193 0,0.02296 3.5e-4,0.0021 0,0.02083 0,0.02296 -3.52e-4,0.0014 0,0.02149 0,0.02296 0,0.0018 0,0.0212 0,0.02296 3.53e-4,0.0021 -0.02193,-0.0029 -0.02296,0 0,0.001 -3.52e-4,0.02193 0,0.02296 0,0.0021 6.76e-4,0.02112 0,0.02296 -3.52e-4,0.001 0,0.02193 0,0.02296 -3.52e-4,0.0021 6.76e-4,0.02046 0,0.02296 -3.52e-4,0.0021 0,0.02076 0,0.02296 -3.51e-4,0.0028 3.16e-4,0.02014 0,0.02296 -7.13e-4,0.0028 7.35e-4,0.02086 0,0.02296 -3.51e-4,3.52e-4 -0.02296,-6.83e-4 -0.02296,0 -3.52e-4,3.52e-4 0,0.02223 0,0.02296 0,0.0032 0.001,0.02052 0,0.02296 -7.14e-4,0.0028 7.35e-4,0.02017 0,0.02296 -3.53e-4,0.0028 0,0.02018 0,0.02296 -0.0014,0.006 6.61e-4,0.01732 0,0.02296 3.53e-4,3.52e-4 0,0.0226 0,0.02296 -10e-4,0.0032 3.14e-4,0.02017 0,0.02296 -3.52e-4,0.0067 -0.02223,0.01662 -0.02296,0.02296 -0.0032,0.02257 0.0028,0.02406 0,0.04592 l 0,0.02296 c -0.02467,0.197764 -0.05126,0.39677 -0.06889,0.597002 -7.13e-4,0.0067 3.68e-4,0.01626 0,0.02296 -0.001,0.0095 3.68e-4,0.03641 0,0.04592 -7.14e-4,0.0063 10e-4,0.01661 0,0.02296 -3.52e-4,0.0032 0,0.02011 0,0.02296 -3.52e-4,0.0063 10e-4,0.01697 0,0.02296 0,0.0035 0,0.02011 0,0.02296 l 1.400659,0.114808 c 0.05675,-0.744875 0.17169,-1.500733 0.344424,-2.227277 l -1.377697,-0.321463 z m 1.882853,-4.5464 c -0.0035,0.006 -0.01873,0.01661 -0.02296,0.02296 -3.52e-4,0.0014 7.35e-4,0.02186 0,0.02296 -0.0014,0.0014 -0.02193,-0.0018 -0.02296,0 -0.0014,0.0018 0.0014,0.02083 0,0.02296 -10e-4,0.0025 -0.02186,0.02054 -0.02296,0.02296 -0.0014,0.0018 10e-4,0.0212 0,0.02296 -3.53e-4,7.14e-4 -0.02227,-0.001 -0.02296,0 -0.0018,0.0025 0.0014,0.02046 0,0.02296 -0.0018,0.0025 0.0014,0.02049 0,0.02296 -0.0018,0.0028 -0.0212,-0.0025 -0.02296,0 -0.0028,0.0057 0.0032,0.01697 0,0.02296 -0.380013,0.646575 -0.723713,1.322281 -1.010311,2.020622 l 1.308812,0.528118 c 0.283779,-0.690939 0.622892,-1.357484 1.010311,-1.997661 L 17.964176,23.59791 z m 3.145741,-3.765705 c -0.622198,0.540766 -1.192636,1.139149 -1.722121,1.768044 l 1.079196,0.895504 c 0.481895,-0.572493 1.021025,-1.093996 1.584352,-1.584352 l -0.941427,-1.079196 z m 4.179015,-2.617624 c -0.0028,0.0014 -0.02086,0.02149 -0.02296,0.02296 -0.0028,0.001 -0.02051,-10e-4 -0.02296,0 -0.0021,0.001 -0.02013,0.02193 -0.02296,0.02296 -0.0025,7.05e-4 -0.02048,-3.67e-4 -0.02296,0 -7.14e-4,3.53e-4 -0.02267,0 -0.02296,0 -0.0025,0 0.0021,0.02186 0,0.02296 -0.0021,0.001 -0.02083,-0.0014 -0.02296,0 -7.14e-4,7.03e-4 -0.02193,-3.68e-4 -0.02296,0 -0.0025,0.0014 0.0024,0.0223 0,0.02296 -0.0014,3.53e-4 -0.0212,-7.35e-4 -0.02296,0 -7.14e-4,0 -0.02193,0 -0.02296,0 -0.0014,7.05e-4 -0.02149,0.02223 -0.02296,0.02296 -0.0014,3.52e-4 -0.02193,-0.001 -0.02296,0 -10e-4,7.04e-4 -0.02164,-0.0011 -0.02296,0 -0.0014,7.04e-4 0.0018,0.02193 0,0.02296 -0.0025,7.04e-4 -0.02076,-0.0014 -0.02296,0 0.0021,-10e-4 -0.02052,-10e-4 -0.02296,0 -10e-4,3.52e-4 0.0011,0.02259 0,0.02296 -0.0014,7.05e-4 -0.02157,-3.67e-4 -0.02296,0 -0.0025,0.0014 -0.02051,-7.35e-4 -0.02296,0 -0.0032,0.001 0.0021,0.02193 0,0.02296 -0.0018,7.04e-4 -0.02157,-0.0011 -0.02296,0 -0.0032,0.0018 -0.01941,-0.0018 -0.02296,0 -0.0025,0.0014 0.0021,0.02186 0,0.02296 l -0.02296,0 c -0.0049,0.0021 -0.01732,-0.0025 -0.02296,0 -0.0035,0.0018 -0.01978,0.0212 -0.02296,0.02296 -0.0049,0.0025 -0.01767,-0.0021 -0.02296,0 -0.0038,0.0018 -0.01906,0.0209 -0.02296,0.02296 -0.0053,0.0028 -0.01661,-0.0025 -0.02296,0 -0.0035,0.0018 -0.01943,0.0212 -0.02296,0.02296 -3.52e-4,0 -0.02259,-3.52e-4 -0.02296,0 l -0.02296,0 c -0.0057,0.0032 0.0053,0.02087 0,0.02296 -0.0053,0.0025 -0.01732,-0.0025 -0.02296,0 -0.0038,0.0018 -0.01943,-0.0018 -0.02296,0 -0.0021,3.52e-4 0.0018,0.02186 0,0.02296 -0.0053,0.0021 -0.01767,-0.0025 -0.02296,0 -0.0053,0.0021 -0.01767,-0.0021 -0.02296,0 -0.0032,0.0014 0.0028,0.0212 0,0.02296 -0.0057,0.0025 -0.01732,-0.0032 -0.02296,0 -0.0053,0.0021 -0.01767,-0.0025 -0.02296,0 -0.0028,0.0014 0.0021,0.02149 0,0.02296 -0.0028,0.0014 -0.02046,-0.0014 -0.02296,0 -7.14e-4,0 -0.0223,-6.77e-4 -0.02296,0 -0.0028,0.0014 0.0021,0.02156 0,0.02296 -0.0028,0.0014 -0.02087,-0.0014 -0.02296,0 -0.0028,0.0014 -0.02085,-0.0014 -0.02296,0 -7.14e-4,3.53e-4 7.35e-4,0.02264 0,0.02296 -0.0028,0.0018 -0.02011,-0.0015 -0.02296,0 -0.0025,0.0014 -0.02054,-10e-4 -0.02296,0 -0.0014,0.001 0.0018,0.02223 0,0.02296 -0.001,3.53e-4 -0.02149,-3.67e-4 -0.02296,0 -0.0021,7.05e-4 -0.0209,-0.001 -0.02296,0 -0.0014,7.04e-4 0.0014,0.02259 0,0.02296 -10e-4,3.52e-4 -0.02193,-7.35e-4 -0.02296,0 -0.0021,7.05e-4 -0.0212,-0.0014 -0.02296,0 -0.0021,10e-4 0.0014,0.02157 0,0.02296 -0.001,3.52e-4 -0.02149,-3.68e-4 -0.02296,0 -0.0021,0.0018 -0.02046,-10e-4 -0.02296,0 -0.001,3.52e-4 7.35e-4,0.02229 0,0.02296 -0.0021,0.001 -0.02046,-0.0014 -0.02296,0 -0.0018,0.0014 -0.02076,-6.61e-4 -0.02296,0 -0.0025,0.001 0.0021,0.02157 0,0.02296 -10e-4,3.53e-4 -0.02191,-3.53e-4 -0.02296,0 -0.0021,0.0018 -0.02054,-0.0015 -0.02296,0 -0.0021,0.0018 0.0021,0.02149 0,0.02296 -0.0028,0.0018 -0.02013,-0.0015 -0.02296,0 0,3.53e-4 -0.02229,-3.51e-4 -0.02296,0 -0.0025,0.001 0.0025,0.02157 0,0.02296 -0.0028,0.0014 -0.02014,-0.0018 -0.02296,0 -0.0085,0.0043 -0.01486,0.01838 -0.02296,0.02296 -0.3294,0.17522 -0.650998,0.354725 -0.964388,0.551079 l 0.734772,1.194004 c 0.633479,-0.396938 1.309894,-0.740329 1.99766,-1.033273 l -0.551164,-1.30877 z m 4.753054,-1.193999 c -0.103993,0.0095 -0.195212,0.01097 -0.298501,0.02296 -0.0025,3.53e-4 -0.02049,-3.15e-4 -0.02296,0 -0.0074,3.53e-4 -0.01556,0.02186 -0.02296,0.02296 -0.0025,0 -0.02083,0 -0.02296,0 -0.0021,3.53e-4 -0.0212,-3.15e-4 -0.02296,0 -0.0049,3.53e-4 -0.01802,-6.82e-4 -0.02296,0 -0.0018,7.13e-4 -0.02157,0 -0.02296,0 -0.0049,0.001 -0.01802,-2.94e-4 -0.02296,0 -0.0018,3.53e-4 -0.02157,-3.61e-4 -0.02296,0 0.001,0 -0.02118,-3.53e-4 -0.02296,0 -0.0025,3.53e-4 -0.02049,0 -0.02296,0 -0.0018,7.13e-4 0.0021,0.02265 0,0.02296 -0.0018,3.53e-4 -0.02156,0 -0.02296,0 -0.0018,0 -0.0212,0 -0.02296,0 -0.0021,3.53e-4 -0.02046,0 -0.02296,0 -0.001,0 -0.02186,-7.13e-4 -0.02296,0 -0.001,0 -0.02157,0 -0.02296,0 -10e-4,0 -0.02193,-3.52e-4 -0.02296,0 -0.001,0 -0.02186,0 -0.02296,0 -0.001,0 0.001,0.02261 0,0.02296 -0.0014,3.53e-4 -0.02157,-6.76e-4 -0.02296,0 -0.0021,0 -0.02076,-6.76e-4 -0.02296,0 -0.001,0 -0.02186,0 -0.02296,0 -0.001,7.14e-4 -0.02186,0 -0.02296,0 -10e-4,0 -0.02186,0 -0.02296,0 -0.001,3.53e-4 -0.02193,0 -0.02296,0 -10e-4,0 -0.02156,-3.53e-4 -0.02296,0 -0.001,0 10e-4,0.0226 0,0.02296 -0.0018,3.52e-4 -0.02157,-6.76e-4 -0.02296,0 -0.0014,3.52e-4 -0.02149,-3.53e-4 -0.02296,0 -10e-4,3.52e-4 -0.02186,0 -0.02296,0 -0.0014,0 -0.0212,0 -0.02296,0 -0.001,3.52e-4 -0.02186,-3.15e-4 -0.02296,0 -0.0049,7.14e-4 -0.01802,-7.35e-4 -0.02296,0 -0.0014,-7.14e-4 -0.0212,0 -0.02296,0 -0.0032,3.52e-4 0.0032,0.02193 0,0.02296 -0.0018,3.53e-4 -0.0212,0 -0.02296,0 -0.0057,3.53e-4 -0.01767,-0.001 -0.02296,0 -0.0018,0 -0.0212,-3.15e-4 -0.02296,0 -0.0018,3.52e-4 -0.0212,-6.76e-4 -0.02296,0 -0.006,7.14e-4 -0.01733,-6.61e-4 -0.02296,0 -0.0018,0 -0.02113,-6.76e-4 -0.02296,0 -0.0067,0.001 0.0067,0.02193 0,0.02296 l -0.02296,0 c -0.0078,0.0018 -0.01485,-0.0015 -0.02296,0 -0.0081,0.0014 -0.03747,-0.0018 -0.04592,0 -0.0081,10e-4 -0.0145,-0.0017 -0.02296,0 -0.390239,0.06874 -0.792083,0.157044 -1.171042,0.252578 l 0.367386,1.377697 c 0.572537,-0.144016 1.178145,-0.270601 1.768044,-0.344425 0.148764,-0.01833 0.288918,-0.03217 0.436271,-0.04592 l -0.13777,-1.400658 z m 1.489272,-0.0831 0,31.75 c 8.761182,0 15.84375,-7.113818 15.84375,-15.875 0,-8.761182 -7.082568,-15.875 -15.84375,-15.875 z m 7.0625,9.625 c 0.567281,0 1.03125,0.463964 1.03125,1.03125 l 0,3.8125 4.1875,0 c 0.567421,0 1.03125,0.463964 1.03125,1.03125 0,0.567287 -0.463829,1.03125 -1.03125,1.03125 l -4.1875,0 0,4.4375 c 0,0.567423 -0.463969,1 -1.03125,1 -0.567287,0 -1,-0.432577 -1,-1 l 0,-4.4375 -4.03125,0 c -0.567286,0 -1.03125,-0.463963 -1.03125,-1.03125 0,-0.567286 0.463964,-1.03125 1.03125,-1.03125 l 4.03125,0 0,-3.8125 c 0,-0.567286 0.432713,-1.03125 1,-1.03125 z m -19.259785,6.893116 h 10.179364 c 0.562308,0 1.017937,-0.455765 1.017937,-1.017936 0,-0.562172 -0.455629,-1.017937 -1.017937,-1.017937 H 19.333965 c -0.562171,0 -1.017937,0.455765 -1.017937,1.017937 0,0.562171 0.455766,1.017936 1.017937,1.017936 z" />
</svg>
