<?xml version="1.0" encoding="UTF-8" standalone="no"?>
<!-- Created with Inkscape (http://www.inkscape.org/) -->

<svg
   xmlns:dc="http://purl.org/dc/elements/1.1/"
   xmlns:cc="http://creativecommons.org/ns#"
   xmlns:rdf="http://www.w3.org/1999/02/22-rdf-syntax-ns#"
   xmlns:svg="http://www.w3.org/2000/svg"
   xmlns="http://www.w3.org/2000/svg"
   xmlns:sodipodi="http://sodipodi.sourceforge.net/DTD/sodipodi-0.dtd"
   xmlns:inkscape="http://www.inkscape.org/namespaces/inkscape"
   width="64px"
   height="64px"
   id="svg7134"
   version="1.1"
   inkscape:version="0.48.5 r10040"
   sodipodi:docname="MouseDoubleLeftClick.svg">
  <defs
     id="defs7136" />
  <sodipodi:namedview
     id="base"
     pagecolor="#ffffff"
     bordercolor="#666666"
     borderopacity="1.0"
     inkscape:pageopacity="0.0"
     inkscape:pageshadow="2"
     inkscape:zoom="7.7781746"
     inkscape:cx="39.561032"
     inkscape:cy="29.929706"
     inkscape:current-layer="svg7134"
     showgrid="true"
     inkscape:document-units="px"
     inkscape:grid-bbox="true"
     inkscape:window-width="942"
     inkscape:window-height="985"
     inkscape:window-x="960"
     inkscape:window-y="0"
     inkscape:window-maximized="0" />
  <metadata
     id="metadata7139">
    <rdf:RDF>
      <cc:Work
         rdf:about="">
        <dc:format>image/svg+xml</dc:format>
        <dc:type
           rdf:resource="http://purl.org/dc/dcmitype/StillImage" />
        <dc:title></dc:title>
      </cc:Work>
    </rdf:RDF>
  </metadata>
  <path
     inkscape:connector-curvature="0"
     id="path14"
     d="m 32.520749,14.204133 c -0.564971,0 -1.027219,-0.460194 -1.027219,-1.027219 0,-0.653311 -0.581406,-0.977912 -1.814068,-1.516175 -1.113506,-0.484847 -2.635845,-1.150485 -2.635845,-2.7858176 0,-0.567025 0.462249,-1.0272193 1.02722,-1.0272193 0.56497,0 1.027218,0.4601943 1.027218,1.0272193 0,0.2917297 0.776578,0.630712 1.405236,0.9018978 1.212118,0.5300448 3.044677,1.3292218 3.044677,3.4000948 0,0.567025 -0.462249,1.027219 -1.027219,1.027219 z m 2.054438,17.269604 h -4.108876 c -0.56497,0 -1.027219,-0.460194 -1.027219,-1.027218 v -8.217751 c 0,-0.567025 0.462249,-1.027219 1.027219,-1.027219 h 4.108876 c 0.56497,0 1.027219,0.460194 1.027219,1.027219 v 8.217751 c 0,0.567024 -0.462249,1.027218 -1.027219,1.027218 z M 31.49353,29.4193 h 2.054438 V 23.255986 H 31.49353 V 29.4193 z m 1.027219,-7.190532 c -0.564971,0 -1.027219,-0.460194 -1.027219,-1.027219 v -6.163314 c 0,-0.567025 0.462248,-1.027219 1.027219,-1.027219 0.56497,0 1.027219,0.460194 1.027219,1.027219 v 6.163314 c 0,0.567025 -0.462249,1.027219 -1.027219,1.027219 z m 13.353846,5.136094 H 35.602406 c -0.564971,0 -1.027219,-0.460195 -1.027219,-1.027219 0,-0.567025 0.462248,-1.027219 1.027219,-1.027219 h 10.272189 c 0.56497,0 1.027219,0.460194 1.027219,1.027219 0,0.567024 -0.462249,1.027219 -1.027219,1.027219 z m -16.435503,0 H 19.166903 c -0.564971,0 -1.027219,-0.460195 -1.027219,-1.027219 0,-0.567025 0.462248,-1.027219 1.027219,-1.027219 h 10.272189 c 0.564971,0 1.027219,0.460194 1.027219,1.027219 0,0.567024 -0.462248,1.027219 -1.027219,1.027219 z m 3.114528,28.76213 h -0.06369 c -8.478667,0 -15.371306,-6.896748 -15.371306,-15.375413 V 25.150178 c 0,-6.707739 5.456587,-12.166381 12.166381,-12.166381 h 6.483806 c 6.713903,0 12.166381,5.458642 12.166381,12.166381 v 15.601401 c -0.0062,8.478665 -6.902911,15.375413 -15.381576,15.375413 z M 29.278846,15.038235 c -5.575745,0 -10.111943,4.536199 -10.111943,10.111943 v 15.601401 c 0,7.34667 5.976359,13.320975 13.320975,13.320975 h 0.06369 c 7.340506,0 13.316867,-5.97636 13.316867,-13.320975 V 25.150178 c 10e-7,-5.575744 -4.536198,-10.111943 -10.111943,-10.111943 h -6.477642 z" />
</svg>
