<?xml version="1.0" encoding="UTF-8" standalone="no"?>
<!-- Created with Inkscape (http://www.inkscape.org/) -->

<svg
   xmlns:dc="http://purl.org/dc/elements/1.1/"
   xmlns:cc="http://creativecommons.org/ns#"
   xmlns:rdf="http://www.w3.org/1999/02/22-rdf-syntax-ns#"
   xmlns:svg="http://www.w3.org/2000/svg"
   xmlns="http://www.w3.org/2000/svg"
   xmlns:xlink="http://www.w3.org/1999/xlink"
   xmlns:sodipodi="http://sodipodi.sourceforge.net/DTD/sodipodi-0.dtd"
   xmlns:inkscape="http://www.inkscape.org/namespaces/inkscape"
   width="64px"
   height="64px"
   id="svg6906"
   version="1.1"
   inkscape:version="0.91 r13725"
   sodipodi:docname="MouseDoubleLeftClick.svg">
  <defs
     id="defs6908">
    <clipPath
       id="SVGID_2_">
      <use
         height="100%"
         width="100%"
         y="0"
         x="0"
         style="overflow:visible"
         xlink:href="#SVGID_1_"
         overflow="visible"
         id="use3343" />
    </clipPath>
  </defs>
  <sodipodi:namedview
     id="base"
     pagecolor="#ffffff"
     bordercolor="#666666"
     borderopacity="1.0"
     inkscape:pageopacity="0.0"
     inkscape:pageshadow="2"
     inkscape:zoom="5.6568543"
     inkscape:cx="28.142121"
     inkscape:cy="38.694068"
     inkscape:current-layer="svg6906"
     showgrid="true"
     inkscape:document-units="px"
     inkscape:grid-bbox="true"
     inkscape:window-width="619"
     inkscape:window-height="665"
     inkscape:window-x="2848"
     inkscape:window-y="391"
     inkscape:window-maximized="0" />
  <metadata
     id="metadata6911">
    <rdf:RDF>
      <cc:Work
         rdf:about="">
        <dc:type
           rdf:resource="http://purl.org/dc/dcmitype/StillImage" />
        <dc:title></dc:title>
        <dc:format>image/svg+xml</dc:format>
      </cc:Work>
      <dc:format>image/svg+xml</dc:format>
    </rdf:RDF>
  </metadata>
  <g
     transform="matrix(0.47811328,0,0,0.47811328,8.5151129,8.0461809)"
     id="g3337">
    <defs
       id="defs3339">
      <rect
         id="SVGID_1_"
         x="4.5"
         y="6.4619999"
         width="90"
         height="88.038002" />
    </defs>
    <clipPath
       id="clipPath3392">
      <use
         height="100%"
         width="100%"
         y="0"
         x="0"
         style="overflow:visible"
         xlink:href="#SVGID_1_"
         overflow="visible"
         id="use3394" />
    </clipPath>
  </g>
  <path
     id="path3436-7"
     style="fill:#000000"
     d="m 32.594989,20.244242 c -0.420338,0.232665 -0.820121,0.506154 -1.214681,0.780934 -0.913928,0.713136 -1.690942,1.68154 -1.952849,2.830573 -0.221291,0.999257 -0.03765,2.062476 0.442126,2.960344 0.370341,0.693203 0.833955,1.331339 1.251155,1.996409 0.260965,0.390873 0.504623,0.798538 0.776284,1.179033 0.114838,0.05079 0.212182,-0.103968 0.3161,-0.143031 1.542027,-1.003584 3.087255,-2.002589 4.62695,-3.009544 0.07788,-0.113168 -0.06424,-0.231684 -0.104575,-0.333531 -1.06743,-1.693094 -2.169448,-3.364258 -3.263787,-5.040067 -0.273488,-0.402584 -0.525177,-0.823303 -0.818399,-1.210736 -0.01933,-0.0021 -0.03902,-0.01084 -0.05833,-0.01038 z m 13.462747,16.414108 -2.953798,1.918748 c -0.902088,0.58489 -1.786849,0.882639 -2.630589,0.882639 l -7.07e-4,0 c -2.3095,-0.0018 -3.816633,-2.239837 -3.829364,-2.258225 l -4.081142,-6.284203 10.7858,-7.005237 4.082204,6.285971 c 2.451656,3.774199 -0.978117,6.199334 -1.372404,6.460307 m -3.336063,-13.71025 -4.910385,3.18931 -4.215871,-6.490718 0.995444,-0.646066 c 0.901734,-0.58595 1.787201,-0.882639 2.630941,-0.882639 2.309146,0 3.816634,2.238423 3.829011,2.257165 l 1.67086,2.572948 z m -5.874355,3.81522 -4.911093,3.189664 -1.672274,-2.574717 c -2.452364,-3.773492 0.977762,-6.198627 1.372757,-6.46066 l 0.994384,-0.645005 4.216226,6.490718 z M 56.91603,40.057711 c -0.820755,-0.628739 -2.579667,-1.463992 -5.14236,0.02228 -3.077566,1.786848 -4.58965,0.28714 -5.586508,-0.935682 l 1.043889,-0.677892 c 0.0587,-0.03784 1.430045,-0.938864 2.361837,-2.52627 0.896783,-1.525522 1.561945,-3.964801 -0.355036,-6.917185 l -6.379328,-9.822186 c -0.08558,-0.131901 -2.142944,-3.238463 -5.636722,-3.238463 -1.267377,0 -2.548194,0.41409 -3.804963,1.230601 l -2.954154,1.917335 c -0.05728,0.03784 -1.429337,0.939571 -2.361129,2.526624 -0.896783,1.526229 -1.562652,3.964801 0.355036,6.916124 l 6.379328,9.82183 c 0.08558,0.132254 2.142945,3.23917 5.636722,3.240585 l 7.07e-4,0 c 1.266672,0 2.547134,-0.413737 3.804258,-1.230602 l 0.939571,-0.61035 c 1.062632,1.316532 3.149351,3.617192 7.133248,1.299204 1.491928,-0.86425 2.826494,-0.898198 3.866495,-0.103611 1.371343,1.052377 2.02625,3.424115 1.494757,5.398736 -0.08239,0.30765 0.09831,0.62202 0.404543,0.704767 0.05057,0.01379 0.101135,0.02122 0.150288,0.02122 0.2539,0 0.485523,-0.169737 0.554479,-0.425052 0.656321,-2.43256 -0.161959,-5.274615 -1.904958,-6.61201 M 10.506567,20.246106 c -0.420337,0.232665 -0.8201197,0.506154 -1.2146797,0.780934 -0.913928,0.713136 -1.690942,1.68154 -1.952849,2.830573 -0.221291,0.999257 -0.03765,2.062476 0.442126,2.960344 0.370341,0.693203 0.833955,1.331339 1.251155,1.996409 0.260965,0.390873 0.504623,0.798538 0.776284,1.179033 0.114838,0.05079 0.2121817,-0.103968 0.3160997,-0.143031 1.542026,-1.003584 3.087254,-2.002589 4.626949,-3.009544 0.07788,-0.113168 -0.06424,-0.231684 -0.104575,-0.333531 -1.06743,-1.693094 -2.169448,-3.364258 -3.263787,-5.040067 -0.273488,-0.402584 -0.525177,-0.823303 -0.818399,-1.210736 -0.01933,-0.0021 -0.03902,-0.01084 -0.05833,-0.01038 z m 13.462748,16.414108 -2.953798,1.918748 c -0.902088,0.58489 -1.786849,0.882639 -2.630589,0.882639 l -7.07e-4,0 c -2.3095,-0.0018 -3.816634,-2.239837 -3.829365,-2.258225 l -4.081142,-6.284203 10.785801,-7.005237 4.082204,6.285971 c 2.451656,3.774199 -0.978117,6.199334 -1.372404,6.460307 m -3.336063,-13.71025 -4.910385,3.18931 -4.215872,-6.490718 0.995444,-0.646066 c 0.901734,-0.58595 1.787201,-0.882639 2.630942,-0.882639 2.309146,0 3.816634,2.238423 3.829011,2.257165 l 1.67086,2.572948 z m -5.874356,3.81522 -4.9110917,3.189664 -1.672274,-2.574717 c -2.452364,-3.773492 0.977762,-6.198627 1.372757,-6.46066 l 0.9943827,-0.645005 4.216226,6.490718 z m 20.068713,13.294391 c -0.820755,-0.628739 -2.579667,-1.463992 -5.14236,0.02228 -3.077566,1.786848 -4.58965,0.28714 -5.586508,-0.935682 l 1.043889,-0.677892 c 0.0587,-0.03784 1.430045,-0.938864 2.361837,-2.52627 0.896783,-1.525522 1.561945,-3.964801 -0.355036,-6.917185 L 20.770103,19.20264 c -0.08558,-0.131901 -2.142944,-3.238463 -5.636722,-3.238463 -1.267378,0 -2.548195,0.41409 -3.804964,1.230601 l -2.9541527,1.917335 c -0.05728,0.03784 -1.429337,0.939571 -2.361129,2.526624 -0.896783,1.526229 -1.562652,3.964801 0.355036,6.916124 l 6.3793267,9.82183 c 0.08558,0.132254 2.142945,3.23917 5.636723,3.240585 l 7.07e-4,0 c 1.266672,0 2.547134,-0.413737 3.804258,-1.230602 l 0.939571,-0.61035 c 1.062632,1.316532 3.149351,3.617192 7.133248,1.299204 1.491928,-0.86425 2.826494,-0.898198 3.866495,-0.103611 1.371343,1.052377 2.02625,3.424115 1.494757,5.398736 -0.08239,0.30765 0.09831,0.62202 0.404543,0.704767 0.05057,0.01379 0.101135,0.02122 0.150288,0.02122 0.2539,0 0.485523,-0.169737 0.554479,-0.425052 0.656321,-2.43256 -0.161959,-5.274615 -1.904958,-6.61201" />
</svg>
