<?xml version="1.0" encoding="UTF-8" standalone="no"?>
<!-- Created with Inkscape (http://www.inkscape.org/) -->

<svg
   xmlns:dc="http://purl.org/dc/elements/1.1/"
   xmlns:cc="http://creativecommons.org/ns#"
   xmlns:rdf="http://www.w3.org/1999/02/22-rdf-syntax-ns#"
   xmlns:svg="http://www.w3.org/2000/svg"
   xmlns="http://www.w3.org/2000/svg"
   xmlns:xlink="http://www.w3.org/1999/xlink"
   xmlns:sodipodi="http://sodipodi.sourceforge.net/DTD/sodipodi-0.dtd"
   xmlns:inkscape="http://www.inkscape.org/namespaces/inkscape"
   width="64px"
   height="64px"
   id="svg6906"
   version="1.1"
   inkscape:version="0.48.5 r10040"
   sodipodi:docname="MouseLeftDownUp.svg">
  <defs
     id="defs6908">
    <clipPath
       id="SVGID_2_">
      <use
         height="100%"
         width="100%"
         y="0"
         x="0"
         style="overflow:visible"
         xlink:href="#SVGID_1_"
         overflow="visible"
         id="use3343" />
    </clipPath>
  </defs>
  <sodipodi:namedview
     id="base"
     pagecolor="#ffffff"
     bordercolor="#666666"
     borderopacity="1.0"
     inkscape:pageopacity="0.0"
     inkscape:pageshadow="2"
     inkscape:zoom="8.0000001"
     inkscape:cx="42.031634"
     inkscape:cy="34.001814"
     inkscape:current-layer="svg6906"
     showgrid="true"
     inkscape:document-units="px"
     inkscape:grid-bbox="true"
     inkscape:window-width="942"
     inkscape:window-height="985"
     inkscape:window-x="0"
     inkscape:window-y="0"
     inkscape:window-maximized="0" />
  <metadata
     id="metadata6911">
    <rdf:RDF>
      <cc:Work
         rdf:about="">
        <dc:type
           rdf:resource="http://purl.org/dc/dcmitype/StillImage" />
        <dc:title></dc:title>
        <dc:format>image/svg+xml</dc:format>
      </cc:Work>
      <dc:format>image/svg+xml</dc:format>
    </rdf:RDF>
  </metadata>
  <g
     transform="matrix(0.47811328,0,0,0.47811328,8.5151129,8.0461809)"
     id="g3337">
    <defs
       id="defs3339">
      <rect
         id="SVGID_1_"
         x="4.5"
         y="6.4619999"
         width="90"
         height="88.038002" />
    </defs>
    <clipPath
       id="clipPath3392">
      <use
         height="100%"
         width="100%"
         y="0"
         x="0"
         style="overflow:visible"
         xlink:href="#SVGID_1_"
         overflow="visible"
         id="use3394" />
    </clipPath>
  </g>
  <g
     transform="matrix(0.99699408,0,0,0.99699408,-1.9726057,1.9961361)"
     id="g10"
     style="fill:#000000">
    <g
       id="g12"
       style="fill:#000000" />
    <g
       id="g16"
       style="fill:#000000" />
    <g
       id="g20"
       style="fill:#000000" />
    <g
       id="g24"
       style="fill:#000000" />
  </g>
  <path
     id="path8-8"
     style="fill:#000000"
     d="m 31.408077,39.520182 c -7.36e-4,-0.114425 0.0271,-0.223631 0.0704,-0.3379 l 0.02816,-0.06335 c 0.154552,-0.189147 0.349975,-0.320846 0.605404,-0.323821 l 5.46976,-0.01408 c 0.137307,0.02 0.209737,0.02674 0.309742,0.08448 0.322215,0.186031 0.432416,0.599972 0.246387,0.922186 l -2.76656,4.801001 c -0.186031,0.322215 -0.599972,0.432417 -0.922188,0.246386 -0.100069,-0.05777 -0.146353,-0.123492 -0.232304,-0.232308 l -2.717281,-4.737649 c -0.06259,-0.111319 -0.09082,-0.230519 -0.09152,-0.34494 z m -1.54167,-0.732118 c 0.001,0.167602 0.03503,0.336756 0.126713,0.499812 l 3.984407,6.948074 c 0.125897,0.15939 0.198366,0.246236 0.344939,0.33086 0.47197,0.272491 1.072071,0.112948 1.344561,-0.359018 l 4.061843,-7.032549 c 0.272492,-0.471969 0.105909,-1.072071 -0.366057,-1.344562 -0.146487,-0.08457 -0.256454,-0.104455 -0.457573,-0.133753 l -8.011053,0.02815 c -0.374147,0.0043 -0.653565,0.194597 -0.879949,0.471653 l -0.04927,0.08448 c -0.06342,0.167381 -0.09958,0.339252 -0.09856,0.506854 z m 8.451912,-3.722523 c 7.36e-4,0.114426 -0.02711,0.223632 -0.0704,0.337901 l -0.02816,0.06335 c -0.154557,0.189144 -0.349978,0.320843 -0.605409,0.323816 l -5.46976,0.01408 c -0.137307,-0.02 -0.209738,-0.02672 -0.309744,-0.08448 -0.322213,-0.18603 -0.432415,-0.599971 -0.246385,-0.922186 l 2.766561,-4.801 c 0.186028,-0.322216 0.59997,-0.432418 0.922185,-0.246386 0.100068,0.05776 0.146355,0.123491 0.232307,0.232307 l 2.717281,4.737643 c 0.06259,0.111319 0.09082,0.230519 0.09152,0.34494 z m 1.54167,0.732119 c -10e-4,-0.167602 -0.03503,-0.336755 -0.126713,-0.499811 l -3.984407,-6.948075 c -0.125897,-0.159391 -0.198366,-0.246237 -0.344939,-0.33086 -0.47197,-0.272492 -1.072071,-0.112949 -1.344561,0.359017 l -4.061842,7.03255 c -0.272493,0.471969 -0.105909,1.07207 0.366057,1.344562 0.146486,0.08457 0.256451,0.104455 0.457574,0.133753 l 8.011052,-0.02816 c 0.374146,-0.0043 0.653565,-0.194597 0.879947,-0.471652 l 0.04927,-0.08448 c 0.06342,-0.167378 0.09958,-0.339248 0.09856,-0.50685 z M 28.614124,11.325243 c -2.021841,0 -4.078985,0.688519 -6.083901,1.991095 l -4.682761,3.060386 c -0.09138,0.06037 -2.311348,1.487247 -3.797829,4.019062 -1.430633,2.434785 -2.469323,6.31654 0.589954,11.024767 l 10.176707,15.670655 c 0.136521,0.210984 3.423198,5.159841 8.9968,5.162098 1.934078,0 3.866473,-0.612274 5.788925,-1.806734 l 0.258104,-0.147488 1.511757,-0.958676 1.54863,-1.032419 1.659246,-1.069292 c 0.09365,-0.06037 2.274474,-1.486685 3.760957,-4.019063 1.430632,-2.433656 2.505065,-6.351719 -0.553082,-11.061638 L 37.610924,16.48734 c -0.13652,-0.210419 -3.423198,-5.162097 -8.9968,-5.162097 z m 0,3.46598 c 3.683766,0 6.101028,3.546697 6.120773,3.576596 l 2.654794,4.129679 -7.816892,5.088354 -6.7476,-10.361069 1.585502,-1.032419 c 1.438531,-0.934763 2.857408,-1.401141 4.203423,-1.401141 z m 9.771114,9.218032 6.526367,10.029219 c 3.911111,6.020957 -1.583324,9.907868 -2.212328,10.324197 l -4.68276,3.060386 c -1.439095,0.933072 -2.85741,1.401141 -4.203423,1.401141 -3.684332,-0.0028 -6.100465,-3.584134 -6.120774,-3.613468 L 21.165954,35.18151 38.385238,24.009255 z" />
</svg>
