<?xml version="1.0" encoding="UTF-8" standalone="no"?>
<!-- Created with Inkscape (http://www.inkscape.org/) -->

<svg
   xmlns:dc="http://purl.org/dc/elements/1.1/"
   xmlns:cc="http://creativecommons.org/ns#"
   xmlns:rdf="http://www.w3.org/1999/02/22-rdf-syntax-ns#"
   xmlns:svg="http://www.w3.org/2000/svg"
   xmlns="http://www.w3.org/2000/svg"
   xmlns:sodipodi="http://sodipodi.sourceforge.net/DTD/sodipodi-0.dtd"
   xmlns:inkscape="http://www.inkscape.org/namespaces/inkscape"
   width="64px"
   height="64px"
   id="svg4427"
   version="1.1"
   inkscape:version="0.48.5 r10040"
   sodipodi:docname="MouseDrag.svg">
  <defs
     id="defs4429" />
  <sodipodi:namedview
     id="base"
     pagecolor="#ffffff"
     bordercolor="#666666"
     borderopacity="1.0"
     inkscape:pageopacity="0.0"
     inkscape:pageshadow="2"
     inkscape:zoom="7.7781746"
     inkscape:cx="33.20677"
     inkscape:cy="37.188483"
     inkscape:current-layer="svg4427"
     showgrid="true"
     inkscape:document-units="px"
     inkscape:grid-bbox="true"
     inkscape:window-width="1920"
     inkscape:window-height="1003"
     inkscape:window-x="-9"
     inkscape:window-y="-9"
     inkscape:window-maximized="1" />
  <metadata
     id="metadata4432">
    <rdf:RDF>
      <cc:Work
         rdf:about="">
        <dc:format>image/svg+xml</dc:format>
        <dc:type
           rdf:resource="http://purl.org/dc/dcmitype/StillImage" />
        <dc:title></dc:title>
      </cc:Work>
    </rdf:RDF>
  </metadata>
  <path
     inkscape:connector-curvature="0"
     id="path9"
     d="m 37.658856,47.731648 -3.211551,3.211551 v -14.34338 c 0,-1.201573 -0.97508,-2.177815 -2.177815,-2.177815 -1.202735,0 -2.177814,0.976242 -2.177814,2.177815 v 14.34338 l -3.211552,-3.211551 c -0.849638,-0.850799 -2.228921,-0.850799 -3.079721,0 -0.8508,0.8508 -0.8508,2.228922 0,3.080302 l 6.927775,6.928356 c 0.101631,0.102212 0.213716,0.192228 0.333351,0.273533 0.05401,0.03601 0.112665,0.0604 0.168417,0.09118 0.06853,0.03717 0.134154,0.07898 0.206167,0.1086 0.07201,0.0302 0.146349,0.04704 0.220685,0.06795 0.06214,0.01917 0.120797,0.04239 0.185841,0.05575 0.141122,0.02729 0.283987,0.04239 0.426271,0.04239 0.142283,0 0.285148,-0.0151 0.426851,-0.04239 0.06446,-0.01278 0.124281,-0.03659 0.18584,-0.05575 0.07433,-0.02091 0.149253,-0.03775 0.221266,-0.06795 0.07259,-0.02962 0.137058,-0.07085 0.206167,-0.1086 0.05517,-0.03078 0.113247,-0.05575 0.167837,-0.09118 0.119054,-0.08131 0.23172,-0.171321 0.333931,-0.273533 l 6.927195,-6.928356 c 0.8508,-0.85138 0.8508,-2.229502 0,-3.080302 -0.8508,-0.850799 -2.229502,-0.850799 -3.079141,0 z M 58.238919,33.078146 c 0.02846,-0.07259 0.0453,-0.146929 0.06795,-0.220684 0.01742,-0.06214 0.04239,-0.121958 0.05517,-0.185841 0.05575,-0.281664 0.05575,-0.572039 0,-0.853703 -0.0122,-0.06388 -0.03717,-0.124281 -0.05517,-0.186421 -0.02265,-0.07317 -0.03949,-0.148092 -0.06795,-0.219524 -0.03136,-0.07317 -0.07259,-0.139961 -0.110343,-0.20849 -0.0302,-0.05575 -0.05575,-0.112665 -0.0906,-0.166094 -0.07956,-0.120216 -0.171321,-0.232301 -0.273533,-0.333931 l -6.927195,-6.928356 c -0.850799,-0.850801 -2.231244,-0.850801 -3.079721,0 -0.850799,0.850218 -0.850799,2.229501 0,3.079721 l 3.211551,3.211551 h -14.34396 c -1.202154,0 -2.177816,0.975661 -2.177816,2.177815 0,1.203316 0.975662,2.177815 2.177816,2.177815 h 14.34396 l -3.211551,3.21097 c -0.850799,0.851381 -0.850799,2.230664 0,3.080302 0.423949,0.425109 0.98205,0.638245 1.539571,0.638245 0.556939,0 1.11446,-0.212555 1.539569,-0.638245 l 6.927195,-6.927775 c 0.102212,-0.102212 0.19397,-0.213135 0.273533,-0.33335 0.03543,-0.05343 0.0604,-0.110343 0.0906,-0.166095 0.03833,-0.06911 0.07956,-0.135896 0.110924,-0.20791 z M 30.091676,32.244189 c 0,-1.202154 -0.975081,-2.177815 -2.177816,-2.177815 H 13.569899 l 3.212132,-3.211551 c 0.850799,-0.85022 0.850799,-2.229503 0,-3.079721 -0.849638,-0.850801 -2.228921,-0.850801 -3.079721,0 l -6.9283555,6.927775 c -0.1022119,0.10163 -0.1933895,0.213715 -0.2729528,0.333931 -0.03601,0.05343 -0.0604,0.110343 -0.090597,0.166095 -0.03775,0.06853 -0.079562,0.135315 -0.1097619,0.20849 -0.02904,0.07143 -0.046461,0.146348 -0.06795,0.219523 -0.018581,0.06214 -0.042392,0.122539 -0.055171,0.186421 -0.055751,0.281083 -0.055751,0.571459 0,0.853703 0.012779,0.06388 0.03659,0.1237 0.055171,0.185841 0.02207,0.07375 0.038911,0.148091 0.06795,0.220685 0.0302,0.07201 0.072592,0.1388 0.1097619,0.207909 0.0302,0.05575 0.054591,0.112666 0.090597,0.166095 0.079563,0.120215 0.17016,0.231139 0.2729528,0.33335 l 6.9283555,6.927775 c 0.42511,0.42511 0.98263,0.638245 1.53957,0.638245 0.55694,0 1.115041,-0.212555 1.539571,-0.638245 0.850799,-0.849638 0.850799,-2.228921 0,-3.080302 l -3.212133,-3.21097 h 14.34338 c 1.203316,5.81e-4 2.178978,-0.973918 2.178978,-2.177234 z M 25.339973,17.394975 c 0.55694,0 1.115041,-0.212555 1.53957,-0.638245 l 3.211552,-3.210972 v 14.3428 c 0,1.202735 0.975079,2.177816 2.177815,2.177816 1.203315,0 2.177814,-0.975081 2.177814,-2.177816 v -14.3428 l 3.211552,3.210972 c 0.42511,0.425109 0.98263,0.638245 1.53957,0.638245 0.55752,0 1.114461,-0.212555 1.53957,-0.638245 0.8508,-0.85022 0.8508,-2.229503 0,-3.079722 L 33.811383,6.7492329 C 33.709172,6.6476013 33.597667,6.5570046 33.477452,6.4762802 c -0.05517,-0.03717 -0.116731,-0.063301 -0.174225,-0.095243 -0.0662,-0.03601 -0.130089,-0.076081 -0.20036,-0.1045348 -0.07433,-0.031361 -0.152156,-0.049362 -0.228816,-0.071432 -0.05982,-0.016841 -0.115569,-0.040071 -0.177709,-0.05285 -0.141122,-0.02846 -0.283406,-0.042972 -0.426852,-0.042972 l 0,0 0,0 c -0.143445,0 -0.285729,0.01452 -0.427432,0.042972 -0.06156,0.012199 -0.117892,0.03601 -0.17771,0.05285 -0.07666,0.02207 -0.15448,0.040071 -0.228815,0.071432 -0.07027,0.02846 -0.133574,0.068531 -0.199198,0.1045348 -0.05865,0.031941 -0.119054,0.058072 -0.174806,0.095243 -0.120216,0.080724 -0.23172,0.1713211 -0.333351,0.2729527 l -6.927775,6.9283561 c -0.8508,0.850219 -0.8508,2.229502 0,3.079721 0.425109,0.424529 0.98205,0.637665 1.53957,0.637665 z" />
</svg>
