<?xml version="1.0" encoding="UTF-8" standalone="no"?>
<!-- Created with Inkscape (http://www.inkscape.org/) -->

<svg
   xmlns:dc="http://purl.org/dc/elements/1.1/"
   xmlns:cc="http://creativecommons.org/ns#"
   xmlns:rdf="http://www.w3.org/1999/02/22-rdf-syntax-ns#"
   xmlns:svg="http://www.w3.org/2000/svg"
   xmlns="http://www.w3.org/2000/svg"
   xmlns:xlink="http://www.w3.org/1999/xlink"
   xmlns:sodipodi="http://sodipodi.sourceforge.net/DTD/sodipodi-0.dtd"
   xmlns:inkscape="http://www.inkscape.org/namespaces/inkscape"
   width="64px"
   height="64px"
   id="svg6906"
   version="1.1"
   inkscape:version="0.91 r13725"
   sodipodi:docname="Mouse.svg">
  <defs
     id="defs6908">
    <clipPath
       id="SVGID_2_">
      <use
         height="100%"
         width="100%"
         y="0"
         x="0"
         style="overflow:visible"
         xlink:href="#SVGID_1_"
         overflow="visible"
         id="use3343" />
    </clipPath>
  </defs>
  <sodipodi:namedview
     id="base"
     pagecolor="#ffffff"
     bordercolor="#666666"
     borderopacity="1.0"
     inkscape:pageopacity="0.0"
     inkscape:pageshadow="2"
     inkscape:zoom="5.6568543"
     inkscape:cx="28.142121"
     inkscape:cy="38.694068"
     inkscape:current-layer="svg6906"
     showgrid="true"
     inkscape:document-units="px"
     inkscape:grid-bbox="true"
     inkscape:window-width="619"
     inkscape:window-height="665"
     inkscape:window-x="2848"
     inkscape:window-y="391"
     inkscape:window-maximized="0" />
  <metadata
     id="metadata6911">
    <rdf:RDF>
      <cc:Work
         rdf:about="">
        <dc:type
           rdf:resource="http://purl.org/dc/dcmitype/StillImage" />
        <dc:title></dc:title>
        <dc:format>image/svg+xml</dc:format>
      </cc:Work>
      <dc:format>image/svg+xml</dc:format>
    </rdf:RDF>
  </metadata>
  <g
     transform="matrix(0.47811328,0,0,0.47811328,8.5151129,8.0461809)"
     id="g3337">
    <defs
       id="defs3339">
      <rect
         id="SVGID_1_"
         x="4.5"
         y="6.4619999"
         width="90"
         height="88.038002" />
    </defs>
    <clipPath
       id="clipPath3392">
      <use
         height="100%"
         width="100%"
         y="0"
         x="0"
         style="overflow:visible"
         xlink:href="#SVGID_1_"
         overflow="visible"
         id="use3394" />
    </clipPath>
    <path
       style="fill:#000000"
       inkscape:connector-curvature="0"
       clip-path="url(#SVGID_2_)"
       d="m 57.77,64.988 -8.353,5.426 c -2.551,1.654 -5.053,2.496 -7.439,2.496 l -0.002,0 C 35.445,72.905 31.183,66.576 31.147,66.524 L 19.606,48.753 50.107,28.943 61.651,46.719 C 68.584,57.392 58.885,64.25 57.77,64.988 M 48.336,26.217 34.45,35.236 22.528,16.881 25.343,15.054 c 2.55,-1.657 5.054,-2.496 7.44,-2.496 6.53,0 10.793,6.33 10.828,6.383 l 4.725,7.276 z M 31.724,37.006 17.836,46.026 13.107,38.745 C 6.172,28.074 15.872,21.216 16.989,20.475 l 2.812,-1.824 11.923,18.355 z m 56.752,37.595 c -2.321,-1.778 -7.295,-4.14 -14.542,0.063 -8.703,5.053 -12.979,0.812 -15.798,-2.646 l 2.952,-1.917 c 0.166,-0.107 4.044,-2.655 6.679,-7.144 2.536,-4.314 4.417,-11.212 -1.004,-19.561 L 48.723,15.62 c -0.242,-0.373 -6.06,-9.158 -15.94,-9.158 -3.584,0 -7.206,1.171 -10.76,3.48 l -8.354,5.422 c -0.162,0.107 -4.042,2.657 -6.677,7.145 -2.536,4.316 -4.419,11.212 1.004,19.558 l 18.04,27.775 c 0.242,0.374 6.06,9.16 15.94,9.164 l 0.002,0 c 3.582,0 7.203,-1.17 10.758,-3.48 L 55.393,73.8 c 3.005,3.723 8.906,10.229 20.172,3.674 4.219,-2.444 7.993,-2.54 10.934,-0.293 3.878,2.976 5.73,9.683 4.227,15.267 -0.233,0.87 0.278,1.759 1.144,1.993 0.143,0.039 0.286,0.06 0.425,0.06 0.718,0 1.373,-0.48 1.568,-1.202 1.856,-6.879 -0.458,-14.916 -5.387,-18.698"
       id="path3345" />
  </g>
</svg>
