<?xml version="1.0" encoding="UTF-8" standalone="no"?>
<!-- Created with Inkscape (http://www.inkscape.org/) -->

<svg
   xmlns:dc="http://purl.org/dc/elements/1.1/"
   xmlns:cc="http://creativecommons.org/ns#"
   xmlns:rdf="http://www.w3.org/1999/02/22-rdf-syntax-ns#"
   xmlns:svg="http://www.w3.org/2000/svg"
   xmlns="http://www.w3.org/2000/svg"
   xmlns:xlink="http://www.w3.org/1999/xlink"
   xmlns:sodipodi="http://sodipodi.sourceforge.net/DTD/sodipodi-0.dtd"
   xmlns:inkscape="http://www.inkscape.org/namespaces/inkscape"
   width="64px"
   height="64px"
   id="svg6906"
   version="1.1"
   inkscape:version="0.48.5 r10040"
   sodipodi:docname="MouseMoveTo.svg">
  <defs
     id="defs6908">
    <clipPath
       id="SVGID_2_">
      <use
         height="100%"
         width="100%"
         y="0"
         x="0"
         style="overflow:visible"
         xlink:href="#SVGID_1_"
         overflow="visible"
         id="use3343" />
    </clipPath>
    <defs
       id="defs3339">
      <rect
         height="88.038002"
         width="90"
         y="6.4619999"
         x="4.5"
         id="SVGID_1_" />
    </defs>
    <clipPath
       id="clipPath3392">
      <use
         id="use3394"
         overflow="visible"
         xlink:href="#SVGID_1_"
         style="overflow:visible"
         x="0"
         y="0"
         width="100%"
         height="100%" />
    </clipPath>
    <clipPath
       id="SVGID_2_-6">
      <use
         height="100%"
         width="100%"
         y="0"
         x="0"
         style="overflow:visible"
         xlink:href="#SVGID_1_-4"
         overflow="visible"
         id="use3343-0" />
    </clipPath>
  </defs>
  <sodipodi:namedview
     id="base"
     pagecolor="#ffffff"
     bordercolor="#666666"
     borderopacity="1.0"
     inkscape:pageopacity="0.0"
     inkscape:pageshadow="2"
     inkscape:zoom="5.6568545"
     inkscape:cx="37.336902"
     inkscape:cy="25.320136"
     inkscape:current-layer="svg6906"
     showgrid="true"
     inkscape:document-units="px"
     inkscape:grid-bbox="true"
     inkscape:window-width="942"
     inkscape:window-height="985"
     inkscape:window-x="960"
     inkscape:window-y="0"
     inkscape:window-maximized="0" />
  <metadata
     id="metadata6911">
    <rdf:RDF>
      <cc:Work
         rdf:about="">
        <dc:type
           rdf:resource="http://purl.org/dc/dcmitype/StillImage" />
        <dc:title />
        <dc:format>image/svg+xml</dc:format>
      </cc:Work>
      <dc:format>image/svg+xml</dc:format>
    </rdf:RDF>
  </metadata>
  <g
     transform="matrix(0.47811328,0,0,0.47811328,7.58318,8.738563)"
     id="g3337">
    <defs
       id="defs3339-2">
      <rect
         id="SVGID_1_-4"
         x="4.5"
         y="6.4619999"
         width="90"
         height="88.038002" />
    </defs>
    <clipPath
       id="clipPath3392-9">
      <use
         height="100%"
         width="100%"
         y="0"
         x="0"
         style="overflow:visible"
         xlink:href="#SVGID_1_-4"
         overflow="visible"
         id="use3394-0" />
    </clipPath>
  </g>
  <path
     id="polygon24"
     d="m 32.475055,29.366249 -1.316069,0 0,0.01891 -0.0022,0 0,0.817723 -0.838821,0 0,0.01891 -0.0029,0 0,1.316796 0.84173,0 0,0.83664 1.315343,0 0,-0.01965 0.0029,0 0,-0.816996 0.830092,0 0,-0.01891 0.0029,0 0,-1.316799 -0.833001,0 z m 4.361218,-11.409355 0,0.01965 -0.0015,0 0,1.316069 6.459581,0 0,6.482133 1.31607,0 0,-0.01819 0.0029,0 0,-7.799657 z m 6.461035,17.940741 -0.0029,0 0,6.341723 -6.458125,0 0,0.01819 -0.0015,0 0,1.317525 7.77565,0 0,-0.01891 0.0029,0 0,-7.676707 -1.31607,0 z m -12.138322,3.625279 -0.0022,0 0,7.630876 1.315343,0 0,-0.01819 0.0029,0 0,-7.63233 -1.316069,0 z m -15.724316,-9.447342 -0.0022,0 0,1.315342 7.838943,0 0,-0.01891 0.0029,0 0,-1.316068 -7.839671,0 z m 4.899181,5.802419 -1.318252,0 0,0.01819 -0.0029,0 0,7.678891 7.699989,0 0,-0.01891 0.0029,0 0,-1.316796 -6.381737,0 z m -0.0044,-10.120712 0.0044,0 0,-6.464673 6.377372,0 0,-0.01819 0.0029,0 0,-1.317525 -7.698533,0 0,0.01965 -0.0029,0 0,7.799658 1.316797,0 z m 12.142687,-3.540161 0.0029,0 0,-7.838944 -1.316069,0 0,0.01819 -0.0022,0 0,7.841127 1.315342,0 z m 15.795614,9.173796 0,-1.315342 -0.07566,0 0,-0.01965 -7.631601,0 0,1.31607 0.07639,0 0,0.01891 z"
     inkscape:connector-curvature="0" />
</svg>
