<?xml version="1.0" encoding="UTF-8" standalone="no"?>
<!-- Created with Inkscape (http://www.inkscape.org/) -->

<svg
   xmlns:dc="http://purl.org/dc/elements/1.1/"
   xmlns:cc="http://creativecommons.org/ns#"
   xmlns:rdf="http://www.w3.org/1999/02/22-rdf-syntax-ns#"
   xmlns:svg="http://www.w3.org/2000/svg"
   xmlns="http://www.w3.org/2000/svg"
   xmlns:sodipodi="http://sodipodi.sourceforge.net/DTD/sodipodi-0.dtd"
   xmlns:inkscape="http://www.inkscape.org/namespaces/inkscape"
   width="64px"
   height="64px"
   id="svg7134"
   version="1.1"
   inkscape:version="0.48.5 r10040"
   sodipodi:docname="MouseRightClick.xaml">
  <defs
     id="defs7136" />
  <sodipodi:namedview
     id="base"
     pagecolor="#ffffff"
     bordercolor="#666666"
     borderopacity="1.0"
     inkscape:pageopacity="0.0"
     inkscape:pageshadow="2"
     inkscape:zoom="7.7781746"
     inkscape:cx="86.256717"
     inkscape:cy="29.929706"
     inkscape:current-layer="svg7134"
     showgrid="true"
     inkscape:document-units="px"
     inkscape:grid-bbox="true"
     inkscape:window-width="1920"
     inkscape:window-height="1003"
     inkscape:window-x="-9"
     inkscape:window-y="-9"
     inkscape:window-maximized="1" />
  <metadata
     id="metadata7139">
    <rdf:RDF>
      <cc:Work
         rdf:about="">
        <dc:format>image/svg+xml</dc:format>
        <dc:type
           rdf:resource="http://purl.org/dc/dcmitype/StillImage" />
        <dc:title></dc:title>
      </cc:Work>
    </rdf:RDF>
  </metadata>
  <path
     id="path14"
     style="fill:#000000"
     d="m 31.993394,12.574436 c -0.605595,0 -1.101081,-0.493284 -1.101081,-1.101081 0,-0.700288 -0.623213,-1.04823 -1.944511,-1.6251969 -1.193572,-0.5197104 -2.825376,-1.2332113 -2.825376,-2.986133 0,-0.6077973 0.495488,-1.1010821 1.101083,-1.1010821 0.605594,0 1.101081,0.4932848 1.101081,1.1010821 0,0.3127067 0.832418,0.6760637 1.50628,0.9667492 1.299276,0.5681586 3.263606,1.4247997 3.263606,3.6445807 0,0.607797 -0.495487,1.101081 -1.101082,1.101081 z m 2.202163,18.511386 H 29.79123 c -0.605594,0 -1.10108,-0.493286 -1.10108,-1.101082 v -8.808653 c 0,-0.607797 0.495486,-1.101083 1.10108,-1.101083 h 4.404327 c 0.605595,0 1.101083,0.493286 1.101083,1.101083 v 8.808653 c 0,0.607796 -0.495488,1.101082 -1.101083,1.101082 z m -3.303244,-2.202164 h 2.202163 v -6.60649 h -2.202163 v 6.60649 z m 1.101081,-7.707571 c -0.605595,0 -1.101081,-0.493286 -1.101081,-1.101083 v -6.606489 c 0,-0.607797 0.495486,-1.101082 1.101081,-1.101082 0.605595,0 1.101082,0.493285 1.101082,1.101082 v 6.606489 c 0,0.607797 -0.495487,1.101083 -1.101082,1.101083 z m 14.31406,5.505407 H 35.29664 c -0.605596,0 -1.101083,-0.493284 -1.101083,-1.101081 0,-0.607797 0.495487,-1.101082 1.101083,-1.101082 h 11.010814 c 0.605598,0 1.10108,0.493285 1.10108,1.101082 0,0.607797 -0.495482,1.101081 -1.10108,1.101081 z m -17.617304,0 H 17.679332 c -0.605595,0 -1.101082,-0.493284 -1.101082,-1.101081 0,-0.607797 0.495487,-1.101082 1.101082,-1.101082 H 28.69015 c 0.605594,0 1.10108,0.493285 1.10108,1.101082 0,0.607797 -0.495486,1.101081 -1.10108,1.101081 z m 3.338479,30.830285 h -0.06826 c -9.08833,0 -16.476588,-7.39266 -16.476588,-16.480987 V 24.307563 c 0,-7.190064 5.848946,-13.041212 13.041212,-13.041212 h 6.950028 c 7.196668,0 13.041207,5.851148 13.041207,13.041212 v 16.723229 c -0.0067,9.088327 -7.399265,16.480987 -16.487593,16.480987 z M 28.51838,13.468515 c -5.976671,0 -10.839048,4.862376 -10.839048,10.839048 v 16.723229 c 0,7.874936 6.406094,14.278826 14.278828,14.278826 h 0.06826 c 7.868328,0 14.274421,-6.406093 14.274421,-14.278826 V 24.307563 c 0,-5.976672 -4.862375,-10.839048 -10.839044,-10.839048 h -6.943422 z" />
  <rect
     style="fill:#000000;fill-opacity:1;fill-rule:nonzero;stroke:#000000;stroke-width:0;stroke-miterlimit:4;stroke-dasharray:none"
     id="rect3089"
     width="4.3712053"
     height="8.485281"
     x="29.955614"
     y="21.187899" />
</svg>
