<?xml version="1.0" encoding="UTF-8" standalone="no"?>
<!-- Created with Inkscape (http://www.inkscape.org/) -->

<svg
   xmlns:dc="http://purl.org/dc/elements/1.1/"
   xmlns:cc="http://creativecommons.org/ns#"
   xmlns:rdf="http://www.w3.org/1999/02/22-rdf-syntax-ns#"
   xmlns:svg="http://www.w3.org/2000/svg"
   xmlns="http://www.w3.org/2000/svg"
   xmlns:xlink="http://www.w3.org/1999/xlink"
   xmlns:sodipodi="http://sodipodi.sourceforge.net/DTD/sodipodi-0.dtd"
   xmlns:inkscape="http://www.inkscape.org/namespaces/inkscape"
   width="64px"
   height="64px"
   id="svg6906"
   version="1.1"
   inkscape:version="0.48.5 r10040"
   sodipodi:docname="MouseLeftClick.svg">
  <defs
     id="defs6908">
    <clipPath
       id="SVGID_2_">
      <use
         height="100%"
         width="100%"
         y="0"
         x="0"
         style="overflow:visible"
         xlink:href="#SVGID_1_"
         overflow="visible"
         id="use3343" />
    </clipPath>
  </defs>
  <sodipodi:namedview
     id="base"
     pagecolor="#ffffff"
     bordercolor="#666666"
     borderopacity="1.0"
     inkscape:pageopacity="0.0"
     inkscape:pageshadow="2"
     inkscape:zoom="5.6568543"
     inkscape:cx="17.993791"
     inkscape:cy="39.607056"
     inkscape:current-layer="svg6906"
     showgrid="true"
     inkscape:document-units="px"
     inkscape:grid-bbox="true"
     inkscape:window-width="942"
     inkscape:window-height="985"
     inkscape:window-x="0"
     inkscape:window-y="0"
     inkscape:window-maximized="0" />
  <metadata
     id="metadata6911">
    <rdf:RDF>
      <cc:Work
         rdf:about="">
        <dc:type
           rdf:resource="http://purl.org/dc/dcmitype/StillImage" />
        <dc:title />
        <dc:format>image/svg+xml</dc:format>
      </cc:Work>
      <dc:format>image/svg+xml</dc:format>
    </rdf:RDF>
  </metadata>
  <g
     transform="matrix(0.47811328,0,0,0.47811328,8.5151129,8.0461809)"
     id="g3337">
    <defs
       id="defs3339">
      <rect
         id="SVGID_1_"
         x="4.5"
         y="6.4619999"
         width="90"
         height="88.038002" />
    </defs>
    <clipPath
       id="clipPath3392">
      <use
         height="100%"
         width="100%"
         y="0"
         x="0"
         style="overflow:visible"
         xlink:href="#SVGID_1_"
         overflow="visible"
         id="use3394" />
    </clipPath>
  </g>
  <g
     transform="matrix(0.34879181,0,0,0.34879181,0.29009389,1.8084678)"
     id="g10"
     style="fill:#000000">
    <g
       id="g12"
       style="fill:#000000" />
    <g
       id="g16"
       style="fill:#000000" />
    <g
       id="g20"
       style="fill:#000000" />
    <g
       id="g24"
       style="fill:#000000">
      <path
         id="path26"
         style="fill:#000000"
         d="m 61.191123,42.291123 13.6,-13.6 c 0.6,-0.6 1.8,-0.5 2.7,0.4 0.8,0.8 1,2 0.4,2.7 l -13.7,13.6 c -0.6,0.6 -1.8,0.5 -2.7,-0.4 -0.8,-0.9 -1,-2 -0.3,-2.7 z m -10.1,-2.3 v -19.2 c 0,-0.9 1,-1.6 2.1,-1.6 1.1,0 2.1,0.7 2.1,1.6 v 19.2 c 0,0.9 -1,1.6 -2.1,1.6 -1.1,0 -2.1,-0.7 -2.1,-1.6 z m -11,15.6 h -19.3 c -0.9,0 -1.6,-1 -1.6,-2.1 0,-1.1 0.7,-2.1 1.6,-2.1 h 19.2 c 0.9,0 1.6,1 1.6,2.1 0,1.1 -0.7,2.1 -1.5,2.1 z m 5.5,8.8 -13.6,13.6 c -0.6,0.6 -1.8,0.5 -2.7,-0.4 -0.9,-0.9 -1,-2 -0.4,-2.7 l 13.6,-13.6 c 0.6,-0.6 1.8,-0.5 2.7,0.4 0.9,0.9 1,2 0.4,2.7 z m -3.2,-18.9 -13.6,-13.6 c -0.6,-0.7 -0.4,-1.9 0.4,-2.7 0.8,-0.8 2,-1 2.7,-0.4 l 13.6,13.6 c 0.6,0.6 0.5,1.8 -0.4,2.7 -0.9,0.8 -2,1 -2.7,0.4 z m 58.926057,-9.657388 c -5.814179,0 -11.729874,1.979964 -17.495379,5.725761 l -13.466139,8.800702 c -0.262793,0.173599 -6.646707,4.276852 -10.921358,11.557554 -4.114047,7.001669 -7.100989,18.164371 1.696522,31.703743 L 90.39582,138.68534 c 0.392589,0.60673 9.84403,14.83807 25.87195,14.84456 5.5618,0 11.11875,-1.7607 16.64712,-5.19559 l 0.74222,-0.42413 4.34734,-2.75685 4.45337,-2.96891 4.77146,-3.07495 c 0.26931,-0.1736 6.54067,-4.27523 10.81533,-11.55755 4.11404,-6.99843 7.20377,-18.26553 -1.59049,-31.809773 L 127.18913,50.678296 c -0.39259,-0.6051 -9.84404,-14.844561 -25.87195,-14.844561 z m 0,9.967064 c 10.59334,0 17.54462,10.199179 17.6014,10.285159 l 7.63435,11.875651 -22.47891,14.632497 -19.40396,-29.795158 4.559402,-2.968911 c 4.13676,-2.688082 8.217002,-4.029238 12.087718,-4.029238 z m 28.09863,26.508146 18.76777,28.840865 c 11.24712,17.31436 -4.55314,28.49189 -6.36196,29.68912 l -13.46614,8.8007 c -4.13838,2.68322 -8.217,4.02924 -12.08771,4.02924 -10.59497,-0.008 -17.543008,-10.30683 -17.601409,-10.39119 L 79.898595,104.43682 129.41581,72.308945 z"
         inkscape:connector-curvature="0" />
    </g>
  </g>
</svg>
