<?xml version="1.0" encoding="UTF-8" standalone="no"?>
<!-- Created with Inkscape (http://www.inkscape.org/) -->

<svg
   xmlns:dc="http://purl.org/dc/elements/1.1/"
   xmlns:cc="http://creativecommons.org/ns#"
   xmlns:rdf="http://www.w3.org/1999/02/22-rdf-syntax-ns#"
   xmlns:svg="http://www.w3.org/2000/svg"
   xmlns="http://www.w3.org/2000/svg"
   xmlns:sodipodi="http://sodipodi.sourceforge.net/DTD/sodipodi-0.dtd"
   xmlns:inkscape="http://www.inkscape.org/namespaces/inkscape"
   width="64px"
   height="64px"
   id="svg7134"
   version="1.1"
   inkscape:version="0.48.5 r10040"
   sodipodi:docname="ZoomIn.xaml">
  <defs
     id="defs7136" />
  <sodipodi:namedview
     id="base"
     pagecolor="#ffffff"
     bordercolor="#666666"
     borderopacity="1.0"
     inkscape:pageopacity="0.0"
     inkscape:pageshadow="2"
     inkscape:zoom="5.5"
     inkscape:cx="32"
     inkscape:cy="32"
     inkscape:current-layer="svg7134"
     showgrid="true"
     inkscape:document-units="px"
     inkscape:grid-bbox="true"
     inkscape:window-width="942"
     inkscape:window-height="985"
     inkscape:window-x="960"
     inkscape:window-y="0"
     inkscape:window-maximized="0" />
  <metadata
     id="metadata7139">
    <rdf:RDF>
      <cc:Work
         rdf:about="">
        <dc:format>image/svg+xml</dc:format>
        <dc:type
           rdf:resource="http://purl.org/dc/dcmitype/StillImage" />
        <dc:title></dc:title>
      </cc:Work>
    </rdf:RDF>
  </metadata>
  <g
     transform="matrix(0.49982351,0,0,0.49982351,7.9175422,7.5538435)"
     id="g3">
    <path
       id="path7"
       d="M 94.05,81.533 69.248,56.732 C 67.816,55.3 65.906,54.629 64.02,54.703 73.07,41.304 71.671,22.95 59.812,11.09 46.357,-2.363 24.544,-2.363 11.089,11.09 c -13.453,13.454 -13.453,35.268 0,48.723 11.86,11.858 30.212,13.258 43.611,4.21 -0.073,1.885 0.598,3.794 2.029,5.226 L 81.534,94.05 c 2.722,2.722 7.177,2.722 9.899,-10e-4 l 2.616,-2.615 c 2.724,-2.723 2.724,-7.178 10e-4,-9.901 z M 19.702,51.199 c -8.698,-8.697 -8.697,-22.799 0,-31.496 8.698,-8.699 22.8,-8.699 31.498,0 8.696,8.697 8.696,22.799 0,31.496 -8.698,8.697 -22.8,8.697 -31.498,0 z M 48.491,30.406 h -7.995 v -7.995 c 0,-1.925 -1.575,-3.5 -3.5,-3.5 h -3.09 c -1.925,0 -3.5,1.575 -3.5,3.5 v 7.995 H 22.41 c -1.925,0 -3.5,1.575 -3.5,3.5 v 3.09 c 0,1.925 1.575,3.5 3.5,3.5 h 7.996 v 7.995 c 0,1.925 1.575,3.5 3.5,3.5 h 3.09 c 1.925,0 3.5,-1.575 3.5,-3.5 v -7.995 h 7.994 c 1.925,0 3.5,-1.575 3.5,-3.5 l 10e-4,-3.09 c 0,-1.925 -1.575,-3.5 -3.5,-3.5 z" />
  </g>
</svg>
