<?xml version="1.0" encoding="UTF-8" standalone="no"?>
<!-- Created with Inkscape (http://www.inkscape.org/) -->

<svg
   xmlns:dc="http://purl.org/dc/elements/1.1/"
   xmlns:cc="http://creativecommons.org/ns#"
   xmlns:rdf="http://www.w3.org/1999/02/22-rdf-syntax-ns#"
   xmlns:svg="http://www.w3.org/2000/svg"
   xmlns="http://www.w3.org/2000/svg"
   xmlns:sodipodi="http://sodipodi.sourceforge.net/DTD/sodipodi-0.dtd"
   xmlns:inkscape="http://www.inkscape.org/namespaces/inkscape"
   width="64px"
   height="64px"
   id="svg7134"
   version="1.1"
   inkscape:version="0.48.5 r10040"
   sodipodi:docname="MouseLeftClick.svg">
  <defs
     id="defs7136" />
  <sodipodi:namedview
     id="base"
     pagecolor="#ffffff"
     bordercolor="#666666"
     borderopacity="1.0"
     inkscape:pageopacity="0.0"
     inkscape:pageshadow="2"
     inkscape:zoom="7.7781746"
     inkscape:cx="86.256717"
     inkscape:cy="29.929706"
     inkscape:current-layer="svg7134"
     showgrid="true"
     inkscape:document-units="px"
     inkscape:grid-bbox="true"
     inkscape:window-width="1920"
     inkscape:window-height="1003"
     inkscape:window-x="-9"
     inkscape:window-y="-9"
     inkscape:window-maximized="1" />
  <metadata
     id="metadata7139">
    <rdf:RDF>
      <cc:Work
         rdf:about="">
        <dc:format>image/svg+xml</dc:format>
        <dc:type
           rdf:resource="http://purl.org/dc/dcmitype/StillImage" />
        <dc:title></dc:title>
      </cc:Work>
    </rdf:RDF>
  </metadata>
  <path
     id="rect3046-7"
     style="fill:#000000;fill-opacity:1;fill-rule:nonzero;stroke:#000000;stroke-width:0;stroke-miterlimit:4"
     d="m 36.10183,18.909991 2.878088,0 0,2.585402 -2.878088,0 z m -1.804903,2.048809 8.536703,0 0,5.658615 -8.536703,0 z m 3.561026,-3.3659 7.268394,0 0,6.439114 -7.268394,0 z m 7.448903,-0.585083 c -0.45956,0 -0.835562,-0.374331 -0.835562,-0.835562 0,-0.531418 -0.47293,-0.795457 -1.475606,-1.233292 -0.905752,-0.394386 -2.144056,-0.935831 -2.144056,-2.266047 0,-0.461231 0.376003,-0.835564 0.835564,-0.835564 0.459559,0 0.835562,0.374333 0.835562,0.835564 0,0.2373 0.631688,0.513035 1.143053,0.733624 0.985963,0.431151 2.476609,1.081218 2.476609,2.765715 0,0.461231 -0.376004,0.835562 -0.835564,0.835562 z m 1.671126,14.04749 h -3.342253 c -0.459559,0 -0.835562,-0.374333 -0.835562,-0.835563 v -6.684505 c 0,-0.461231 0.376003,-0.835565 0.835562,-0.835565 h 3.342253 c 0.45956,0 0.835565,0.374334 0.835565,0.835565 v 6.684505 c 0,0.46123 -0.376005,0.835563 -0.835565,0.835563 z m -2.506688,-1.671126 h 1.671126 v -5.01338 h -1.671126 v 5.01338 z m 0.835562,-5.848942 c -0.45956,0 -0.835562,-0.374334 -0.835562,-0.835565 v -5.013378 c 0,-0.461231 0.376002,-0.835565 0.835562,-0.835565 0.45956,0 0.835564,0.374334 0.835564,0.835565 v 5.013378 c 0,0.461231 -0.376004,0.835565 -0.835564,0.835565 z m 10.862322,4.177814 h -8.355631 c -0.459561,0 -0.835565,-0.374331 -0.835565,-0.835562 0,-0.461231 0.376004,-0.835563 0.835565,-0.835563 h 8.355631 c 0.459561,0 0.835562,0.374332 0.835562,0.835563 0,0.461231 -0.376001,0.835562 -0.835562,0.835562 z m -13.369011,0 h -8.355634 c -0.459561,0 -0.835564,-0.374331 -0.835564,-0.835562 0,-0.461231 0.376003,-0.835563 0.835564,-0.835563 h 8.355634 c 0.45956,0 0.835562,0.374332 0.835562,0.835563 0,0.461231 -0.376002,0.835562 -0.835562,0.835562 z m 2.533428,23.395771 h -0.0518 c -6.896742,0 -12.503371,-5.60997 -12.503371,-12.506708 V 25.91158 c 0,-5.456228 4.438512,-9.896412 9.896411,-9.896412 h 5.274077 c 5.461241,0 9.896408,4.440184 9.896408,9.896412 v 12.690536 c -0.0051,6.896738 -5.614983,12.506708 -12.511722,12.506708 z M 42.669817,17.686296 c -4.535437,0 -8.225284,3.689846 -8.225284,8.225284 v 12.690536 c 0,5.975948 4.861307,10.835583 10.835586,10.835583 h 0.0518 c 5.970934,0 10.832241,-4.861307 10.832241,-10.835583 V 25.91158 c 0,-4.535438 -3.689846,-8.225284 -8.225281,-8.225284 h -5.269064 z m -32.9364327,1.144327 2.8780877,0 0,2.585402 -2.8780877,0 z m -1.804903,2.048809 8.5367017,0 0,5.658615 -8.5367017,0 z m 3.5610257,-3.3659 7.268393,0 0,6.439114 -7.268393,0 z m 7.448902,-0.585083 c -0.45956,0 -0.835562,-0.374331 -0.835562,-0.835562 0,-0.531418 -0.47293,-0.795457 -1.475606,-1.233292 -0.905751,-0.394386 -2.144055,-0.935831 -2.144055,-2.266047 0,-0.461231 0.376003,-0.835564 0.835564,-0.835564 0.459559,0 0.835562,0.374333 0.835562,0.835564 0,0.2373 0.631687,0.513035 1.143052,0.733624 0.985963,0.431151 2.476609,1.081218 2.476609,2.765715 0,0.461231 -0.376004,0.835562 -0.835564,0.835562 z m 1.671126,14.04749 h -3.342253 c -0.459559,0 -0.835562,-0.374333 -0.835562,-0.835563 v -6.684505 c 0,-0.461231 0.376003,-0.835565 0.835562,-0.835565 h 3.342253 c 0.45956,0 0.835565,0.374334 0.835565,0.835565 v 6.684505 c 0,0.46123 -0.376005,0.835563 -0.835565,0.835563 z m -2.506688,-1.671126 h 1.671126 v -5.01338 h -1.671126 v 5.01338 z m 0.835562,-5.848942 c -0.45956,0 -0.835562,-0.374334 -0.835562,-0.835565 v -5.013378 c 0,-0.461231 0.376002,-0.835565 0.835562,-0.835565 0.45956,0 0.835564,0.374334 0.835564,0.835565 v 5.013378 c 0,0.461231 -0.376004,0.835565 -0.835564,0.835565 z m 10.862322,4.177814 H 21.4451 c -0.459561,0 -0.835565,-0.374331 -0.835565,-0.835562 0,-0.461231 0.376004,-0.835563 0.835565,-0.835563 h 8.355631 c 0.459561,0 0.835562,0.374332 0.835562,0.835563 0,0.461231 -0.376001,0.835562 -0.835562,0.835562 z m -13.369011,0 H 8.0760873 c -0.459561,0 -0.8355647,-0.374331 -0.8355647,-0.835562 0,-0.461231 0.3760037,-0.835563 0.8355647,-0.835563 H 16.43172 c 0.45956,0 0.835562,0.374332 0.835562,0.835563 0,0.461231 -0.376002,0.835562 -0.835562,0.835562 z m 2.533428,23.395771 h -0.0518 c -6.896741,0 -12.5033704,-5.60997 -12.5033704,-12.506708 V 25.832212 c 0,-5.456228 4.4385124,-9.896412 9.8964114,-9.896412 h 5.274076 c 5.461241,0 9.896408,4.440184 9.896408,9.896412 v 12.690536 c -0.0051,6.896738 -5.614983,12.506708 -12.511722,12.506708 z M 16.301371,17.606928 c -4.535437,0 -8.2252837,3.689846 -8.2252837,8.225284 v 12.690536 c 0,5.975948 4.8613067,10.835583 10.8355847,10.835583 h 0.0518 c 5.970934,0 10.832241,-4.861307 10.832241,-10.835583 V 25.832212 c 0,-4.535438 -3.689846,-8.225284 -8.225281,-8.225284 h -5.269063 z" />
</svg>
