<?xml version="1.0" encoding="UTF-8" standalone="no"?>
<!-- Created with Inkscape (http://www.inkscape.org/) -->

<svg
   xmlns:dc="http://purl.org/dc/elements/1.1/"
   xmlns:cc="http://creativecommons.org/ns#"
   xmlns:rdf="http://www.w3.org/1999/02/22-rdf-syntax-ns#"
   xmlns:svg="http://www.w3.org/2000/svg"
   xmlns="http://www.w3.org/2000/svg"
   xmlns:xlink="http://www.w3.org/1999/xlink"
   xmlns:sodipodi="http://sodipodi.sourceforge.net/DTD/sodipodi-0.dtd"
   xmlns:inkscape="http://www.inkscape.org/namespaces/inkscape"
   width="64px"
   height="64px"
   id="svg6906"
   version="1.1"
   inkscape:version="0.48.5 r10040"
   sodipodi:docname="MouseMiddleClick.svg">
  <defs
     id="defs6908">
    <clipPath
       id="SVGID_2_">
      <use
         height="100%"
         width="100%"
         y="0"
         x="0"
         style="overflow:visible"
         xlink:href="#SVGID_1_"
         overflow="visible"
         id="use3343" />
    </clipPath>
    <defs
       id="defs3339">
      <rect
         height="88.038002"
         width="90"
         y="6.4619999"
         x="4.5"
         id="SVGID_1_" />
    </defs>
    <clipPath
       id="clipPath3392">
      <use
         id="use3394"
         overflow="visible"
         xlink:href="#SVGID_1_"
         style="overflow:visible"
         x="0"
         y="0"
         width="100%"
         height="100%" />
    </clipPath>
    <clipPath
       id="SVGID_2_-6">
      <use
         height="100%"
         width="100%"
         y="0"
         x="0"
         style="overflow:visible"
         xlink:href="#SVGID_1_-4"
         overflow="visible"
         id="use3343-0" />
    </clipPath>
  </defs>
  <sodipodi:namedview
     id="base"
     pagecolor="#ffffff"
     bordercolor="#666666"
     borderopacity="1.0"
     inkscape:pageopacity="0.0"
     inkscape:pageshadow="2"
     inkscape:zoom="11.313709"
     inkscape:cx="-1.2427006"
     inkscape:cy="30.367697"
     inkscape:current-layer="svg6906"
     showgrid="true"
     inkscape:document-units="px"
     inkscape:grid-bbox="true"
     inkscape:window-width="1920"
     inkscape:window-height="1003"
     inkscape:window-x="-9"
     inkscape:window-y="-9"
     inkscape:window-maximized="1" />
  <metadata
     id="metadata6911">
    <rdf:RDF>
      <cc:Work
         rdf:about="">
        <dc:type
           rdf:resource="http://purl.org/dc/dcmitype/StillImage" />
        <dc:title />
        <dc:format>image/svg+xml</dc:format>
      </cc:Work>
      <dc:format>image/svg+xml</dc:format>
    </rdf:RDF>
  </metadata>
  <g
     transform="matrix(0.47811328,0,0,0.47811328,7.58318,8.738563)"
     id="g3337">
    <defs
       id="defs3339-2">
      <rect
         id="SVGID_1_-4"
         x="4.5"
         y="6.4619999"
         width="90"
         height="88.038002" />
    </defs>
    <clipPath
       id="clipPath3392-9">
      <use
         height="100%"
         width="100%"
         y="0"
         x="0"
         style="overflow:visible"
         xlink:href="#SVGID_1_-4"
         overflow="visible"
         id="use3394-0" />
    </clipPath>
  </g>
  <path
     style="fill:#000000"
     d="m 27.777095,10.519307 c -1.77086,0.143688 -3.551013,0.81349 -5.303206,1.951874 l -4.713961,3.056709 c -0.09127,0.06029 -2.271743,1.48546 -3.756438,4.014233 -1.428913,2.431858 -2.503182,6.308949 0.552418,11.011518 l 10.164478,15.651823 c 0.136355,0.210731 3.419084,5.153642 8.985988,5.155895 1.954531,0 3.913673,-0.620229 5.855623,-1.841391 l 0.18414,-0.110483 1.50994,-0.957524 1.546769,-1.031179 1.657251,-1.068006 c 0.09354,-0.06029 2.271742,-1.484898 3.756438,-4.014233 1.428914,-2.43073 2.502055,-6.307258 -0.552417,-11.011518 L 37.49964,15.675202 c -0.136357,-0.210168 -3.419085,-5.155895 -8.985989,-5.155895 -0.252426,0 -0.483577,-0.02053 -0.736556,0 z m 0.736556,3.424987 c 3.679341,0 6.093698,3.542436 6.113419,3.572299 l 2.651603,4.124715 -7.807498,5.08224 -1.031179,-1.620425 c -0.130546,0.137616 -0.275851,0.264123 -0.441934,0.368279 l -0.405106,0.257794 c -0.233345,0.146339 -0.513642,0.239395 -0.773384,0.294623 l 1.104834,1.69408 -7.807498,5.082239 -2.68843,-4.124716 c -3.907539,-6.012594 1.580293,-9.857445 2.209669,-10.274962 l 1.583596,-1.031179 0.368278,0.589245 c 0.17841,-0.26585 0.418472,-0.486513 0.699729,-0.6629 l 0.405106,-0.257795 c 0.119639,-0.07503 0.240584,-0.133416 0.368278,-0.184139 l -0.33145,-0.478762 1.583596,-1.031179 c 1.436802,-0.93364 2.853976,-1.399457 4.198371,-1.399457 z m -4.787616,3.167193 c -0.326825,0.03179 -0.632552,0.116293 -0.920696,0.294622 l -0.405106,0.257795 c -1.15257,0.713318 -1.369112,2.33968 -0.515589,3.682782 l 1.804563,2.909398 c 0.85352,1.343103 2.493381,1.854981 3.645954,1.141662 l 0.368278,-0.257795 c 1.152572,-0.713317 1.405939,-2.376508 0.552418,-3.71961 L 26.414466,18.547772 C 25.774323,17.540445 24.706508,17.01611 23.726035,17.111487 z m 14.546989,6.039762 6.518524,10.017167 c 3.906411,6.013723 -1.581421,9.895962 -2.209669,10.31179 l -4.677133,3.056709 c -1.437366,0.931949 -2.853976,1.399457 -4.198372,1.399457 -3.679903,-0.0028 -6.093134,-3.579827 -6.113418,-3.609126 L 21.11126,34.346906 38.273024,23.151249 z"
     id="path3343"
     inkscape:connector-curvature="0" />
</svg>
