<?xml version="1.0" encoding="UTF-8" standalone="no"?>
<!-- Created with Inkscape (http://www.inkscape.org/) -->

<svg
   xmlns:dc="http://purl.org/dc/elements/1.1/"
   xmlns:cc="http://creativecommons.org/ns#"
   xmlns:rdf="http://www.w3.org/1999/02/22-rdf-syntax-ns#"
   xmlns:svg="http://www.w3.org/2000/svg"
   xmlns="http://www.w3.org/2000/svg"
   xmlns:xlink="http://www.w3.org/1999/xlink"
   xmlns:sodipodi="http://sodipodi.sourceforge.net/DTD/sodipodi-0.dtd"
   xmlns:inkscape="http://www.inkscape.org/namespaces/inkscape"
   width="64px"
   height="64px"
   id="svg6906"
   version="1.1"
   inkscape:version="0.48.5 r10040"
   sodipodi:docname="MouseRightClick.svg">
  <defs
     id="defs6908">
    <clipPath
       id="SVGID_2_">
      <use
         height="100%"
         width="100%"
         y="0"
         x="0"
         style="overflow:visible"
         xlink:href="#SVGID_1_"
         overflow="visible"
         id="use3343" />
    </clipPath>
  </defs>
  <sodipodi:namedview
     id="base"
     pagecolor="#ffffff"
     bordercolor="#666666"
     borderopacity="1.0"
     inkscape:pageopacity="0.0"
     inkscape:pageshadow="2"
     inkscape:zoom="8.0000001"
     inkscape:cx="45.644911"
     inkscape:cy="17.857549"
     inkscape:current-layer="svg6906"
     showgrid="true"
     inkscape:document-units="px"
     inkscape:grid-bbox="true"
     inkscape:window-width="942"
     inkscape:window-height="985"
     inkscape:window-x="960"
     inkscape:window-y="0"
     inkscape:window-maximized="0" />
  <metadata
     id="metadata6911">
    <rdf:RDF>
      <cc:Work
         rdf:about="">
        <dc:type
           rdf:resource="http://purl.org/dc/dcmitype/StillImage" />
        <dc:title />
        <dc:format>image/svg+xml</dc:format>
      </cc:Work>
      <dc:format>image/svg+xml</dc:format>
    </rdf:RDF>
  </metadata>
  <g
     transform="matrix(0.47811328,0,0,0.47811328,8.5151129,8.0461809)"
     id="g3337">
    <defs
       id="defs3339">
      <rect
         id="SVGID_1_"
         x="4.5"
         y="6.4619999"
         width="90"
         height="88.038002" />
    </defs>
    <clipPath
       id="clipPath3392">
      <use
         height="100%"
         width="100%"
         y="0"
         x="0"
         style="overflow:visible"
         xlink:href="#SVGID_1_"
         overflow="visible"
         id="use3394" />
    </clipPath>
  </g>
  <path
     style="fill:#000000"
     d="m 29.494395,9.625 c -2.059357,0 -4.154672,0.701296 -6.19679,2.028041 l -4.769651,3.117173 c -0.09308,0.06148 -2.354236,1.514844 -3.8683,4.093637 -1.457179,2.479963 -2.515141,6.433747 0.600901,11.229336 l 10.365541,15.96143 c 0.139053,0.214899 3.486716,5.255584 9.163738,5.257883 1.969966,0 3.938217,-0.623635 5.89634,-1.840259 l 0.262895,-0.150225 1.539808,-0.976464 1.577365,-1.051577 1.690034,-1.089133 c 0.09539,-0.06148 2.316678,-1.51427 3.830743,-4.093637 1.457179,-2.478814 2.551548,-6.469578 -0.563345,-11.266892 L 38.658134,14.882883 C 38.519082,14.668558 35.171417,9.625 29.494395,9.625 z m -7.473705,7.023029 6.872804,10.553322 -7.999493,5.182771 -2.704054,-4.206307 c -3.984834,-6.131529 1.573997,-10.052432 2.215822,-10.478209 l 1.614921,-1.051577 z m 17.426126,5.89634 6.647466,10.215316 c 3.983684,6.132678 -1.612702,10.091712 -2.253378,10.515765 l -4.769651,3.117174 c -1.465798,0.950385 -2.91043,1.427139 -4.281419,1.427139 -3.752696,-0.0029 -6.213661,-3.650638 -6.234347,-3.680518 L 21.908021,33.92393 39.446816,22.544369 z"
     id="path3439"
     inkscape:connector-curvature="0" />
</svg>
