<?xml version="1.0" encoding="UTF-8" standalone="no"?>
<!-- Created with Inkscape (http://www.inkscape.org/) -->

<svg
   xmlns:dc="http://purl.org/dc/elements/1.1/"
   xmlns:cc="http://creativecommons.org/ns#"
   xmlns:rdf="http://www.w3.org/1999/02/22-rdf-syntax-ns#"
   xmlns:svg="http://www.w3.org/2000/svg"
   xmlns="http://www.w3.org/2000/svg"
   xmlns:xlink="http://www.w3.org/1999/xlink"
   xmlns:sodipodi="http://sodipodi.sourceforge.net/DTD/sodipodi-0.dtd"
   xmlns:inkscape="http://www.inkscape.org/namespaces/inkscape"
   width="64px"
   height="64px"
   id="svg6906"
   version="1.1"
   inkscape:version="0.91 r13725"
   sodipodi:docname="MouseLeftClick.svg">
  <defs
     id="defs6908">
    <clipPath
       id="SVGID_2_">
      <use
         height="100%"
         width="100%"
         y="0"
         x="0"
         style="overflow:visible"
         xlink:href="#SVGID_1_"
         overflow="visible"
         id="use3343" />
    </clipPath>
  </defs>
  <sodipodi:namedview
     id="base"
     pagecolor="#ffffff"
     bordercolor="#666666"
     borderopacity="1.0"
     inkscape:pageopacity="0.0"
     inkscape:pageshadow="2"
     inkscape:zoom="5.6568543"
     inkscape:cx="28.142121"
     inkscape:cy="38.694068"
     inkscape:current-layer="svg6906"
     showgrid="true"
     inkscape:document-units="px"
     inkscape:grid-bbox="true"
     inkscape:window-width="619"
     inkscape:window-height="665"
     inkscape:window-x="3155"
     inkscape:window-y="380"
     inkscape:window-maximized="0" />
  <metadata
     id="metadata6911">
    <rdf:RDF>
      <cc:Work
         rdf:about="">
        <dc:type
           rdf:resource="http://purl.org/dc/dcmitype/StillImage" />
        <dc:title />
        <dc:format>image/svg+xml</dc:format>
      </cc:Work>
      <dc:format>image/svg+xml</dc:format>
    </rdf:RDF>
  </metadata>
  <g
     transform="matrix(0.47811328,0,0,0.47811328,8.5151129,8.0461809)"
     id="g3337">
    <defs
       id="defs3339">
      <rect
         id="SVGID_1_"
         x="4.5"
         y="6.4619999"
         width="90"
         height="88.038002" />
    </defs>
    <clipPath
       id="clipPath3392">
      <use
         height="100%"
         width="100%"
         y="0"
         x="0"
         style="overflow:visible"
         xlink:href="#SVGID_1_"
         overflow="visible"
         id="use3394" />
    </clipPath>
  </g>
  <path
     id="path3436"
     style="fill:#000000"
     d="m 50.816663,43.71391 c -1.1097,-0.850086 -3.487836,-1.979389 -6.952723,0.03012 -4.16102,2.415906 -6.205432,0.388228 -7.553233,-1.265088 l 1.41139,-0.916543 c 0.07937,-0.05116 1.93349,-1.269391 3.193319,-3.415641 1.212495,-2.062581 2.111826,-5.360606 -0.480026,-9.352374 L 31.810226,15.51431 c -0.115703,-0.178336 -2.897366,-4.378561 -7.621125,-4.378561 -1.713558,0 -3.445285,0.559871 -5.144499,1.663834 l -3.994159,2.59233 c -0.07745,0.05116 -1.932534,1.270347 -3.192362,3.41612 -1.212495,2.063537 -2.1127826,5.360606 0.480026,9.350939 l 8.625163,13.279597 c 0.115704,0.178814 2.897367,4.379517 7.621126,4.38143 l 9.56e-4,0 c 1.712602,0 3.44385,-0.559393 5.143543,-1.663835 l 1.270347,-0.825223 c 1.43673,1.780016 4.258077,4.890621 9.644501,1.756588 2.01716,-1.168509 3.821559,-1.214408 5.227691,-0.140087 1.854123,1.422865 2.739589,4.629571 2.020984,7.299355 -0.1114,0.415959 0.132916,0.841002 0.546962,0.95288 0.06837,0.01865 0.13674,0.02869 0.203198,0.02869 0.343285,0 0.65645,-0.229494 0.749682,-0.574692 0.887378,-3.288941 -0.218976,-7.131538 -2.575597,-8.939762 M 31.625196,20.580877 24.986115,24.89298 19.286049,16.117211 20.631938,15.243698 c 1.219189,-0.792233 2.416384,-1.193371 3.557163,-1.193371 3.122079,0 5.160276,3.026458 5.17701,3.051798 l 2.259085,3.478752 z m 4.510521,18.53693 -3.99368,2.594242 c -1.219667,0.7908 -2.415907,1.193371 -3.556685,1.193371 l -9.56e-4,0 c -3.122558,-0.0024 -5.160277,-3.028369 -5.177489,-3.053231 l -5.517905,-8.496551 14.582933,-9.471424 5.51934,8.498941 c 3.314759,5.102903 -1.322462,8.381804 -1.855558,8.734652" />
</svg>
