<?xml version="1.0" encoding="UTF-8" standalone="no"?>
<!-- Created with Inkscape (http://www.inkscape.org/) -->

<svg
   xmlns:dc="http://purl.org/dc/elements/1.1/"
   xmlns:cc="http://creativecommons.org/ns#"
   xmlns:rdf="http://www.w3.org/1999/02/22-rdf-syntax-ns#"
   xmlns:svg="http://www.w3.org/2000/svg"
   xmlns="http://www.w3.org/2000/svg"
   xmlns:xlink="http://www.w3.org/1999/xlink"
   xmlns:sodipodi="http://sodipodi.sourceforge.net/DTD/sodipodi-0.dtd"
   xmlns:inkscape="http://www.inkscape.org/namespaces/inkscape"
   width="64px"
   height="64px"
   id="svg6906"
   version="1.1"
   inkscape:version="0.48.5 r10040"
   sodipodi:docname="MouseLeftClick.svg">
  <defs
     id="defs6908">
    <clipPath
       id="SVGID_2_">
      <use
         height="100%"
         width="100%"
         y="0"
         x="0"
         style="overflow:visible"
         xlink:href="#SVGID_1_"
         overflow="visible"
         id="use3343" />
    </clipPath>
  </defs>
  <sodipodi:namedview
     id="base"
     pagecolor="#ffffff"
     bordercolor="#666666"
     borderopacity="1.0"
     inkscape:pageopacity="0.0"
     inkscape:pageshadow="2"
     inkscape:zoom="5.6568543"
     inkscape:cx="17.993791"
     inkscape:cy="39.607056"
     inkscape:current-layer="svg6906"
     showgrid="true"
     inkscape:document-units="px"
     inkscape:grid-bbox="true"
     inkscape:window-width="942"
     inkscape:window-height="985"
     inkscape:window-x="960"
     inkscape:window-y="0"
     inkscape:window-maximized="0" />
  <metadata
     id="metadata6911">
    <rdf:RDF>
      <cc:Work
         rdf:about="">
        <dc:type
           rdf:resource="http://purl.org/dc/dcmitype/StillImage" />
        <dc:title />
        <dc:format>image/svg+xml</dc:format>
      </cc:Work>
      <dc:format>image/svg+xml</dc:format>
    </rdf:RDF>
  </metadata>
  <g
     transform="matrix(0.47811328,0,0,0.47811328,8.5151129,8.0461809)"
     id="g3337">
    <defs
       id="defs3339">
      <rect
         id="SVGID_1_"
         x="4.5"
         y="6.4619999"
         width="90"
         height="88.038002" />
    </defs>
    <clipPath
       id="clipPath3392">
      <use
         height="100%"
         width="100%"
         y="0"
         x="0"
         style="overflow:visible"
         xlink:href="#SVGID_1_"
         overflow="visible"
         id="use3394" />
    </clipPath>
  </g>
  <path
     style="fill:#000000"
     d="m 30.678948,9.3572335 c -2.027937,0 -4.091283,0.6905955 -6.102244,1.9970985 l -4.696879,3.069613 c -0.09166,0.06055 -2.318317,1.491731 -3.80928,4.03118 -1.434946,2.442125 -2.476767,6.335584 0.591733,11.058006 l 10.20739,15.717902 c 0.136932,0.21162 3.433519,5.175398 9.023925,5.177661 1.939909,0 3.87813,-0.61412 5.806378,-1.812181 l 0.258883,-0.147933 1.516315,-0.961566 1.553299,-1.035532 1.664248,-1.072516 c 0.09393,-0.06055 2.281332,-1.491167 3.772296,-4.03118 1.434946,-2.440993 2.512618,-6.370869 -0.554749,-11.094989 L 39.702873,14.534895 C 39.565942,14.323841 36.269354,9.3572335 30.678948,9.3572335 z m 0,3.4764305 c 3.694873,0 6.119423,3.55739 6.139227,3.587379 l 2.662798,4.14213 -7.840459,5.103695 -6.767944,-10.392307 1.590282,-1.035532 c 1.442868,-0.937581 2.866023,-1.405365 4.216096,-1.405365 z m 9.800574,9.245824 6.546044,10.059457 c 3.922903,6.03911 -1.588098,9.93774 -2.218998,10.355324 l -4.696879,3.069613 c -1.443434,0.935885 -2.866025,1.405366 -4.216096,1.405366 -3.69544,-0.0028 -6.118858,-3.59494 -6.139228,-3.624363 l -6.546043,-10.059458 17.2712,-11.205939 z"
     id="path3436"
     inkscape:connector-curvature="0" />
</svg>
