<?xml version="1.0" encoding="UTF-8" standalone="no"?>
<!-- Created with Inkscape (http://www.inkscape.org/) -->

<svg
   xmlns:dc="http://purl.org/dc/elements/1.1/"
   xmlns:cc="http://creativecommons.org/ns#"
   xmlns:rdf="http://www.w3.org/1999/02/22-rdf-syntax-ns#"
   xmlns:svg="http://www.w3.org/2000/svg"
   xmlns="http://www.w3.org/2000/svg"
   xmlns:xlink="http://www.w3.org/1999/xlink"
   xmlns:sodipodi="http://sodipodi.sourceforge.net/DTD/sodipodi-0.dtd"
   xmlns:inkscape="http://www.inkscape.org/namespaces/inkscape"
   width="64px"
   height="64px"
   id="svg6906"
   version="1.1"
   inkscape:version="0.48.5 r10040"
   sodipodi:docname="MouseLeftDoubleClick.svg">
  <defs
     id="defs6908">
    <clipPath
       id="SVGID_2_">
      <use
         height="100%"
         width="100%"
         y="0"
         x="0"
         style="overflow:visible"
         xlink:href="#SVGID_1_"
         overflow="visible"
         id="use3343" />
    </clipPath>
  </defs>
  <sodipodi:namedview
     id="base"
     pagecolor="#ffffff"
     bordercolor="#666666"
     borderopacity="1.0"
     inkscape:pageopacity="0.0"
     inkscape:pageshadow="2"
     inkscape:zoom="5.6568543"
     inkscape:cx="25.048529"
     inkscape:cy="38.694068"
     inkscape:current-layer="svg6906"
     showgrid="true"
     inkscape:document-units="px"
     inkscape:grid-bbox="true"
     inkscape:window-width="942"
     inkscape:window-height="985"
     inkscape:window-x="0"
     inkscape:window-y="0"
     inkscape:window-maximized="0" />
  <metadata
     id="metadata6911">
    <rdf:RDF>
      <cc:Work
         rdf:about="">
        <dc:type
           rdf:resource="http://purl.org/dc/dcmitype/StillImage" />
        <dc:title />
        <dc:format>image/svg+xml</dc:format>
      </cc:Work>
      <dc:format>image/svg+xml</dc:format>
    </rdf:RDF>
  </metadata>
  <g
     transform="matrix(0.47811328,0,0,0.47811328,8.5151129,8.0461809)"
     id="g3337">
    <defs
       id="defs3339">
      <rect
         id="SVGID_1_"
         x="4.5"
         y="6.4619999"
         width="90"
         height="88.038002" />
    </defs>
    <clipPath
       id="clipPath3392">
      <use
         height="100%"
         width="100%"
         y="0"
         x="0"
         style="overflow:visible"
         xlink:href="#SVGID_1_"
         overflow="visible"
         id="use3394" />
    </clipPath>
  </g>
  <g
     transform="matrix(0.34879181,0,0,0.34879181,0.55587435,1.7048025)"
     id="g10"
     style="fill:#000000">
    <g
       id="g12"
       style="fill:#000000" />
    <g
       id="g16"
       style="fill:#000000" />
    <g
       id="g20"
       style="fill:#000000" />
    <g
       id="g24"
       style="fill:#000000" />
  </g>
  <g
     style="font-size:16px;font-style:normal;font-variant:normal;font-weight:normal;font-stretch:normal;line-height:125%;letter-spacing:0px;word-spacing:0px;fill:#000000;fill-opacity:1;stroke:none;font-family:Roboto;-inkscape-font-specification:Roboto"
     id="text3336">
    <path
       id="path3343"
       style=""
       d="m 50.470387,45.084896 -7.9375,0 0,-1.71875 3.65625,-3.84375 c 0.48437,-0.552077 0.830723,-1.024733 1.039062,-1.417969 0.208328,-0.393221 0.312494,-0.735669 0.3125,-1.027343 -6e-6,-0.489575 -0.106776,-0.861971 -0.320312,-1.117188 -0.213547,-0.255199 -0.523443,-0.382803 -0.929688,-0.382812 -0.203129,9e-6 -0.388025,0.04558 -0.554687,0.136718 -0.166671,0.09116 -0.308598,0.217457 -0.425782,0.378907 -0.117191,0.161467 -0.208336,0.350269 -0.273437,0.566406 -0.06511,0.216154 -0.09766,0.451831 -0.09766,0.707031 l -2.640625,0 c -10e-7,-0.520825 0.09765,-1.013012 0.292968,-1.476562 0.195312,-0.463532 0.471353,-0.869782 0.828125,-1.21875 0.356769,-0.348948 0.783852,-0.623687 1.28125,-0.824219 0.497393,-0.20051 1.048173,-0.30077 1.652344,-0.300781 0.630203,1.1e-5 1.183588,0.07423 1.660156,0.222656 0.476556,0.148449 0.876295,0.363292 1.199219,0.644531 0.322909,0.28126 0.566398,0.626312 0.730469,1.035156 0.164054,0.408864 0.246085,0.873707 0.246094,1.394532 -9e-6,0.395841 -0.06251,0.774747 -0.1875,1.136718 -0.125009,0.361986 -0.304696,0.722663 -0.539063,1.082032 -0.234382,0.35938 -0.52084,0.726567 -0.859375,1.101562 -0.338548,0.375005 -0.718756,0.773442 -1.140625,1.195313 l -1.46875,1.695312 4.476563,0 z m -12.71875,-6.125 1.226562,-2.328125 2.734375,0 -2.226562,4.117188 2.335937,4.335937 -2.75,0 -1.328125,-2.5 -1.304687,2.5 -2.765625,0 2.34375,-4.335937 -2.21875,-4.117188 2.765625,0 z M 21.898837,16.4556 26.642406,11.712031 c 0.209275,-0.209275 0.627825,-0.174396 0.941737,0.139517 0.279034,0.279033 0.348792,0.697584 0.139517,0.941738 l -4.778448,4.743568 C 22.735937,17.74613 22.317387,17.71125 22.003474,17.397338 21.724441,17.083425 21.654683,16.699754 21.898837,16.4556 z M 18.37604,15.653379 V 8.9565759 c 0,-0.3139126 0.348791,-0.5580669 0.732462,-0.5580669 0.383671,0 0.732463,0.2441543 0.732463,0.5580669 v 6.6968031 c 0,0.313912 -0.348792,0.558067 -0.732463,0.558067 -0.383671,0 -0.732462,-0.244155 -0.732462,-0.558067 z m -3.83671,5.441152 H 7.8076478 c -0.3139127,0 -0.5580669,-0.348792 -0.5580669,-0.732463 0,-0.383671 0.2441542,-0.732463 0.5580669,-0.732463 h 6.6968032 c 0.313912,0 0.558066,0.348792 0.558066,0.732463 0,0.383671 -0.244154,0.732463 -0.523187,0.732463 z m 1.918355,3.069368 -4.743569,4.743568 c -0.209275,0.209276 -0.627825,0.174396 -0.941738,-0.139516 -0.313912,-0.313913 -0.348792,-0.697584 -0.139517,-0.941738 l 4.743569,-4.743569 c 0.209275,-0.209275 0.627825,-0.174396 0.941738,0.139517 0.313913,0.313913 0.348792,0.697584 0.139517,0.941738 z m -1.116134,-6.592165 -4.743569,-4.743569 c -0.209275,-0.244154 -0.139516,-0.662704 0.139517,-0.941738 0.279033,-0.279033 0.697584,-0.348792 0.941738,-0.139517 l 4.743568,4.743569 c 0.209276,0.209275 0.174396,0.627825 -0.139516,0.941738 -0.313913,0.279033 -0.697584,0.348792 -0.941738,0.139517 z m 20.552926,-3.368418 c -2.027938,0 -4.091284,0.690595 -6.102245,1.997098 l -4.696879,3.069613 c -0.09166,0.06055 -2.318317,1.491731 -3.80928,4.03118 -1.434946,2.442125 -2.476767,6.335584 0.591733,11.058006 l 10.20739,15.7179 c 0.136932,0.211623 3.433517,5.175398 9.023924,5.177661 1.939911,0 3.878129,-0.614118 5.806379,-1.812179 l 0.258881,-0.147933 1.516316,-0.961567 1.553299,-1.035531 1.664246,-1.072518 c 0.09393,-0.06055 2.281333,-1.491165 3.772299,-4.031178 C 57.115483,43.752872 58.193156,39.823 55.12579,35.098879 L 44.918401,19.380977 c -0.136932,-0.211054 -3.43352,-5.177661 -9.023924,-5.177661 z m 0,3.47643 c 3.69487,0 6.11942,3.55739 6.139224,3.587379 l 2.662799,4.14213 -7.84046,5.103695 -6.767942,-10.392307 1.590282,-1.035532 c 1.442868,-0.937581 2.866023,-1.405365 4.216097,-1.405365 z m 9.800572,9.245824 6.546044,10.059458 c 3.922904,6.039107 -1.588098,9.937738 -2.218999,10.355322 l -4.696879,3.069612 c -1.443434,0.935885 -2.866023,1.405366 -4.216095,1.405366 -3.695438,-0.0028 -6.118857,-3.594938 -6.139227,-3.624362 L 28.42385,38.13151 45.695049,26.92557 z" />
  </g>
</svg>
