<?xml version="1.0" encoding="UTF-8" standalone="no"?>
<!-- Created with Inkscape (http://www.inkscape.org/) -->

<svg
   xmlns:dc="http://purl.org/dc/elements/1.1/"
   xmlns:cc="http://creativecommons.org/ns#"
   xmlns:rdf="http://www.w3.org/1999/02/22-rdf-syntax-ns#"
   xmlns:svg="http://www.w3.org/2000/svg"
   xmlns="http://www.w3.org/2000/svg"
   xmlns:xlink="http://www.w3.org/1999/xlink"
   xmlns:sodipodi="http://sodipodi.sourceforge.net/DTD/sodipodi-0.dtd"
   xmlns:inkscape="http://www.inkscape.org/namespaces/inkscape"
   width="64px"
   height="64px"
   id="svg6906"
   version="1.1"
   inkscape:version="0.48.5 r10040"
   sodipodi:docname="MouseRightClick.svg">
  <defs
     id="defs6908">
    <clipPath
       id="SVGID_2_">
      <use
         height="100%"
         width="100%"
         y="0"
         x="0"
         style="overflow:visible"
         xlink:href="#SVGID_1_"
         overflow="visible"
         id="use3343" />
    </clipPath>
  </defs>
  <sodipodi:namedview
     id="base"
     pagecolor="#ffffff"
     bordercolor="#666666"
     borderopacity="1.0"
     inkscape:pageopacity="0.0"
     inkscape:pageshadow="2"
     inkscape:zoom="8.0000001"
     inkscape:cx="30.906091"
     inkscape:cy="37.857549"
     inkscape:current-layer="svg6906"
     showgrid="true"
     inkscape:document-units="px"
     inkscape:grid-bbox="true"
     inkscape:window-width="942"
     inkscape:window-height="985"
     inkscape:window-x="0"
     inkscape:window-y="0"
     inkscape:window-maximized="0" />
  <metadata
     id="metadata6911">
    <rdf:RDF>
      <cc:Work
         rdf:about="">
        <dc:type
           rdf:resource="http://purl.org/dc/dcmitype/StillImage" />
        <dc:title />
        <dc:format>image/svg+xml</dc:format>
      </cc:Work>
      <dc:format>image/svg+xml</dc:format>
    </rdf:RDF>
  </metadata>
  <g
     transform="matrix(0.47811328,0,0,0.47811328,8.5151129,8.0461809)"
     id="g3337">
    <defs
       id="defs3339">
      <rect
         id="SVGID_1_"
         x="4.5"
         y="6.4619999"
         width="90"
         height="88.038002" />
    </defs>
    <clipPath
       id="clipPath3392">
      <use
         height="100%"
         width="100%"
         y="0"
         x="0"
         style="overflow:visible"
         xlink:href="#SVGID_1_"
         overflow="visible"
         id="use3394" />
    </clipPath>
  </g>
  <g
     transform="matrix(0.34879181,0,0,0.34879181,-0.70496369,2.4315747)"
     id="g10"
     style="fill:#000000">
    <g
       id="g12"
       style="fill:#000000" />
    <g
       id="g16"
       style="fill:#000000" />
    <g
       id="g20"
       style="fill:#000000" />
    <g
       id="g24"
       style="fill:#000000">
      <path
         id="path26"
         style="fill:#000000"
         d="m 65.277378,40.284919 13.6,-13.6 c 0.6,-0.6 1.8,-0.5 2.7,0.4 0.8,0.8 1,2 0.4,2.7 l -13.7,13.6 c -0.6,0.6 -1.8,0.5 -2.7,-0.4 -0.8,-0.9 -1,-2 -0.3,-2.7 z m -10.1,-2.3 v -19.2 c 0,-0.9 1,-1.6 2.1,-1.6 1.1,0 2.1,0.7 2.1,1.6 v 19.2 c 0,0.9 -1,1.6 -2.1,1.6 -1.1,0 -2.1,-0.7 -2.1,-1.6 z m -11,15.6 h -19.3 c -0.9,0 -1.6,-1 -1.6,-2.1 0,-1.1 0.7,-2.1 1.6,-2.1 h 19.2 c 0.9,0 1.6,1 1.6,2.1 0,1.1 -0.7,2.1 -1.5,2.1 z m 5.5,8.8 -13.6,13.6 c -0.6,0.6 -1.8,0.5 -2.7,-0.4 -0.9,-0.9 -1,-2 -0.4,-2.7 l 13.6,-13.6 c 0.6,-0.6 1.8,-0.5 2.7,0.4 0.9,0.9 1,2 0.4,2.7 z m -3.2,-18.9 -13.6,-13.6 c -0.6,-0.7 -0.4,-1.9 0.4,-2.7 0.8,-0.8 2,-1 2.7,-0.4 l 13.6,13.6 c 0.6,0.6 0.5,1.8 -0.4,2.7 -0.9,0.8 -2,1 -2.7,0.4 z M 104.86014,32.808756 c -5.904257,0 -11.911609,2.010643 -17.766442,5.814474 l -13.67478,8.937059 c -0.266864,0.176266 -6.749688,4.343118 -11.09057,11.73662 -4.17779,7.110153 -7.211009,18.445809 1.722807,32.194953 l 29.718419,45.762058 c 0.398671,0.61612 9.996556,15.06797 26.272806,15.07456 5.64797,0 11.29102,-1.78799 16.90504,-5.2761 l 0.75373,-0.4307 4.41469,-2.79956 4.52237,-3.01491 4.84539,-3.12259 c 0.27349,-0.17627 6.64201,-4.34147 10.9829,-11.73662 4.17779,-7.10686 7.31539,-18.54854 -1.61514,-32.30263 L 131.13295,47.883315 C 130.73428,47.268837 121.13639,32.808756 104.86014,32.808756 z M 83.432732,52.944059 103.13733,83.200853 80.202469,98.060064 72.449839,86.000415 C 61.025161,68.421077 76.962551,57.179692 78.802689,55.958972 l 4.630043,-3.014913 z m 49.961398,16.905042 19.05855,29.287717 c 11.42138,17.582632 -4.62368,28.933342 -6.46052,30.149122 l -13.67478,8.93706 c -4.2025,2.72479 -8.34432,4.09166 -12.275,4.09166 -10.75913,-0.008 -17.81482,-10.46652 -17.87412,-10.55219 L 83.109705,102.47475 133.39413,69.849101 z"
         inkscape:connector-curvature="0" />
    </g>
  </g>
</svg>
