<?xml version="1.0" encoding="UTF-8" standalone="no"?>
<!-- Created with Inkscape (http://www.inkscape.org/) -->

<svg
   xmlns:dc="http://purl.org/dc/elements/1.1/"
   xmlns:cc="http://creativecommons.org/ns#"
   xmlns:rdf="http://www.w3.org/1999/02/22-rdf-syntax-ns#"
   xmlns:svg="http://www.w3.org/2000/svg"
   xmlns="http://www.w3.org/2000/svg"
   xmlns:xlink="http://www.w3.org/1999/xlink"
   xmlns:sodipodi="http://sodipodi.sourceforge.net/DTD/sodipodi-0.dtd"
   xmlns:inkscape="http://www.inkscape.org/namespaces/inkscape"
   width="64px"
   height="64px"
   id="svg6906"
   version="1.1"
   inkscape:version="0.91 r13725"
   sodipodi:docname="MouseLeftClick.svg">
  <defs
     id="defs6908">
    <clipPath
       id="SVGID_2_">
      <use
         height="100%"
         width="100%"
         y="0"
         x="0"
         style="overflow:visible"
         xlink:href="#SVGID_1_"
         overflow="visible"
         id="use3343" />
    </clipPath>
  </defs>
  <sodipodi:namedview
     id="base"
     pagecolor="#ffffff"
     bordercolor="#666666"
     borderopacity="1.0"
     inkscape:pageopacity="0.0"
     inkscape:pageshadow="2"
     inkscape:zoom="5.6568543"
     inkscape:cx="28.142121"
     inkscape:cy="38.694068"
     inkscape:current-layer="svg6906"
     showgrid="true"
     inkscape:document-units="px"
     inkscape:grid-bbox="true"
     inkscape:window-width="619"
     inkscape:window-height="665"
     inkscape:window-x="2848"
     inkscape:window-y="391"
     inkscape:window-maximized="0" />
  <metadata
     id="metadata6911">
    <rdf:RDF>
      <cc:Work
         rdf:about="">
        <dc:type
           rdf:resource="http://purl.org/dc/dcmitype/StillImage" />
        <dc:title></dc:title>
        <dc:format>image/svg+xml</dc:format>
      </cc:Work>
      <dc:format>image/svg+xml</dc:format>
    </rdf:RDF>
  </metadata>
  <g
     transform="matrix(0.47811328,0,0,0.47811328,8.5151129,8.0461809)"
     id="g3337">
    <defs
       id="defs3339">
      <rect
         id="SVGID_1_"
         x="4.5"
         y="6.4619999"
         width="90"
         height="88.038002" />
    </defs>
    <clipPath
       id="clipPath3392">
      <use
         height="100%"
         width="100%"
         y="0"
         x="0"
         style="overflow:visible"
         xlink:href="#SVGID_1_"
         overflow="visible"
         id="use3394" />
    </clipPath>
  </g>
  <path
     id="path3436"
     style="fill:#000000"
     d="m 17.933421,16.925128 c -0.568316,0.314575 -1.108843,0.684345 -1.642307,1.055861 -1.235676,0.964195 -2.286237,2.273525 -2.640347,3.827074 -0.299197,1.351044 -0.05091,2.788569 0.597775,4.00253 0.500719,0.937244 1.127549,1.800036 1.691623,2.699243 0.352838,0.528479 0.682275,1.079662 1.049575,1.594111 0.155266,0.06867 0.28688,-0.14057 0.427382,-0.193386 2.084895,-1.356894 4.174119,-2.707598 6.255862,-4.069051 0.105294,-0.153008 -0.08685,-0.313248 -0.14139,-0.45095 -1.443218,-2.289146 -2.9332,-4.548642 -4.412801,-6.814418 -0.369769,-0.544313 -0.710064,-1.113146 -1.106515,-1.636975 -0.02614,-0.0028 -0.05275,-0.01465 -0.07886,-0.01404 z m 18.202296,22.192679 -3.99368,2.594242 c -1.219667,0.7908 -2.415907,1.193371 -3.556685,1.193371 l -9.56e-4,0 c -3.122558,-0.0024 -5.160277,-3.028369 -5.177489,-3.053231 l -5.517905,-8.496551 14.582933,-9.471424 5.51934,8.498941 c 3.314759,5.102903 -1.322462,8.381804 -1.855558,8.734652 m -4.510521,-18.53693 -6.639081,4.312103 -5.700066,-8.775769 1.345889,-0.873513 c 1.219189,-0.792233 2.416384,-1.193371 3.557163,-1.193371 3.122079,0 5.160276,3.026458 5.17701,3.051798 l 2.259085,3.478752 z m -7.942417,5.158364 -6.640038,4.312582 -2.260997,-3.481143 c -3.315716,-5.101947 1.321983,-8.380848 1.856035,-8.73513 l 1.344455,-0.872078 5.700545,8.775769 z M 50.816663,43.71391 c -1.1097,-0.850086 -3.487836,-1.979389 -6.952723,0.03012 -4.16102,2.415906 -6.205432,0.388228 -7.553233,-1.265088 l 1.41139,-0.916543 c 0.07937,-0.05116 1.93349,-1.269391 3.193319,-3.415641 1.212495,-2.062581 2.111826,-5.360606 -0.480026,-9.352374 L 31.810226,15.51431 c -0.115703,-0.178336 -2.897366,-4.378561 -7.621125,-4.378561 -1.713558,0 -3.445285,0.559871 -5.144499,1.663834 l -3.994159,2.59233 c -0.07745,0.05116 -1.932534,1.270347 -3.192362,3.41612 -1.212495,2.063537 -2.1127826,5.360606 0.480026,9.350939 l 8.625163,13.279597 c 0.115704,0.178814 2.897367,4.379517 7.621126,4.38143 l 9.56e-4,0 c 1.712602,0 3.44385,-0.559393 5.143543,-1.663835 l 1.270347,-0.825223 c 1.43673,1.780016 4.258077,4.890621 9.644501,1.756588 2.01716,-1.168509 3.821559,-1.214408 5.227691,-0.140087 1.854123,1.422865 2.739589,4.629571 2.020984,7.299355 -0.1114,0.415959 0.132916,0.841002 0.546962,0.95288 0.06837,0.01865 0.13674,0.02869 0.203198,0.02869 0.343285,0 0.65645,-0.229494 0.749682,-0.574692 0.887378,-3.288941 -0.218976,-7.131538 -2.575597,-8.939762" />
</svg>
