<?xml version="1.0" encoding="UTF-8" standalone="no"?>
<!-- Created with Inkscape (http://www.inkscape.org/) -->

<svg
   xmlns:dc="http://purl.org/dc/elements/1.1/"
   xmlns:cc="http://creativecommons.org/ns#"
   xmlns:rdf="http://www.w3.org/1999/02/22-rdf-syntax-ns#"
   xmlns:svg="http://www.w3.org/2000/svg"
   xmlns="http://www.w3.org/2000/svg"
   xmlns:sodipodi="http://sodipodi.sourceforge.net/DTD/sodipodi-0.dtd"
   xmlns:inkscape="http://www.inkscape.org/namespaces/inkscape"
   width="64px"
   height="64px"
   id="svg4427"
   version="1.1"
   inkscape:version="0.48.5 r10040"
   sodipodi:docname="MoveAndResize.svg">
  <defs
     id="defs4429" />
  <sodipodi:namedview
     id="base"
     pagecolor="#ffffff"
     bordercolor="#666666"
     borderopacity="1.0"
     inkscape:pageopacity="0.0"
     inkscape:pageshadow="2"
     inkscape:zoom="11"
     inkscape:cx="27.24588"
     inkscape:cy="34.112059"
     inkscape:current-layer="svg4427"
     showgrid="true"
     inkscape:document-units="px"
     inkscape:grid-bbox="true"
     inkscape:window-width="1920"
     inkscape:window-height="1003"
     inkscape:window-x="-9"
     inkscape:window-y="-9"
     inkscape:window-maximized="1" />
  <metadata
     id="metadata4432">
    <rdf:RDF>
      <cc:Work
         rdf:about="">
        <dc:format>image/svg+xml</dc:format>
        <dc:type
           rdf:resource="http://purl.org/dc/dcmitype/StillImage" />
        <dc:title />
      </cc:Work>
    </rdf:RDF>
  </metadata>
  <g
     transform="matrix(0.50907359,0,0,0.50907359,7.9099759,5.0928745)"
     id="g3" />
  <path
     id="path3006-1-7"
     d="m 27.542596,22.116748 c -0.218043,0.218044 -0.519757,0.353327 -0.85262,0.35287 l -2.514437,2.3e-4 5.615249,5.615249 c 0.470874,0.470874 0.470875,1.234368 2e-6,1.705242 -0.471101,0.4711 -1.234368,0.470873 -1.705242,-2e-6 l -5.61525,-5.615249 -2.29e-4,2.514438 c 0,0.332864 -0.134826,0.634577 -0.35287,0.85262 -0.218273,0.218273 -0.519531,0.3531 -0.852623,0.352873 -0.665953,2.27e-4 -1.205946,-0.539766 -1.205719,-1.205719 l -7.27e-4,-5.423811 c 2.25e-4,-0.0798 0.0084,-0.158927 0.02387,-0.237595 0.0071,-0.03616 0.02092,-0.07048 0.03093,-0.105498 0.01182,-0.04002 0.02114,-0.08072 0.03752,-0.119365 0.01684,-0.04138 0.04025,-0.0789 0.06163,-0.117551 0.01683,-0.03002 0.02956,-0.06093 0.04888,-0.09026 0.04411,-0.06639 0.09413,-0.127779 0.150291,-0.183937 l 0,0 0,0 c 0.05615,-0.05616 0.117546,-0.106177 0.184163,-0.150516 0.02888,-0.01933 0.06025,-0.03206 0.09026,-0.04888 0.03864,-0.02136 0.07617,-0.04479 0.117548,-0.06162 0.03863,-0.01636 0.07913,-0.02547 0.118914,-0.03706 0.03548,-0.01047 0.06935,-0.02387 0.105723,-0.03115 0.07867,-0.01546 0.157793,-0.02364 0.237369,-0.02364 l 5.42472,2.26e-4 c 0.665953,-2.27e-4 1.205946,0.539767 1.205719,1.205719 -2.27e-4,0.332637 -0.134828,0.634123 -0.3531,0.852396 z m -5.400304,14.704004 c 0.218044,0.218043 0.353327,0.519757 0.35287,0.85262 l 2.3e-4,2.514437 5.615249,-5.615249 c 0.470874,-0.470874 1.234368,-0.470875 1.705242,-2e-6 0.4711,0.471101 0.470873,1.234368 -2e-6,1.705242 l -5.615249,5.61525 2.514438,2.29e-4 c 0.332864,0 0.634577,0.134826 0.85262,0.35287 0.218273,0.218273 0.3531,0.519531 0.352873,0.852623 2.27e-4,0.665953 -0.539766,1.205946 -1.205719,1.205719 l -5.423811,7.27e-4 c -0.0798,-2.25e-4 -0.158927,-0.0084 -0.237595,-0.02387 -0.03616,-0.0071 -0.07048,-0.02092 -0.105498,-0.03093 -0.04002,-0.01182 -0.08072,-0.02114 -0.119365,-0.03752 -0.04138,-0.01684 -0.0789,-0.04025 -0.117551,-0.06163 -0.03002,-0.01683 -0.06093,-0.02956 -0.09026,-0.04888 -0.06639,-0.04411 -0.127779,-0.09413 -0.183937,-0.150291 l 0,0 0,0 c -0.05616,-0.05615 -0.106177,-0.117546 -0.150516,-0.184163 -0.01933,-0.02888 -0.03206,-0.06025 -0.04888,-0.09026 -0.02136,-0.03864 -0.04479,-0.07617 -0.06162,-0.117548 -0.01636,-0.03863 -0.02547,-0.07913 -0.03706,-0.118914 -0.01047,-0.03548 -0.02387,-0.06935 -0.03115,-0.105723 -0.01546,-0.07867 -0.02364,-0.157793 -0.02364,-0.237369 l 2.26e-4,-5.42472 c -2.27e-4,-0.665953 0.539768,-1.205946 1.20572,-1.205719 0.332637,2.27e-4 0.634123,0.134828 0.852396,0.3531 z M 36.841403,22.102761 c 0.218043,0.218044 0.519757,0.353327 0.85262,0.35287 l 2.514437,2.3e-4 -5.615249,5.615249 c -0.470874,0.470874 -0.470875,1.234368 -2e-6,1.705242 0.471101,0.4711 1.234368,0.470873 1.705242,-2e-6 l 5.61525,-5.615249 2.29e-4,2.514438 c 0,0.332864 0.134826,0.634577 0.35287,0.85262 0.218273,0.218273 0.519531,0.3531 0.852623,0.352873 0.665953,2.27e-4 1.205946,-0.539766 1.205719,-1.205719 l 7.27e-4,-5.423811 c -2.25e-4,-0.0798 -0.0084,-0.158927 -0.02387,-0.237595 -0.0071,-0.03616 -0.02092,-0.07048 -0.03093,-0.105498 -0.01182,-0.04002 -0.02114,-0.08072 -0.03752,-0.119365 -0.01684,-0.04138 -0.04025,-0.0789 -0.06163,-0.117551 -0.01683,-0.03002 -0.02956,-0.06093 -0.04888,-0.09026 -0.04411,-0.06639 -0.09413,-0.127779 -0.150291,-0.183937 l 0,0 0,0 c -0.05615,-0.05616 -0.117546,-0.106177 -0.184163,-0.150516 -0.02888,-0.01933 -0.06025,-0.03206 -0.09026,-0.04888 -0.03864,-0.02136 -0.07617,-0.04479 -0.117548,-0.06162 -0.03863,-0.01636 -0.07913,-0.02547 -0.118914,-0.03706 -0.03548,-0.01047 -0.06935,-0.02387 -0.105723,-0.03115 -0.07867,-0.01546 -0.157793,-0.02364 -0.237369,-0.02364 l -5.42472,2.26e-4 c -0.665953,-2.27e-4 -1.205946,0.539767 -1.205719,1.205719 2.27e-4,0.332637 0.134828,0.634123 0.3531,0.852396 z m 5.400304,14.704004 c -0.218044,0.218043 -0.353327,0.519757 -0.35287,0.85262 l -2.3e-4,2.514437 -5.615249,-5.615249 c -0.470874,-0.470874 -1.234368,-0.470875 -1.705242,-2e-6 -0.4711,0.471101 -0.470873,1.234368 2e-6,1.705242 l 5.615249,5.61525 -2.514438,2.29e-4 c -0.332864,0 -0.634577,0.134826 -0.85262,0.35287 -0.218273,0.218273 -0.3531,0.519531 -0.352873,0.852623 -2.27e-4,0.665953 0.539766,1.205946 1.205719,1.205719 l 5.423811,7.27e-4 c 0.0798,-2.25e-4 0.158927,-0.0084 0.237595,-0.02387 0.03616,-0.0071 0.07048,-0.02092 0.105498,-0.03093 0.04002,-0.01182 0.08072,-0.02114 0.119365,-0.03752 0.04138,-0.01684 0.0789,-0.04025 0.117551,-0.06163 0.03002,-0.01683 0.06093,-0.02956 0.09026,-0.04888 0.06639,-0.04411 0.127779,-0.09413 0.183937,-0.150291 l 0,0 0,0 c 0.05616,-0.05615 0.106177,-0.117546 0.150516,-0.184163 0.01933,-0.02888 0.03206,-0.06025 0.04888,-0.09026 0.02136,-0.03864 0.04479,-0.07617 0.06162,-0.117548 0.01636,-0.03863 0.02547,-0.07913 0.03706,-0.118914 0.01047,-0.03548 0.02387,-0.06935 0.03115,-0.105723 0.01546,-0.07867 0.02364,-0.157793 0.02364,-0.237369 l -2.26e-4,-5.42472 c 2.27e-4,-0.665953 -0.539767,-1.205946 -1.205719,-1.205719 -0.332637,2.27e-4 -0.634123,0.134828 -0.852396,0.3531 z M 24.258948,15.204337 c 0.636751,0 1.27483,-0.243014 1.760194,-0.729707 l 3.671777,-3.671111 v 16.398162 c 0,1.37509 1.114811,2.489903 2.489902,2.489903 1.375753,0 2.489902,-1.114813 2.489902,-2.489903 V 10.803519 l 3.671776,3.671111 c 0.486029,0.486029 1.123444,0.729707 1.760194,0.729707 0.637415,0 1.274167,-0.243014 1.760195,-0.729707 0.972722,-0.972058 0.972722,-2.548996 0,-3.521054 L 33.944336,3.0330324 c -0.116859,-0.116195 -0.244343,-0.219775 -0.381785,-0.312068 -0.06308,-0.04249 -0.133459,-0.07237 -0.199192,-0.108891 -0.07569,-0.04117 -0.148731,-0.08698 -0.229072,-0.119516 -0.08498,-0.03586 -0.173961,-0.05644 -0.261606,-0.08167 -0.06839,-0.01926 -0.13213,-0.04581 -0.203175,-0.06042 -0.161346,-0.03253 -0.32402,-0.04913 -0.488021,-0.04913 l 0,0 0,0 c -0.164002,0 -0.326675,0.0166 -0.488685,0.04913 -0.07038,0.01394 -0.134786,0.04117 -0.203176,0.06042 -0.08765,0.02523 -0.176617,0.04581 -0.261605,0.08167 -0.08034,0.03253 -0.152715,0.07835 -0.227743,0.119516 -0.06706,0.03652 -0.136115,0.0664 -0.199857,0.108891 -0.137443,0.09229 -0.264926,0.195873 -0.381121,0.312068 L 22.498753,10.95424 c -0.972722,0.972058 -0.972722,2.548996 0,3.521053 0.486029,0.485366 1.12278,0.729044 1.760195,0.729044 z m 5.432635,16.977149 c 0,-1.374426 -1.114812,-2.489902 -2.489902,-2.489902 H 10.802189 l 3.672439,-3.671776 c 0.972722,-0.972058 0.972722,-2.548996 0,-3.521053 -0.971393,-0.972723 -2.548332,-0.972723 -3.521053,0 l -7.9212088,7.920544 c -0.1168594,0.116195 -0.2211033,0.244342 -0.3120677,0.381785 -0.041166,0.06109 -0.069053,0.126156 -0.1035799,0.189897 -0.043158,0.07835 -0.090965,0.154706 -0.1254911,0.238367 -0.033199,0.08167 -0.053118,0.167321 -0.077685,0.250982 -0.021247,0.07105 -0.04847,0.140098 -0.063077,0.213135 -0.063741,0.321364 -0.063741,0.65335 0,0.976042 0.014607,0.07304 0.041831,0.141426 0.063077,0.212471 0.025231,0.08432 0.044487,0.169314 0.077685,0.252311 0.034526,0.08233 0.082997,0.15869 0.125491,0.237702 0.034527,0.06374 0.062414,0.128812 0.1035799,0.189897 0.090964,0.137442 0.1945444,0.264262 0.3120678,0.381121 l 7.9212088,7.920545 c 0.486028,0.486028 1.123443,0.729707 1.760195,0.729707 0.63675,0 1.274829,-0.243015 1.760195,-0.729707 0.972721,-0.971394 0.972721,-2.548332 0,-3.521718 l -3.67244,-3.671112 h 16.398827 c 1.375754,6.65e-4 2.491231,-1.113484 2.491231,-2.489238 z m 32.180824,0.953466 c 0.03254,-0.08299 0.05179,-0.167985 0.07769,-0.252309 0.01992,-0.07105 0.04847,-0.139435 0.06308,-0.212472 0.06374,-0.322027 0.06374,-0.654015 0,-0.976042 -0.01395,-0.07304 -0.0425,-0.14209 -0.06308,-0.213136 -0.02589,-0.08366 -0.04515,-0.169313 -0.07769,-0.250982 -0.03586,-0.08366 -0.083,-0.160017 -0.126156,-0.238367 -0.03453,-0.06374 -0.06374,-0.12881 -0.103579,-0.189895 -0.09096,-0.137444 -0.195873,-0.265591 -0.312732,-0.381785 l -7.919881,-7.921209 c -0.972722,-0.972723 -2.550988,-0.972723 -3.521054,0 -0.972721,0.972057 -0.972721,2.548995 0,3.521053 l 3.671776,3.671776 H 37.161289 c -1.374425,0 -2.489902,1.115476 -2.489902,2.489902 0,1.375754 1.115477,2.489903 2.489902,2.489903 H 53.560781 L 49.889005,38.3425 c -0.972721,0.973386 -0.972721,2.550324 0,3.521718 0.484701,0.486028 1.12278,0.729707 1.760195,0.729707 0.636751,0 1.274166,-0.243014 1.760195,-0.729707 l 7.919881,-7.920545 c 0.116859,-0.11686 0.221767,-0.243678 0.312732,-0.381121 0.04051,-0.06109 0.06906,-0.126155 0.103579,-0.189896 0.04382,-0.07901 0.09096,-0.155371 0.12682,-0.237704 z M 38.343162,49.888343 34.671387,53.560118 V 37.16129 c 0,-1.373761 -1.114813,-2.489901 -2.489902,-2.489901 -1.37509,0 -2.489902,1.11614 -2.489902,2.489901 v 16.398828 l -3.671776,-3.671775 c -0.971394,-0.972722 -2.548332,-0.972722 -3.521054,0 -0.972722,0.972721 -0.972722,2.548332 0,3.521717 l 7.920545,7.921209 c 0.116195,0.116859 0.244342,0.219775 0.381121,0.312732 0.06175,0.04117 0.128811,0.06906 0.192552,0.104244 0.07835,0.0425 0.153378,0.0903 0.235711,0.124162 0.08233,0.03453 0.167322,0.05378 0.25231,0.07769 0.07105,0.02192 0.138107,0.04847 0.212472,0.06374 0.161346,0.0312 0.324683,0.04847 0.487357,0.04847 0.162673,0 0.326011,-0.01726 0.488021,-0.04847 0.0737,-0.01461 0.142091,-0.04183 0.212471,-0.06374 0.08499,-0.02391 0.170641,-0.04316 0.252974,-0.07769 0.08299,-0.03386 0.156698,-0.081 0.235711,-0.124162 0.06308,-0.03519 0.129475,-0.06374 0.191888,-0.104244 0.136115,-0.09296 0.264926,-0.195873 0.381785,-0.312732 l 7.919882,-7.921209 c 0.972721,-0.973385 0.972721,-2.548996 0,-3.521717 -0.972722,-0.972722 -2.548996,-0.972722 -3.520391,0 z" />
</svg>
