<?xml version="1.0" encoding="UTF-8" standalone="no"?>
<!-- Created with Inkscape (http://www.inkscape.org/) -->

<svg
   xmlns:dc="http://purl.org/dc/elements/1.1/"
   xmlns:cc="http://creativecommons.org/ns#"
   xmlns:rdf="http://www.w3.org/1999/02/22-rdf-syntax-ns#"
   xmlns:svg="http://www.w3.org/2000/svg"
   xmlns="http://www.w3.org/2000/svg"
   xmlns:sodipodi="http://sodipodi.sourceforge.net/DTD/sodipodi-0.dtd"
   xmlns:inkscape="http://www.inkscape.org/namespaces/inkscape"
   width="64px"
   height="64px"
   id="svg6840"
   version="1.1"
   inkscape:version="0.48.5 r10040"
   sodipodi:docname="MultiKeySelection.xaml">
  <defs
     id="defs6842" />
  <sodipodi:namedview
     id="base"
     pagecolor="#ffffff"
     bordercolor="#666666"
     borderopacity="1.0"
     inkscape:pageopacity="0.0"
     inkscape:pageshadow="2"
     inkscape:zoom="5.5"
     inkscape:cx="32"
     inkscape:cy="32"
     inkscape:current-layer="svg6840"
     showgrid="true"
     inkscape:document-units="px"
     inkscape:grid-bbox="true"
     inkscape:window-width="1920"
     inkscape:window-height="1003"
     inkscape:window-x="-9"
     inkscape:window-y="-9"
     inkscape:window-maximized="1" />
  <metadata
     id="metadata6845">
    <rdf:RDF>
      <cc:Work
         rdf:about="">
        <dc:format>image/svg+xml</dc:format>
        <dc:type
           rdf:resource="http://purl.org/dc/dcmitype/StillImage" />
        <dc:title></dc:title>
      </cc:Work>
    </rdf:RDF>
  </metadata>
  <path
     d="m 53.033267,8.0040398 c -3.109833,0 -5.639595,2.5297622 -5.639595,5.6395962 0,1.70101 0.760003,3.224236 1.954522,4.259237 L 41.416775,32.59966 c -0.761078,-0.383493 -1.618296,-0.604779 -2.527076,-0.604779 -1.10375,0 -2.131231,0.323873 -3.00134,0.873331 l -6.226651,-4.474079 c 0.458687,-0.815862 0.724016,-1.75472 0.724016,-2.755346 0,-3.109834 -2.529761,-5.639596 -5.639595,-5.639596 -3.109834,0 -5.639596,2.529762 -5.639596,5.639596 0,1.495836 0.589203,2.853635 1.543101,3.864466 l -9.172669,14.561438 c -0.285739,-0.04512 -0.576312,-0.0752 -0.874405,-0.0752 -3.109835,0 -5.6395967,2.529762 -5.6395967,5.639596 0,3.109834 2.5297617,5.639596 5.6395967,5.639596 3.109834,0 5.639596,-2.529762 5.639596,-5.639596 0,-1.44857 -0.553755,-2.766625 -1.454479,-3.766713 l 9.221008,-14.638781 c 0.241696,0.03222 0.486616,0.05425 0.737444,0.05425 0.696624,0 1.361559,-0.132665 1.977618,-0.365231 l 6.831431,4.90806 c -0.194432,0.570406 -0.304538,1.178407 -0.304538,1.813265 0,3.109834 2.529761,5.639595 5.639595,5.639595 3.109835,0 5.639596,-2.529761 5.639596,-5.639595 0,-0.748724 -0.149315,-1.461999 -0.415181,-2.115118 l 8.765543,-16.243652 c 0.05156,0.0016 0.101512,0.0081 0.153612,0.0081 3.109834,0 5.639596,-2.529762 5.639596,-5.639595 0,-3.109833 -2.530299,-5.6395952 -5.640134,-5.6395952 z"
     id="path4042" />
</svg>
