<?xml version="1.0" encoding="UTF-8" standalone="no"?>
<!-- Created with Inkscape (http://www.inkscape.org/) -->

<svg
   xmlns:dc="http://purl.org/dc/elements/1.1/"
   xmlns:cc="http://creativecommons.org/ns#"
   xmlns:rdf="http://www.w3.org/1999/02/22-rdf-syntax-ns#"
   xmlns:svg="http://www.w3.org/2000/svg"
   xmlns="http://www.w3.org/2000/svg"
   xmlns:sodipodi="http://sodipodi.sourceforge.net/DTD/sodipodi-0.dtd"
   xmlns:inkscape="http://www.inkscape.org/namespaces/inkscape"
   width="64px"
   height="64px"
   id="svg6906"
   version="1.1"
   inkscape:version="0.48.5 r10040"
   sodipodi:docname="NumericAndSymbols.svg">
  <defs
     id="defs6908" />
  <sodipodi:namedview
     id="base"
     pagecolor="#ffffff"
     bordercolor="#666666"
     borderopacity="1.0"
     inkscape:pageopacity="0.0"
     inkscape:pageshadow="2"
     inkscape:zoom="5.5"
     inkscape:cx="-9.1335633"
     inkscape:cy="39.272728"
     inkscape:current-layer="text3396"
     showgrid="true"
     inkscape:document-units="px"
     inkscape:grid-bbox="true"
     inkscape:window-width="1920"
     inkscape:window-height="1003"
     inkscape:window-x="-9"
     inkscape:window-y="-9"
     inkscape:window-maximized="1" />
  <metadata
     id="metadata6911">
    <rdf:RDF>
      <cc:Work
         rdf:about="">
        <dc:type
           rdf:resource="http://purl.org/dc/dcmitype/StillImage" />
        <dc:title />
        <dc:format>image/svg+xml</dc:format>
      </cc:Work>
      <dc:format>image/svg+xml</dc:format>
    </rdf:RDF>
  </metadata>
  <g
     style="font-style:normal;font-weight:normal;font-size:29.74659729px;line-height:125%;font-family:sans-serif;letter-spacing:0px;word-spacing:0px;fill:#000000;fill-opacity:1;stroke:none;stroke-width:1px;stroke-linecap:butt;stroke-linejoin:miter;stroke-opacity:1"
     id="text3396">
    <flowRoot
       xml:space="preserve"
       id="flowRoot2997"
       style="font-size:40px;font-style:normal;font-weight:normal;line-height:125%;letter-spacing:0px;word-spacing:0px;fill:#000000;fill-opacity:1;stroke:none;font-family:Sans"><flowRegion
         id="flowRegion2999"><rect
           id="rect3001"
           width="50.909092"
           height="41.272728"
           x="7.4545455"
           y="13.636364" /></flowRegion><flowPara
         id="flowPara3003">fdgdf</flowPara></flowRoot>    <g
       style="font-size:38.83137131px;font-variant:normal;font-stretch:normal;line-height:125%;fill:#000000;font-family:Roboto;-inkscape-font-specification:Roboto"
       id="text2995" />
    <g
       style="font-size:38.83137131px;font-variant:normal;font-stretch:normal;line-height:125%;fill:#000000;font-family:Roboto;-inkscape-font-specification:Roboto"
       id="text3009" />
    <g
       style="font-size:38.83137131px;font-variant:normal;font-stretch:normal;line-height:125%;fill:#000000;font-family:Roboto;-inkscape-font-specification:Roboto"
       id="text3013" />
    <g
       style="font-size:38.83137131px;font-variant:normal;font-stretch:normal;line-height:125%;fill:#000000;font-family:Roboto;-inkscape-font-specification:Roboto"
       id="text3017" />
    <g
       style="font-size:38.83137131px;font-variant:normal;font-stretch:normal;line-height:125%;fill:#000000;font-family:Roboto;-inkscape-font-specification:Roboto"
       id="text3023" />
    <g
       style="font-size:38.83137131px;font-variant:normal;font-stretch:normal;line-height:125%;fill:#000000;font-family:Roboto;-inkscape-font-specification:Roboto"
       id="text3027"
       transform="translate(-52.545455,-3.8181818)">
      <path
         id="path3179"
         style="font-size:29.12353134px"
         d="m 97.779829,22.773542 2.332161,0 c 0.89114,1.2e-5 1.55002,-0.234625 1.97664,-0.703914 0.42661,-0.469262 0.63991,-1.111553 0.63992,-1.926874 -1e-5,-0.312835 -0.0498,-0.609095 -0.14931,-0.88878 -0.0996,-0.279653 -0.24887,-0.526141 -0.44795,-0.739464 -0.19909,-0.21329 -0.45269,-0.381566 -0.76079,-0.504827 -0.30812,-0.123227 -0.67074,-0.184849 -1.08787,-0.184866 -0.293896,1.7e-5 -0.580675,0.04505 -0.860337,0.135094 -0.279676,0.09008 -0.530904,0.218065 -0.753685,0.383953 -0.222794,0.165922 -0.402919,0.367379 -0.540378,0.60437 -0.13747,0.237024 -0.206203,0.507213 -0.206197,0.810567 l -4.7923,0 c -10e-7,-0.881653 0.189606,-1.670888 0.568819,-2.367709 0.379211,-0.696784 0.891148,-1.286934 1.535812,-1.770449 0.644657,-0.483476 1.386491,-0.853208 2.225504,-1.109197 0.839002,-0.255947 1.72304,-0.383931 2.652122,-0.383952 1.0997,2.1e-5 2.10462,0.128005 3.01474,0.383952 0.9101,0.255989 1.68985,0.632831 2.33926,1.130528 0.64939,0.497736 1.15422,1.113956 1.51449,1.848662 0.36023,0.734741 0.54036,1.585599 0.54037,2.552575 -10e-6,0.47403 -0.0759,0.929085 -0.22752,1.365165 -0.1517,0.436108 -0.36501,0.846131 -0.63993,1.230071 -0.27494,0.383965 -0.61149,0.732367 -1.00965,1.045205 -0.39819,0.312862 -0.83902,0.583051 -1.3225,0.810567 1.0997,0.398184 1.96241,1.002553 2.58812,1.813111 0.62569,0.810575 0.93854,1.813117 0.93855,3.00763 -1e-5,0.966997 -0.19673,1.829705 -0.59015,2.588126 -0.39344,0.758428 -0.93619,1.398349 -1.62824,1.919764 -0.69208,0.521419 -1.50975,0.917221 -2.45303,1.18741 -0.9433,0.270189 -1.96481,0.405283 -3.06451,0.405284 -0.57831,-10e-7 -1.158979,-0.05214 -1.742012,-0.156426 -0.583045,-0.104283 -1.144753,-0.260708 -1.685126,-0.469275 -0.540382,-0.208567 -1.047578,-0.476385 -1.521591,-0.803457 -0.474018,-0.32707 -0.884041,-0.715762 -1.230071,-1.166079 -0.346033,-0.450312 -0.620962,-0.959879 -0.824787,-1.528701 -0.203828,-0.568815 -0.305741,-1.208735 -0.30574,-1.919764 l 4.82074,0 c -5e-6,0.331816 0.0711,0.639926 0.213307,0.924331 0.142199,0.284414 0.334176,0.533272 0.57593,0.746575 0.241741,0.213311 0.52378,0.379216 0.846118,0.497716 0.322323,0.118508 0.663614,0.17776 1.023872,0.177756 0.43609,4e-6 0.82715,-0.06399 1.17319,-0.191976 0.34602,-0.127981 0.63754,-0.305736 0.87456,-0.533268 0.237,-0.227523 0.41712,-0.492972 0.54038,-0.796347 0.12323,-0.303364 0.18485,-0.630435 0.18486,-0.981212 -1e-5,-1.042828 -0.26071,-1.782292 -0.78212,-2.218394 -0.52143,-0.436086 -1.24193,-0.654133 -2.16151,-0.654142 l -2.332161,0 z m -7.053021,13.593134 -14.448002,0 0,-3.128504 6.655182,-6.996473 c 0.88166,-1.004903 1.512101,-1.865241 1.891323,-2.581016 0.379202,-0.715751 0.568808,-1.339081 0.568819,-1.869993 -1.1e-5,-0.891134 -0.194357,-1.568976 -0.58304,-2.033528 -0.388702,-0.464518 -0.95278,-0.696786 -1.692236,-0.696803 -0.36974,1.7e-5 -0.706291,0.08297 -1.009654,0.248858 -0.303377,0.165923 -0.561715,0.39582 -0.775016,0.689693 -0.213313,0.293906 -0.379218,0.637567 -0.497716,1.030985 -0.11851,0.393448 -0.177762,0.822432 -0.177756,1.286953 l -4.80652,0 c -10e-7,-0.948017 0.177754,-1.843906 0.533267,-2.68767 0.35551,-0.84373 0.857967,-1.583194 1.507371,-2.218394 0.649398,-0.635161 1.426783,-1.135248 2.332157,-1.50026 0.905364,-0.364971 1.907907,-0.547467 3.007631,-0.547488 1.147109,2.1e-5 2.154391,0.135115 3.021851,0.405283 0.867436,0.27021 1.59505,0.661272 2.182842,1.173189 0.587766,0.511956 1.03097,1.140027 1.329615,1.884213 0.298615,0.744222 0.447929,1.590339 0.447945,2.538355 -1.6e-5,0.720518 -0.113779,1.410211 -0.341292,2.069079 -0.227542,0.658894 -0.554613,1.315405 -0.981213,1.969536 -0.426627,0.654152 -0.948044,1.322513 -1.564252,2.005087 -0.616232,0.682591 -1.308294,1.407834 -2.076189,2.175732 l -2.673449,3.085843 8.148332,0 z m 16.748882,7.383445 -13.168157,0 0,-3.697323 13.168157,0 z m 0,6.242788 -13.168157,0 0,-3.697323 13.168157,0 z m -21.243232,4.529005 -3.88219,0 -0.61148,-14.149372 5.10515,0 z m -4.635875,4.408347 c -2e-6,-0.341289 0.06399,-0.658879 0.191976,-0.952772 0.127983,-0.293886 0.310479,-0.547484 0.547489,-0.760795 0.237005,-0.213303 0.516674,-0.381578 0.839008,-0.504827 0.322327,-0.123239 0.682579,-0.184861 1.080756,-0.184866 0.398168,5e-6 0.75842,0.06163 1.080756,0.184866 0.322325,0.123249 0.601994,0.291524 0.839008,0.504827 0.237001,0.213311 0.419497,0.466909 0.547488,0.760795 0.127977,0.293893 0.19197,0.611483 0.191976,0.952772 -6e-6,0.341293 -0.064,0.658884 -0.191976,0.952772 -0.127991,0.293891 -0.310487,0.547489 -0.547488,0.760795 -0.237014,0.213308 -0.516683,0.381583 -0.839008,0.504827 -0.322336,0.123244 -0.682588,0.184866 -1.080756,0.184866 -0.398177,0 -0.758429,-0.06162 -1.080756,-0.184866 -0.322334,-0.123244 -0.602003,-0.291519 -0.839008,-0.504827 -0.23701,-0.213306 -0.419506,-0.466904 -0.547489,-0.760795 -0.127985,-0.293888 -0.191978,-0.611479 -0.191976,-0.952772 z M 70.52245,43.153726 l 4.849181,0 0,4.109717 -4.849181,0 0,5.560205 -4.47945,0 0,-5.560205 -4.863402,0 0,-4.109717 4.863402,0 0,-5.40378 4.47945,0 z m 0.846507,-10.846692 -4.80652,0 0,-15.301231 -4.721198,1.379386 0,-3.640441 9.086883,-3.142725 0.440835,0 z"
         inkscape:connector-curvature="0" />
    </g>
  </g>
</svg>
