<?xml version="1.0" encoding="UTF-8" standalone="no"?>
<!-- Created with Inkscape (http://www.inkscape.org/) -->

<svg
   xmlns:dc="http://purl.org/dc/elements/1.1/"
   xmlns:cc="http://creativecommons.org/ns#"
   xmlns:rdf="http://www.w3.org/1999/02/22-rdf-syntax-ns#"
   xmlns:svg="http://www.w3.org/2000/svg"
   xmlns="http://www.w3.org/2000/svg"
   xmlns:sodipodi="http://sodipodi.sourceforge.net/DTD/sodipodi-0.dtd"
   xmlns:inkscape="http://www.inkscape.org/namespaces/inkscape"
   width="64px"
   height="64px"
   id="svg4427"
   version="1.1"
   inkscape:version="0.48.5 r10040"
   sodipodi:docname="PositionAndOpacity.svg">
  <defs
     id="defs4429" />
  <sodipodi:namedview
     id="base"
     pagecolor="#ffffff"
     bordercolor="#666666"
     borderopacity="1.0"
     inkscape:pageopacity="0.0"
     inkscape:pageshadow="2"
     inkscape:zoom="7.7781746"
     inkscape:cx="35.36765"
     inkscape:cy="35.036988"
     inkscape:current-layer="svg4427"
     showgrid="true"
     inkscape:document-units="px"
     inkscape:grid-bbox="true"
     inkscape:window-width="942"
     inkscape:window-height="985"
     inkscape:window-x="960"
     inkscape:window-y="0"
     inkscape:window-maximized="0" />
  <metadata
     id="metadata4432">
    <rdf:RDF>
      <cc:Work
         rdf:about="">
        <dc:format>image/svg+xml</dc:format>
        <dc:type
           rdf:resource="http://purl.org/dc/dcmitype/StillImage" />
        <dc:title />
      </cc:Work>
    </rdf:RDF>
  </metadata>
  <path
     id="path3262"
     d="m 29.026095,18.943942 c -0.588838,0.588438 -0.58884,1.552877 -1e-6,2.141317 l 2.224961,2.224961 -4.550297,10e-7 c 0.126477,0.998443 0.124521,2.012781 0,3.011226 l 4.550298,-3e-6 -2.224964,2.224964 c -0.588843,0.589245 -0.605571,1.536549 -0.01673,2.124587 0.293416,0.294221 0.684797,0.434955 1.070658,0.434954 0.385461,1e-6 0.776439,-0.140334 1.070658,-0.434954 l 4.784502,-4.784502 c 0.07073,-0.07073 0.14551,-0.151167 0.200756,-0.234203 0.02456,-0.03701 0.0293,-0.0785 0.05018,-0.117102 0.02657,-0.04785 0.06194,-0.100719 0.08364,-0.150566 0.01971,-0.05027 0.03449,-0.09952 0.05019,-0.150557 0.01206,-0.04303 0.02461,-0.08963 0.03346,-0.133838 0.03858,-0.194935 0.05531,-0.390574 0.01673,-0.585515 -0.0084,-0.0442 -0.03777,-0.07406 -0.05021,-0.117077 -0.01566,-0.05066 -0.03054,-0.101081 -0.0502,-0.15055 -0.02177,-0.0506 -0.05747,-0.103165 -0.08367,-0.150536 -0.02089,-0.03861 -0.02604,-0.08016 -0.05021,-0.117077 -0.05503,-0.08323 -0.129982,-0.163895 -0.200733,-0.234222 L 31.15061,18.960747 c -0.588842,-0.588841 -1.537346,-0.60558 -2.124584,-0.01673 z M 15.488072,32.472443 c -0.588842,0.588842 -0.588842,1.552071 0,2.141316 l 4.784503,4.784503 c 0.07034,0.07074 0.151335,0.144548 0.234201,0.200755 0.03738,0.02493 0.07852,0.0289 0.117104,0.05018 0.04743,0.02574 0.100712,0.06315 0.150564,0.08364 0.04984,0.0209 0.09912,0.03567 0.150565,0.05018 0.04301,0.01326 0.08881,0.02422 0.133828,0.03346 0.09767,0.01889 0.18592,0.01673 0.284394,0.01673 0.09847,-7e-6 0.186321,0.0022 0.284393,-0.01673 0.04462,-0.0088 0.09122,-0.02021 0.133836,-0.03346 0.05145,-0.01448 0.100728,-0.02928 0.150557,-0.05019 0.05026,-0.02048 0.10274,-0.05751 0.150563,-0.08364 0.03819,-0.02131 0.07933,-0.02566 0.117106,-0.05019 0.08241,-0.05627 0.16346,-0.130013 0.2342,-0.200754 l 4.784504,-4.784504 c 0.588843,-0.589244 0.588843,-1.552473 0,-2.141315 -0.588843,-0.588844 -1.536547,-0.572112 -2.124587,0.01673 l -2.224961,2.224961 0,-4.483379 c -0.997872,0.130045 -2.012235,0.120958 -3.011226,-1e-6 l 0,4.483381 -2.224961,-2.22496 c -0.58803,-0.588845 -1.535735,-0.605572 -2.124578,-0.01673 z m 0.03111,-17.251125 c -0.588843,0.588441 -0.58884,1.552875 0,2.141316 0.294223,0.293817 0.684796,0.434956 1.070659,0.434954 0.385461,0 0.76011,-0.157059 1.053928,-0.451683 l 2.224964,-2.224963 -2e-6,4.483383 c 1.004091,-0.119291 2.008458,-0.13426 3.011225,-1e-6 l 0,-4.483382 2.224962,2.224962 c 0.294221,0.294221 0.668469,0.451681 1.053928,0.451685 0.385864,-10e-7 0.77644,-0.140334 1.070657,-0.434954 0.588845,-0.588442 0.588848,-1.552879 10e-7,-2.141317 l -4.784501,-4.784503 c -0.07074,-0.07034 -0.151195,-0.144689 -0.234222,-0.200733 -0.03818,-0.02573 -0.07737,-0.028 -0.117077,-0.05021 -0.04579,-0.02495 -0.101899,-0.06398 -0.150536,-0.08367 -0.05143,-0.02174 -0.09747,-0.03494 -0.150543,-0.0502 -0.04143,-0.01162 -0.07408,-0.04136 -0.117077,-0.05021 -0.09762,-0.01973 -0.185115,-0.01673 -0.284392,-0.01673 -0.09926,0 -0.203053,0.01377 -0.301128,0.03346 -0.04264,0.0085 -0.09244,0.02181 -0.133832,0.03345 -0.05303,0.01524 -0.09911,0.02849 -0.150557,0.05019 -0.04861,0.01965 -0.08841,0.042 -0.133834,0.06691 -0.04057,0.02208 -0.09525,0.04118 -0.133835,0.06691 -0.0832,0.05587 -0.163856,0.13041 -0.234201,0.200755 l -4.784503,4.784503 z m -8.554969,8.545448 c -0.07074,0.07034 -0.145727,0.15096 -0.200754,0.234201 -0.02494,0.03696 -0.02929,0.07852 -0.05018,0.117105 -0.02613,0.04743 -0.06274,0.09992 -0.08364,0.150563 -0.02011,0.04944 -0.03532,0.09991 -0.05018,0.150565 -0.01286,0.04301 -0.02461,0.08961 -0.03346,0.133829 -0.03858,0.194543 -0.03858,0.373442 0,0.568787 0.0088,0.04421 0.0206,0.09082 0.03346,0.133828 0.01527,0.05105 0.03009,0.100324 0.05018,0.150565 0.0209,0.04984 0.05791,0.102753 0.08364,0.150564 0.02091,0.03859 0.02527,0.08012 0.05019,0.117105 0.05506,0.0832 0.129608,0.163464 0.200755,0.234201 l 4.784502,4.784502 c 0.294221,0.29422 0.6852,0.434956 1.070659,0.434954 0.385461,2e-6 0.77684,-0.140332 1.070657,-0.434954 0.588844,-0.588038 0.572113,-1.535344 -0.01673,-2.124587 l -2.224961,-2.224961 4.416466,-10e-7 C 15.936746,25.34475 15.90841,24.33041 16.031347,23.331807 l -4.383006,0 2.22496,-2.22496 c 0.588843,-0.588441 0.605573,-1.536149 0.01673,-2.124587 -0.588036,-0.588845 -1.552474,-0.588843 -2.141315,0 l -4.784503,4.784503 z m 35.978174,28.673142 -0.23324,0.932962 c 0.0814,0.021 0.151358,0.02779 0.23324,0.04664 l 0.01555,0.01555 c 0.004,9.17e-4 0.01101,-9.16e-4 0.01555,0 0.0017,6.77e-4 0.01387,-1.99e-4 0.01555,0 l 0.01555,0 c 0.0017,4.84e-4 0.01411,-2.5e-4 0.01555,0 0.0017,4.83e-4 -0.0015,0.01505 0,0.01555 0.0015,4.83e-4 0.01411,-2.49e-4 0.01555,0 0.0015,4.83e-4 0.01366,-4.97e-4 0.01555,0 0.0012,2.39e-4 0.01436,-2.13e-4 0.01555,0 0.0012,2.39e-4 0.01436,-2.45e-4 0.01555,0 0.0012,2.39e-4 0.0146,-2.14e-4 0.01555,0 9.16e-4,2.38e-4 -9.17e-4,0.01531 0,0.01555 0.0017,2.39e-4 0.01385,-4.62e-4 0.01555,0 6.78e-4,2.39e-4 0.01466,-2.13e-4 0.01555,0 9.17e-4,2.38e-4 0.01436,-2.45e-4 0.01555,0 0.0017,4.83e-4 0.01388,-2.49e-4 0.01555,0 0.0019,4.83e-4 -0.0019,0.01505 0,0.01555 0.0017,2.39e-4 0.01436,-2.13e-4 0.01555,0 0.0019,4.84e-4 0.01366,-4.98e-4 0.01555,0 l 0.01555,0 c 0.004,6.78e-4 0.0115,-9.93e-4 0.01555,0 0.004,6.78e-4 0.01125,-7.44e-4 0.01555,0 0.0029,4.84e-4 -0.0028,0.0151 0,0.01555 0.004,6.78e-4 0.01149,-6.77e-4 0.01555,0 0.0039,9.17e-4 0.0115,-6.77e-4 0.01555,0 0.121032,0.02411 0.235171,0.04238 0.357635,0.0622 0.01122,0.0019 0.03591,-0.0015 0.04665,0 0.0043,6.77e-4 -0.004,0.0151 0,0.01555 0.007,0.0012 0.02442,-0.0012 0.03109,0 2.39e-4,0 0.01534,0 0.01555,0 0.0024,2.39e-4 0.01341,-2.49e-4 0.01555,0 0.0024,4.83e-4 0.01317,-2.49e-4 0.01555,0 0.0024,0 0.01389,-4.59e-4 0.01555,0 0.0017,0 0.01388,-2.13e-4 0.01555,0 6.77e-4,2.39e-4 -7.45e-4,0.01531 0,0.01555 9.16e-4,2.39e-4 0.01485,-2.45e-4 0.01555,0 0.0015,2.39e-4 0.01385,0 0.01555,0 0.0012,2.39e-4 0.0146,-2.14e-4 0.01555,0 0.0012,0 0.01431,-2.45e-4 0.01555,0 0.0015,2.39e-4 0.01415,-2.14e-4 0.01555,0 6.78e-4,2.39e-4 0.01506,0 0.01555,0 0.0017,2.39e-4 0.01411,-2.14e-4 0.01555,0 0.0019,2.39e-4 -0.0017,0.01534 0,0.01555 0.0019,2.38e-4 0.01389,-2.13e-4 0.01555,0 0.0019,4.83e-4 0.01365,-2.49e-4 0.01555,0 0.004,6.78e-4 0.0115,-6.77e-4 0.01555,0 0.133447,0.01623 0.26654,0.03376 0.404283,0.04665 l 0.0933,-0.948511 c -0.503705,-0.04631 -1.002402,-0.139964 -1.492738,-0.26434 z m -2.798884,-1.1973 -0.49758,0.808567 c 0.198856,0.124613 0.400169,0.24639 0.606425,0.357635 0.004,0.0021 0.01173,-0.002 0.01555,0 0.0057,0.0031 0.01006,0.01221 0.01555,0.01555 0.0017,6.77e-4 0.01388,0.01455 0.01555,0.01555 l 0.01555,0 c 0.0021,9.17e-4 0.01389,0.01461 0.01555,0.01555 0.0017,9.17e-4 0.01387,-9.16e-4 0.01555,0 0.0019,9.17e-4 -0.0017,0.01455 0,0.01555 0.0039,0.0019 0.01197,-0.0015 0.01555,0 0.0019,9.16e-4 0.01388,-0.0012 0.01555,0 0.0019,9.16e-4 -0.0015,0.0148 0,0.01555 0.0017,9.17e-4 0.01412,-9.92e-4 0.01555,0 0.0033,0.0019 0.01221,0.01389 0.01555,0.01555 0.0021,0.0012 0.01389,-9.93e-4 0.01555,0 0.0021,6.78e-4 0.01389,-9.16e-4 0.01555,0 0.0017,9.17e-4 -0.0017,0.01455 0,0.01555 0.0019,9.16e-4 0.01388,-9.17e-4 0.01555,0 0.0021,6.77e-4 0.01388,0.01466 0.01555,0.01555 0.0036,0.0017 0.01197,-0.0019 0.01555,0 0.0017,6.77e-4 0.01364,-9.17e-4 0.01555,0 l 0,0.01555 c 0.0024,9.17e-4 0.01389,-9.93e-4 0.01555,0 0.0017,9.17e-4 0.01387,-9.93e-4 0.01555,0 0.0019,9.17e-4 -0.002,0.01485 0,0.01555 0.0017,9.17e-4 0.01387,-6.77e-4 0.01555,0 0.0019,0.0012 0.01412,0.01485 0.01555,0.01555 0.0017,9.16e-4 0.01412,-9.17e-4 0.01555,0 0.0017,0.0012 0.01412,0.01485 0.01555,0.01555 0.0039,0.0017 0.01197,-0.0015 0.01555,0 0.0017,9.17e-4 0.01388,-9.16e-4 0.01555,0 4.84e-4,0 -2.48e-4,0.01531 0,0.01555 0.0033,0.0019 0.01221,-0.0015 0.01555,0 0.0019,6.78e-4 0.01388,0.01436 0.01555,0.01555 0.0039,0.0017 0.01197,-0.0017 0.01555,0 0.0039,0.0017 0.01173,0.01363 0.01555,0.01555 0.0019,9.16e-4 0.01389,-9.93e-4 0.01555,0 0.0036,0.0019 0.01173,-0.0017 0.01555,0 0.0021,9.16e-4 -0.0021,0.01485 0,0.01555 0.0021,9.17e-4 0.01365,-6.76e-4 0.01555,0 0.0019,9.17e-4 0.01389,0.01455 0.01555,0.01555 0.004,0.0017 0.01173,-0.0015 0.01555,0 0.006,0.0026 0.0098,0.01269 0.01555,0.01555 0.006,0.0029 0.02537,-0.0027 0.03109,0 0.102413,0.04584 0.206904,0.09507 0.310988,0.139944 l 0.373183,-0.870764 c -0.46535,-0.199616 -0.923411,-0.445796 -1.352874,-0.715315 z m -2.285756,-1.990317 -0.73082,0.621974 c 0.359995,0.426836 0.74605,0.816744 1.166202,1.181751 l 0.637524,-0.715271 c -0.382911,-0.33254 -0.746093,-0.701963 -1.072906,-1.088454 z m -1.570485,-2.581195 -0.886313,0.357636 c 0.0019,0.0039 0.01387,0.01197 0.01555,0.01555 9.17e-4,0.0017 -7.44e-4,0.01388 0,0.01555 0.0017,0.0036 -0.0015,0.01149 0,0.01555 0.0019,0.0043 0.01436,0.01173 0.01555,0.01555 0.0017,0.004 -0.002,0.01149 0,0.01555 0.0019,0.004 0.01412,0.01125 0.01555,0.01555 0.203392,0.485085 0.430919,0.955896 0.699721,1.399443 l 0.824116,-0.49758 c -0.262354,-0.432803 -0.492714,-0.884897 -0.684169,-1.352794 z m -0.699721,-2.954377 -0.948511,0.07775 c 0.0024,0.02792 -0.0024,0.0491 0,0.07775 2.39e-4,6.77e-4 -2.45e-4,0.01485 0,0.01555 0.0084,0.09883 0.01964,0.196368 0.03109,0.295438 4.83e-4,0.0088 -0.0012,0.0225 0,0.03109 0,0 0.01531,-2.45e-4 0.01555,0 2.38e-4,0.0015 0,0.01385 0,0.01555 0,0.0012 -2.45e-4,0.01436 0,0.01555 4.83e-4,6.77e-4 -2.13e-4,0.0148 0,0.01555 0,4.83e-4 0,0.01505 0,0.01555 2.39e-4,0.0015 0,0.01411 0,0.01555 0,9.17e-4 -2.45e-4,0.01455 0,0.01555 -2.39e-4,6.77e-4 0,0.0148 0,0.01555 0,9.16e-4 0,0.01455 0,0.01555 2.39e-4,6.77e-4 0.01531,-6.77e-4 0.01555,0 -2.39e-4,6.77e-4 -2.45e-4,0.01485 0,0.01555 0,6.78e-4 0,0.01485 0,0.01555 0,6.77e-4 0,0.01485 0,0.01555 0,4.82e-4 0,0.01505 0,0.01555 -2.38e-4,9.17e-4 0,0.01466 0,0.01555 0,9.17e-4 -2.45e-4,0.01436 0,0.01555 0,0.0012 0,0.01436 0,0.01555 0,4.84e-4 0.01531,-4.97e-4 0.01555,0 0,0.0012 0,0.01436 0,0.01555 2.39e-4,0.0012 -2.12e-4,0.01431 0,0.01555 0.0017,0.0081 -0.0015,0.0074 0,0.01555 -2.38e-4,0.0012 0,0.01455 0,0.01555 2.39e-4,0.0017 -2.43e-4,0.01411 0,0.01555 0.0026,0.01695 0.01293,0.04548 0.01555,0.0622 0.01647,0.108141 0.0266,0.219589 0.04665,0.326536 6.77e-4,0.0029 -2.49e-4,0.0127 0,0.01555 2.38e-4,0.0015 0.01531,-0.0012 0.01555,0 0.0024,0.01122 -0.002,0.02036 0,0.03109 2.38e-4,9.17e-4 -2.14e-4,0.01436 0,0.01555 4.82e-4,6.77e-4 0,0.0148 0,0.01555 2.38e-4,6.78e-4 0,0.01506 0,0.01555 0,9.17e-4 0.01531,-9.16e-4 0.01555,0 2.4e-4,0.0015 -2.48e-4,0.01411 0,0.01555 0,6.77e-4 -2.38e-4,0.0148 0,0.01555 2.4e-4,9.16e-4 0,0.01466 0,0.01555 4.84e-4,9.17e-4 -2.13e-4,0.01436 0,0.01555 0.02339,0.116973 0.0491,0.25239 0.07775,0.373185 l 0.932962,-0.233241 c -0.08188,-0.344715 -0.141952,-0.68802 -0.186593,-1.041807 -0.01861,-0.149918 -0.03471,-0.301014 -0.04664,-0.450931 z m -0.699722,-3.249816 c -0.05323,0.223206 -0.101508,0.456191 -0.139943,0.684171 -2.39e-4,0.0026 4.97e-4,0.01269 0,0.01555 -6.77e-4,0.0039 6.77e-4,0.0115 0,0.01555 0,2.38e-4 -2.38e-4,0.0153 0,0.01555 -2.39e-4,0.0024 4.97e-4,0.01365 0,0.01555 -4.83e-4,0.0021 4.48e-4,0.01363 0,0.01555 -4.83e-4,0.0033 -0.0148,-0.0036 -0.01555,0 -2.39e-4,0.0017 2.46e-4,0.01388 0,0.01555 -2.39e-4,0.0017 4.62e-4,0.01385 0,0.01555 -2.38e-4,9.17e-4 0,0.01485 0,0.01555 2.37e-4,0.0015 0,0.01411 0,0.01555 -2.38e-4,9.16e-4 0,0.01455 0,0.01555 0,0.0012 0,0.01436 0,0.01555 2.39e-4,0.0015 -0.01485,-0.002 -0.01555,0 0,6.78e-4 -2.39e-4,0.01485 0,0.01555 0,0.0015 4.57e-4,0.0143 0,0.01555 -2.39e-4,6.76e-4 0,0.01485 0,0.01555 -2.39e-4,0.0015 4.57e-4,0.01385 0,0.01555 -2.39e-4,0.0015 0,0.01406 0,0.01555 -2.38e-4,0.0019 2.14e-4,0.01364 0,0.01555 -4.83e-4,0.0019 4.98e-4,0.01413 0,0.01555 -2.38e-4,2.38e-4 -0.01555,-4.63e-4 -0.01555,0 -2.38e-4,2.38e-4 0,0.01505 0,0.01555 0,0.0021 6.77e-4,0.01389 0,0.01555 -4.84e-4,0.0019 4.98e-4,0.01366 0,0.01555 -2.39e-4,0.0019 0,0.01366 0,0.01555 -9.17e-4,0.004 4.48e-4,0.01173 0,0.01555 2.39e-4,2.38e-4 0,0.01531 0,0.01555 -6.77e-4,0.0021 2.13e-4,0.01366 0,0.01555 -2.38e-4,0.0045 -0.01505,0.01126 -0.01555,0.01555 -0.0021,0.01528 0.0019,0.01629 0,0.03109 l 0,0.01555 c -0.0167,0.133924 -0.03471,0.268689 -0.04665,0.404284 -4.83e-4,0.0045 2.5e-4,0.01101 0,0.01555 -6.77e-4,0.0064 2.5e-4,0.02466 0,0.03109 -4.83e-4,0.0043 6.78e-4,0.01125 0,0.01555 -2.38e-4,0.0021 0,0.01362 0,0.01555 -2.38e-4,0.0043 6.78e-4,0.0115 0,0.01555 0,0.0024 0,0.01362 0,0.01555 l 0.948512,0.07775 c 0.03843,-0.504422 0.116266,-1.016281 0.23324,-1.508288 l -0.932962,-0.217692 z m 1.275048,-3.078771 c -0.0024,0.004 -0.01269,0.01125 -0.01555,0.01555 -2.39e-4,9.16e-4 4.98e-4,0.0148 0,0.01555 -9.16e-4,9.16e-4 -0.01485,-0.0012 -0.01555,0 -9.17e-4,0.0012 9.16e-4,0.01411 0,0.01555 -6.78e-4,0.0017 -0.0148,0.01391 -0.01555,0.01555 -9.17e-4,0.0012 6.77e-4,0.01436 0,0.01555 -2.39e-4,4.84e-4 -0.01508,-6.77e-4 -0.01555,0 -0.0012,0.0017 9.17e-4,0.01386 0,0.01555 -0.0012,0.0017 9.17e-4,0.01388 0,0.01555 -0.0012,0.0019 -0.01436,-0.0017 -0.01555,0 -0.0019,0.0039 0.0021,0.0115 0,0.01555 -0.257341,0.437853 -0.490091,0.895434 -0.684172,1.368343 l 0.886313,0.357636 c 0.192172,-0.467897 0.421816,-0.919274 0.684172,-1.352794 l -0.808555,-0.497602 z m 2.130262,-2.550094 c -0.421346,0.366201 -0.80764,0.771419 -1.166202,1.197299 l 0.73082,0.606426 c 0.326334,-0.387686 0.691427,-0.740843 1.072906,-1.072906 l -0.637524,-0.730819 z m 2.829983,-1.772626 c -0.0019,9.17e-4 -0.01413,0.01455 -0.01555,0.01555 -0.0019,6.77e-4 -0.01389,-6.77e-4 -0.01555,0 -0.0015,6.77e-4 -0.01363,0.01485 -0.01555,0.01555 -0.0017,4.78e-4 -0.01387,-2.48e-4 -0.01555,0 -4.84e-4,2.39e-4 -0.01535,0 -0.01555,0 -0.0017,0 0.0015,0.0148 0,0.01555 -0.0015,6.78e-4 -0.01411,-9.16e-4 -0.01555,0 -4.83e-4,4.76e-4 -0.01485,-2.49e-4 -0.01555,0 -0.0017,9.17e-4 0.0016,0.0151 0,0.01555 -9.16e-4,2.39e-4 -0.01436,-4.98e-4 -0.01555,0 -4.84e-4,0 -0.01485,0 -0.01555,0 -9.17e-4,4.77e-4 -0.01455,0.01505 -0.01555,0.01555 -9.16e-4,2.38e-4 -0.01485,-6.78e-4 -0.01555,0 -6.77e-4,4.76e-4 -0.01466,-7.46e-4 -0.01555,0 -9.17e-4,4.76e-4 0.0012,0.01485 0,0.01555 -0.0017,4.78e-4 -0.01406,-9.16e-4 -0.01555,0 0.0015,-6.76e-4 -0.01389,-6.76e-4 -0.01555,0 -6.77e-4,2.39e-4 7.45e-4,0.0153 0,0.01555 -9.16e-4,4.77e-4 -0.0146,-2.48e-4 -0.01555,0 -0.0017,9.17e-4 -0.01389,-4.97e-4 -0.01555,0 -0.0021,6.77e-4 0.0015,0.01485 0,0.01555 -0.0012,4.76e-4 -0.0146,-7.45e-4 -0.01555,0 -0.0021,0.0012 -0.01314,-0.0012 -0.01555,0 -0.0017,9.16e-4 0.0015,0.0148 0,0.01555 l -0.01555,0 c -0.0033,0.0015 -0.01173,-0.0017 -0.01555,0 -0.0024,0.0012 -0.0134,0.01436 -0.01555,0.01555 -0.0033,0.0017 -0.01197,-0.0015 -0.01555,0 -0.0026,0.0012 -0.01291,0.01415 -0.01555,0.01555 -0.0036,0.0019 -0.01125,-0.0017 -0.01555,0 -0.0024,0.0012 -0.01316,0.01436 -0.01555,0.01555 -2.39e-4,0 -0.0153,-2.39e-4 -0.01555,0 l -0.01555,0 c -0.0039,0.0021 0.0036,0.01413 0,0.01555 -0.0036,0.0017 -0.01173,-0.0017 -0.01555,0 -0.0026,0.0012 -0.01316,-0.0012 -0.01555,0 -0.0015,2.39e-4 0.0012,0.0148 0,0.01555 -0.0036,0.0015 -0.01197,-0.0017 -0.01555,0 -0.0036,0.0015 -0.01197,-0.0015 -0.01555,0 -0.0021,9.16e-4 0.0019,0.01436 0,0.01555 -0.0039,0.0017 -0.01173,-0.0021 -0.01555,0 -0.0036,0.0015 -0.01197,-0.0017 -0.01555,0 -0.0019,9.16e-4 0.0015,0.01455 0,0.01555 -0.0019,9.17e-4 -0.01385,-9.16e-4 -0.01555,0 -4.83e-4,0 -0.0151,-4.58e-4 -0.01555,0 -0.0019,9.17e-4 0.0015,0.0146 0,0.01555 -0.0019,9.17e-4 -0.01413,-9.16e-4 -0.01555,0 -0.0019,9.17e-4 -0.01412,-9.16e-4 -0.01555,0 -4.83e-4,2.39e-4 4.97e-4,0.01533 0,0.01555 -0.0019,0.0012 -0.01362,-9.93e-4 -0.01555,0 -0.0017,9.16e-4 -0.01391,-6.78e-4 -0.01555,0 -9.17e-4,6.77e-4 0.0012,0.01505 0,0.01555 -6.77e-4,2.4e-4 -0.01455,-2.49e-4 -0.01555,0 -0.0015,4.78e-4 -0.01415,-6.77e-4 -0.01555,0 -9.16e-4,4.77e-4 9.17e-4,0.0153 0,0.01555 -6.77e-4,2.39e-4 -0.01485,-4.98e-4 -0.01555,0 -0.0015,4.78e-4 -0.01436,-9.16e-4 -0.01555,0 -0.0015,6.77e-4 9.16e-4,0.0146 0,0.01555 -6.78e-4,2.38e-4 -0.01455,-2.49e-4 -0.01555,0 -0.0015,0.0012 -0.01385,-6.77e-4 -0.01555,0 -6.76e-4,2.38e-4 4.98e-4,0.01509 0,0.01555 -0.0015,6.77e-4 -0.01385,-9.17e-4 -0.01555,0 -0.0012,9.16e-4 -0.01406,-4.48e-4 -0.01555,0 -0.0017,6.77e-4 0.0015,0.0146 0,0.01555 -6.78e-4,2.39e-4 -0.01484,-2.39e-4 -0.01555,0 -0.0015,0.0012 -0.01391,-9.93e-4 -0.01555,0 -0.0015,0.0012 0.0015,0.01455 0,0.01555 -0.0019,0.0012 -0.01363,-9.93e-4 -0.01555,0 0,2.39e-4 -0.01509,-2.38e-4 -0.01555,0 -0.0017,6.77e-4 0.0017,0.0146 0,0.01555 -0.0019,9.16e-4 -0.01364,-0.0012 -0.01555,0 -0.0057,0.0029 -0.01007,0.01245 -0.01555,0.01555 -0.223067,0.118658 -0.440849,0.240217 -0.653074,0.373185 l 0.49758,0.808567 c 0.428985,-0.268802 0.887046,-0.501343 1.352794,-0.699721 l -0.373113,-0.886351 z m 3.218717,-0.808564 c -0.07042,0.0064 -0.132195,0.0074 -0.202141,0.01555 -0.0017,2.39e-4 -0.01388,-2.13e-4 -0.01555,0 -0.005,2.39e-4 -0.01054,0.0148 -0.01555,0.01555 -0.0017,0 -0.01411,0 -0.01555,0 -0.0015,2.39e-4 -0.01436,-2.13e-4 -0.01555,0 -0.0033,2.39e-4 -0.01221,-4.62e-4 -0.01555,0 -0.0012,4.82e-4 -0.01461,0 -0.01555,0 -0.0033,6.76e-4 -0.01221,-2e-4 -0.01555,0 -0.0012,2.39e-4 -0.0146,-2.45e-4 -0.01555,0 6.77e-4,0 -0.01434,-2.39e-4 -0.01555,0 -0.0017,2.39e-4 -0.01388,0 -0.01555,0 -0.0012,4.82e-4 0.0015,0.01534 0,0.01555 -0.0012,2.4e-4 -0.0146,0 -0.01555,0 -0.0012,0 -0.01436,0 -0.01555,0 -0.0015,2.4e-4 -0.01385,0 -0.01555,0 -6.76e-4,0 -0.0148,-4.82e-4 -0.01555,0 -6.78e-4,0 -0.01461,0 -0.01555,0 -6.78e-4,0 -0.01485,-2.38e-4 -0.01555,0 -6.77e-4,0 -0.0148,0 -0.01555,0 -6.76e-4,0 6.78e-4,0.01531 0,0.01555 -9.16e-4,2.39e-4 -0.0146,-4.57e-4 -0.01555,0 -0.0015,0 -0.01406,-4.57e-4 -0.01555,0 -6.77e-4,0 -0.0148,0 -0.01555,0 -6.77e-4,4.84e-4 -0.0148,0 -0.01555,0 -6.78e-4,0 -0.0148,0 -0.01555,0 -6.77e-4,2.39e-4 -0.01485,0 -0.01555,0 -6.76e-4,0 -0.0146,-2.39e-4 -0.01555,0 -6.78e-4,0 6.76e-4,0.01531 0,0.01555 -0.0012,2.38e-4 -0.01461,-4.58e-4 -0.01555,0 -9.17e-4,2.38e-4 -0.01455,-2.39e-4 -0.01555,0 -6.77e-4,2.38e-4 -0.0148,0 -0.01555,0 -9.16e-4,0 -0.01436,0 -0.01555,0 -6.78e-4,2.38e-4 -0.0148,-2.13e-4 -0.01555,0 -0.0033,4.83e-4 -0.0122,-4.97e-4 -0.01555,0 -9.16e-4,-4.84e-4 -0.01436,0 -0.01555,0 -0.0021,2.38e-4 0.0021,0.01485 0,0.01555 -0.0012,2.39e-4 -0.01436,0 -0.01555,0 -0.0039,2.39e-4 -0.01197,-6.78e-4 -0.01555,0 -0.0012,0 -0.01436,-2.14e-4 -0.01555,0 -0.0012,2.38e-4 -0.01436,-4.58e-4 -0.01555,0 -0.004,4.83e-4 -0.01173,-4.48e-4 -0.01555,0 -0.0012,0 -0.01431,-4.58e-4 -0.01555,0 -0.0045,6.77e-4 0.0045,0.01485 0,0.01555 l -0.01555,0 c -0.0053,0.0012 -0.01006,-9.93e-4 -0.01555,0 -0.0055,9.17e-4 -0.02537,-0.0012 -0.03109,0 -0.0055,6.77e-4 -0.0098,-0.0011 -0.01555,0 -0.264265,0.04655 -0.536389,0.106349 -0.793016,0.171044 l 0.24879,0.932961 c 0.387716,-0.09753 0.797827,-0.183248 1.1973,-0.233241 0.100741,-0.01241 0.195652,-0.02178 0.295438,-0.03109 l -0.0933,-0.948511 z m 1.008519,-0.05628 0,21.500755 c 5.932977,0 10.729215,-4.8174 10.729215,-10.750378 0,-5.932977 -4.796238,-10.750377 -10.729215,-10.750377 z m 4.782648,6.517945 c 0.384157,0 0.698351,0.314191 0.698351,0.698351 l 0,2.581784 2.83573,0 c 0.384251,0 0.698351,0.314191 0.698351,0.698352 0,0.384159 -0.3141,0.69835 -0.698351,0.69835 l -2.83573,0 0,3.005027 c 0,0.384253 -0.314194,0.677189 -0.698351,0.677189 -0.384161,0 -0.677189,-0.292936 -0.677189,-0.677189 l 0,-3.005027 -2.729919,0 c -0.384159,0 -0.698351,-0.314191 -0.698351,-0.69835 0,-0.384161 0.314192,-0.698352 0.698351,-0.698352 l 2.729919,0 0,-2.581784 c 0,-0.38416 0.293028,-0.698351 0.677189,-0.698351 z m -13.042517,4.667943 6.893355,0 c 0.380788,0 0.689335,-0.308639 0.689335,-0.689335 0,-0.380697 -0.308547,-0.689336 -0.689335,-0.689336 l -6.893355,0 c -0.380696,0 -0.689336,0.308639 -0.689336,0.689336 0,0.380696 0.30864,0.689335 0.689336,0.689335 z" />
</svg>
