<?xml version="1.0" encoding="UTF-8" standalone="no"?>
<!-- Created with Inkscape (http://www.inkscape.org/) -->

<svg
   xmlns:dc="http://purl.org/dc/elements/1.1/"
   xmlns:cc="http://creativecommons.org/ns#"
   xmlns:rdf="http://www.w3.org/1999/02/22-rdf-syntax-ns#"
   xmlns:svg="http://www.w3.org/2000/svg"
   xmlns="http://www.w3.org/2000/svg"
   xmlns:sodipodi="http://sodipodi.sourceforge.net/DTD/sodipodi-0.dtd"
   xmlns:inkscape="http://www.inkscape.org/namespaces/inkscape"
   width="64px"
   height="64px"
   id="svg4427"
   version="1.1"
   inkscape:version="0.48.5 r10040"
   sodipodi:docname="Position.svg">
  <defs
     id="defs4429" />
  <sodipodi:namedview
     id="base"
     pagecolor="#ffffff"
     bordercolor="#666666"
     borderopacity="1.0"
     inkscape:pageopacity="0.0"
     inkscape:pageshadow="2"
     inkscape:zoom="7.7781746"
     inkscape:cx="35.36765"
     inkscape:cy="35.036988"
     inkscape:current-layer="svg4427"
     showgrid="true"
     inkscape:document-units="px"
     inkscape:grid-bbox="true"
     inkscape:window-width="942"
     inkscape:window-height="985"
     inkscape:window-x="960"
     inkscape:window-y="0"
     inkscape:window-maximized="0" />
  <metadata
     id="metadata4432">
    <rdf:RDF>
      <cc:Work
         rdf:about="">
        <dc:format>image/svg+xml</dc:format>
        <dc:type
           rdf:resource="http://purl.org/dc/dcmitype/StillImage" />
        <dc:title />
      </cc:Work>
    </rdf:RDF>
  </metadata>
  <path
     id="path3008"
     d="m 10.01689,29.47601 c -0.1073039,0.106696 -0.2210495,0.228987 -0.3045184,0.355253 -0.037831,0.05606 -0.044429,0.119104 -0.076117,0.177633 -0.039636,0.07194 -0.095169,0.151566 -0.1268712,0.228385 -0.030504,0.07499 -0.053576,0.15155 -0.076117,0.228387 -0.019507,0.06524 -0.03733,0.135927 -0.050755,0.203002 -0.058521,0.295097 -0.058521,0.566463 0,0.862777 0.013348,0.06706 0.031248,0.137762 0.050755,0.203 0.023163,0.07744 0.045643,0.152178 0.076117,0.228387 0.031703,0.0756 0.087842,0.155863 0.1268712,0.228387 0.031718,0.05854 0.038331,0.121531 0.076132,0.177633 0.083519,0.126204 0.1965988,0.247954 0.3045193,0.355253 l 7.257476,7.257475 c 0.446295,0.446294 1.03936,0.659773 1.624052,0.65977 0.584695,3e-6 1.178367,-0.212866 1.62405,-0.65977 0.8932,-0.891978 0.867822,-2.32892 -0.02538,-3.222726 l -3.37498,-3.37498 6.699212,-10e-7 c -0.194267,-1.514266 -0.237249,-3.05289 -0.05077,-4.567642 l -6.648457,0 3.374979,-3.374979 c 0.893199,-0.89259 0.918576,-2.330141 0.02538,-3.222726 -0.891975,-0.893202 -2.354904,-0.893199 -3.2481,0 L 10.01689,29.476005 z M 22.99368,16.513662 c -0.893199,0.892589 -0.893195,2.355512 0,3.248101 0.446298,0.445683 1.038748,0.659773 1.624052,0.65977 0.584695,0 1.152989,-0.238239 1.598674,-0.685146 l 3.374985,-3.374983 -3e-6,6.800717 c 1.523077,-0.180949 3.046573,-0.203655 4.567641,-2e-6 l 0,-6.800715 3.374982,3.374982 c 0.446296,0.446295 1.013982,0.685142 1.598674,0.685148 0.585306,-1e-6 1.17776,-0.212869 1.624049,-0.659769 0.893202,-0.892591 0.893207,-2.355518 2e-6,-3.248103 L 33.499262,9.2561845 C 33.391958,9.1494877 33.269918,9.0367099 33.143977,8.9516983 c -0.05791,-0.039029 -0.11736,-0.042472 -0.177591,-0.076162 -0.06946,-0.037846 -0.154568,-0.09705 -0.228344,-0.1269167 -0.07801,-0.032977 -0.147849,-0.053 -0.228354,-0.076147 -0.06284,-0.017626 -0.11237,-0.062738 -0.177591,-0.076162 -0.148077,-0.029928 -0.280796,-0.025377 -0.431386,-0.025377 -0.150565,0 -0.308005,0.020887 -0.456773,0.050755 -0.06468,0.012893 -0.140219,0.033083 -0.203006,0.050739 -0.08044,0.023117 -0.150337,0.043216 -0.228375,0.076132 -0.07374,0.029807 -0.134107,0.063709 -0.203009,0.1014939 -0.06154,0.033493 -0.144482,0.062465 -0.203011,0.1014939 -0.126203,0.084748 -0.248548,0.1978152 -0.355253,0.3045196 l -7.257477,7.2574768 z m -0.04719,26.167743 c -0.893198,0.893197 -0.893198,2.354292 0,3.248101 l 7.257477,7.257477 c 0.106697,0.107304 0.229556,0.219261 0.355253,0.30452 0.0567,0.03782 0.119105,0.04384 0.177632,0.07612 0.07194,0.03905 0.152767,0.09579 0.228386,0.126872 0.0756,0.0317 0.150352,0.05411 0.228388,0.07612 0.06524,0.02011 0.134713,0.03674 0.203,0.05076 0.148152,0.02865 0.282016,0.02538 0.431389,0.02538 0.149366,-1.1e-5 0.282625,0.0033 0.431388,-0.02538 0.06768,-0.01335 0.138369,-0.03066 0.203012,-0.05076 0.07804,-0.02196 0.152791,-0.04441 0.228375,-0.07613 0.07624,-0.03106 0.155844,-0.08723 0.228385,-0.126871 0.05793,-0.03232 0.120333,-0.03892 0.177635,-0.07613 0.125005,-0.08535 0.247948,-0.197214 0.355251,-0.304519 l 7.257479,-7.257478 c 0.893199,-0.893808 0.893199,-2.354902 0,-3.2481 -0.8932,-0.893201 -2.330745,-0.867821 -3.222726,0.02538 l -3.37498,3.37498 0,-6.80071 c -1.513644,0.197261 -3.052303,0.183477 -4.567644,-2e-6 l 0,6.800714 -3.37498,-3.374979 c -0.891966,-0.893202 -2.329513,-0.918575 -3.222712,-0.02538 z m 20.535444,-20.521 c -0.893192,0.892584 -0.893195,2.355515 -2e-6,3.248103 l 3.37498,3.37498 -6.902216,2e-6 c 0.191849,1.514509 0.188882,3.05313 0,4.567643 l 6.902218,-5e-6 -3.374985,3.374985 c -0.893199,0.893809 -0.918573,2.330748 -0.02538,3.222726 0.445074,0.446296 1.038749,0.659771 1.624051,0.65977 0.584695,10e-7 1.177758,-0.212869 1.62405,-0.65977 l 7.257476,-7.257475 c 0.107288,-0.107289 0.22072,-0.229301 0.304521,-0.355256 0.03726,-0.05614 0.04444,-0.119075 0.07612,-0.177629 0.0403,-0.07258 0.09396,-0.152778 0.126871,-0.228389 0.0299,-0.07625 0.05232,-0.150959 0.07613,-0.228376 0.01829,-0.06527 0.03733,-0.135957 0.05075,-0.203015 0.05852,-0.295691 0.0839,-0.592451 0.02538,-0.888151 -0.01274,-0.06705 -0.05729,-0.11234 -0.07616,-0.177591 -0.02375,-0.07684 -0.04632,-0.153327 -0.07615,-0.228365 -0.03302,-0.07675 -0.08717,-0.156488 -0.126916,-0.228344 -0.03169,-0.05857 -0.0395,-0.121592 -0.07616,-0.177591 -0.08347,-0.126249 -0.197166,-0.248607 -0.304487,-0.355284 L 46.70455,22.185896 c -0.893197,-0.893197 -2.331956,-0.918588 -3.222721,-0.02538 z"
     inkscape:connector-curvature="0" />
</svg>
