<?xml version="1.0" encoding="UTF-8" standalone="no"?>
<!-- Created with Inkscape (http://www.inkscape.org/) -->

<svg
   xmlns:dc="http://purl.org/dc/elements/1.1/"
   xmlns:cc="http://creativecommons.org/ns#"
   xmlns:rdf="http://www.w3.org/1999/02/22-rdf-syntax-ns#"
   xmlns:svg="http://www.w3.org/2000/svg"
   xmlns="http://www.w3.org/2000/svg"
   xmlns:sodipodi="http://sodipodi.sourceforge.net/DTD/sodipodi-0.dtd"
   xmlns:inkscape="http://www.inkscape.org/namespaces/inkscape"
   width="64px"
   height="64px"
   id="svg6906"
   version="1.1"
   inkscape:version="0.48.5 r10040"
   sodipodi:docname="Quit.svg">
  <defs
     id="defs6908">
    <clipPath
       id="SVGID_2_">
      <rect
         height="88.038002"
         width="90"
         y="6.4619999"
         x="4.5"
         id="use3343" />
    </clipPath>
  </defs>
  <sodipodi:namedview
     id="base"
     pagecolor="#ffffff"
     bordercolor="#666666"
     borderopacity="1.0"
     inkscape:pageopacity="0.0"
     inkscape:pageshadow="2"
     inkscape:zoom="5.6568543"
     inkscape:cx="28.142121"
     inkscape:cy="38.694068"
     inkscape:current-layer="svg6906"
     showgrid="true"
     inkscape:document-units="px"
     inkscape:grid-bbox="true"
     inkscape:window-width="942"
     inkscape:window-height="985"
     inkscape:window-x="960"
     inkscape:window-y="0"
     inkscape:window-maximized="0" />
  <metadata
     id="metadata6911">
    <rdf:RDF>
      <cc:Work
         rdf:about="">
        <dc:type
           rdf:resource="http://purl.org/dc/dcmitype/StillImage" />
        <dc:title></dc:title>
        <dc:format>image/svg+xml</dc:format>
      </cc:Work>
      <dc:format>image/svg+xml</dc:format>
    </rdf:RDF>
  </metadata>
  <g
     transform="matrix(0.46044614,0,0,0.46044614,8.920665,8.9276812)"
     id="g4">
    <path
       id="path10"
       d="m 56.388,37.376 c 0,3.475 0.072,6.953 -0.018,10.426 -0.115,4.431 -4.878,7.099 -8.745,4.954 -1.999,-1.109 -2.939,-2.926 -2.972,-5.127 -0.081,-5.395 -0.061,-10.791 -0.071,-16.187 -0.003,-1.646 -0.026,-3.295 0.057,-4.937 0.155,-3.078 2.737,-5.389 5.938,-5.391 2.944,-0.002 5.655,2.368 5.753,5.291 0.123,3.653 0.029,7.314 0.029,10.971 0.009,0 0.019,0 0.029,0 z m -2.374,0.051 c 0.008,0 0.015,0 0.023,0 0,-0.915 0.003,-1.83 -10e-4,-2.746 -0.01,-2.623 0.037,-5.248 -0.053,-7.869 -0.067,-1.944 -1.575,-3.293 -3.464,-3.294 -2.066,-0.001 -3.514,1.479 -3.537,3.716 -0.036,3.477 -0.029,6.955 -0.02,10.433 0.009,3.325 -0.003,6.651 0.091,9.973 0.042,1.486 0.676,2.734 2.231,3.237 2.455,0.795 4.691,-0.789 4.721,-3.384 0.038,-3.355 0.009,-6.71 0.009,-10.066 z M 50.045,77.244 C 42.538,77.161 35.402,74.062 29.926,67.506 25.019,61.632 23.157,54.773 23.951,47.205 c 0.491,-4.686 2.331,-8.885 5.133,-12.638 2.138,-2.864 5.799,-3.44 8.603,-1.492 2.788,1.937 3.48,5.577 1.586,8.591 -1.204,1.916 -2.317,3.842 -2.779,6.112 -1.659,8.142 4.398,16.212 12.692,16.84 7.583,0.574 13.827,-4.094 15.303,-11.475 0.713,-3.565 0.052,-6.88 -1.814,-10.009 -0.77,-1.291 -1.585,-2.668 -1.875,-4.107 -0.568,-2.814 1.035,-5.468 3.567,-6.526 2.78,-1.162 5.681,-0.393 7.526,1.995 6.751,8.741 7.15,21.427 0.962,30.591 -5.121,7.584 -12.741,11.819 -22.81,12.157 z M 74.861,50.529 c 0.009,-2.741 -0.457,-5.409 -1.347,-7.99 -0.869,-2.522 -2.055,-4.896 -3.828,-6.919 -1.161,-1.324 -2.903,-1.625 -4.503,-0.88 -1.483,0.69 -2.414,2.313 -2.005,4.009 0.256,1.061 0.86,2.066 1.44,3.015 2.014,3.291 2.855,6.803 2.392,10.662 -1.179,9.831 -10.515,16.454 -20.198,14.277 -10.978,-2.47 -16.372,-15 -10.609,-24.654 0.406,-0.68 0.892,-1.315 1.266,-2.012 0.957,-1.786 0.425,-3.976 -1.18,-5.035 -1.759,-1.16 -3.94,-0.826 -5.228,0.877 -1.649,2.179 -2.973,4.563 -3.76,7.176 -2.318,7.692 -1.348,14.999 3.412,21.481 6.057,8.246 14.39,11.621 24.46,9.81 C 66.529,72.304 74.826,62.033 74.861,50.529 z M 50.517,94.403 C 26.271,94.368 6.508,74.616 6.597,50.401 6.685,26.194 26.219,6.23 51.214,6.602 75.166,6.958 94.418,26.332 94.404,50.733 94.39,74.688 74.521,94.438 50.517,94.403 z M 50.498,92.015 C 73.223,92.043 91.996,73.398 92.02,50.775 92.044,27.649 73.567,8.975 50.639,8.954 27.644,8.932 8.986,27.492 8.965,50.408 8.944,73.327 27.571,91.987 50.498,92.015 z" />
  </g>
</svg>
