<?xml version="1.0" encoding="UTF-8" standalone="no"?>
<!-- Created with Inkscape (http://www.inkscape.org/) -->

<svg
   xmlns:dc="http://purl.org/dc/elements/1.1/"
   xmlns:cc="http://creativecommons.org/ns#"
   xmlns:rdf="http://www.w3.org/1999/02/22-rdf-syntax-ns#"
   xmlns:svg="http://www.w3.org/2000/svg"
   xmlns="http://www.w3.org/2000/svg"
   xmlns:sodipodi="http://sodipodi.sourceforge.net/DTD/sodipodi-0.dtd"
   xmlns:inkscape="http://www.inkscape.org/namespaces/inkscape"
   width="64px"
   height="64px"
   id="svg4427"
   version="1.1"
   inkscape:version="0.48.5 r10040"
   sodipodi:docname="Resize.svg">
  <defs
     id="defs4429" />
  <sodipodi:namedview
     id="base"
     pagecolor="#ffffff"
     bordercolor="#666666"
     borderopacity="1.0"
     inkscape:pageopacity="0.0"
     inkscape:pageshadow="2"
     inkscape:zoom="11"
     inkscape:cx="27.24588"
     inkscape:cy="34.112059"
     inkscape:current-layer="svg4427"
     showgrid="true"
     inkscape:document-units="px"
     inkscape:grid-bbox="true"
     inkscape:window-width="1920"
     inkscape:window-height="1003"
     inkscape:window-x="-9"
     inkscape:window-y="-9"
     inkscape:window-maximized="1" />
  <metadata
     id="metadata4432">
    <rdf:RDF>
      <cc:Work
         rdf:about="">
        <dc:format>image/svg+xml</dc:format>
        <dc:type
           rdf:resource="http://purl.org/dc/dcmitype/StillImage" />
        <dc:title />
      </cc:Work>
    </rdf:RDF>
  </metadata>
  <g
     transform="matrix(0.50907359,0,0,0.50907359,7.9099759,5.0928745)"
     id="g3" />
  <path
     id="path3006-1-7"
     d="m 40.975167,13.917035 c 0.3806,0.380601 0.907249,0.61674 1.488271,0.615945 l 4.389012,3.99e-4 -9.801558,9.801559 c -0.821924,0.821922 -0.821924,2.154621 -10e-7,2.976544 0.822319,0.822319 2.154622,0.821923 2.976544,-1e-6 l 9.801559,-9.801558 3.98e-4,4.389012 c 0,0.581022 0.235345,1.107671 0.615945,1.488271 0.380998,0.380998 0.906854,0.616344 1.488272,0.615947 1.16244,3.96e-4 2.105012,-0.942175 2.104615,-2.104615 l 0.0012,-9.467392 c -3.97e-4,-0.139302 -0.01468,-0.277414 -0.04167,-0.414732 -0.01231,-0.0631 -0.03652,-0.12303 -0.05397,-0.184149 -0.02063,-0.06985 -0.03691,-0.14089 -0.06549,-0.208359 -0.02936,-0.07223 -0.07024,-0.137716 -0.107552,-0.205184 -0.02937,-0.05239 -0.0516,-0.106358 -0.08533,-0.157557 -0.077,-0.115884 -0.164308,-0.22304 -0.262335,-0.321067 l 0,0 0,0 c -0.09803,-0.09803 -0.205183,-0.185339 -0.321465,-0.262732 -0.0504,-0.03374 -0.105173,-0.05596 -0.157557,-0.08533 -0.06747,-0.03731 -0.13295,-0.07818 -0.205183,-0.107551 -0.06746,-0.02858 -0.138113,-0.04445 -0.207566,-0.06469 -0.06191,-0.01825 -0.121047,-0.04167 -0.184545,-0.05437 -0.137317,-0.02699 -0.275431,-0.04128 -0.414335,-0.04128 l -9.46898,3.96e-4 c -1.16244,-3.97e-4 -2.105012,0.942176 -2.104615,2.104614 3.97e-4,0.580626 0.235345,1.106879 0.616343,1.487876 z M 27.312281,27.311878 c 0.821525,-0.821526 0.821922,-2.154619 0,-2.976543 l -9.802354,-9.802354 4.389806,3.97e-4 c 1.16244,3.97e-4 2.105011,-0.942176 2.104614,-2.104614 7.96e-4,-1.162044 -0.941778,-2.104616 -2.104614,-2.104615 l -9.46898,-3.98e-4 c -0.139302,-3.97e-4 -0.278208,0.01389 -0.414732,0.04167 -0.06112,0.01191 -0.116681,0.03413 -0.175419,0.0516 -0.07263,0.02103 -0.146842,0.0381 -0.217485,0.06746 -0.06866,0.02897 -0.131762,0.06826 -0.196453,0.103584 -0.05516,0.02977 -0.11271,0.05477 -0.165097,0.08969 -0.230186,0.153987 -0.428622,0.352422 -0.583403,0.583403 -0.03493,0.05239 -0.05953,0.109536 -0.0893,0.164701 -0.03532,0.06548 -0.07461,0.127794 -0.104378,0.197246 -0.02857,0.06985 -0.04524,0.144462 -0.06707,0.217089 -0.01746,0.05874 -0.03969,0.1143 -0.05159,0.175418 -0.02778,0.136523 -0.04167,0.274239 -0.04128,0.414334 l 3.96e-4,9.468982 c 0,0.58102 0.235345,1.10767 0.615946,1.488271 0.3806,0.380601 0.907251,0.616739 1.488272,0.615946 1.162043,7.94e-4 2.104614,-0.941778 2.105012,-2.105011 l -7.94e-4,-4.38941 9.801957,9.801956 c 0.821922,0.822717 2.154621,0.823511 2.976941,0.0012 z m 25.427774,26.567593 c 0.06905,-0.03015 0.131365,-0.06945 0.197249,-0.104374 0.05437,-0.03056 0.112315,-0.05437 0.164703,-0.08929 0.230582,-0.154384 0.429019,-0.352821 0.583403,-0.583403 0.03532,-0.05199 0.05953,-0.110334 0.08969,-0.1651 0.03453,-0.06548 0.07422,-0.12819 0.103581,-0.196455 0.02857,-0.07144 0.04603,-0.145257 0.06707,-0.217884 0.01746,-0.05874 0.03889,-0.115091 0.0516,-0.175416 0.02779,-0.136522 0.04167,-0.275828 0.04128,-0.415129 l 7.94e-4,-9.468584 c 10e-7,-1.162838 -0.943365,-2.106203 -2.104615,-2.104615 -1.162438,-3.97e-4 -2.10501,0.942175 -2.104614,2.104614 l 0,4.389411 -9.802354,-9.802354 c -0.821525,-0.821526 -2.155017,-0.821526 -2.976543,0 -0.82232,0.82232 -0.821526,2.155018 -10e-7,2.976543 l 9.802354,9.802354 -4.389013,-3.97e-4 c -1.163233,3.97e-4 -2.105805,0.94297 -2.105012,2.105012 -7.93e-4,0.580227 0.234949,1.107274 0.615947,1.488271 0.3806,0.380601 0.906853,0.616344 1.488272,0.615947 l 9.468186,-3.97e-4 c 0.1397,-1e-6 0.278208,-0.01309 0.414733,-0.04088 0.06073,-0.0123 0.116684,-0.03412 0.175417,-0.0516 0.07341,-0.02103 0.147237,-0.03849 0.217884,-0.06628 z m -30.840323,-4.050084 -4.389409,0 9.801958,-9.801957 c 0.821128,-0.821129 0.821922,-2.154621 -10e-7,-2.976543 -0.821923,-0.821923 -2.155415,-0.821129 -2.976543,0 l -9.801957,9.801956 -1e-6,-4.389409 c 7.94e-4,-1.162043 -0.941778,-2.104615 -2.104615,-2.104615 -1.162836,-10e-7 -2.104615,0.941778 -2.105011,2.105011 l -3.97e-4,9.468981 c -3.97e-4,0.139302 0.01468,0.277414 0.04088,0.414732 0.0123,0.06152 0.03571,0.118272 0.05278,0.177402 0.02143,0.07223 0.0377,0.145652 0.06668,0.215104 0.02857,0.06985 0.06787,0.132158 0.104374,0.197249 0.02937,0.05557 0.05358,0.111521 0.0889,0.165098 0.07779,0.115089 0.1651,0.223043 0.262333,0.320277 0.09723,0.09723 0.205182,0.184547 0.320674,0.262729 0.05278,0.03532 0.109934,0.05993 0.165098,0.0889 0.06509,0.03651 0.127793,0.0762 0.197644,0.104771 0.06985,0.02937 0.142078,0.04525 0.215105,0.06668 0.05874,0.01667 0.115489,0.03929 0.177005,0.05238 0.136923,0.02579 0.27543,0.04128 0.415129,0.04128 l 9.468584,-7.93e-4 c 1.163233,-3.97e-4 2.105012,-0.942176 2.105012,-2.105011 0,-1.162837 -0.942176,-2.105012 -2.104219,-2.104219 z"
     inkscape:connector-curvature="0" />
</svg>
