<?xml version="1.0" encoding="UTF-8" standalone="no"?>
<!-- Created with Inkscape (http://www.inkscape.org/) -->

<svg
   xmlns:dc="http://purl.org/dc/elements/1.1/"
   xmlns:cc="http://creativecommons.org/ns#"
   xmlns:rdf="http://www.w3.org/1999/02/22-rdf-syntax-ns#"
   xmlns:svg="http://www.w3.org/2000/svg"
   xmlns="http://www.w3.org/2000/svg"
   xmlns:sodipodi="http://sodipodi.sourceforge.net/DTD/sodipodi-0.dtd"
   xmlns:inkscape="http://www.inkscape.org/namespaces/inkscape"
   width="64px"
   height="64px"
   id="svg4427"
   version="1.1"
   inkscape:version="0.48.5 r10040"
   sodipodi:docname="Settings.svg">
  <defs
     id="defs4429" />
  <sodipodi:namedview
     id="base"
     pagecolor="#ffffff"
     bordercolor="#666666"
     borderopacity="1.0"
     inkscape:pageopacity="0.0"
     inkscape:pageshadow="2"
     inkscape:zoom="5.5"
     inkscape:cx="32"
     inkscape:cy="33.090909"
     inkscape:current-layer="svg4427"
     showgrid="true"
     inkscape:document-units="px"
     inkscape:grid-bbox="true"
     inkscape:window-width="1920"
     inkscape:window-height="1003"
     inkscape:window-x="-9"
     inkscape:window-y="-9"
     inkscape:window-maximized="1" />
  <metadata
     id="metadata4432">
    <rdf:RDF>
      <cc:Work
         rdf:about="">
        <dc:format>image/svg+xml</dc:format>
        <dc:type
           rdf:resource="http://purl.org/dc/dcmitype/StillImage" />
        <dc:title />
      </cc:Work>
    </rdf:RDF>
  </metadata>
  <g
     transform="matrix(0.50907359,0,0,0.50907359,7.9099759,5.0928745)"
     id="g3" />
  <path
     inkscape:connector-curvature="0"
     id="path7"
     d="m 58.956229,41.650832 -0.840961,-3.093054 -1.86934,0.163081 c -0.397357,-0.713781 -0.894509,-1.352716 -1.470767,-1.9022 l 0.629807,-1.768327 -2.782105,-1.593079 -1.206066,1.437909 c -0.766721,-0.219064 -1.568736,-0.325553 -2.386573,-0.305473 l -0.803841,-1.695307 -3.09427,0.84096 0.164906,1.869341 c -0.715606,0.397356 -1.354541,0.894509 -1.902808,1.470767 l -1.768329,-0.627982 -1.593076,2.782105 1.437906,1.204849 c -0.219063,0.766721 -0.324943,1.568737 -0.307296,2.385964 l -1.693482,0.80445 0.84096,3.09427 1.869342,-0.164906 c 0.396747,0.715607 0.894508,1.353933 1.470767,1.903416 l -0.629808,1.76833 2.782105,1.593076 1.206065,-1.437906 c 0.766723,0.217845 1.568129,0.324335 2.384749,0.30608 l 0.805666,1.694089 3.094271,-0.84096 -0.164908,-1.868123 c 0.715607,-0.397357 1.353326,-0.895726 1.902201,-1.471984 l 1.768327,0.630416 1.593078,-2.782105 -1.437908,-1.206675 c 0.219063,-0.764895 0.324944,-1.56691 0.306689,-2.384747 l 1.694699,-0.806275 z m -4.67031,-0.391272 c 0.761854,2.801577 -0.892074,5.691387 -3.694869,6.452024 -2.801576,0.761246 -5.690169,-0.892075 -6.452023,-3.693651 -0.761245,-2.801577 0.892684,-5.691388 3.694868,-6.452633 2.800969,-0.762462 5.69078,0.891466 6.452024,3.69426 z M 42.450413,33.575912 V 27.429968 L 38.910105,26.794075 C 38.534047,25.270977 37.934057,23.84098 37.144821,22.533902 l 2.05311,-2.954312 -4.345974,-4.345974 -2.953705,2.053719 C 30.591174,16.49749 29.161178,15.898109 27.639296,15.521441 l -0.637718,-3.53909 h -6.145943 l -0.636502,3.53909 c -1.523098,0.376668 -2.953703,0.976049 -4.260174,1.765894 l -2.953704,-2.053719 -4.3459745,4.345974 2.0531125,2.954312 c -0.7898459,1.30647 -1.3892279,2.737075 -1.7652864,4.260173 L 5.407407,27.429968 v 6.145944 l 3.5390906,0.635893 c 0.3760585,1.523099 0.9760495,2.954312 1.7652864,4.260174 l -2.0531107,2.954313 4.3459737,4.345974 2.953704,-2.053719 c 1.305861,0.789845 2.737075,1.389227 4.260175,1.765893 l 0.636499,3.540308 h 6.145945 l 0.637717,-3.540308 c 1.521882,-0.376666 2.951879,-0.976048 4.258957,-1.765893 l 2.953704,2.053719 4.345975,-4.345974 -2.053112,-2.954313 c 0.789845,-1.305862 1.389226,-2.737075 1.765285,-4.260174 l 3.540917,-0.635893 z m -8.443067,-3.072363 c 0,5.565427 -4.511488,10.078741 -10.07874,10.078741 -5.567251,0 -10.079349,-4.512707 -10.079349,-10.078741 0,-5.566643 4.512707,-10.079349 10.079349,-10.079349 5.566644,0 10.07874,4.512706 10.07874,10.079349 z" />
</svg>
