<?xml version="1.0" encoding="UTF-8" standalone="no"?>
<!-- Created with Inkscape (http://www.inkscape.org/) -->

<svg
   xmlns:dc="http://purl.org/dc/elements/1.1/"
   xmlns:cc="http://creativecommons.org/ns#"
   xmlns:rdf="http://www.w3.org/1999/02/22-rdf-syntax-ns#"
   xmlns:svg="http://www.w3.org/2000/svg"
   xmlns="http://www.w3.org/2000/svg"
   xmlns:sodipodi="http://sodipodi.sourceforge.net/DTD/sodipodi-0.dtd"
   xmlns:inkscape="http://www.inkscape.org/namespaces/inkscape"
   width="64px"
   height="64px"
   id="svg7134"
   version="1.1"
   inkscape:version="0.48.5 r10040"
   sodipodi:docname="SimulateKeyStrokes.svg">
  <defs
     id="defs7136" />
  <sodipodi:namedview
     id="base"
     pagecolor="#ffffff"
     bordercolor="#666666"
     borderopacity="1.0"
     inkscape:pageopacity="0.0"
     inkscape:pageshadow="2"
     inkscape:zoom="5.5"
     inkscape:cx="32"
     inkscape:cy="32"
     inkscape:current-layer="svg7134"
     showgrid="true"
     inkscape:document-units="px"
     inkscape:grid-bbox="true"
     inkscape:window-width="942"
     inkscape:window-height="985"
     inkscape:window-x="960"
     inkscape:window-y="0"
     inkscape:window-maximized="0" />
  <metadata
     id="metadata7139">
    <rdf:RDF>
      <cc:Work
         rdf:about="">
        <dc:format>image/svg+xml</dc:format>
        <dc:type
           rdf:resource="http://purl.org/dc/dcmitype/StillImage" />
        <dc:title></dc:title>
      </cc:Work>
    </rdf:RDF>
  </metadata>
  <path
     inkscape:connector-curvature="0"
     id="path19"
     d="m 45.762546,33.52397 c -0.371332,0 -0.680776,0.06188 -1.052108,0.123777 -0.556999,-1.42344 -1.98044,-2.475549 -3.589547,-2.475549 -0.371332,0 -0.680776,0.06189 -1.052108,0.123777 -0.556998,-1.42344 -1.980439,-2.475548 -3.589546,-2.475548 -0.247555,0 -0.495111,0 -0.804554,0.06189 v -4.332211 c 0,-0.185666 0,-0.371332 -0.06188,-0.556998 0.495109,-0.247556 0.804553,-0.742665 0.804553,-1.361553 v -6.126989 c 0,-0.866442 -0.680776,-1.547218 -1.547218,-1.547218 h -6.126984 c -0.866442,0 -1.547218,0.680776 -1.547218,1.547218 v 6.188873 c 0,0.618888 0.309443,1.113998 0.804553,1.361552 0,0.185666 -0.06189,0.371332 -0.06189,0.556998 v 9.035755 l -4.146545,4.208434 c -0.309444,0.309444 -0.433222,0.680776 -0.433222,1.113997 v 10.830528 c 0,0.43322 0.185666,0.804553 0.433222,1.113997 l 4.208434,4.208433 v 2.475553 c 0,0.866442 0.680776,1.547218 1.547218,1.547218 0.866442,0 1.547217,-0.680776 1.547217,-1.547218 v -3.094437 c 0,-0.433221 -0.185666,-0.804554 -0.43322,-1.113997 l -4.208441,-4.208433 v -9.592754 l 1.547219,-1.547217 v 7.117203 c 0,0.866442 0.680776,1.547218 1.547218,1.547218 0.866442,0 1.547218,-0.680776 1.547218,-1.547218 V 24.611993 c 0,-0.433221 0.371332,-0.804553 0.804553,-0.804553 0.433222,0 0.804554,0.371332 0.804554,0.804553 V 38.90829 c 0,0.866442 0.680776,1.547217 1.547218,1.547217 0.866442,0 1.547218,-0.680775 1.547218,-1.547217 v -6.188873 c 0,-0.433221 0.371333,-0.804554 0.804554,-0.804554 0.433221,0 0.804553,0.371333 0.804553,0.804554 v 6.188873 c 0,0.866442 0.680777,1.547217 1.547219,1.547217 0.866442,0 1.547218,-0.680775 1.547218,-1.547217 v -3.837102 c 0,-0.433221 0.371332,-0.804553 0.804554,-0.804553 0.43322,0 0.804553,0.371332 0.804553,0.804553 v 3.898991 c 0,0.866442 0.680775,1.547218 1.547218,1.547218 0.866443,0 1.547218,-0.680776 1.547218,-1.547218 V 37.42296 c 0,-0.433221 0.371333,-0.804553 0.804553,-0.804553 0.433222,0 0.804554,0.371332 0.804554,0.804553 v 12.130191 l -1.48533,4.3941 c -0.06188,0.185666 -0.06188,0.309443 -0.06188,0.495109 v 1.98044 1.113997 c 0,0.866442 0.680776,1.547218 1.547218,1.547218 0.866442,0 1.547219,-0.680776 1.547219,-1.547218 v -2.846882 l 1.485329,-4.3941 C 49.9091,50.110149 49.9091,49.986372 49.9091,49.800706 V 37.42296 C 49.661545,35.256854 47.866772,33.52397 45.762555,33.52397 z M 33.3848,21.084335 c -0.495109,-0.185666 -0.99022,-0.309443 -1.547219,-0.309443 -0.556998,0 -1.052108,0.123777 -1.547218,0.309443 V 18.051788 H 33.3848 v 3.032547 z m 7.736091,-7.674202 h 6.188873 c 0.866442,0 1.547218,-0.680776 1.547218,-1.547218 V 5.6740419 c 0,-0.8664422 -0.680776,-1.5472182 -1.547218,-1.5472182 h -6.188873 c -0.866442,0 -1.547218,0.680776 -1.547218,1.5472182 v 6.1888731 c 0,0.866442 0.680776,1.547218 1.547218,1.547218 z m 1.547218,-6.1888729 h 3.094437 V 10.315697 H 42.668109 V 7.2212601 z M 16.3654,13.410133 h 6.188873 c 0.866441,0 1.547218,-0.680776 1.547218,-1.547218 V 5.6740419 c 0,-0.8664422 -0.680777,-1.5472182 -1.547218,-1.5472182 H 16.3654 c -0.866442,0 -1.547219,0.680776 -1.547219,1.5472182 v 6.1888731 c 0,0.866442 0.680777,1.547218 1.547219,1.547218 z m 1.547218,-6.1888729 h 3.094437 V 10.315697 H 17.912618 V 7.2212601 z m 10.830528,6.1888729 h 6.188872 c 0.866442,0 1.547219,-0.680776 1.547219,-1.547218 V 5.6740419 c 0,-0.8664422 -0.680777,-1.5472182 -1.547219,-1.5472182 h -6.188872 c -0.866443,0 -1.547219,0.680776 -1.547219,1.5472182 v 6.1888731 c 0,0.866442 0.680776,1.547218 1.547219,1.547218 z M 30.290363,7.2212601 H 33.3848 V 10.315697 H 30.290363 V 7.2212601 z M 41.120891,24.240661 h 6.188873 c 0.866442,0 1.547218,-0.680776 1.547218,-1.547219 V 16.50457 c 0,-0.866442 -0.680776,-1.547218 -1.547218,-1.547218 h -6.188873 c -0.866442,0 -1.547218,0.680776 -1.547218,1.547218 v 6.188872 c 0,0.866443 0.680776,1.547219 1.547218,1.547219 z m 1.547218,-6.188873 h 3.094437 v 3.094436 H 42.668109 V 18.051788 z M 24.101491,22.693442 V 16.50457 c 0,-0.866442 -0.680777,-1.547218 -1.547218,-1.547218 H 16.3654 c -0.866442,0 -1.547219,0.680776 -1.547219,1.547218 v 6.188872 c 0,0.866443 0.680777,1.547219 1.547219,1.547219 h 6.188873 c 0.866441,0 1.547218,-0.680776 1.547218,-1.547219 z m -3.094436,-1.547218 h -3.094437 v -3.094436 h 3.094437 v 3.094436 z" />
</svg>
