<?xml version="1.0" encoding="UTF-8" standalone="no"?>
<!-- Created with Inkscape (http://www.inkscape.org/) -->

<svg
   xmlns:dc="http://purl.org/dc/elements/1.1/"
   xmlns:cc="http://creativecommons.org/ns#"
   xmlns:rdf="http://www.w3.org/1999/02/22-rdf-syntax-ns#"
   xmlns:svg="http://www.w3.org/2000/svg"
   xmlns="http://www.w3.org/2000/svg"
   xmlns:sodipodi="http://sodipodi.sourceforge.net/DTD/sodipodi-0.dtd"
   xmlns:inkscape="http://www.inkscape.org/namespaces/inkscape"
   width="64px"
   height="64px"
   id="svg4427"
   version="1.1"
   inkscape:version="0.48.5 r10040"
   sodipodi:docname="Size.svg">
  <defs
     id="defs4429" />
  <sodipodi:namedview
     id="base"
     pagecolor="#ffffff"
     bordercolor="#666666"
     borderopacity="1.0"
     inkscape:pageopacity="0.0"
     inkscape:pageshadow="2"
     inkscape:zoom="7.7781746"
     inkscape:cx="40.329985"
     inkscape:cy="34.051449"
     inkscape:current-layer="svg4427"
     showgrid="true"
     inkscape:document-units="px"
     inkscape:grid-bbox="true"
     inkscape:window-width="942"
     inkscape:window-height="985"
     inkscape:window-x="960"
     inkscape:window-y="0"
     inkscape:window-maximized="0" />
  <metadata
     id="metadata4432">
    <rdf:RDF>
      <cc:Work
         rdf:about="">
        <dc:format>image/svg+xml</dc:format>
        <dc:type
           rdf:resource="http://purl.org/dc/dcmitype/StillImage" />
        <dc:title />
      </cc:Work>
    </rdf:RDF>
  </metadata>
  <g
     transform="matrix(0.50907359,0,0,0.50907359,7.9099759,5.0928745)"
     id="g3" />
  <path
     id="path3009"
     d="m 10.264867,10.764048 c -0.176457,-5.03e-4 -0.37108,0.0065 -0.544018,0.04183 -0.07742,0.01503 -0.134837,0.06157 -0.209237,0.0837 -0.092,0.02664 -0.203457,0.0465 -0.292933,0.0837 -0.08699,0.03669 -0.169135,0.08078 -0.251086,0.125551 -0.06987,0.03771 -0.142867,0.0813 -0.209237,0.125533 -0.291581,0.195066 -0.515341,0.418822 -0.711407,0.711409 -0.04424,0.06635 -0.08782,0.139366 -0.125533,0.209236 -0.04475,0.08296 -0.08784,0.16312 -0.125551,0.251086 -0.03619,0.08848 -0.05609,0.200945 -0.0837,0.292932 -0.02211,0.07442 -0.06861,0.131813 -0.0837,0.209238 -0.0352,0.172937 -0.04235,0.366558 -0.04183,0.544018 l 0,11.968383 c 0,0.735989 0.312991,1.401028 0.795104,1.883138 0.482112,0.482115 1.147147,0.796109 1.883136,0.795102 1.471979,0.001 2.635891,-1.204756 2.636393,-2.67824 l 0,-5.565717 5.523872,5.52387 c 1.088424,-1.408768 2.321663,-2.712889 3.724426,-3.808121 l -5.482021,-5.482022 5.565715,0 c 1.472481,5.02e-4 2.678747,-1.163914 2.67824,-2.636393 0.001,-1.471979 -1.205257,-2.678242 -2.67824,-2.67824 l -11.968385,0 z m 31.493911,0 c -1.472481,-5.03e-4 -2.678739,1.205762 -2.67824,2.678239 5.08e-4,0.735488 0.312487,1.400524 0.795104,1.883138 0.482115,0.482113 1.147146,0.754264 1.883136,0.753256 l 5.565724,0 -5.607571,5.607565 c 1.405064,1.106659 2.679993,2.344145 3.766275,3.766273 l 5.607567,-5.607565 0,5.565719 c 0,0.73599 0.271146,1.401022 0.753252,1.883137 0.48262,0.482616 1.146651,0.795607 1.883136,0.795102 1.472485,5.05e-4 2.678755,-1.205757 2.678242,-2.678239 l 0,-11.968386 c -5.01e-4,-0.176457 -0.0081,-0.370074 -0.04189,-0.544018 -0.01557,-0.07993 -0.06175,-0.131795 -0.08363,-0.209237 -0.02607,-0.08848 -0.04742,-0.207478 -0.08363,-0.292933 -0.03715,-0.09152 -0.07822,-0.165614 -0.125497,-0.251084 -0.03729,-0.06635 -0.04093,-0.144389 -0.08363,-0.209239 -0.09741,-0.146777 -0.210608,-0.252455 -0.334778,-0.376626 -0.124153,-0.124153 -0.271186,-0.236746 -0.418487,-0.334779 -0.06391,-0.04275 -0.142903,-0.08833 -0.20923,-0.125551 -0.08538,-0.04726 -0.159601,-0.08834 -0.251084,-0.125533 -0.08538,-0.03623 -0.163103,-0.05805 -0.251084,-0.0837 -0.07836,-0.02312 -0.170638,-0.06762 -0.251084,-0.0837 -0.173946,-0.03419 -0.368053,-0.04183 -0.54402,-0.04183 l -11.968385,0 z M 10.264867,34.25796 c -1.472983,0 -2.677737,1.204754 -2.678241,2.67824 l 0,11.968385 c -5.03e-4,0.176457 0.0085,0.370074 0.04183,0.544018 0.01557,0.07793 0.06207,0.13436 0.0837,0.209236 0.02713,0.09152 0.04698,0.204949 0.0837,0.292932 0.03619,0.08848 0.07935,0.168587 0.125551,0.251086 0.0372,0.07038 0.08078,0.141364 0.125534,0.209237 0.09852,0.145787 0.211614,0.253464 0.334781,0.376628 0.123163,0.123146 0.230332,0.235747 0.376626,0.33478 0.06686,0.04475 0.139365,0.08881 0.209239,0.12555 0.08246,0.04624 0.162607,0.08936 0.251084,0.125534 0.08848,0.03725 0.200435,0.05657 0.292931,0.0837 0.07441,0.02112 0.131317,0.06713 0.209239,0.0837 0.17345,0.03269 0.36706,0.04183 0.544016,0.04183 l 11.968387,0 c 1.473488,-5.02e-4 2.67824,-1.205256 2.67824,-2.678239 0,-1.472986 -1.206263,-2.637395 -2.67824,-2.636394 l -5.565717,0 5.607564,-5.607563 c -1.410737,-1.08543 -2.66808,-2.365506 -3.766275,-3.766277 l -5.607566,5.607566 0,-5.565716 c 0.001,-1.47197 -1.163397,-2.678229 -2.63638,-2.678229 z m 43.504148,0 c -1.47247,-5.01e-4 -2.67874,1.205764 -2.678242,2.67824 l 0,5.565717 -5.691262,-5.691259 c -1.090607,1.406988 -2.361731,2.67322 -3.766275,3.766275 l 5.691266,5.691259 -5.565724,0 c -1.473488,5.02e-4 -2.679246,1.164416 -2.67824,2.636393 -10e-4,0.734984 0.312489,1.400523 0.795104,1.883137 0.482112,0.482113 1.146649,0.795605 1.883136,0.795103 l 11.968383,0 c 0.176941,-2e-6 0.371067,-0.0071 0.544022,-0.04183 0.07701,-0.01557 0.134837,-0.06154 0.20923,-0.0837 0.09308,-0.02662 0.203446,-0.0485 0.292938,-0.0837 0.08754,-0.03822 0.167614,-0.08135 0.251084,-0.125533 0.0689,-0.03874 0.142886,-0.08133 0.209243,-0.125551 0.292073,-0.195556 0.557693,-0.419325 0.753252,-0.711409 0.04472,-0.06585 0.04539,-0.139878 0.08363,-0.209237 0.04378,-0.08296 0.08823,-0.164624 0.125515,-0.251084 0.03607,-0.09051 0.05715,-0.200915 0.08363,-0.292933 0.02216,-0.07441 0.06769,-0.132838 0.08363,-0.209239 0.03527,-0.172938 0.04242,-0.367564 0.04189,-0.544017 l 0,-11.968385 c 0,-1.472981 -1.165402,-2.680254 -2.636386,-2.67824 z" />
</svg>
