<?xml version="1.0" encoding="UTF-8" standalone="no"?>
<!-- Created with Inkscape (http://www.inkscape.org/) -->

<svg
   xmlns:dc="http://purl.org/dc/elements/1.1/"
   xmlns:cc="http://creativecommons.org/ns#"
   xmlns:rdf="http://www.w3.org/1999/02/22-rdf-syntax-ns#"
   xmlns:svg="http://www.w3.org/2000/svg"
   xmlns="http://www.w3.org/2000/svg"
   xmlns:sodipodi="http://sodipodi.sourceforge.net/DTD/sodipodi-0.dtd"
   xmlns:inkscape="http://www.inkscape.org/namespaces/inkscape"
   width="64px"
   height="64px"
   id="svg6906"
   version="1.1"
   inkscape:version="0.48.5 r10040"
   sodipodi:docname="SoundSettings.svg">
  <defs
     id="defs6908" />
  <sodipodi:namedview
     id="base"
     pagecolor="#ffffff"
     bordercolor="#666666"
     borderopacity="1.0"
     inkscape:pageopacity="0.0"
     inkscape:pageshadow="2"
     inkscape:zoom="5.5"
     inkscape:cx="10.187697"
     inkscape:cy="35.250242"
     inkscape:current-layer="svg6906"
     showgrid="true"
     inkscape:document-units="px"
     inkscape:grid-bbox="true"
     inkscape:window-width="1920"
     inkscape:window-height="1003"
     inkscape:window-x="-9"
     inkscape:window-y="-9"
     inkscape:window-maximized="1" />
  <metadata
     id="metadata6911">
    <rdf:RDF>
      <cc:Work
         rdf:about="">
        <dc:type
           rdf:resource="http://purl.org/dc/dcmitype/StillImage" />
        <dc:title></dc:title>
        <dc:format>image/svg+xml</dc:format>
      </cc:Work>
      <dc:format>image/svg+xml</dc:format>
    </rdf:RDF>
  </metadata>
  <g
     transform="matrix(0.49818182,0,0,0.49818182,7.8184312,6.7272731)"
     id="Captions" />
  <path
     inkscape:connector-curvature="0"
     id="path11"
     d="m 16.711119,37.553773 c -0.05598,3.601918 -1.244579,6.530395 -3.618173,8.961764 -0.749871,0.768533 -1.828943,0.876859 -2.647424,0.31175 C 9.6131998,46.252543 9.2924273,45.224022 9.7040746,44.309852 9.83768,44.013153 10.060957,43.745341 10.284233,43.502806 13.375804,40.145228 13.363171,35.272858 10.245714,31.929725 9.4898233,31.119067 9.3267287,30.174805 9.7961518,29.32563 10.226456,28.54687 11.135813,28.121982 12.0554,28.375952 c 0.400815,0.110736 0.804639,0.368316 1.103141,0.664414 2.265269,2.246008 3.567614,5.486832 3.552576,8.513407 z m 22.90483,-20.927237 c 5.108287,0.05597 9.163979,3.69821 9.787463,8.793857 0.04696,0.38276 0.03851,0.773945 0.03307,1.16152 -0.01682,1.166938 -0.895512,2.046805 -2.038371,2.055231 -1.121199,0.0084 -2.043799,-0.88408 -2.057644,-2.045601 -0.01869,-1.525624 -0.485674,-2.868295 -1.520207,-3.999123 -2.763576,-3.019352 -7.756314,-2.203279 -9.416143,1.538263 -0.08546,0.192584 -0.153466,0.393593 -0.242537,0.584973 -0.473032,1.014075 -1.59904,1.481692 -2.608306,1.086895 -1.051384,-0.411046 -1.6165,-1.526828 -1.214478,-2.586641 1.38239,-3.647055 4.006344,-5.819039 7.857418,-6.488267 0.29429,-0.05115 0.593999,-0.07463 0.892506,-0.0987 0.173924,-0.01384 0.350862,-0.0024 0.527199,-0.0024 z M 23.329977,38.880795 c -0.05655,3.937135 -1.780796,8.370777 -5.297257,12.085836 -1.024906,1.08268 -2.252025,1.213275 -3.155963,0.349058 -0.930425,-0.888891 -0.852786,-2.096154 0.197997,-3.207123 2.090134,-2.209298 3.440033,-4.805566 3.917874,-7.810474 0.793208,-4.985513 -0.554879,-9.339712 -4.012355,-13.023479 -0.555489,-0.591593 -0.88288,-1.234341 -0.701131,-2.049211 0.173932,-0.782974 0.648166,-1.313783 1.434752,-1.537662 0.804639,-0.228692 1.49433,-0.02047 2.0775,0.563309 1.304149,1.304754 2.397066,2.770196 3.266702,4.395122 1.528031,2.857462 2.26526,5.836492 2.271881,10.234624 z M 4.8016138,34.6927 c 0.012033,-0.01324 0.031296,-0.02407 0.034302,-0.03912 0.3809541,-1.700753 2.5402999,-2.386231 3.9533831,-0.580157 1.7958439,2.294757 1.6429809,5.761264 -0.4483584,7.796033 -1.0718497,1.042961 -2.7707996,0.702329 -3.3611887,-0.67284 -0.053566,-0.125781 -0.1185594,-0.246146 -0.1781406,-0.368317 0,-0.246747 0,-0.493495 0,-0.740243 0.2557755,-0.429703 0.4862745,-0.87746 0.7721411,-1.286099 0.4603951,-0.657192 0.4766443,-1.448591 0.024674,-2.100969 -0.2834593,-0.410444 -0.5320128,-0.844359 -0.7968156,-1.268043 0,-0.246748 0,-0.493496 0,-0.740244 z M 58.965799,29.191424 c -0.282851,1.067035 -0.508537,2.152725 -0.858798,3.19689 -1.50035,4.463731 -4.293419,7.912185 -8.27027,10.424199 -0.664416,0.419472 -1.329433,0.874451 -1.883711,1.423917 -0.779965,0.773346 -1.047777,1.802468 -1.15009,2.884546 -0.495302,5.235868 -4.49322,9.355355 -9.70742,9.845847 -3.884782,0.365308 -7.124998,-1.018292 -9.602108,-4.062314 -1.13384,-1.393227 -0.932829,-3.310038 0.405029,-4.389712 1.357715,-1.095322 3.226981,-0.907545 4.38669,0.478451 1.228931,1.467852 2.770807,2.090134 4.649099,1.732049 2.12143,-0.405029 3.519467,-2.138881 3.743951,-4.41498 0.356874,-3.616965 2.055222,-6.453363 5.183513,-8.32624 2.486136,-1.488311 4.499833,-3.383456 5.745615,-6.023058 3.88176,-8.227539 -1.129624,-17.652108 -10.11968,-19.049544 -6.048931,-0.94005 -12.057549,2.534884 -14.355316,8.333461 -0.462803,1.168742 -1.186195,1.99264 -2.450022,2.232768 -2.359758,0.448359 -4.298229,-1.794038 -3.481557,-4.057499 1.407063,-3.898016 3.839041,-7.022688 7.245364,-9.380636 2.856863,-1.9775946 6.024258,-3.1005985 9.487762,-3.3870672 0.136006,-0.011431 4.806766,-0.3574836 8.577194,1.2054543 5.500073,2.1671689 9.316845,6.0278719 11.406377,11.5538229 1.675485,3.749365 1.324014,8.271473 1.048378,9.779645 z" />
</svg>
