<?xml version="1.0" encoding="UTF-8" standalone="no"?>
<!-- Created with Inkscape (http://www.inkscape.org/) -->

<svg
   xmlns:dc="http://purl.org/dc/elements/1.1/"
   xmlns:cc="http://creativecommons.org/ns#"
   xmlns:rdf="http://www.w3.org/1999/02/22-rdf-syntax-ns#"
   xmlns:svg="http://www.w3.org/2000/svg"
   xmlns="http://www.w3.org/2000/svg"
   xmlns:sodipodi="http://sodipodi.sourceforge.net/DTD/sodipodi-0.dtd"
   xmlns:inkscape="http://www.inkscape.org/namespaces/inkscape"
   width="64px"
   height="64px"
   id="svg6906"
   version="1.1"
   inkscape:version="0.48.5 r10040"
   sodipodi:docname="ThemeSettings.svg">
  <defs
     id="defs6908" />
  <sodipodi:namedview
     id="base"
     pagecolor="#ffffff"
     bordercolor="#666666"
     borderopacity="1.0"
     inkscape:pageopacity="0.0"
     inkscape:pageshadow="2"
     inkscape:zoom="5.5"
     inkscape:cx="10.187697"
     inkscape:cy="35.250242"
     inkscape:current-layer="svg6906"
     showgrid="true"
     inkscape:document-units="px"
     inkscape:grid-bbox="true"
     inkscape:window-width="1920"
     inkscape:window-height="1003"
     inkscape:window-x="-9"
     inkscape:window-y="-9"
     inkscape:window-maximized="1" />
  <metadata
     id="metadata6911">
    <rdf:RDF>
      <cc:Work
         rdf:about="">
        <dc:type
           rdf:resource="http://purl.org/dc/dcmitype/StillImage" />
        <dc:title></dc:title>
        <dc:format>image/svg+xml</dc:format>
      </cc:Work>
      <dc:format>image/svg+xml</dc:format>
    </rdf:RDF>
  </metadata>
  <g
     transform="matrix(0.49818182,0,0,0.49818182,7.8184312,6.7272731)"
     id="Captions" />
  <path
     id="path5"
     d="m 29.303975,23.084395 v -8.743863 c 0,-0.53629 -0.435007,-0.97154 -0.97154,-0.97154 -0.536048,0 -0.971541,0.43525 -0.971541,0.97154 v 20.402346 c 0,0.53702 0.43525,0.971543 0.971541,0.971543 l 4.192439,0.0075 c 1.126015,0 2.415249,-0.05125 3.453826,-0.66842 1.186494,-0.707282 1.787634,-1.995545 1.787634,-3.830543 0,-3.099941 -3.499488,-7.606188 -8.462359,-8.138592 z m 5.681811,10.298326 c -0.613771,0.366514 -1.593569,0.396389 -2.460912,0.396389 l -3.220899,-0.0075 v -8.730491 c 3.878632,0.533376 6.519278,4.152364 6.519278,6.181912 0,1.490341 -0.477997,1.946967 -0.837467,2.159732 z M 22.744378,17.609765 c -1.51366,0 -2.223856,0.660648 -2.911706,1.299921 -0.120472,0.111728 -0.247743,0.229284 -0.388617,0.352669 -0.403189,0.355584 -0.443022,0.968626 -0.08938,1.370844 0.35364,0.404161 0.966682,0.443994 1.370843,0.09035 0.155447,-0.137959 0.29632,-0.267174 0.429421,-0.390559 0.610127,-0.56738 0.839411,-0.780147 1.588468,-0.780147 0.624701,0 1.050235,0.115613 1.275633,0.343925 0.46731,0.472169 0.426506,1.775004 0.426506,3.15362 0,0.01166 0,0.02235 0,0.03303 -4.857702,0.529489 -7.666425,4.928624 -7.666425,8.138591 0,4.498963 4.203855,4.498963 5.99829,4.498963 l 2.638704,-0.0075 c 0.53629,0 0.972512,-0.433553 0.972512,-0.971543 V 24.000558 c 0,-0.316722 0.0039,-0.626644 0.0087,-0.923935 0.02526,-1.875073 0.04761,-3.493659 -0.990972,-4.546809 -0.611098,-0.6179 -1.48257,-0.920049 -2.66202,-0.920049 l 0,0 z m 0.03595,16.169345 c -3.068125,0 -4.052295,-0.622515 -4.052295,-2.555878 0,-2.013032 1.959597,-5.637849 5.718486,-6.179969 v 8.728561 l -1.666191,0.0073 z m 20.374537,7.943155 c 0,-0.610278 0,-1.23039 0,-1.852817 h 6.706702 0.616641 c 1.023879,0 1.852817,-0.830094 1.852817,-1.852239 v -25.322222 -0.61722 c 0,-1.02388 -0.830094,-1.852817 -1.852817,-1.852817 H 14.248486 c -1.024458,0 -1.852817,0.829516 -1.852817,1.852817 v 0.61722 25.322222 c 0,1.023301 0.828937,1.852239 1.852817,1.852239 h 0.61722 25.268425 c 0,0.623583 0,1.244853 0,1.852817 h -2.572426 v 0.616642 c 0,0.341293 -0.276505,0.61722 -0.617798,0.61722 h -7.410113 c -0.342449,0 -0.617798,-0.277084 -0.617798,-0.61722 V 41.722265 H 4.9843993 v 1.235019 c 0,0 0,1.852817 1.8528173,1.852817 H 40.134131 c 0,0.993221 0,1.850504 0,2.482186 0,3.932391 0.189158,8.300945 1.699525,8.300945 1.509788,0 1.321209,-3.931813 1.321209,-8.300945 0,-0.666968 0,-1.519623 0,-2.482186 h 14.73519 c 1.852818,0 1.852818,-1.852817 1.852818,-1.852817 V 41.722265 H 43.154865 z M 14.866284,37.399989 V 12.694987 h 34.995283 v 24.705002 h -6.706702 c 0,-1.72382 0,-3.321535 0,-4.525895 h 0.557639 l -0.577885,-4.881072 c 1.014624,-0.425749 1.622589,-1.361702 1.766626,-2.327735 0.435005,-2.922396 -1.331044,-3.324428 -1.420705,-4.593576 -0.04512,-0.644986 0.229071,-1.383683 0.766464,-2.024042 0.552431,-0.662919 1.257,-1.347241 1.257,-1.347241 0,0 -1.949999,-0.05322 -3.057756,0.307743 -1.961569,0.640936 -3.804552,2.486812 -4.280049,4.538043 -0.58309,2.516893 -0.04743,4.526473 1.988757,5.335165 l -0.59119,4.99445 h 0.571522 c 0,1.205517 0,2.806703 0,4.525317 l -25.269004,-0.0012 0,0 z" />
</svg>
