<?xml version="1.0" encoding="UTF-8" standalone="no"?>
<!-- Created with Inkscape (http://www.inkscape.org/) -->

<svg
   xmlns:dc="http://purl.org/dc/elements/1.1/"
   xmlns:cc="http://creativecommons.org/ns#"
   xmlns:rdf="http://www.w3.org/1999/02/22-rdf-syntax-ns#"
   xmlns:svg="http://www.w3.org/2000/svg"
   xmlns="http://www.w3.org/2000/svg"
   xmlns:sodipodi="http://sodipodi.sourceforge.net/DTD/sodipodi-0.dtd"
   xmlns:inkscape="http://www.inkscape.org/namespaces/inkscape"
   width="64px"
   height="64px"
   id="svg4427"
   version="1.1"
   inkscape:version="0.48.5 r10040"
   sodipodi:docname="1of2.svg">
  <defs
     id="defs4429" />
  <sodipodi:namedview
     id="base"
     pagecolor="#ffffff"
     bordercolor="#666666"
     borderopacity="1.0"
     inkscape:pageopacity="0.0"
     inkscape:pageshadow="2"
     inkscape:zoom="7.7781746"
     inkscape:cx="42.903563"
     inkscape:cy="31.178346"
     inkscape:current-layer="svg4427"
     showgrid="true"
     inkscape:document-units="px"
     inkscape:grid-bbox="true"
     inkscape:window-width="942"
     inkscape:window-height="985"
     inkscape:window-x="960"
     inkscape:window-y="0"
     inkscape:window-maximized="0" />
  <metadata
     id="metadata4432">
    <rdf:RDF>
      <cc:Work
         rdf:about="">
        <dc:format>image/svg+xml</dc:format>
        <dc:type
           rdf:resource="http://purl.org/dc/dcmitype/StillImage" />
        <dc:title></dc:title>
      </cc:Work>
    </rdf:RDF>
  </metadata>
  <g
     transform="matrix(0.50907359,0,0,0.50907359,3.5387703,0.85023382)"
     id="g3" />
  <g
     style="font-size:32px;font-style:normal;font-variant:normal;font-weight:normal;font-stretch:normal;line-height:125%;letter-spacing:0px;word-spacing:0px;fill:#000000;fill-opacity:1;stroke:none;font-family:Roboto;-inkscape-font-specification:Roboto"
     id="text3061"
     transform="translate(-4.3712056,-4.2426407)" />
  <g
     style="font-size:32px;font-style:normal;font-variant:normal;font-weight:normal;font-stretch:normal;line-height:125%;letter-spacing:0px;word-spacing:0px;fill:#000000;fill-opacity:1;stroke:none;font-family:Roboto;-inkscape-font-specification:Roboto"
     id="text3069"
     transform="translate(-4.3712056,-4.2426407)" />
  <g
     style="font-size:32px;font-style:normal;font-variant:normal;font-weight:normal;font-stretch:normal;line-height:125%;letter-spacing:0px;word-spacing:0px;fill:#000000;fill-opacity:1;stroke:none;font-family:Roboto;-inkscape-font-specification:Roboto"
     id="text2986" />
  <g
     style="font-size:32px;font-style:normal;font-variant:normal;font-weight:normal;font-stretch:normal;line-height:125%;letter-spacing:0px;word-spacing:0px;fill:#000000;fill-opacity:1;stroke:none;font-family:Roboto;-inkscape-font-specification:Roboto"
     id="text2990" />
  <g
     style="font-size:32px;font-style:normal;font-variant:normal;font-weight:normal;font-stretch:normal;line-height:125%;letter-spacing:0px;word-spacing:0px;fill:#000000;fill-opacity:1;stroke:none;font-family:Roboto;-inkscape-font-specification:Roboto"
     id="text2994">
    <path
       id="path3070"
       style=""
       d="m 48.644024,39.622429 2.5625,0 c 0.979157,1.3e-5 1.703114,-0.257799 2.171875,-0.773438 0.468738,-0.51561 0.703113,-1.221338 0.703125,-2.117187 -1.2e-5,-0.343733 -0.0547,-0.669254 -0.164063,-0.976563 -0.109386,-0.307274 -0.273448,-0.578107 -0.492187,-0.8125 -0.218761,-0.234356 -0.497406,-0.419252 -0.835938,-0.554687 -0.338551,-0.135398 -0.736988,-0.203106 -1.195312,-0.203125 -0.322925,1.9e-5 -0.638029,0.0495 -0.945313,0.148437 -0.307299,0.09898 -0.58334,0.239602 -0.828125,0.421875 -0.244798,0.18231 -0.442715,0.403664 -0.59375,0.664063 -0.151048,0.260434 -0.226568,0.557309 -0.226562,0.890625 l -5.265625,0 c -1e-6,-0.968732 0.208332,-1.835919 0.625,-2.601563 0.416664,-0.765604 0.979164,-1.414041 1.6875,-1.945312 0.708329,-0.531228 1.523432,-0.937478 2.445312,-1.21875 0.921869,-0.281227 1.893222,-0.421852 2.914063,-0.421875 1.208323,2.3e-5 2.312489,0.140648 3.3125,0.421875 0.999987,0.281272 1.856757,0.695334 2.570312,1.242187 0.713527,0.546896 1.268214,1.223979 1.664063,2.03125 0.395817,0.807311 0.593733,1.742206 0.59375,2.804688 -1.7e-5,0.520849 -0.08335,1.020849 -0.25,1.5 -0.166683,0.479181 -0.401058,0.929702 -0.703125,1.351562 -0.302099,0.421889 -0.67189,0.804701 -1.109375,1.148438 -0.437515,0.343762 -0.921889,0.640637 -1.453125,0.890625 1.208319,0.437511 2.156234,1.101573 2.84375,1.992187 0.687483,0.890634 1.031233,1.992196 1.03125,3.304688 -1.7e-5,1.062505 -0.216163,2.010421 -0.648438,2.84375 -0.432307,0.833336 -1.028661,1.53646 -1.789062,2.109375 -0.760431,0.572917 -1.658867,1.007813 -2.695313,1.304687 -1.036469,0.296875 -2.158864,0.445313 -3.367187,0.445313 -0.635425,0 -1.273445,-0.05729 -1.914063,-0.171875 -0.640631,-0.114583 -1.257818,-0.286458 -1.851562,-0.515625 -0.593755,-0.229166 -1.151046,-0.523437 -1.671875,-0.882813 -0.520836,-0.359373 -0.971357,-0.786456 -1.351563,-1.28125 -0.38021,-0.494788 -0.682293,-1.054684 -0.90625,-1.679687 -0.223959,-0.624995 -0.335938,-1.32812 -0.335937,-2.109375 l 5.296875,0 c -6e-6,0.364589 0.07812,0.703131 0.234375,1.015625 0.156243,0.312505 0.367181,0.585942 0.632812,0.820312 0.265618,0.23438 0.575514,0.416671 0.929688,0.546875 0.354158,0.130213 0.729158,0.195317 1.125,0.195313 0.479157,4e-6 0.908844,-0.07031 1.289062,-0.210938 0.380198,-0.140621 0.70051,-0.335933 0.960938,-0.585937 0.260405,-0.249995 0.458322,-0.541662 0.59375,-0.875 0.135405,-0.333328 0.203113,-0.692702 0.203125,-1.078125 -1.2e-5,-1.145826 -0.28647,-1.958325 -0.859375,-2.4375 -0.572927,-0.479157 -1.364593,-0.71874 -2.375,-0.71875 l -2.5625,0 z m -12.192993,-0.178318 0,-9.9375 -1.839844,0 0,-2.742188 1.839844,0 0,-1.03125 c -2e-6,-0.73436 0.113279,-1.38475 0.339843,-1.951172 0.22656,-0.56639 0.550779,-1.040998 0.972657,-1.423828 0.421871,-0.382795 0.931636,-0.671857 1.529297,-0.867187 0.59765,-0.195294 1.271478,-0.292951 2.021484,-0.292969 0.33593,1.8e-5 0.656242,0.02346 0.960937,0.07031 0.30468,0.04689 0.601555,0.105486 0.890625,0.175781 l 0.01172,2.90625 c -0.132821,-0.03905 -0.275399,-0.06639 -0.427734,-0.08203 -0.152352,-0.01561 -0.333992,-0.02342 -0.544922,-0.02344 -0.578132,1.5e-5 -1.021491,0.126968 -1.330078,0.380859 -0.3086,0.253921 -0.462897,0.623062 -0.462891,1.107422 l 0,1.03125 2.472656,0 0,2.742188 -2.472656,0 0,9.9375 z M 21.579937,32.98708 c -1e-6,-0.921868 0.132812,-1.777336 0.398437,-2.566407 0.265624,-0.789052 0.656249,-1.472645 1.171875,-2.050781 0.515623,-0.578113 1.154294,-1.029285 1.916016,-1.353516 0.761714,-0.324206 1.63476,-0.486315 2.619141,-0.486328 0.999992,1.3e-5 1.880851,0.162122 2.642578,0.486328 0.761708,0.324231 1.40038,0.775403 1.916015,1.353516 0.515614,0.578136 0.906238,1.261729 1.171875,2.050781 0.265613,0.789071 0.398425,1.644539 0.398438,2.566407 l 0,0.246093 c -1.3e-5,0.929693 -0.130872,1.787114 -0.392578,2.572266 -0.261731,0.785159 -0.650403,1.464846 -1.166016,2.039062 -0.515636,0.57422 -1.154307,1.023439 -1.916015,1.347657 -0.761728,0.324218 -1.63868,0.486328 -2.63086,0.486328 -0.992193,0 -1.869145,-0.16211 -2.630859,-0.486328 -0.761722,-0.324218 -1.402347,-0.773437 -1.921875,-1.347657 -0.519533,-0.574216 -0.912111,-1.253903 -1.177735,-2.039062 -0.265625,-0.785152 -0.398438,-1.642573 -0.398437,-2.572266 z m 3.949219,0.246093 c -5e-6,0.476569 0.0332,0.921881 0.09961,1.335938 0.0664,0.414067 0.183589,0.773441 0.351563,1.078125 0.167963,0.304691 0.392572,0.544925 0.673828,0.720703 0.281244,0.175784 0.632806,0.263675 1.054687,0.263672 0.414056,3e-6 0.759758,-0.08789 1.03711,-0.263672 0.277335,-0.175778 0.498038,-0.416012 0.662109,-0.720703 0.164054,-0.304684 0.281241,-0.664058 0.351562,-1.078125 0.0703,-0.414057 0.10546,-0.859369 0.105469,-1.335938 l 0,-0.246093 c -9e-6,-0.460931 -0.03321,-0.898431 -0.09961,-1.3125 -0.06641,-0.414055 -0.183603,-0.775382 -0.351563,-1.083985 -0.167977,-0.308584 -0.392586,-0.554678 -0.673828,-0.738281 -0.281257,-0.183584 -0.632819,-0.275381 -1.054687,-0.275391 -0.414069,10e-6 -0.759772,0.09181 -1.03711,0.275391 -0.277349,0.183603 -0.498052,0.429697 -0.662109,0.738281 -0.164067,0.308603 -0.281255,0.66993 -0.351563,1.083985 -0.07032,0.414069 -0.105473,0.851569 -0.105468,1.3125 z m -9.252535,-0.217304 -5.28125,0 0,-16.8125 -5.1874997,1.515625 0,-4 9.9843747,-3.453125 0.484375,0 z" />
  </g>
</svg>
