<?xml version="1.0" encoding="UTF-8" standalone="no"?>
<!-- Created with Inkscape (http://www.inkscape.org/) -->

<svg
   xmlns:dc="http://purl.org/dc/elements/1.1/"
   xmlns:cc="http://creativecommons.org/ns#"
   xmlns:rdf="http://www.w3.org/1999/02/22-rdf-syntax-ns#"
   xmlns:svg="http://www.w3.org/2000/svg"
   xmlns="http://www.w3.org/2000/svg"
   xmlns:sodipodi="http://sodipodi.sourceforge.net/DTD/sodipodi-0.dtd"
   xmlns:inkscape="http://www.inkscape.org/namespaces/inkscape"
   width="64px"
   height="64px"
   id="svg4427"
   version="1.1"
   inkscape:version="0.48.5 r10040"
   sodipodi:docname="ArrowPointingToTopLeftBoundary.xaml">
  <defs
     id="defs4429" />
  <sodipodi:namedview
     id="base"
     pagecolor="#ffffff"
     bordercolor="#666666"
     borderopacity="1.0"
     inkscape:pageopacity="0.0"
     inkscape:pageshadow="2"
     inkscape:zoom="11"
     inkscape:cx="28.609516"
     inkscape:cy="31.152154"
     inkscape:current-layer="svg4427"
     showgrid="true"
     inkscape:document-units="px"
     inkscape:grid-bbox="true"
     inkscape:window-width="1920"
     inkscape:window-height="1003"
     inkscape:window-x="-9"
     inkscape:window-y="-9"
     inkscape:window-maximized="1" />
  <metadata
     id="metadata4432">
    <rdf:RDF>
      <cc:Work
         rdf:about="">
        <dc:format>image/svg+xml</dc:format>
        <dc:type
           rdf:resource="http://purl.org/dc/dcmitype/StillImage" />
        <dc:title></dc:title>
      </cc:Work>
    </rdf:RDF>
  </metadata>
  <g
     transform="matrix(0.50907359,0,0,0.50907359,7.9099759,5.0928745)"
     id="g3" />
  <path
     id="path19"
     d="M 12.767106,35.849312 35.849353,12.767066 c 1.275063,-1.275064 1.274758,-3.3416958 10e-7,-4.6164512 -1.274755,-1.2747555 -3.341386,-1.2750623 -4.616451,2.3e-6 L 8.1506565,31.232863 c -1.2747555,1.274755 -1.2747555,3.341693 0,4.61645 1.2747554,1.274755 3.3416945,1.274754 4.6164495,-1e-6 z m 43.063049,20.253343 c 1.585148,-1.58515 1.585914,-4.157377 0,-5.743295 l -18.913824,-18.913824 8.470213,7.42e-4 c 2.242949,7.42e-4 4.061657,-1.817946 4.060891,-4.060892 0.0016,-2.242185 -1.817178,-4.060895 -4.060891,-4.060893 l -18.270573,-7.72e-4 c -0.268785,-7.64e-4 -0.536807,0.0268 -0.800233,0.0804 -0.117932,0.02298 -0.225138,0.06586 -0.338474,0.09956 -0.140141,0.04058 -0.283335,0.07352 -0.419642,0.130166 -0.13248,0.0559 -0.254237,0.131708 -0.37906,0.199867 -0.106432,0.05744 -0.217475,0.105679 -0.318557,0.173058 -0.444149,0.297121 -0.827034,0.680005 -1.125687,1.125687 -0.0674,0.101088 -0.114864,0.211352 -0.172306,0.317794 -0.06815,0.126345 -0.143961,0.246581 -0.201399,0.38059 -0.05513,0.134777 -0.08729,0.278742 -0.129413,0.418877 -0.03369,0.11334 -0.07658,0.220544 -0.09954,0.338472 -0.0536,0.263424 -0.0804,0.52915 -0.07965,0.799465 l 7.64e-4,18.270577 c 0,1.121089 0.454102,2.137269 1.188479,2.871647 0.734375,0.734376 1.750557,1.190009 2.871648,1.188479 2.242184,0.0016 4.060892,-1.817178 4.06166,-4.061658 l -0.0016,-8.469443 18.913058,18.913056 c 1.585914,1.587448 4.157381,1.58898 5.744063,0.0023 z"
     inkscape:connector-curvature="0" />
</svg>
