<?xml version="1.0" encoding="UTF-8" standalone="no"?>
<!-- Created with Inkscape (http://www.inkscape.org/) -->

<svg
   xmlns:dc="http://purl.org/dc/elements/1.1/"
   xmlns:cc="http://creativecommons.org/ns#"
   xmlns:rdf="http://www.w3.org/1999/02/22-rdf-syntax-ns#"
   xmlns:svg="http://www.w3.org/2000/svg"
   xmlns="http://www.w3.org/2000/svg"
   xmlns:sodipodi="http://sodipodi.sourceforge.net/DTD/sodipodi-0.dtd"
   xmlns:inkscape="http://www.inkscape.org/namespaces/inkscape"
   width="64px"
   height="64px"
   id="svg6906"
   version="1.1"
   inkscape:version="0.91 r13725"
   sodipodi:docname="Currencies.svg">
  <defs
     id="defs6908" />
  <sodipodi:namedview
     id="base"
     pagecolor="#ffffff"
     bordercolor="#666666"
     borderopacity="1.0"
     inkscape:pageopacity="0.0"
     inkscape:pageshadow="2"
     inkscape:zoom="5.5"
     inkscape:cx="33.139164"
     inkscape:cy="37.133647"
     inkscape:current-layer="svg6906"
     showgrid="true"
     inkscape:document-units="px"
     inkscape:grid-bbox="true"
     inkscape:window-width="747"
     inkscape:window-height="593"
     inkscape:window-x="497"
     inkscape:window-y="403"
     inkscape:window-maximized="0" />
  <metadata
     id="metadata6911">
    <rdf:RDF>
      <cc:Work
         rdf:about="">
        <dc:type
           rdf:resource="http://purl.org/dc/dcmitype/StillImage" />
        <dc:title />
        <dc:format>image/svg+xml</dc:format>
      </cc:Work>
      <dc:format>image/svg+xml</dc:format>
    </rdf:RDF>
  </metadata>
  <g
     style="font-style:normal;font-weight:normal;font-size:29.74659729px;line-height:125%;font-family:sans-serif;letter-spacing:0px;word-spacing:0px;fill:#000000;fill-opacity:1;stroke:none;stroke-width:1px;stroke-linecap:butt;stroke-linejoin:miter;stroke-opacity:1"
     id="text3396">
    <path
       id="path3407"
       style="font-style:normal;font-variant:normal;font-weight:normal;font-stretch:normal;font-family:Roboto;-inkscape-font-specification:Roboto"
       d="m 47.133688,25.84874 0.08715,0 3.544028,-8.409805 5.316043,0 -5.316043,10.37064 3.093763,0 0,2.672546 -4.284789,0 0,1.539618 4.284789,0 0,2.658022 -4.284789,0 0,3.907145 -4.894825,0 0,-3.907145 -4.69148,0 0,-2.658022 4.69148,0 0,-1.539618 -4.69148,0 0,-2.672546 3.616651,0 -5.330567,-10.37064 5.330567,0 3.529504,8.409805 z M 34.236809,43.121254 q 0,-1.161976 -0.566464,-1.757489 -0.551938,-0.610038 -2.120607,-1.263649 -3.471404,-1.220076 -5.098171,-2.672546 -1.612243,-1.452471 -1.612243,-4.212165 0,-2.483725 1.684866,-4.066917 1.684866,-1.597718 4.560758,-1.830113 l 0,-3.064713 2.294903,0 0,3.108287 q 2.71612,0.363117 4.270264,2.047983 1.554143,1.684866 1.510569,4.342887 l -0.02905,0.07262 -4.793153,0 q 0,-1.452471 -0.639087,-2.149657 -0.624563,-0.697186 -1.772014,-0.697186 -1.191026,0 -1.684866,0.624563 -0.49384,0.610037 -0.49384,1.641292 0,0.973155 0.522889,1.554143 0.537414,0.566464 2.149657,1.336273 3.355207,1.074828 5.025548,2.643496 1.684866,1.568669 1.684866,4.313838 0,2.541824 -1.612243,4.081442 -1.612242,1.539619 -4.41551,1.801064 l 0,2.919466 -2.309428,0 0,-2.919466 q -2.933991,-0.24692 -4.822203,-1.859163 -1.888211,-1.626767 -1.815588,-4.793152 l 0.02905,-0.08715 4.778628,0 q 0,1.670342 0.798859,2.382052 0.813383,0.711711 2.178705,0.711711 1.205551,0 1.742965,-0.595513 0.551939,-0.610038 0.551939,-1.612243 z M 15.77353,28.071813 l 0.04357,0.74076 q 0,1.060304 -0.508365,2.047984 -0.49384,0.98768 -1.423421,1.786539 l 10.051096,0 0,3.776423 -14.6118536,0 0,-3.776423 0.1452471,0 q 0.6826615,-0.174297 1.0167295,-1.249125 0.348593,-1.089353 0.348593,-2.280379 l -0.04357,-1.045779 -2.382052,0 0,-3.790948 2.236805,0 -0.101673,-2.68707 q 0,-3.093763 1.801063,-4.851252 1.815588,-1.772014 4.851252,-1.772014 3.239009,0 5.011023,1.670341 1.772015,1.670341 1.713916,4.41551 l -0.02905,0.08715 -4.793153,0 q 0,-1.2346 -0.551938,-1.815588 -0.537415,-0.580989 -1.365323,-0.580989 -0.827908,0 -1.278174,0.74076 -0.450266,0.74076 -0.450266,2.106083 l 0.130723,2.68707 4.720529,0 0,3.790948 -4.531708,0 z" />
  </g>
</svg>
