<?xml version="1.0" encoding="UTF-8" standalone="no"?>
<!-- Created with Inkscape (http://www.inkscape.org/) -->

<svg
   xmlns:dc="http://purl.org/dc/elements/1.1/"
   xmlns:cc="http://creativecommons.org/ns#"
   xmlns:rdf="http://www.w3.org/1999/02/22-rdf-syntax-ns#"
   xmlns:svg="http://www.w3.org/2000/svg"
   xmlns="http://www.w3.org/2000/svg"
   xmlns:sodipodi="http://sodipodi.sourceforge.net/DTD/sodipodi-0.dtd"
   xmlns:inkscape="http://www.inkscape.org/namespaces/inkscape"
   width="92.433594"
   height="92.433594"
   id="svg4427"
   version="1.1"
   inkscape:version="0.92.2 (5c3e80d, 2017-08-06)"
   sodipodi:docname="LookToScrollActive.svg">
  <defs
     id="defs4429" />
  <sodipodi:namedview
     id="base"
     pagecolor="#ffffff"
     bordercolor="#666666"
     borderopacity="1.0"
     inkscape:pageopacity="0.0"
     inkscape:pageshadow="2"
     inkscape:zoom="5.5"
     inkscape:cx="16.544922"
     inkscape:cy="45.570312"
     inkscape:current-layer="svg4427"
     showgrid="true"
     inkscape:document-units="px"
     inkscape:grid-bbox="true"
     inkscape:window-width="1536"
     inkscape:window-height="801"
     inkscape:window-x="-8"
     inkscape:window-y="-8"
     inkscape:window-maximized="1" />
  <metadata
     id="metadata4432">
    <rdf:RDF>
      <cc:Work
         rdf:about="">
        <dc:format>image/svg+xml</dc:format>
        <dc:type
           rdf:resource="http://purl.org/dc/dcmitype/StillImage" />
        <dc:title />
      </cc:Work>
    </rdf:RDF>
  </metadata>
  <path
     d="M 46.185547 0 L 41.769531 4.4140625 L 41.78125 4.4257812 L 29.197266 17.009766 C 28.349746 17.859522 27.925781 18.970916 27.925781 20.083984 C 27.925781 21.197052 28.349188 22.310401 29.197266 23.160156 C 30.896777 24.859108 33.650097 24.859108 35.349609 23.160156 L 46.216797 12.292969 L 57.082031 23.160156 C 58.780983 24.859108 61.534864 24.859108 63.234375 23.160156 C 64.932209 21.461205 64.932209 18.709278 63.234375 17.009766 L 49.330078 3.1054688 L 49.125 2.9375 L 46.185547 0 z M 46.636719 27.535156 C 36.268696 27.535156 27.853516 35.950338 27.853516 46.318359 C 27.853516 56.68638 36.268696 65.099609 46.636719 65.099609 C 57.004743 65.099609 65.417969 56.68638 65.417969 46.318359 C 65.417969 35.950338 57.004743 27.535156 46.636719 27.535156 z M 20.083984 27.925781 C 18.971126 27.925781 17.859522 28.350301 17.009766 29.199219 L 3.1054688 43.101562 L 2.9375 43.308594 L 0 46.248047 L 4.4140625 50.662109 L 4.4257812 50.650391 L 17.009766 63.234375 C 17.859522 64.081895 18.970916 64.507812 20.083984 64.507812 C 21.197051 64.507812 22.310401 64.082453 23.160156 63.234375 C 24.859108 61.534864 24.859108 58.781542 23.160156 57.082031 L 12.292969 46.216797 L 23.160156 35.351562 C 24.859108 33.652611 24.859108 30.89873 23.160156 29.199219 C 22.310681 28.350301 21.196843 27.925781 20.083984 27.925781 z M 72.349609 27.925781 C 71.23654 27.925781 70.123193 28.351141 69.273438 29.199219 C 67.574485 30.89873 67.574485 33.652051 69.273438 35.351562 L 80.140625 46.216797 L 69.273438 57.082031 C 67.574485 58.780983 67.574485 61.534864 69.273438 63.234375 C 70.972388 64.932209 73.724316 64.932209 75.423828 63.234375 L 89.326172 49.332031 L 89.496094 49.125 L 92.433594 46.185547 L 88.017578 41.771484 L 88.005859 41.783203 L 75.423828 29.199219 C 74.574072 28.351698 73.462676 27.925781 72.349609 27.925781 z M 46.636719 35.048828 C 52.797432 35.048828 57.90625 40.157651 57.90625 46.318359 C 57.90625 52.479067 52.797432 57.587891 46.636719 57.587891 C 40.476009 57.587891 35.367187 52.479067 35.367188 46.318359 C 35.367188 40.157651 40.476009 35.048828 46.636719 35.048828 z M 46.636719 39.59375 C 42.960871 39.59375 39.912109 42.642512 39.912109 46.318359 C 39.912109 49.994206 42.960871 53.042969 46.636719 53.042969 C 50.312569 53.042969 53.361328 49.994206 53.361328 46.318359 C 53.361328 42.642512 50.312569 39.59375 46.636719 39.59375 z M 32.275391 68 C 31.162253 68 30.048974 68.423962 29.199219 69.273438 C 27.501385 70.972388 27.501385 73.724316 29.199219 75.423828 L 43.101562 89.328125 L 43.308594 89.496094 L 46.248047 92.433594 L 50.662109 88.019531 L 50.650391 88.007812 L 63.234375 75.423828 C 64.081895 74.574072 64.507812 73.462677 64.507812 72.349609 C 64.507812 71.236541 64.082453 70.123193 63.234375 69.273438 C 61.534864 67.574485 58.781542 67.574485 57.082031 69.273438 L 46.216797 80.140625 L 35.351562 69.273438 C 34.502087 68.423962 33.388528 68 32.275391 68 z "
     id="path19" />
</svg>
