<?xml version="1.0" encoding="UTF-8" standalone="no"?>
<!-- Created with Inkscape (http://www.inkscape.org/) -->

<svg
   xmlns:dc="http://purl.org/dc/elements/1.1/"
   xmlns:cc="http://creativecommons.org/ns#"
   xmlns:rdf="http://www.w3.org/1999/02/22-rdf-syntax-ns#"
   xmlns:svg="http://www.w3.org/2000/svg"
   xmlns="http://www.w3.org/2000/svg"
   xmlns:sodipodi="http://sodipodi.sourceforge.net/DTD/sodipodi-0.dtd"
   xmlns:inkscape="http://www.inkscape.org/namespaces/inkscape"
   width="64px"
   height="64px"
   id="svg6906"
   version="1.1"
   inkscape:version="0.91 r13725"
   sodipodi:docname="PhysicalKeys.svg">
  <defs
     id="defs6908" />
  <sodipodi:namedview
     id="base"
     pagecolor="#ffffff"
     bordercolor="#666666"
     borderopacity="1.0"
     inkscape:pageopacity="0.0"
     inkscape:pageshadow="2"
     inkscape:zoom="5.5"
     inkscape:cx="36.605195"
     inkscape:cy="29.261948"
     inkscape:current-layer="svg6906"
     showgrid="true"
     inkscape:document-units="px"
     inkscape:grid-bbox="true"
     inkscape:window-width="733"
     inkscape:window-height="599"
     inkscape:window-x="21"
     inkscape:window-y="394"
     inkscape:window-maximized="0" />
  <metadata
     id="metadata6911">
    <rdf:RDF>
      <cc:Work
         rdf:about="">
        <dc:type
           rdf:resource="http://purl.org/dc/dcmitype/StillImage" />
        <dc:title />
        <dc:format>image/svg+xml</dc:format>
      </cc:Work>
      <dc:format>image/svg+xml</dc:format>
    </rdf:RDF>
  </metadata>
  <g
     transform="matrix(0.49818182,0,0,0.49818182,7.8184312,6.7272731)"
     id="Captions" />
  <g
     style="font-style:normal;font-weight:normal;font-size:22.08138084px;line-height:125%;font-family:sans-serif;letter-spacing:0px;word-spacing:0px;fill:#000000;fill-opacity:1;stroke:none;stroke-width:1px;stroke-linecap:butt;stroke-linejoin:miter;stroke-opacity:1"
     id="text3416" />
  <g
     style="font-style:normal;font-weight:normal;font-size:22.08138084px;line-height:125%;font-family:sans-serif;letter-spacing:0px;word-spacing:0px;fill:#000000;fill-opacity:1;stroke:none;stroke-width:1px;stroke-linecap:butt;stroke-linejoin:miter;stroke-opacity:1"
     id="text3420" />
  <path
     inkscape:connector-curvature="0"
     id="path3455"
     d="m 19.50363,33.244831 -11.2704783,0 c -1.3040521,0 -2.3610974,1.057046 -2.3610974,2.362136 l 0,11.268403 c 0,1.306647 1.0570453,2.363173 2.3610974,2.363173 l 11.2704783,0 c 1.303534,0 2.362136,-1.056526 2.362136,-2.363173 l 0,-11.268403 c 0,-1.30509 -1.058602,-2.362136 -2.362136,-2.362136 z m -4.970239,9.705409 -2.540645,-1.708294 2.540645,-1.710368 0,3.418662 z m 40.871894,-9.705409 -11.270477,0 c -1.306127,0 -2.363173,1.057046 -2.363173,2.362136 l 0,11.268403 c 0,1.306647 1.057046,2.363173 2.363173,2.363173 l 11.270477,0 c 1.306651,0 2.359024,-1.056526 2.359024,-2.363173 l 0,-11.268403 c 0,-1.30509 -1.052373,-2.362136 -2.359024,-2.362136 z m -6.253014,9.705409 0,-3.418662 2.541683,1.710368 -2.541683,1.708294 z M 37.4542,33.244831 l -11.270998,0 c -1.304052,0 -2.360579,1.057046 -2.360579,2.362136 l 0,11.268403 c 0,1.306647 1.057046,2.363173 2.360579,2.363173 l 11.270998,0 c 1.305609,0 2.363173,-1.056526 2.363173,-2.363173 l 0,-11.268403 c 0,-1.30509 -1.057564,-2.362136 -2.363173,-2.362136 z m -5.592948,9.705409 -1.708812,-2.541683 3.416068,0 -1.707256,2.541683 z m 5.63498,-27.825147 -11.270998,0 c -1.303533,0 -2.362135,1.057046 -2.362135,2.36058 l 0,11.270997 c 0,1.304053 1.058602,2.362136 2.362135,2.362136 l 11.270998,0 c 1.303534,0 2.363174,-1.058083 2.363174,-2.362136 l 0,-11.270997 c 0,-1.303534 -1.05964,-2.36058 -2.363174,-2.36058 z m -7.343792,8.719456 1.708812,-2.541163 1.707774,2.541163 -3.416586,0 z" />
</svg>
