<?xml version="1.0" encoding="UTF-8" standalone="no"?>
<!-- Created with Inkscape (http://www.inkscape.org/) -->

<svg
   xmlns:dc="http://purl.org/dc/elements/1.1/"
   xmlns:cc="http://creativecommons.org/ns#"
   xmlns:rdf="http://www.w3.org/1999/02/22-rdf-syntax-ns#"
   xmlns:svg="http://www.w3.org/2000/svg"
   xmlns="http://www.w3.org/2000/svg"
   xmlns:sodipodi="http://sodipodi.sourceforge.net/DTD/sodipodi-0.dtd"
   xmlns:inkscape="http://www.inkscape.org/namespaces/inkscape"
   width="64px"
   height="64px"
   id="svg3178"
   version="1.1"
   inkscape:version="0.48.5 r10040"
   sodipodi:docname="Tab.svg">
  <defs
     id="defs3180" />
  <sodipodi:namedview
     id="base"
     pagecolor="#ffffff"
     bordercolor="#666666"
     borderopacity="1.0"
     inkscape:pageopacity="0.0"
     inkscape:pageshadow="2"
     inkscape:zoom="11"
     inkscape:cx="39.489637"
     inkscape:cy="33.848052"
     inkscape:current-layer="layer1"
     showgrid="true"
     inkscape:document-units="px"
     inkscape:grid-bbox="true"
     inkscape:window-width="1920"
     inkscape:window-height="1003"
     inkscape:window-x="-9"
     inkscape:window-y="-9"
     inkscape:window-maximized="1"
     inkscape:snap-global="true" />
  <metadata
     id="metadata3183">
    <rdf:RDF>
      <cc:Work
         rdf:about="">
        <dc:format>image/svg+xml</dc:format>
        <dc:type
           rdf:resource="http://purl.org/dc/dcmitype/StillImage" />
        <dc:title />
      </cc:Work>
    </rdf:RDF>
  </metadata>
  <g
     id="layer1"
     inkscape:label="Layer 1"
     inkscape:groupmode="layer">
    <path
       id="path2995-1"
       style="fill:#000000;fill-rule:evenodd"
       d="m 55.548416,52.811853 1.53517,0 c 0.757603,0 1.023443,-0.228603 1.023443,-1.064507 l 0,-18.096626 c 0,-0.788002 -0.250743,-1.064508 -1.023443,-1.064508 l -1.53517,0 c -0.793171,0 -1.023443,0.276506 -1.023443,1.064508 l 0,18.096626 c 0,0.803703 0.245882,1.064507 1.023443,1.064507 z M 42.195254,52.481044 c -0.358499,0.237221 -0.796615,0.378815 -1.270717,0.378815 -1.175356,0 -2.132105,-0.870496 -2.133004,-1.945378 l 0.0017,-2.918887 -26.322945,0 c -1.176704,0 -2.131205,-0.871727 -2.131205,-1.945378 l 0,-6.814569 c 0,-1.073241 0.954501,-1.946199 2.131205,-1.946199 l 26.321594,0 -8.15e-4,-2.918477 c 0,-1.074883 0.956298,-1.945788 2.133003,-1.945788 0.473651,0 0.912218,0.142003 1.267567,0.380455 l 10.746882,8.109026 c 1.047609,0.95422 1.047609,2.500262 0,3.454072 L 42.195259,52.481044 z M 21.798897,31.87276 c 0.359592,0.240094 0.801153,0.379637 1.277133,0.379637 1.187007,0 2.148027,-0.871316 2.148027,-1.946609 l 8.96e-4,-2.918068 26.49912,0 c 1.186555,0 2.148933,-0.872136 2.148933,-1.947018 l 0,-6.812519 c 0,-1.073651 -0.961471,-1.944556 -2.148933,-1.944556 l -26.498666,0 -8.96e-4,-2.919299 c 2e-6,-1.075704 -0.961019,-1.946199 -2.147123,-1.946199 -0.477338,0 -0.918445,0.141596 -1.276677,0.379636 L 10.98087,20.308842 c -1.0529523,0.954221 -1.0529523,2.500263 0,3.454073 l 10.818029,8.109845 z m -14.6864577,0.253091 1.5351699,0 c 0.7576028,0 1.0234424,-0.228603 1.0234424,-1.064507 l 0,-18.096626 c 0,-0.788002 -0.2507434,-1.064508 -1.0234424,-1.064508 l -1.5351699,0 c -0.7931711,0 -1.023443,0.276506 -1.023443,1.064508 l 0,18.096626 c 0,0.803703 0.2458808,1.064507 1.023443,1.064507 z"
       inkscape:connector-curvature="0" />
  </g>
</svg>
