<?xml version="1.0" standalone="no"?>
<!DOCTYPE svg PUBLIC "-//W3C//DTD SVG 1.1//EN" "http://www.w3.org/Graphics/SVG/1.1/DTD/svg11.dtd">
<svg width="100%" height="100%" viewBox="0 0 180 180" version="1.1" xmlns="http://www.w3.org/2000/svg" xmlns:xlink="http://www.w3.org/1999/xlink" xml:space="preserve" style="fill-rule:evenodd;clip-rule:evenodd;stroke-linejoin:round;stroke-miterlimit:1.41421;">
    <g id="path6" transform="matrix(1,0,0,1,-13.0633,-862.079)">
        <path d="M102.816,895.277C71.262,895.277 45.691,920.849 45.691,952.403C45.691,983.957 71.262,1009.53 102.816,1009.53C134.371,1009.53 159.942,983.957 159.942,952.403C159.942,920.849 134.371,895.277 102.816,895.277ZM87.296,914.454C91.222,914.529 94.866,915.831 97.697,918.436C105.247,925.383 104.216,939.056 95.259,948.99C86.345,958.903 72.91,961.329 65.356,954.353C57.806,947.439 58.927,933.717 67.875,923.799C73.454,917.601 80.752,914.331 87.296,914.454ZM134.427,976.781C135.865,976.808 137.21,977.29 138.246,978.243C141.008,980.781 140.638,985.826 137.352,989.457C134.095,993.097 129.144,993.966 126.382,991.408C123.616,988.882 124.067,983.834 127.357,980.194C129.393,977.929 132.029,976.735 134.427,976.781ZM102.816,864.155C54.173,864.155 14.65,903.768 14.65,952.403C14.65,1001.04 54.181,1040.57 102.816,1040.57C151.452,1040.57 191.065,1001.05 191.065,952.403C191.065,903.76 151.46,864.155 102.816,864.155ZM102.816,877.156C144.425,877.156 178.063,910.794 178.063,952.403C178.063,994.012 144.433,1027.57 102.816,1027.57C61.2,1027.57 27.651,994.02 27.651,952.403C27.651,910.786 61.208,877.156 102.816,877.156Z" style="fill:white;fill-rule:nonzero;"/>
    </g>
</svg>
