<?xml version="1.0" standalone="no"?>
<!DOCTYPE svg PUBLIC "-//W3C//DTD SVG 1.1//EN" "http://www.w3.org/Graphics/SVG/1.1/DTD/svg11.dtd">
<svg width="100%" height="100%" viewBox="0 0 1610 440" version="1.1" xmlns="http://www.w3.org/2000/svg" xmlns:xlink="http://www.w3.org/1999/xlink" xml:space="preserve" style="fill-rule:evenodd;clip-rule:evenodd;stroke-linejoin:round;stroke-miterlimit:1.41421;">
    <g id="Layer 2" transform="matrix(1,0,0,1,-257.992,-134.331)">
        <g id="path3373" transform="matrix(1,0,0,1,164.884,53.9319)">
            <path d="M304.074,165.083C229.449,165.083 168.974,225.558 168.974,300.182C168.974,374.807 229.449,435.282 304.074,435.282C378.698,435.282 439.173,374.807 439.173,300.182C439.173,225.558 378.698,165.083 304.074,165.083L304.074,165.083ZM267.368,210.436C276.654,210.611 285.271,213.692 291.967,219.853C309.823,236.282 307.383,268.618 286.202,292.111C265.119,315.555 233.347,321.293 215.481,304.794C197.625,288.444 200.277,255.99 221.438,232.536C234.633,217.878 251.893,210.144 267.368,210.436ZM378.83,357.835C382.232,357.9 385.413,359.04 387.862,361.294C394.395,367.295 393.52,379.226 385.748,387.814C378.045,396.422 366.337,398.477 359.805,392.426C353.263,386.455 354.329,374.514 362.111,365.906C366.925,360.551 373.16,357.726 378.83,357.835L378.83,357.835ZM304.074,91.48C189.035,91.48 95.563,185.162 95.563,300.182C95.563,415.202 189.054,508.693 304.074,508.693C419.094,508.693 512.777,415.221 512.777,300.182C512.777,185.144 419.112,91.48 304.074,91.48L304.074,91.48ZM304.074,122.228C402.477,122.228 482.028,201.779 482.028,300.182C482.028,398.585 402.495,477.945 304.074,477.945C205.652,477.945 126.311,398.604 126.311,300.182C126.311,201.761 205.671,122.228 304.074,122.228L304.074,122.228Z" style="fill:black;fill-rule:nonzero;"/>
        </g>
        <g transform="matrix(1,0,0,1,670.001,489.994)">
            <g id="text3428">
                <path d="M146.625,-201C115.5,-201 91.5,-188.25 76.875,-165L76.875,-199.5L33.75,-199.5L33.75,72.75L76.875,72.75L76.875,-34.5C91.5,-11.25 115.5,1.5 147.375,1.5C204.375,1.5 241.875,-39.375 241.875,-99C241.875,-159.75 203.25,-201 146.625,-201ZM137.625,-35.25C102,-35.25 76.875,-61.875 76.875,-100.5C76.875,-138 102,-165 137.625,-165C173.25,-165 198.375,-137.625 198.375,-100.5C198.375,-62.25 173.25,-35.25 137.625,-35.25Z" style="fill:black;fill-rule:nonzero;"/>
                <path d="M388.875,-45.75C377.25,-40.125 367.875,-37.125 358.875,-37.125C345.375,-37.125 337.5,-43.5 337.5,-64.125L337.5,-159.75L396.375,-159.75L396.375,-192L337.5,-192L337.5,-246.75L294.75,-246.75L294.75,-192L266.625,-192L266.625,-159.75L294.75,-159.75L294.75,-56.25C294.75,-15.375 320.625,1.875 350.625,1.875C367.5,1.875 384,-3.375 399.75,-12.75L388.875,-45.75Z" style="fill:black;fill-rule:nonzero;"/>
                <path d="M460.875,-282.75C446.625,-282.75 435.75,-271.875 435.75,-256.5C435.75,-241.5 446.625,-230.625 460.875,-230.625C475.125,-230.625 486,-241.5 486,-256.5C486,-271.875 475.125,-282.75 460.875,-282.75ZM482.25,0L482.25,-199.5L439.5,-199.5L439.5,0L482.25,0Z" style="fill:black;fill-rule:nonzero;"/>
                <path d="M723.75,0L777,0L668.625,-150.375L770.25,-262.5L718.125,-262.5L592.875,-126.75L592.875,-262.5L548.625,-262.5L548.625,0L592.875,0L592.875,-66.75L637.5,-115.875L723.75,0Z" style="fill:black;fill-rule:nonzero;"/>
                <path d="M897.375,-201C838.125,-200.625 796.5,-159.75 796.5,-99.375C796.5,-39.375 837,1.5 898.5,1.5C933,1.5 961.5,-10.875 981,-32.25L958.125,-56.625C943.5,-41.625 923.625,-33.375 901.875,-33.375C870.375,-33.375 846.75,-52.5 840,-83.25L990.75,-83.25C996,-155.25 967.5,-201 897.375,-201ZM839.25,-114.75C844.125,-146.625 866.25,-166.5 897.75,-166.5C930.375,-166.5 951.75,-147 953.25,-114.75L839.25,-114.75Z" style="fill:black;fill-rule:nonzero;"/>
                <path d="M1197.38,-199.5L1154.25,-199.5L1098.75,-48.375L1039.12,-199.5L994.5,-199.5L1077,-3L1070.25,12C1063.5,27 1053,34.125 1039.88,34.125C1030.88,34.125 1023.38,31.125 1014,24.375L995.625,57.75C1009.5,69.375 1023.75,74.625 1041.75,74.625C1071.75,74.625 1094.25,58.875 1106.62,27.375L1197.38,-199.5Z" style="fill:black;fill-rule:nonzero;"/>
            </g>
        </g>
    </g>
</svg>
