<?xml version="1.0" standalone="no"?>
<!DOCTYPE svg PUBLIC "-//W3C//DTD SVG 1.1//EN" "http://www.w3.org/Graphics/SVG/1.1/DTD/svg11.dtd">
<svg width="100%" height="100%" viewBox="0 0 2126 709" version="1.1" xmlns="http://www.w3.org/2000/svg" xmlns:xlink="http://www.w3.org/1999/xlink" xml:space="preserve" style="fill-rule:evenodd;clip-rule:evenodd;stroke-linejoin:round;stroke-miterlimit:1.41421;">
    <g id="Layer 2">
        <path id="path3373" d="M304.074,165.083C229.449,165.083 168.974,225.558 168.974,300.182C168.974,374.807 229.449,435.282 304.074,435.282C378.698,435.282 439.173,374.807 439.173,300.182C439.173,225.558 378.698,165.083 304.074,165.083ZM267.368,210.436C276.654,210.611 285.271,213.692 291.967,219.853C309.823,236.282 307.383,268.618 286.202,292.111C265.119,315.555 233.347,321.293 215.481,304.794C197.625,288.444 200.277,255.99 221.438,232.536C234.633,217.878 251.893,210.144 267.368,210.436ZM378.83,357.835C382.232,357.9 385.413,359.04 387.862,361.294C394.395,367.295 393.52,379.226 385.748,387.814C378.045,396.422 366.337,398.477 359.805,392.426C353.263,386.455 354.329,374.514 362.111,365.906C366.925,360.551 373.16,357.726 378.83,357.835ZM304.074,91.48C189.035,91.48 95.563,185.162 95.563,300.182C95.563,415.202 189.054,508.693 304.074,508.693C419.094,508.693 512.777,415.221 512.777,300.182C512.777,185.144 419.112,91.48 304.074,91.48ZM304.074,122.228C402.477,122.228 482.028,201.779 482.028,300.182C482.028,398.585 402.495,477.945 304.074,477.945C205.652,477.945 126.311,398.604 126.311,300.182C126.311,201.761 205.671,122.228 304.074,122.228Z" style="fill:white;fill-rule:nonzero;"/>
        <g id="text3428" transform="matrix(1,0,0,1,505.117,436.062)">
            <path d="M146.625,-201C115.5,-201 91.5,-188.25 76.875,-165L76.875,-199.5L33.75,-199.5L33.75,72.75L76.875,72.75L76.875,-34.5C91.5,-11.25 115.5,1.5 147.375,1.5C204.375,1.5 241.875,-39.375 241.875,-99C241.875,-159.75 203.25,-201 146.625,-201ZM137.625,-35.25C102,-35.25 76.875,-61.875 76.875,-100.5C76.875,-138 102,-165 137.625,-165C173.25,-165 198.375,-137.625 198.375,-100.5C198.375,-62.25 173.25,-35.25 137.625,-35.25Z" style="fill:white;fill-rule:nonzero;"/>
            <path d="M388.875,-45.75C377.25,-40.125 367.875,-37.125 358.875,-37.125C345.375,-37.125 337.5,-43.5 337.5,-64.125L337.5,-159.75L396.375,-159.75L396.375,-192L337.5,-192L337.5,-246.75L294.75,-246.75L294.75,-192L266.625,-192L266.625,-159.75L294.75,-159.75L294.75,-56.25C294.75,-15.375 320.625,1.875 350.625,1.875C367.5,1.875 384,-3.375 399.75,-12.75L388.875,-45.75Z" style="fill:white;fill-rule:nonzero;"/>
            <path d="M460.875,-282.75C446.625,-282.75 435.75,-271.875 435.75,-256.5C435.75,-241.5 446.625,-230.625 460.875,-230.625C475.125,-230.625 486,-241.5 486,-256.5C486,-271.875 475.125,-282.75 460.875,-282.75ZM482.25,0L482.25,-199.5L439.5,-199.5L439.5,0L482.25,0Z" style="fill:white;fill-rule:nonzero;"/>
            <path d="M723.75,0L777,0L668.625,-150.375L770.25,-262.5L718.125,-262.5L592.875,-126.75L592.875,-262.5L548.625,-262.5L548.625,0L592.875,0L592.875,-66.75L637.5,-115.875L723.75,0Z" style="fill:white;fill-rule:nonzero;"/>
            <path d="M897.375,-201C838.125,-200.625 796.5,-159.75 796.5,-99.375C796.5,-39.375 837,1.5 898.5,1.5C933,1.5 961.5,-10.875 981,-32.25L958.125,-56.625C943.5,-41.625 923.625,-33.375 901.875,-33.375C870.375,-33.375 846.75,-52.5 840,-83.25L990.75,-83.25C996,-155.25 967.5,-201 897.375,-201ZM839.25,-114.75C844.125,-146.625 866.25,-166.5 897.75,-166.5C930.375,-166.5 951.75,-147 953.25,-114.75L839.25,-114.75Z" style="fill:white;fill-rule:nonzero;"/>
            <path d="M1197.38,-199.5L1154.25,-199.5L1098.75,-48.375L1039.12,-199.5L994.5,-199.5L1077,-3L1070.25,12C1063.5,27 1053,34.125 1039.88,34.125C1030.88,34.125 1023.38,31.125 1014,24.375L995.625,57.75C1009.5,69.375 1023.75,74.625 1041.75,74.625C1071.75,74.625 1094.25,58.875 1106.62,27.375L1197.38,-199.5Z" style="fill:white;fill-rule:nonzero;"/>
        </g>
        <g id="text3432" transform="matrix(1,0,0,1,676.782,621.89)">
            <path d="M85.5,-89.1L85.5,-105L1.35,-105L1.35,-89.1L34.5,-89.1L34.5,0L52.2,0L52.2,-89.1L85.5,-89.1Z" style="fill:white;fill-rule:nonzero;"/>
            <path d="M161.55,-79.8L144.3,-79.8L122.1,-19.35L98.25,-79.8L80.4,-79.8L113.4,-1.2L110.7,4.8C108,10.8 103.8,13.65 98.55,13.65C94.95,13.65 91.95,12.45 88.2,9.75L80.85,23.1C86.4,27.75 92.1,29.85 99.3,29.85C111.3,29.85 120.3,23.55 125.25,10.95L161.55,-79.8Z" style="fill:white;fill-rule:nonzero;"/>
            <path d="M219.45,-80.4C207,-80.4 197.4,-75.3 191.55,-66L191.55,-79.8L174.3,-79.8L174.3,29.1L191.55,29.1L191.55,-13.8C197.4,-4.5 207,0.6 219.75,0.6C242.55,0.6 257.55,-15.75 257.55,-39.6C257.55,-63.9 242.1,-80.4 219.45,-80.4ZM215.85,-14.1C201.6,-14.1 191.55,-24.75 191.55,-40.2C191.55,-55.2 201.6,-66 215.85,-66C230.1,-66 240.15,-55.05 240.15,-40.2C240.15,-24.9 230.1,-14.1 215.85,-14.1Z" style="fill:white;fill-rule:nonzero;"/>
            <path d="M308.4,-80.4C284.7,-80.25 268.05,-63.9 268.05,-39.75C268.05,-15.75 284.25,0.6 308.85,0.6C322.65,0.6 334.05,-4.35 341.85,-12.9L332.7,-22.65C326.85,-16.65 318.9,-13.35 310.2,-13.35C297.6,-13.35 288.15,-21 285.45,-33.3L345.75,-33.3C347.85,-62.1 336.45,-80.4 308.4,-80.4ZM285.15,-45.9C287.1,-58.65 295.95,-66.6 308.55,-66.6C321.6,-66.6 330.15,-58.8 330.75,-45.9L285.15,-45.9Z" style="fill:white;fill-rule:nonzero;"/>
            <path d="M405.6,-52.5C400.5,-52.5 396.6,-48.6 396.6,-43.05C396.6,-37.65 400.5,-33.6 405.6,-33.6C410.7,-33.6 414.6,-37.65 414.6,-43.05C414.6,-48.6 410.7,-52.5 405.6,-52.5Z" style="fill:white;fill-rule:nonzero;"/>
            <path d="M520.5,-105.45C489.45,-105.45 465.3,-82.5 465.3,-52.65C465.3,-22.5 489.15,0.75 519.9,0.75C534.75,0.75 549.9,-6 560.55,-16.5L550.05,-28.2C542.1,-20.55 531.3,-15.75 520.8,-15.75C499.8,-15.75 483.3,-32.1 483.3,-52.8C483.3,-73.5 499.8,-89.7 520.8,-89.7C531.45,-89.7 542.4,-84.6 550.05,-76.35L560.4,-89.25C550.2,-99.3 535.35,-105.45 520.5,-105.45Z" style="fill:white;fill-rule:nonzero;"/>
            <rect x="578.25" y="-111.3" width="17.25" height="111.3" style="fill:white;"/>
            <path d="M630.3,-113.1C624.6,-113.1 620.25,-108.75 620.25,-102.6C620.25,-96.6 624.6,-92.25 630.3,-92.25C636,-92.25 640.35,-96.6 640.35,-102.6C640.35,-108.75 636,-113.1 630.3,-113.1ZM638.85,0L638.85,-79.8L621.75,-79.8L621.75,0L638.85,0Z" style="fill:white;fill-rule:nonzero;"/>
            <path d="M697.05,-80.4C673.35,-80.4 656.85,-63.9 656.85,-39.75C656.85,-15.75 673.35,0.6 697.05,0.6C712.2,0.6 723.75,-4.8 730.95,-14.25L721.35,-23.85C715.95,-17.55 707.85,-14.25 697.8,-14.25C684,-14.25 674.1,-24.6 674.1,-39.75C674.1,-54.9 684,-65.25 697.8,-65.25C707.4,-65.4 715.05,-61.95 720.6,-56.25L730.05,-67.35C722.7,-75.75 711.45,-80.4 697.05,-80.4Z" style="fill:white;fill-rule:nonzero;"/>
            <path d="M780.45,-36.6L803.85,0L824.25,0L792.45,-48.9L822,-79.8L802.2,-79.8L766.95,-44.1L766.95,-111.3L749.7,-111.3L749.7,0L766.95,0L766.95,-22.35L780.45,-36.6Z" style="fill:white;fill-rule:nonzero;"/>
            <path d="M880.05,-52.5C874.95,-52.5 871.05,-48.6 871.05,-43.05C871.05,-37.65 874.95,-33.6 880.05,-33.6C885.15,-33.6 889.05,-37.65 889.05,-43.05C889.05,-48.6 885.15,-52.5 880.05,-52.5Z" style="fill:white;fill-rule:nonzero;"/>
            <path d="M982.95,-105.75C960.15,-105.75 944.7,-94.5 944.7,-76.5C944.7,-39.15 1001.4,-52.2 1001.4,-28.8C1001.4,-20.7 994.05,-16.05 981.75,-16.05C970.5,-16.05 957,-21.45 946.2,-31.35L938.55,-16.05C949.35,-6.15 964.95,0.6 981.45,0.6C1004.55,0.6 1021.05,-10.95 1021.05,-29.7C1021.2,-67.5 964.5,-55.2 964.5,-78.15C964.5,-85.2 971.25,-89.1 981.6,-89.1C989.55,-89.1 1000.95,-86.25 1012.35,-79.35L1019.7,-94.95C1009.95,-101.4 996.6,-105.75 982.95,-105.75Z" style="fill:white;fill-rule:nonzero;"/>
            <path d="M1086.6,-80.4C1074.15,-80.4 1064.55,-75.3 1058.7,-66L1058.7,-79.8L1041.45,-79.8L1041.45,29.1L1058.7,29.1L1058.7,-13.8C1064.55,-4.5 1074.15,0.6 1086.9,0.6C1109.7,0.6 1124.7,-15.75 1124.7,-39.6C1124.7,-63.9 1109.25,-80.4 1086.6,-80.4ZM1083,-14.1C1068.75,-14.1 1058.7,-24.75 1058.7,-40.2C1058.7,-55.2 1068.75,-66 1083,-66C1097.25,-66 1107.3,-55.05 1107.3,-40.2C1107.3,-24.9 1097.25,-14.1 1083,-14.1Z" style="fill:white;fill-rule:nonzero;"/>
            <path d="M1175.55,-80.4C1151.85,-80.25 1135.2,-63.9 1135.2,-39.75C1135.2,-15.75 1151.4,0.6 1176,0.6C1189.8,0.6 1201.2,-4.35 1209,-12.9L1199.85,-22.65C1194,-16.65 1186.05,-13.35 1177.35,-13.35C1164.75,-13.35 1155.3,-21 1152.6,-33.3L1212.9,-33.3C1215,-62.1 1203.6,-80.4 1175.55,-80.4ZM1152.3,-45.9C1154.25,-58.65 1163.1,-66.6 1175.7,-66.6C1188.75,-66.6 1197.3,-58.8 1197.9,-45.9L1152.3,-45.9Z" style="fill:white;fill-rule:nonzero;"/>
            <path d="M1278.75,0L1295.7,0L1295.55,-52.35C1295.4,-69.9 1283.85,-80.4 1263.3,-80.4C1248.15,-80.4 1240.05,-76.95 1228.95,-70.35L1236,-58.35C1243.95,-63.75 1251.9,-66.45 1259.55,-66.45C1272.15,-66.45 1278.6,-60.45 1278.6,-50.4L1278.6,-48L1254.45,-48C1235.25,-47.85 1224.3,-38.55 1224.3,-24C1224.3,-9.9 1235.1,0.75 1252.35,0.75C1263.9,0.75 1273.05,-2.7 1278.75,-9.75L1278.75,0ZM1255.95,-12.9C1246.35,-12.9 1240.5,-17.55 1240.5,-24.75C1240.5,-32.4 1245.75,-35.4 1257,-35.4L1278.6,-35.4L1278.6,-28.05C1277.7,-19.35 1268.25,-12.9 1255.95,-12.9Z" style="fill:white;fill-rule:nonzero;"/>
            <path d="M1350.3,-36.6L1373.7,0L1394.1,0L1362.3,-48.9L1391.85,-79.8L1372.05,-79.8L1336.8,-44.1L1336.8,-111.3L1319.55,-111.3L1319.55,0L1336.8,0L1336.8,-22.35L1350.3,-36.6Z" style="fill:white;fill-rule:nonzero;"/>
        </g>
    </g>
</svg>
