<?xml version="1.0" encoding="UTF-8" standalone="no"?>
<!-- Created with Inkscape (http://www.inkscape.org/) -->

<svg
   xmlns:dc="http://purl.org/dc/elements/1.1/"
   xmlns:cc="http://creativecommons.org/ns#"
   xmlns:rdf="http://www.w3.org/1999/02/22-rdf-syntax-ns#"
   xmlns:svg="http://www.w3.org/2000/svg"
   xmlns="http://www.w3.org/2000/svg"
   xmlns:sodipodi="http://sodipodi.sourceforge.net/DTD/sodipodi-0.dtd"
   xmlns:inkscape="http://www.inkscape.org/namespaces/inkscape"
   width="64px"
   height="64px"
   id="svg6906"
   version="1.1"
   inkscape:version="0.48.5 r10040"
   sodipodi:docname="Alpha.svg">
  <defs
     id="defs6908" />
  <sodipodi:namedview
     id="base"
     pagecolor="#ffffff"
     bordercolor="#666666"
     borderopacity="1.0"
     inkscape:pageopacity="0.0"
     inkscape:pageshadow="2"
     inkscape:zoom="5.5"
     inkscape:cx="33.139164"
     inkscape:cy="37.133647"
     inkscape:current-layer="svg6906"
     showgrid="true"
     inkscape:document-units="px"
     inkscape:grid-bbox="true"
     inkscape:window-width="747"
     inkscape:window-height="593"
     inkscape:window-x="676"
     inkscape:window-y="176"
     inkscape:window-maximized="0" />
  <metadata
     id="metadata6911">
    <rdf:RDF>
      <cc:Work
         rdf:about="">
        <dc:type
           rdf:resource="http://purl.org/dc/dcmitype/StillImage" />
        <dc:title></dc:title>
        <dc:format>image/svg+xml</dc:format>
      </cc:Work>
      <dc:format>image/svg+xml</dc:format>
    </rdf:RDF>
  </metadata>
  <g
     style="font-size:30.33462524px;font-style:normal;font-variant:normal;font-weight:normal;font-stretch:normal;line-height:125%;letter-spacing:0px;word-spacing:0px;fill:#000000;fill-opacity:1;stroke:none;font-family:Roboto;-inkscape-font-specification:Roboto"
     id="text3051" />
  <g
     style="font-size:30.33462524px;font-style:normal;font-variant:normal;font-weight:normal;font-stretch:normal;line-height:125%;letter-spacing:0px;word-spacing:0px;fill:#000000;fill-opacity:1;stroke:none;font-family:Roboto;-inkscape-font-specification:Roboto"
     id="text3055" />
  <g
     style="font-size:30.33462524px;font-style:normal;font-variant:normal;font-weight:normal;font-stretch:normal;line-height:125%;letter-spacing:0px;word-spacing:0px;fill:#000000;fill-opacity:1;stroke:none;font-family:Roboto;-inkscape-font-specification:Roboto"
     id="text3059">
    <path
       id="path3109"
       style=""
       d="m 60.213412,30.886653 c -0.04939,1.125705 -0.291318,2.155126 -0.72578,3.088266 -0.434498,0.933149 -1.036845,1.732987 -1.807043,2.399517 -0.770231,0.666533 -1.6935,1.184947 -2.769812,1.555242 -1.076339,0.370295 -2.281033,0.555443 -3.614086,0.555443 -1.441693,0 -2.727853,-0.241926 -3.858481,-0.725779 -1.130642,-0.483852 -2.088472,-1.177539 -2.873495,-2.081062 -0.78503,-0.903518 -1.38244,-2.00453 -1.792231,-3.303038 -0.409796,-1.298497 -0.614692,-2.75746 -0.614691,-4.376895 l 0,-1.170135 c -10e-7,-1.619414 0.21477,-3.078377 0.644314,-4.376895 0.429541,-1.298487 1.041763,-2.401967 1.836667,-3.310444 0.794897,-0.908439 1.750259,-1.607063 2.866089,-2.095874 1.115817,-0.488768 2.360009,-0.733163 3.732581,-0.733185 1.402175,2.2e-5 2.643898,0.195044 3.725175,0.585067 1.081248,0.390066 1.997112,0.930697 2.747594,1.621895 0.750449,0.691238 1.337984,1.510825 1.762607,2.458764 0.424587,0.947973 0.686263,1.979863 0.785027,3.095672 l -5.18414,0 c -0.01976,-0.602333 -0.101228,-1.135558 -0.244395,-1.599678 -0.143194,-0.464087 -0.36784,-0.849194 -0.673938,-1.155322 -0.306124,-0.306094 -0.696168,-0.538146 -1.170134,-0.696156 -0.47399,-0.157975 -1.056588,-0.236972 -1.747796,-0.236989 -0.641856,1.7e-5 -1.199767,0.118512 -1.673737,0.355483 -0.473986,0.237007 -0.868968,0.61224 -1.184946,1.125699 -0.315993,0.513493 -0.550513,1.177556 -0.703562,1.992191 -0.153062,0.814665 -0.22959,1.794713 -0.229583,2.940148 l 0,1.199759 c -7e-6,1.145457 0.06911,2.123036 0.207365,2.932742 0.138237,0.809719 0.357946,1.473782 0.659127,1.992191 0.301166,0.518418 0.696148,0.89612 1.184946,1.133105 0.488781,0.236993 1.08866,0.355487 1.799637,0.355483 1.19481,4e-6 2.108205,-0.28142 2.740188,-0.844274 0.631958,-0.562844 0.967693,-1.45649 1.007205,-2.680941 z m -34.936051,17.413773 0,-21.566022 7.746586,0 c 1.333054,2.1e-5 2.525405,0.120985 3.577057,0.36289 1.051626,0.241947 1.942803,0.609774 2.673535,1.103481 0.730701,0.493747 1.288612,1.113375 1.673737,1.858884 0.38509,0.745547 0.577643,1.621912 0.577661,2.6291 -1.8e-5,0.493743 -0.05433,0.970189 -0.16293,1.429341 -0.108638,0.459181 -0.283911,0.891192 -0.52582,1.296035 -0.241943,0.40487 -0.55546,0.767759 -0.940551,1.08867 -0.385123,0.320934 -0.854164,0.585078 -1.407124,0.792433 0.641831,0.167878 1.184931,0.409804 1.629301,0.725779 0.444338,0.315996 0.804759,0.681354 1.081264,1.096076 0.27647,0.41474 0.476429,0.861563 0.599879,1.34047 0.123414,0.478923 0.185129,0.965245 0.185148,1.458965 -1.9e-5,2.132908 -0.681362,3.730115 -2.044033,4.791627 -1.362703,1.061515 -3.382047,1.592271 -6.058038,1.592271 z m 5.198952,-9.168522 0,5.169329 3.40672,0 c 0.523341,4e-6 0.970164,-0.06418 1.340471,-0.192554 0.370284,-0.128365 0.671457,-0.303638 0.903522,-0.52582 0.232039,-0.222172 0.402375,-0.481379 0.511008,-0.777621 0.108607,-0.296231 0.162917,-0.617153 0.16293,-0.962769 -1.3e-5,-0.414724 -0.04939,-0.789957 -0.148119,-1.125699 -0.09876,-0.335727 -0.256751,-0.61962 -0.473978,-0.85168 -0.217253,-0.232043 -0.498677,-0.412254 -0.844274,-0.540632 -0.345621,-0.12836 -0.765289,-0.192544 -1.259006,-0.192554 z m 0,-3.40672 2.710565,0 c 1.135562,-0.0099 1.945275,-0.217227 2.429139,-0.622097 0.483841,-0.404843 0.725767,-1.002253 0.72578,-1.792231 -1.3e-5,-0.908443 -0.261688,-1.562632 -0.785027,-1.962568 -0.523363,-0.399902 -1.367636,-0.599861 -2.532823,-0.599879 l -2.547634,0 z m -13.356497,-2.852039 -7.1244894,0 -1.2441936,4.028817 -5.5544357,0 7.9095167,-21.566022 4.887903,0 7.968764,21.566022 -5.584059,0 z m -5.880296,-4.014006 4.636103,0 -2.325457,-7.479973 z" />
  </g>
</svg>
