<?xml version="1.0" encoding="UTF-8" standalone="no"?>
<!-- Created with Inkscape (http://www.inkscape.org/) -->

<svg
   xmlns:dc="http://purl.org/dc/elements/1.1/"
   xmlns:cc="http://creativecommons.org/ns#"
   xmlns:rdf="http://www.w3.org/1999/02/22-rdf-syntax-ns#"
   xmlns:svg="http://www.w3.org/2000/svg"
   xmlns="http://www.w3.org/2000/svg"
   xmlns:sodipodi="http://sodipodi.sourceforge.net/DTD/sodipodi-0.dtd"
   xmlns:inkscape="http://www.inkscape.org/namespaces/inkscape"
   width="64px"
   height="64px"
   id="svg4427"
   version="1.1"
   inkscape:version="0.48.5 r10040"
   sodipodi:docname="ArrowPointingToBottomLeft.xaml">
  <defs
     id="defs4429" />
  <sodipodi:namedview
     id="base"
     pagecolor="#ffffff"
     bordercolor="#666666"
     borderopacity="1.0"
     inkscape:pageopacity="0.0"
     inkscape:pageshadow="2"
     inkscape:zoom="11"
     inkscape:cx="25.838674"
     inkscape:cy="31.152154"
     inkscape:current-layer="svg4427"
     showgrid="true"
     inkscape:document-units="px"
     inkscape:grid-bbox="true"
     inkscape:window-width="1920"
     inkscape:window-height="1003"
     inkscape:window-x="-9"
     inkscape:window-y="-9"
     inkscape:window-maximized="1" />
  <metadata
     id="metadata4432">
    <rdf:RDF>
      <cc:Work
         rdf:about="">
        <dc:format>image/svg+xml</dc:format>
        <dc:type
           rdf:resource="http://purl.org/dc/dcmitype/StillImage" />
        <dc:title></dc:title>
      </cc:Work>
    </rdf:RDF>
  </metadata>
  <g
     transform="matrix(0.50907359,0,0,0.50907359,7.9099759,5.0928745)"
     id="g3" />
  <path
     d="m 47.065251,9.4065848 c -0.744012,0.0045 -1.49492,0.1555352 -2.218752,0.5625018 L 14.002749,27.656586 c -0.707558,0.558882 -1.093088,0.880585 -1.468751,1.531245 -1.20964,2.095155 -0.501407,4.759111 1.593749,5.96875 l 31.21875,18.031251 c 2.095156,1.209638 4.759113,0.470154 5.968749,-1.625001 0.375437,-0.650276 0.463687,-1.138433 0.593751,-2.03125 L 51.784,13.969085 C 51.76467,12.308181 50.920149,11.06779 49.690251,10.062835 L 49.31525,9.8440856 C 48.572229,9.5625379 47.809261,9.4020417 47.065251,9.4065848 z m -3.25,6.8437492 c 0.507936,-0.0031 0.992737,0.120289 1.499999,0.312501 l 0.28125,0.124999 c 0.839655,0.686084 1.424299,1.5536 1.437501,2.6875 l 0.0625,24.281249 c -0.08879,0.609529 -0.118689,0.931057 -0.375,1.375001 -0.825823,1.430365 -2.663383,1.919571 -4.09375,1.093752 l -21.3125,-12.281253 c -1.430365,-0.825821 -1.919573,-2.66338 -1.093749,-4.09375 0.256463,-0.444206 0.548198,-0.649696 1.031249,-1.031247 l 21.03125,-12.0625 c 0.494162,-0.277837 1.023314,-0.403149 1.531251,-0.406253 z"
     id="path3"
     inkscape:connector-curvature="0" />
</svg>
