<?xml version="1.0" encoding="UTF-8" standalone="no"?>
<!-- Created with Inkscape (http://www.inkscape.org/) -->

<svg
   xmlns:dc="http://purl.org/dc/elements/1.1/"
   xmlns:cc="http://creativecommons.org/ns#"
   xmlns:rdf="http://www.w3.org/1999/02/22-rdf-syntax-ns#"
   xmlns:svg="http://www.w3.org/2000/svg"
   xmlns="http://www.w3.org/2000/svg"
   xmlns:sodipodi="http://sodipodi.sourceforge.net/DTD/sodipodi-0.dtd"
   xmlns:inkscape="http://www.inkscape.org/namespaces/inkscape"
   width="64px"
   height="64px"
   id="svg4427"
   version="1.1"
   inkscape:version="0.48.5 r10040"
   sodipodi:docname="ArrowPointingToRightBoundary.xaml">
  <defs
     id="defs4429" />
  <sodipodi:namedview
     id="base"
     pagecolor="#ffffff"
     bordercolor="#666666"
     borderopacity="1.0"
     inkscape:pageopacity="0.0"
     inkscape:pageshadow="2"
     inkscape:zoom="11"
     inkscape:cx="28.609516"
     inkscape:cy="31.152154"
     inkscape:current-layer="svg4427"
     showgrid="true"
     inkscape:document-units="px"
     inkscape:grid-bbox="true"
     inkscape:window-width="1920"
     inkscape:window-height="1003"
     inkscape:window-x="-9"
     inkscape:window-y="-9"
     inkscape:window-maximized="1" />
  <metadata
     id="metadata4432">
    <rdf:RDF>
      <cc:Work
         rdf:about="">
        <dc:format>image/svg+xml</dc:format>
        <dc:type
           rdf:resource="http://purl.org/dc/dcmitype/StillImage" />
        <dc:title></dc:title>
      </cc:Work>
    </rdf:RDF>
  </metadata>
  <g
     transform="matrix(0.50907359,0,0,0.50907359,7.9099759,5.0928745)"
     id="g3" />
  <path
     id="path19"
     d="M 50.855163,28.683953 27.772915,51.766198 c -1.275062,1.275064 -1.274758,3.341696 -2e-6,4.616452 1.274756,1.274756 3.341387,1.275062 4.616452,-2e-6 L 55.471611,33.300402 c 1.274754,-1.274755 1.274756,-3.341692 0,-4.616449 -1.274755,-1.274756 -3.341693,-1.274756 -4.616448,0 z M 7.7921128,8.430611 c -1.585147,1.585148 -1.585914,4.157377 0,5.743295 l 18.9138242,18.913823 -8.470213,-7.43e-4 c -2.24295,-7.41e-4 -4.061656,1.817946 -4.060891,4.060893 -0.0016,2.242185 1.817178,4.060895 4.060891,4.060893 l 18.270573,7.72e-4 c 0.268784,7.64e-4 0.536807,-0.0268 0.800232,-0.0804 0.117932,-0.02298 0.225139,-0.06586 0.338475,-0.09956 0.140141,-0.04058 0.283335,-0.07352 0.419641,-0.130167 0.13248,-0.0559 0.254237,-0.131709 0.37906,-0.199866 0.10643,-0.05744 0.217475,-0.105682 0.318558,-0.173059 0.44415,-0.297122 0.827034,-0.680004 1.125687,-1.125687 0.0674,-0.101088 0.114862,-0.211354 0.172306,-0.317794 0.06815,-0.126344 0.143964,-0.246579 0.201399,-0.38059 0.05513,-0.134778 0.08729,-0.278742 0.129413,-0.418877 0.03369,-0.113338 0.07658,-0.220544 0.09954,-0.338473 0.0536,-0.263423 0.0804,-0.529149 0.07965,-0.799465 L 40.569494,18.87503 c -10e-7,-1.121089 -0.454103,-2.137269 -1.18848,-2.871647 -0.734374,-0.734376 -1.750556,-1.19001 -2.871647,-1.18848 -2.242183,-0.0016 -4.060891,1.817179 -4.06166,4.061659 l 0.0016,8.469443 L 13.53625,8.43295 C 11.950346,6.84549 9.3788678,6.843969 7.7921858,8.43065 z"
     inkscape:connector-curvature="0" />
</svg>
