<?xml version="1.0" encoding="UTF-8" standalone="no"?>
<!-- Created with Inkscape (http://www.inkscape.org/) -->

<svg
   xmlns:dc="http://purl.org/dc/elements/1.1/"
   xmlns:cc="http://creativecommons.org/ns#"
   xmlns:rdf="http://www.w3.org/1999/02/22-rdf-syntax-ns#"
   xmlns:svg="http://www.w3.org/2000/svg"
   xmlns="http://www.w3.org/2000/svg"
   xmlns:sodipodi="http://sodipodi.sourceforge.net/DTD/sodipodi-0.dtd"
   xmlns:inkscape="http://www.inkscape.org/namespaces/inkscape"
   width="64px"
   height="64px"
   id="svg4427"
   version="1.1"
   inkscape:version="0.48.5 r10040"
   sodipodi:docname="ArrowPointingToBottomBoundary.xaml">
  <defs
     id="defs4429" />
  <sodipodi:namedview
     id="base"
     pagecolor="#ffffff"
     bordercolor="#666666"
     borderopacity="1.0"
     inkscape:pageopacity="0.0"
     inkscape:pageshadow="2"
     inkscape:zoom="11"
     inkscape:cx="28.609516"
     inkscape:cy="31.152154"
     inkscape:current-layer="svg4427"
     showgrid="true"
     inkscape:document-units="px"
     inkscape:grid-bbox="true"
     inkscape:window-width="1920"
     inkscape:window-height="1003"
     inkscape:window-x="-9"
     inkscape:window-y="-9"
     inkscape:window-maximized="1" />
  <metadata
     id="metadata4432">
    <rdf:RDF>
      <cc:Work
         rdf:about="">
        <dc:format>image/svg+xml</dc:format>
        <dc:type
           rdf:resource="http://purl.org/dc/dcmitype/StillImage" />
        <dc:title></dc:title>
      </cc:Work>
    </rdf:RDF>
  </metadata>
  <g
     transform="matrix(0.50907359,0,0,0.50907359,7.9099759,5.0928745)"
     id="g3" />
  <path
     id="path19"
     d="M 35.621085,51.537935 12.53884,28.455687 c -1.275064,-1.275063 -3.341696,-1.274758 -4.6164519,-2e-6 -1.2747558,1.274756 -1.2750627,3.341387 2.2e-6,4.616452 L 31.004636,56.154383 c 1.274754,1.274754 3.341692,1.274756 4.616448,0 1.274757,-1.274756 1.274757,-3.341694 10e-7,-4.616448 z M 55.874426,8.4748848 c -1.585148,-1.585147 -4.157377,-1.585914 -5.743294,0 l -18.913824,18.9138242 7.44e-4,-8.470213 c 7.41e-4,-2.24295 -1.817947,-4.061656 -4.060894,-4.060891 -2.242184,-0.0016 -4.060894,1.817178 -4.060892,4.060891 l -7.72e-4,18.270573 c -7.64e-4,0.268784 0.0268,0.536806 0.0804,0.800232 0.02298,0.117931 0.06586,0.225138 0.09956,0.338475 0.04058,0.140141 0.07352,0.283335 0.130167,0.419641 0.0559,0.13248 0.131709,0.254236 0.199867,0.37906 0.05744,0.106429 0.105681,0.217475 0.173059,0.318558 0.297121,0.44415 0.680003,0.827033 1.125686,1.125686 0.101088,0.0674 0.211355,0.114863 0.317794,0.172307 0.126344,0.06815 0.24658,0.143964 0.380591,0.201399 0.134778,0.05513 0.278742,0.08729 0.418876,0.129413 0.113339,0.03369 0.220545,0.07658 0.338474,0.09954 0.263422,0.0536 0.529149,0.0804 0.799464,0.07965 l 18.270576,-7.64e-4 c 1.121089,0 2.13727,-0.454102 2.871647,-1.188479 0.734377,-0.734374 1.190011,-1.750557 1.18848,-2.871648 0.0016,-2.242182 -1.817178,-4.060891 -4.061659,-4.061659 l -8.469442,0.0016 18.913053,-18.913058 c 1.58746,-1.585904 1.588981,-4.157382 0.0023,-5.7440652 z"
     inkscape:connector-curvature="0" />
</svg>
