<?xml version="1.0" encoding="UTF-8" standalone="no"?>
<!-- Created with Inkscape (http://www.inkscape.org/) -->

<svg
   xmlns:dc="http://purl.org/dc/elements/1.1/"
   xmlns:cc="http://creativecommons.org/ns#"
   xmlns:rdf="http://www.w3.org/1999/02/22-rdf-syntax-ns#"
   xmlns:svg="http://www.w3.org/2000/svg"
   xmlns="http://www.w3.org/2000/svg"
   xmlns:sodipodi="http://sodipodi.sourceforge.net/DTD/sodipodi-0.dtd"
   xmlns:inkscape="http://www.inkscape.org/namespaces/inkscape"
   width="64px"
   height="64px"
   id="svg4427"
   version="1.1"
   inkscape:version="0.48.5 r10040"
   sodipodi:docname="ArrowPointingToTopRight.xaml">
  <defs
     id="defs4429" />
  <sodipodi:namedview
     id="base"
     pagecolor="#ffffff"
     bordercolor="#666666"
     borderopacity="1.0"
     inkscape:pageopacity="0.0"
     inkscape:pageshadow="2"
     inkscape:zoom="11"
     inkscape:cx="25.838674"
     inkscape:cy="31.152154"
     inkscape:current-layer="svg4427"
     showgrid="true"
     inkscape:document-units="px"
     inkscape:grid-bbox="true"
     inkscape:window-width="1920"
     inkscape:window-height="1003"
     inkscape:window-x="-9"
     inkscape:window-y="-9"
     inkscape:window-maximized="1" />
  <metadata
     id="metadata4432">
    <rdf:RDF>
      <cc:Work
         rdf:about="">
        <dc:format>image/svg+xml</dc:format>
        <dc:type
           rdf:resource="http://purl.org/dc/dcmitype/StillImage" />
        <dc:title></dc:title>
      </cc:Work>
    </rdf:RDF>
  </metadata>
  <g
     transform="matrix(0.50907359,0,0,0.50907359,7.9099759,5.0928745)"
     id="g3" />
  <path
     d="m 15.9188,53.207153 c 0.744012,-0.0045 1.494919,-0.155534 2.218751,-0.5625 l 30.84375,-17.687499 c 0.707559,-0.558883 1.093089,-0.880587 1.468752,-1.531247 1.209639,-2.095155 0.501407,-4.759111 -1.59375,-5.968749 L 17.637554,9.4259066 c -2.095156,-1.2096384 -4.759113,-0.4701546 -5.96875,1.6250004 -0.375436,0.650276 -0.463687,1.138434 -0.593751,2.031251 l 0.124998,35.562496 c 0.01933,1.660904 0.863851,2.901295 2.093749,3.90625 l 0.375001,0.21875 c 0.743021,0.281547 1.505989,0.442043 2.249999,0.437499 z m 3.25,-6.843748 c -0.507936,0.0031 -0.992737,-0.120288 -1.499999,-0.312501 l -0.28125,-0.125 c -0.839655,-0.686084 -1.424299,-1.5536 -1.437501,-2.6875 l -0.0625,-24.281249 c 0.08879,-0.609529 0.118689,-0.931056 0.375,-1.375 0.825823,-1.430366 2.663383,-1.919572 4.09375,-1.093751 l 21.3125,12.281251 c 1.430366,0.825822 1.919573,2.663382 1.093749,4.09375 -0.256463,0.444207 -0.548199,0.649697 -1.031249,1.031249 l -21.03125,12.0625 c -0.494162,0.277837 -1.023314,0.403149 -1.531251,0.406251 z"
     id="path3"
     inkscape:connector-curvature="0" />
</svg>
