<?xml version="1.0" encoding="UTF-8" standalone="no"?>
<!-- Created with Inkscape (http://www.inkscape.org/) -->

<svg
   xmlns:dc="http://purl.org/dc/elements/1.1/"
   xmlns:cc="http://creativecommons.org/ns#"
   xmlns:rdf="http://www.w3.org/1999/02/22-rdf-syntax-ns#"
   xmlns:svg="http://www.w3.org/2000/svg"
   xmlns="http://www.w3.org/2000/svg"
   xmlns:sodipodi="http://sodipodi.sourceforge.net/DTD/sodipodi-0.dtd"
   xmlns:inkscape="http://www.inkscape.org/namespaces/inkscape"
   width="64px"
   height="64px"
   id="svg4427"
   version="1.1"
   inkscape:version="0.48.5 r10040"
   sodipodi:docname="ArrowPointingToRight.xaml">
  <defs
     id="defs4429" />
  <sodipodi:namedview
     id="base"
     pagecolor="#ffffff"
     bordercolor="#666666"
     borderopacity="1.0"
     inkscape:pageopacity="0.0"
     inkscape:pageshadow="2"
     inkscape:zoom="11"
     inkscape:cx="25.838674"
     inkscape:cy="31.152154"
     inkscape:current-layer="svg4427"
     showgrid="true"
     inkscape:document-units="px"
     inkscape:grid-bbox="true"
     inkscape:window-width="1920"
     inkscape:window-height="1003"
     inkscape:window-x="-9"
     inkscape:window-y="-9"
     inkscape:window-maximized="1" />
  <metadata
     id="metadata4432">
    <rdf:RDF>
      <cc:Work
         rdf:about="">
        <dc:format>image/svg+xml</dc:format>
        <dc:type
           rdf:resource="http://purl.org/dc/dcmitype/StillImage" />
        <dc:title></dc:title>
      </cc:Work>
    </rdf:RDF>
  </metadata>
  <g
     transform="matrix(0.50907359,0,0,0.50907359,7.9099759,5.0928745)"
     id="g3" />
  <path
     d="m 11.122594,42.460108 c 0.529278,0.522913 1.167047,0.947088 1.966642,1.171146 l 34.316775,9.302874 c 0.895509,0.10513 1.395599,0.150262 2.121319,-0.04419 2.336843,-0.626154 3.719748,-3.010651 3.093592,-5.347494 L 43.295953,12.717434 C 42.669797,10.380592 40.263201,9.0197838 37.92636,9.6459396 37.201072,9.8402808 36.79349,10.123058 36.070204,10.662406 L 11.012109,35.897274 c -1.1607681,1.188105 -1.4406905,2.66236 -1.2816317,4.24264 l 0.1104861,0.419845 c 0.3263116,0.724479 0.7523236,1.377467 1.2816306,1.900349 z m 7.137358,-2.541164 c -0.361357,-0.356973 -0.616915,-0.787028 -0.839688,-1.281631 l -0.110486,-0.287262 c -0.108591,-1.078861 0.09143,-2.105693 0.883883,-2.916816 l 17.125242,-17.21363 c 0.493786,-0.368218 0.742282,-0.574431 1.237437,-0.707107 1.595366,-0.427477 3.240638,0.525954 3.668117,2.121319 l 6.386057,23.75437 c 0.427477,1.595365 -0.525952,3.240638 -2.121321,3.668115 -0.495448,0.132755 -0.84704,0.07177 -1.458406,0 L 19.629972,40.714438 C 19.084086,40.561473 18.62131,40.275915 18.259951,39.918943 z"
     id="path3"
     inkscape:connector-curvature="0" />
</svg>
