<?xml version="1.0" encoding="UTF-8" standalone="no"?>
<!-- Created with Inkscape (http://www.inkscape.org/) -->

<svg
   xmlns:dc="http://purl.org/dc/elements/1.1/"
   xmlns:cc="http://creativecommons.org/ns#"
   xmlns:rdf="http://www.w3.org/1999/02/22-rdf-syntax-ns#"
   xmlns:svg="http://www.w3.org/2000/svg"
   xmlns="http://www.w3.org/2000/svg"
   xmlns:sodipodi="http://sodipodi.sourceforge.net/DTD/sodipodi-0.dtd"
   xmlns:inkscape="http://www.inkscape.org/namespaces/inkscape"
   width="64px"
   height="64px"
   id="svg4427"
   version="1.1"
   inkscape:version="0.48.5 r10040"
   sodipodi:docname="ArrowPointingToLeft.xaml">
  <defs
     id="defs4429" />
  <sodipodi:namedview
     id="base"
     pagecolor="#ffffff"
     bordercolor="#666666"
     borderopacity="1.0"
     inkscape:pageopacity="0.0"
     inkscape:pageshadow="2"
     inkscape:zoom="11"
     inkscape:cx="25.838674"
     inkscape:cy="31.152154"
     inkscape:current-layer="svg4427"
     showgrid="true"
     inkscape:document-units="px"
     inkscape:grid-bbox="true"
     inkscape:window-width="1920"
     inkscape:window-height="1003"
     inkscape:window-x="-9"
     inkscape:window-y="-9"
     inkscape:window-maximized="1" />
  <metadata
     id="metadata4432">
    <rdf:RDF>
      <cc:Work
         rdf:about="">
        <dc:format>image/svg+xml</dc:format>
        <dc:type
           rdf:resource="http://purl.org/dc/dcmitype/StillImage" />
        <dc:title></dc:title>
      </cc:Work>
    </rdf:RDF>
  </metadata>
  <g
     transform="matrix(0.50907359,0,0,0.50907359,7.9099759,5.0928745)"
     id="g3" />
  <path
     d="M 51.861457,20.789994 C 51.332179,20.26708 50.694409,19.842906 49.894814,19.618848 L 15.578038,10.315974 c -0.895508,-0.10513 -1.395598,-0.150262 -2.121317,0.04419 -2.336843,0.626154 -3.7197485,3.010651 -3.093593,5.347494 l 9.32497,34.82501 c 0.626155,2.336842 3.032752,3.69765 5.369592,3.071494 0.725288,-0.194341 1.13287,-0.477118 1.856156,-1.016466 L 51.971942,27.352828 c 1.160768,-1.188105 1.44069,-2.66236 1.281631,-4.24264 l -0.110486,-0.419845 c -0.326311,-0.724479 -0.752323,-1.377467 -1.28163,-1.900349 z m -7.137358,2.541164 c 0.361357,0.356973 0.616913,0.787029 0.839687,1.281631 l 0.110487,0.287262 c 0.108591,1.07886 -0.09143,2.105692 -0.883883,2.916816 l -17.125242,17.21363 c -0.493786,0.368218 -0.742282,0.574431 -1.237437,0.707107 -1.595366,0.427476 -3.240638,-0.525954 -3.668118,-2.121318 L 16.373537,19.861915 c -0.427477,-1.595364 0.525951,-3.240637 2.121321,-3.668116 0.495448,-0.132754 0.847039,-0.07177 1.458405,2e-6 l 23.400815,6.341864 c 0.545885,0.152964 1.008661,0.438522 1.370022,0.795493 z"
     id="path3"
     inkscape:connector-curvature="0" />
</svg>
