<?xml version="1.0" encoding="UTF-8" standalone="no"?>
<!-- Created with Inkscape (http://www.inkscape.org/) -->

<svg
   xmlns:dc="http://purl.org/dc/elements/1.1/"
   xmlns:cc="http://creativecommons.org/ns#"
   xmlns:rdf="http://www.w3.org/1999/02/22-rdf-syntax-ns#"
   xmlns:svg="http://www.w3.org/2000/svg"
   xmlns="http://www.w3.org/2000/svg"
   xmlns:sodipodi="http://sodipodi.sourceforge.net/DTD/sodipodi-0.dtd"
   xmlns:inkscape="http://www.inkscape.org/namespaces/inkscape"
   width="64px"
   height="64px"
   id="svg4427"
   version="1.1"
   inkscape:version="0.48.5 r10040"
   sodipodi:docname="ArrowPointingToBottomRight.xaml">
  <defs
     id="defs4429" />
  <sodipodi:namedview
     id="base"
     pagecolor="#ffffff"
     bordercolor="#666666"
     borderopacity="1.0"
     inkscape:pageopacity="0.0"
     inkscape:pageshadow="2"
     inkscape:zoom="11"
     inkscape:cx="25.838674"
     inkscape:cy="31.152154"
     inkscape:current-layer="svg4427"
     showgrid="true"
     inkscape:document-units="px"
     inkscape:grid-bbox="true"
     inkscape:window-width="1920"
     inkscape:window-height="1003"
     inkscape:window-x="-9"
     inkscape:window-y="-9"
     inkscape:window-maximized="1" />
  <metadata
     id="metadata4432">
    <rdf:RDF>
      <cc:Work
         rdf:about="">
        <dc:format>image/svg+xml</dc:format>
        <dc:type
           rdf:resource="http://purl.org/dc/dcmitype/StillImage" />
        <dc:title></dc:title>
      </cc:Work>
    </rdf:RDF>
  </metadata>
  <g
     transform="matrix(0.50907359,0,0,0.50907359,7.9099759,5.0928745)"
     id="g3" />
  <path
     d="m 9.3644683,16.051825 c 0.0045,0.744012 0.1555345,1.49492 0.5625006,2.218752 L 27.614468,49.114326 c 0.558882,0.707559 0.880586,1.093089 1.531246,1.468752 2.095155,1.20964 4.75911,0.501407 5.968749,-1.593749 l 18.031252,-31.21875 c 1.209637,-2.095156 0.470154,-4.759113 -1.625001,-5.96875 -0.650276,-0.375436 -1.138434,-0.463686 -2.031251,-0.59375 l -35.562495,0.124997 c -1.660904,0.01933 -2.901295,0.863851 -3.90625,2.093749 l -0.2187498,0.375001 c -0.2815468,0.743021 -0.4420431,1.505989 -0.4374999,2.249999 z m 6.8437477,3.25 c -0.0031,-0.507936 0.120289,-0.992737 0.312501,-1.499999 l 0.125,-0.28125 c 0.686084,-0.839655 1.5536,-1.424299 2.6875,-1.437501 l 24.281249,-0.0625 c 0.609529,0.08879 0.931057,0.118689 1.375,0.375 1.430366,0.825823 1.919572,2.663383 1.093752,4.09375 l -12.281252,21.3125 c -0.825822,1.430365 -2.663381,1.919573 -4.09375,1.093749 -0.444206,-0.256463 -0.649696,-0.548199 -1.031248,-1.031249 l -12.0625,-21.03125 c -0.277837,-0.494162 -0.403149,-1.023314 -0.406252,-1.531251 z"
     id="path3"
     inkscape:connector-curvature="0" />
</svg>
