<?xml version="1.0" encoding="UTF-8" standalone="no"?>
<!-- Created with Inkscape (http://www.inkscape.org/) -->

<svg
   xmlns:dc="http://purl.org/dc/elements/1.1/"
   xmlns:cc="http://creativecommons.org/ns#"
   xmlns:rdf="http://www.w3.org/1999/02/22-rdf-syntax-ns#"
   xmlns:svg="http://www.w3.org/2000/svg"
   xmlns="http://www.w3.org/2000/svg"
   xmlns:sodipodi="http://sodipodi.sourceforge.net/DTD/sodipodi-0.dtd"
   xmlns:inkscape="http://www.inkscape.org/namespaces/inkscape"
   width="64px"
   height="64px"
   id="svg4427"
   version="1.1"
   inkscape:version="0.48.5 r10040"
   sodipodi:docname="BackOne.xaml">
  <defs
     id="defs4429" />
  <sodipodi:namedview
     id="base"
     pagecolor="#ffffff"
     bordercolor="#666666"
     borderopacity="1.0"
     inkscape:pageopacity="0.0"
     inkscape:pageshadow="2"
     inkscape:zoom="5.5"
     inkscape:cx="32"
     inkscape:cy="32"
     inkscape:current-layer="svg4427"
     showgrid="true"
     inkscape:document-units="px"
     inkscape:grid-bbox="true"
     inkscape:window-width="1920"
     inkscape:window-height="1003"
     inkscape:window-x="-9"
     inkscape:window-y="-9"
     inkscape:window-maximized="1" />
  <metadata
     id="metadata4432">
    <rdf:RDF>
      <cc:Work
         rdf:about="">
        <dc:format>image/svg+xml</dc:format>
        <dc:type
           rdf:resource="http://purl.org/dc/dcmitype/StillImage" />
        <dc:title></dc:title>
      </cc:Work>
    </rdf:RDF>
  </metadata>
  <path
     id="path3498"
     style="fill:#000000;fill-rule:nonzero"
     d="m 47.092371,38.3015 -7.365711,-7.39241 7.365711,-7.392558 -3.837021,-3.850858 -7.365562,7.392558 -7.36571,-7.392558 -3.83687,3.850858 7.36571,7.392558 -7.36571,7.39241 3.83687,3.851006 7.36571,-7.392558 7.365562,7.392558 3.837021,-3.851006 z M 3.1738537,36.189383 16.492042,49.556116 c 1.642397,1.648234 3.028841,2.262065 6.005006,2.262065 l 31.249728,0 c 4.109191,0 7.44041,-3.343365 7.44041,-7.467533 l 0,-26.883116 c 0,-4.124168 -3.331219,-7.4675325 -7.44041,-7.4675325 l -31.249728,0 c -2.976165,0 -4.362609,0.6142785 -6.005006,2.2625125 L 3.1738537,25.628797 c -2.90562889,2.916221 -2.90562889,7.644365 0,10.560586 z M 22.497048,47.337662 c -1.488082,0 -2.076171,-0.175039 -2.848189,-0.949721 L 6.3306708,33.021207 c -1.1623403,-1.166429 -1.1623403,-3.057656 0,-4.224234 L 19.648859,15.430687 c 0.772018,-0.774681 1.360107,-0.950169 2.848189,-0.950019 l 31.249728,0 c 1.643736,0 2.976164,1.337286 2.976164,2.987012 l 0,26.883117 c 0,1.64958 -1.332428,2.987013 -2.976164,2.987013 l -31.249728,-1.48e-4 z"
     inkscape:connector-curvature="0" />
</svg>
