<?xml version="1.0" encoding="utf-8"?>
<!DOCTYPE svg PUBLIC "-//W3C//DTD SVG 1.1//EN" "http://www.w3.org/Graphics/SVG/1.1/DTD/svg11.dtd" [
	<!ENTITY ns_svg "http://www.w3.org/2000/svg">
	<!ENTITY ns_xlink "http://www.w3.org/1999/xlink">
]>
<svg  version="1.1" id="Layer_1" xmlns="&ns_svg;" xmlns:xlink="&ns_xlink;" width="850.394" height="850.394"
	 viewBox="0 0 850.394 850.394" overflow="visible" enable-background="new 0 0 850.394 850.394" xml:space="preserve">
<path stroke="#FFFFFF" d="M688.248,626.902l0.23,0.12c-3.311,7.104-10.318,12.008-18.431,12.008h-4.969h-64.847v-4.192V591.35
	h88.016V626.902L688.248,626.902z"/>
<rect x="600.203" y="536.484" stroke="#FFFFFF" width="88.016" height="43.473"/>
<rect x="600.203" y="482.135" stroke="#FFFFFF" width="88.016" height="43.48"/>
<rect x="600.203" y="427.785" stroke="#FFFFFF" width="88.016" height="43.48"/>
<rect x="600.203" y="373.435" stroke="#FFFFFF" width="88.016" height="43.479"/>
<polygon stroke="#FFFFFF" points="468.177,634.837 468.177,639.03 380.162,639.03 380.162,634.837 380.162,591.35 468.177,591.35 
	"/>
<rect x="380.162" y="536.484" stroke="#FFFFFF" width="88.015" height="43.473"/>
<rect x="380.162" y="482.135" stroke="#FFFFFF" width="88.015" height="43.48"/>
<rect x="380.162" y="427.785" stroke="#FFFFFF" width="88.015" height="43.48"/>
<polygon stroke="#FFFFFF" points="578.199,634.837 578.199,639.03 490.181,639.03 490.181,634.837 490.181,591.35 578.199,591.35 
	"/>
<rect x="490.181" y="536.484" stroke="#FFFFFF" width="88.018" height="43.473"/>
<rect x="490.181" y="482.135" stroke="#FFFFFF" width="88.018" height="43.48"/>
<rect x="490.181" y="427.785" stroke="#FFFFFF" width="88.018" height="43.48"/>
<rect x="490.181" y="373.435" stroke="#FFFFFF" width="88.018" height="43.479"/>
<rect x="380.162" y="373.435" stroke="#FFFFFF" width="88.015" height="43.479"/>
<polygon stroke="#FFFFFF" points="358.159,634.837 358.159,639.03 270.151,639.03 270.151,634.837 270.151,591.35 358.159,591.35 
	"/>
<rect x="270.151" y="536.484" stroke="#FFFFFF" width="88.008" height="43.473"/>
<rect x="270.151" y="482.135" stroke="#FFFFFF" width="88.008" height="43.48"/>
<rect x="270.151" y="427.785" stroke="#FFFFFF" width="88.008" height="43.48"/>
<rect x="270.151" y="373.435" stroke="#FFFFFF" width="88.008" height="43.479"/>
<path stroke="#FFFFFF" d="M248.026,634.837v4.192h-64.112h-4.976c-9.664,0-17.768-6.984-19.904-16.352l0.976-0.216V591.35h88.016
	V634.837z"/>
<rect x="160.132" y="536.484" stroke="#FFFFFF" width="88.016" height="43.473"/>
<rect x="160.132" y="482.135" stroke="#FFFFFF" width="88.016" height="43.48"/>
<rect x="160.132" y="427.785" stroke="#FFFFFF" width="88.016" height="43.48"/>
<rect x="160.132" y="373.435" stroke="#FFFFFF" width="88.016" height="43.479"/>
<path stroke="#FFFFFF" d="M767.861,200.54v469.59c0,13.889-11.262,25.15-25.15,25.15h-159.5h-32.16H292.67h-32.15H107.37
	c-13.88,0-25.14-11.264-25.14-25.15V200.54c0-13.89,11.26-25.15,25.14-25.15h204.71h225.111h205.52
	C756.599,175.39,767.861,186.65,767.861,200.54z M746.31,417.47c0-7.09-5.75-12.85-12.85-12.85c-7.08,0-12.84,5.76-12.84,12.85
	c0,7.08,5.76,12.831,12.84,12.831C740.56,430.3,746.31,424.55,746.31,417.47z M746.31,481.781c0-7.08-5.75-12.84-12.85-12.84
	c-7.08,0-12.84,5.76-12.84,12.84c0,7.09,5.76,12.84,12.84,12.84C740.56,494.621,746.31,488.871,746.31,481.781z M746.041,355.08
	c0-7.08-5.76-12.84-12.85-12.84c-7.092,0-12.842,5.76-12.842,12.84c0,7.1,5.75,12.85,12.842,12.85
	C740.281,367.93,746.041,362.18,746.041,355.08z M702.06,618.4v-4.1V262c0-14.69-11.449-26.59-25.59-26.59H172.79
	c-14.12,0-25.57,11.9-25.57,26.59v353.96v2.439c0,2.117,0.24,4.18,0.69,6.146c2.67,11.711,12.8,20.441,24.88,20.441h6.22h80.14
	h110.01h110.019h110.021h81.059h6.211c10.141,0,18.9-6.131,23.039-15.012C701.14,626.48,702.06,622.55,702.06,618.4z M127.53,416.36
	c0-7.092-5.75-12.852-12.85-12.852c-7.08,0-12.84,5.76-12.84,12.852c0,7.08,5.76,12.84,12.84,12.84
	C121.78,429.201,127.53,423.44,127.53,416.36z M127.53,480.669c0-7.08-5.75-12.83-12.85-12.83c-7.08,0-12.84,5.75-12.84,12.83
	c0,7.09,5.76,12.84,12.84,12.84C121.78,493.509,127.53,487.759,127.53,480.669z M127.25,353.98c0-7.09-5.75-12.84-12.84-12.84
	c-7.09,0-12.84,5.75-12.84,12.84s5.75,12.84,12.84,12.84C121.5,366.82,127.25,361.07,127.25,353.98z"/>
</svg>
