<?xml version="1.0" encoding="UTF-8" standalone="no"?>
<!-- Created with Inkscape (http://www.inkscape.org/) -->

<svg
   xmlns:dc="http://purl.org/dc/elements/1.1/"
   xmlns:cc="http://creativecommons.org/ns#"
   xmlns:rdf="http://www.w3.org/1999/02/22-rdf-syntax-ns#"
   xmlns:svg="http://www.w3.org/2000/svg"
   xmlns="http://www.w3.org/2000/svg"
   xmlns:sodipodi="http://sodipodi.sourceforge.net/DTD/sodipodi-0.dtd"
   xmlns:inkscape="http://www.inkscape.org/namespaces/inkscape"
   width="64"
   height="64"
   viewBox="0 0 18.626667 18.626667"
   version="1.1"
   id="svg10069"
   inkscape:version="0.92.3 (2405546, 2018-03-11)">
  <defs
     id="defs10063" />
  <sodipodi:namedview
     id="base"
     pagecolor="#ffffff"
     bordercolor="#666666"
     borderopacity="1.0"
     inkscape:pageopacity="0.0"
     inkscape:pageshadow="2"
     inkscape:zoom="5.6"
     inkscape:cx="15.965746"
     inkscape:cy="42.341399"
     inkscape:document-units="mm"
     inkscape:current-layer="layer3"
     showgrid="false"
     units="px"
     inkscape:pagecheckerboard="false"
     inkscape:window-width="1920"
     inkscape:window-height="1017"
     inkscape:window-x="-8"
     inkscape:window-y="-8"
     inkscape:window-maximized="1"
     scale-x="1.1" />
  <metadata
     id="metadata10066">
    <rdf:RDF>
      <cc:Work
         rdf:about="">
        <dc:format>image/svg+xml</dc:format>
        <dc:type
           rdf:resource="http://purl.org/dc/dcmitype/StillImage" />
        <dc:title></dc:title>
      </cc:Work>
    </rdf:RDF>
  </metadata>
  <g
     inkscape:groupmode="layer"
     id="layer3"
     inkscape:label="Main">
    <path
       style="color:#000000;font-style:normal;font-variant:normal;font-weight:normal;font-stretch:normal;font-size:medium;line-height:normal;font-family:sans-serif;font-variant-ligatures:normal;font-variant-position:normal;font-variant-caps:normal;font-variant-numeric:normal;font-variant-alternates:normal;font-feature-settings:normal;text-indent:0;text-align:start;text-decoration:none;text-decoration-line:none;text-decoration-style:solid;text-decoration-color:#000000;letter-spacing:normal;word-spacing:normal;text-transform:none;writing-mode:lr-tb;direction:ltr;text-orientation:mixed;dominant-baseline:auto;baseline-shift:baseline;text-anchor:start;white-space:normal;shape-padding:0;clip-rule:nonzero;display:inline;overflow:visible;visibility:visible;opacity:1;isolation:auto;mix-blend-mode:normal;color-interpolation:sRGB;color-interpolation-filters:linearRGB;solid-color:#000000;solid-opacity:1;vector-effect:none;fill:#000000;fill-opacity:1;fill-rule:evenodd;stroke:none;stroke-width:0.5205875;stroke-linecap:round;stroke-linejoin:round;stroke-miterlimit:4;stroke-dasharray:none;stroke-dashoffset:0;stroke-opacity:1;paint-order:fill markers stroke;color-rendering:auto;image-rendering:auto;shape-rendering:auto;text-rendering:auto;enable-background:accumulate"
       mask="none"
       clip-path="none"
       d="M 5.8736393,5.9284225 C 5.6592725,5.9500054 5.5374842,6.1483344 5.3707862,6.2563816 4.9084347,6.6386537 4.435673,7.0111876 3.9798299,7.3995491 3.8746461,7.5721707 3.9461185,7.7841326 3.9251275,7.9742746 c 0.00366,1.157027 -0.00731,2.3149174 0.00548,3.4714044 0.039749,0.208622 0.2905953,0.214067 0.4695065,0.200873 0.6369068,0 1.2738136,0 1.9107202,0 0.00365,0.454551 -0.0073,0.909968 0.00548,1.363982 0.037206,0.199576 0.2759093,0.216567 0.4501397,0.200871 1.2127903,-0.0033 2.4264437,0.0066 3.6386951,-0.0048 0.214284,-0.03377 0.234028,-0.256114 0.216765,-0.418533 -9.56e-4,-1.68966 0.0019,-3.3794094 -0.0014,-5.0690117 -0.01478,-0.1926677 -0.23992,-0.2504064 -0.41305,-0.225701 -0.657481,7.591e-4 -1.3150412,-0.00152 -1.9724747,0.00115 C 8.2314971,7.0399424 8.2419377,6.584572 8.2297053,6.1305067 8.1935158,5.9308082 7.9548971,5.9124096 7.7805901,5.928494 c -0.6356501,0 -1.2712995,0 -1.9069492,0 z m 0.101079,0.5027052 c 0.5735933,0 1.1471866,0 1.7207801,0 0,0.4800096 0,0.9600192 0,1.4400289 -0.4417762,0.3654892 -0.8932916,0.721832 -1.3289772,1.093041 -0.106797,0.1722 -0.034493,0.384737 -0.055684,0.574931 0,0.5349064 0,1.0698124 0,1.6047174 -0.6154049,0 -1.2308101,0 -1.8462151,0 0,-1.1593604 0,-2.3187224 0,-3.4780835 0.5033656,-0.411545 1.0067313,-0.82309 1.5100962,-1.2346348 z m 2.3869274,1.564854 c 0.5735925,0 1.1471862,0 1.7207793,0 0,1.5709059 0,3.1418123 0,4.7127193 -1.0773653,0 -2.1547294,0 -3.2320941,0 0,-0.354051 0,-0.7081 0,-1.062149 0.3980022,-0.0075 0.799189,0.01502 1.1951936,-0.01137 0.2408196,-0.06787 0.1852123,-0.32867 0.1894674,-0.507953 0,-1.009326 0,-2.0186534 0,-3.0279807 0.042222,-0.034422 0.084435,-0.068843 0.1266538,-0.1032649 z M 7.6954984,8.5406735 c 0,0.8677241 0,1.7354485 0,2.6031725 -0.2817226,0 -0.563445,0 -0.8451675,0 0,-0.637742 0,-1.2754864 0,-1.9132294 0.2817225,-0.229981 0.5634449,-0.459962 0.8451675,-0.6899431 z"
       id="path10011"
       inkscape:connector-curvature="0" />
  </g>
</svg>
