<?xml version="1.0" encoding="UTF-8" standalone="no"?>
<!-- Created with Inkscape (http://www.inkscape.org/) -->

<svg
   xmlns:dc="http://purl.org/dc/elements/1.1/"
   xmlns:cc="http://creativecommons.org/ns#"
   xmlns:rdf="http://www.w3.org/1999/02/22-rdf-syntax-ns#"
   xmlns:svg="http://www.w3.org/2000/svg"
   xmlns="http://www.w3.org/2000/svg"
   xmlns:sodipodi="http://sodipodi.sourceforge.net/DTD/sodipodi-0.dtd"
   xmlns:inkscape="http://www.inkscape.org/namespaces/inkscape"
   width="64px"
   height="64px"
   id="svg3569"
   version="1.1"
   inkscape:version="0.48.5 r10040"
   sodipodi:docname="Languages.svg">
  <defs
     id="defs3571" />
  <sodipodi:namedview
     id="base"
     pagecolor="#ffffff"
     bordercolor="#666666"
     borderopacity="1.0"
     inkscape:pageopacity="0.0"
     inkscape:pageshadow="2"
     inkscape:zoom="8"
     inkscape:cx="29.538706"
     inkscape:cy="38.031955"
     inkscape:current-layer="svg3569"
     showgrid="true"
     inkscape:document-units="px"
     inkscape:grid-bbox="true"
     inkscape:window-width="942"
     inkscape:window-height="985"
     inkscape:window-x="960"
     inkscape:window-y="0"
     inkscape:window-maximized="0" />
  <metadata
     id="metadata3574">
    <rdf:RDF>
      <cc:Work
         rdf:about="">
        <dc:format>image/svg+xml</dc:format>
        <dc:type
           rdf:resource="http://purl.org/dc/dcmitype/StillImage" />
        <dc:title></dc:title>
      </cc:Work>
    </rdf:RDF>
  </metadata>
  <g
     id="layer1"
     inkscape:label="Layer 1"
     inkscape:groupmode="layer" />
  <path
     id="path4"
     d="M 53.416617,47.697753 46.003684,29.386327 c -0.348237,-0.91605 -0.635865,-1.648678 -0.861821,-2.196819 -0.225955,-0.548141 -0.50295,-1.061193 -0.831515,-1.539155 -0.329098,-0.476899 -0.761869,-0.867669 -1.296719,-1.170715 -0.535913,-0.303046 -1.203677,-0.454569 -2.004357,-0.454569 -0.786325,0 -1.448773,0.151523 -1.983623,0.454569 -0.53485,0.303046 -0.967089,0.700196 -1.296718,1.190387 -0.328566,0.490722 -0.638523,1.106915 -0.92881,1.848581 -0.290286,0.742197 -0.539103,1.37753 -0.745387,1.906532 l -3.094791,7.857932 c -1.423254,-0.474773 -2.691794,-1.289807 -3.699289,-2.359507 3.20325,-2.655109 5.247482,-6.66276 5.247482,-11.138804 V 21.78944 h 8.274753 c 1.516294,0 2.744428,-1.228666 2.744428,-2.744428 0,-1.515762 -1.228666,-2.744428 -2.744428,-2.744428 h -8.275816 v -4.175656 c 0,-1.515762 -1.228666,-2.744428 -2.744428,-2.744428 -1.515762,0 -2.744428,1.228666 -2.744428,2.744428 v 4.175656 H 13.70801 c -1.515762,0 -2.744428,1.228666 -2.744428,2.744428 0,1.515762 1.228666,2.744428 2.744428,2.744428 h 15.310738 v 1.995319 c 0,2.227123 -0.817161,4.266038 -2.164918,5.837093 -0.02658,-0.279653 -0.04147,-0.562496 -0.04147,-0.849061 0,-1.515762 -1.228665,-2.744428 -2.744428,-2.744428 -1.515762,0 -2.744427,1.228666 -2.744427,2.744428 0,1.318516 0.180764,2.595032 0.51252,3.809343 -0.580041,0.11856 -1.180817,0.180764 -1.795416,0.180764 -1.515762,0 -2.744427,1.228666 -2.744427,2.744428 0,1.51523 1.228665,2.743364 2.744427,2.743364 1.496091,0 2.940079,-0.228613 4.299002,-0.652346 1.681108,2.175552 3.967245,3.858787 6.603746,4.798229 l -2.148969,5.455893 c -0.297198,0.735286 -0.509862,1.309478 -0.639055,1.722578 -0.129193,0.4131 -0.193524,0.812908 -0.193524,1.200488 0,0.670955 0.276995,1.271198 0.832579,1.799668 0.554521,0.529533 1.193576,0.7943 1.916102,0.7943 0.851719,0 1.464191,-0.249348 1.83848,-0.745387 0.374288,-0.49657 0.825667,-1.454621 1.354669,-2.874153 l 1.355201,-3.639743 h 11.536485 l 1.355201,3.561589 c 0.180765,0.439151 0.396618,0.945823 0.648094,1.520015 0.252538,0.574193 0.487532,1.000053 0.707107,1.277047 0.219044,0.276995 0.49019,0.496571 0.812908,0.658195 0.322186,0.161093 0.709766,0.241905 1.161677,0.241905 0.774096,0 1.434949,-0.274336 1.983622,-0.823541 0.548142,-0.548141 0.822478,-1.151575 0.822478,-1.80977 0.0016,-0.630548 -0.288691,-1.644423 -0.869795,-3.037904 z m -16.645737,-5.904082 4.199581,-11.71087 4.277734,11.71087 H 36.77088 z" />
</svg>
