<?xml version="1.0" encoding="UTF-8" standalone="no"?>
<!-- Created with Inkscape (http://www.inkscape.org/) -->

<svg
   xmlns:dc="http://purl.org/dc/elements/1.1/"
   xmlns:cc="http://creativecommons.org/ns#"
   xmlns:rdf="http://www.w3.org/1999/02/22-rdf-syntax-ns#"
   xmlns:svg="http://www.w3.org/2000/svg"
   xmlns="http://www.w3.org/2000/svg"
   xmlns:sodipodi="http://sodipodi.sourceforge.net/DTD/sodipodi-0.dtd"
   xmlns:inkscape="http://www.inkscape.org/namespaces/inkscape"
   width="17.199999mm"
   height="13.200004mm"
   viewBox="0 0 17.199999 13.200004"
   version="1.1"
   id="svg8"
   sodipodi:docname="LookToScrollBoundsCustom.svg"
   inkscape:version="0.92.2 (5c3e80d, 2017-08-06)">
  <defs
     id="defs2" />
  <sodipodi:namedview
     id="base"
     pagecolor="#ffffff"
     bordercolor="#666666"
     borderopacity="1.0"
     inkscape:pageopacity="0.0"
     inkscape:pageshadow="2"
     inkscape:zoom="7.2130354"
     inkscape:cx="23.757955"
     inkscape:cy="24.144182"
     inkscape:document-units="mm"
     inkscape:current-layer="layer1"
     showgrid="false"
     inkscape:window-width="1536"
     inkscape:window-height="801"
     inkscape:window-x="-8"
     inkscape:window-y="-8"
     inkscape:window-maximized="1" />
  <metadata
     id="metadata5">
    <rdf:RDF>
      <cc:Work
         rdf:about="">
        <dc:format>image/svg+xml</dc:format>
        <dc:type
           rdf:resource="http://purl.org/dc/dcmitype/StillImage" />
      </cc:Work>
    </rdf:RDF>
  </metadata>
  <g
     inkscape:label="Layer 1"
     inkscape:groupmode="layer"
     id="layer1"
     transform="translate(47.40573,-177.94987)">
    <path
       style="color:#000000;font-style:normal;font-variant:normal;font-weight:normal;font-stretch:normal;font-size:medium;line-height:normal;font-family:sans-serif;font-variant-ligatures:normal;font-variant-position:normal;font-variant-caps:normal;font-variant-numeric:normal;font-variant-alternates:normal;font-feature-settings:normal;text-indent:0;text-align:start;text-decoration:none;text-decoration-line:none;text-decoration-style:solid;text-decoration-color:#000000;letter-spacing:normal;word-spacing:normal;text-transform:none;writing-mode:lr-tb;direction:ltr;text-orientation:mixed;dominant-baseline:auto;baseline-shift:baseline;text-anchor:start;white-space:normal;shape-padding:0;clip-rule:nonzero;display:inline;overflow:visible;visibility:visible;opacity:1;isolation:auto;mix-blend-mode:normal;color-interpolation:sRGB;color-interpolation-filters:linearRGB;solid-color:#000000;solid-opacity:1;vector-effect:none;fill:#000000;fill-opacity:1;fill-rule:nonzero;stroke:none;stroke-width:4.28976393;stroke-linecap:butt;stroke-linejoin:miter;stroke-miterlimit:4;stroke-dasharray:none;stroke-dashoffset:0.45400003;stroke-opacity:1;color-rendering:auto;image-rendering:auto;shape-rendering:auto;text-rendering:auto;enable-background:accumulate"
       d="M 4.5351562 0 A 4.5354333 4.5354333 0 0 0 0 4.5351562 A 4.5354333 4.5354333 0 0 0 4.5351562 9.0703125 A 4.5354333 4.5354333 0 0 0 9.0703125 4.5351562 A 4.5354333 4.5354333 0 0 0 4.5351562 0 z M 13.3125 2.2714844 A 9.0708663 9.0708663 0 0 1 13.605469 4.5351562 A 9.0708663 9.0708663 0 0 1 13.369141 6.5605469 L 58.447266 6.5605469 L 58.447266 36.902344 A 9.0708664 9.0708664 0 0 1 60.472656 36.662109 A 9.0708664 9.0708664 0 0 1 62.736328 36.960938 L 62.736328 2.2714844 L 13.3125 2.2714844 z M 2.2636719 13.306641 L 2.2636719 47.625 L 51.613281 47.625 A 9.0708664 9.0708664 0 0 1 51.402344 45.732422 A 9.0708664 9.0708664 0 0 1 51.736328 43.328125 L 6.5605469 43.328125 L 6.5605469 13.365234 A 9.0708663 9.0708663 0 0 1 4.5351562 13.605469 A 9.0708663 9.0708663 0 0 1 2.2636719 13.306641 z M 60.472656 40.818359 A 4.5354333 4.5354333 0 0 0 55.9375 45.353516 A 4.5354333 4.5354333 0 0 0 60.472656 49.890625 A 4.5354333 4.5354333 0 0 0 65.007812 45.353516 A 4.5354333 4.5354333 0 0 0 60.472656 40.818359 z "
       transform="matrix(0.26458333,0,0,0.26458333,-47.40573,177.94987)"
       id="rect8" />
  </g>
</svg>
