<?xml version="1.0" encoding="UTF-8" standalone="no"?>
<!-- Created with Inkscape (http://www.inkscape.org/) -->

<svg
   xmlns:dc="http://purl.org/dc/elements/1.1/"
   xmlns:cc="http://creativecommons.org/ns#"
   xmlns:rdf="http://www.w3.org/1999/02/22-rdf-syntax-ns#"
   xmlns:svg="http://www.w3.org/2000/svg"
   xmlns="http://www.w3.org/2000/svg"
   xmlns:sodipodi="http://sodipodi.sourceforge.net/DTD/sodipodi-0.dtd"
   xmlns:inkscape="http://www.inkscape.org/namespaces/inkscape"
   width="64px"
   height="64px"
   id="svg4427"
   version="1.1"
   inkscape:version="0.48.5 r10040"
   sodipodi:docname="Size.svg">
  <defs
     id="defs4429" />
  <sodipodi:namedview
     id="base"
     pagecolor="#ffffff"
     bordercolor="#666666"
     borderopacity="1.0"
     inkscape:pageopacity="0.0"
     inkscape:pageshadow="2"
     inkscape:zoom="7.7781746"
     inkscape:cx="28.579634"
     inkscape:cy="44.499493"
     inkscape:current-layer="svg4427"
     showgrid="true"
     inkscape:document-units="px"
     inkscape:grid-bbox="true"
     inkscape:window-width="942"
     inkscape:window-height="985"
     inkscape:window-x="960"
     inkscape:window-y="0"
     inkscape:window-maximized="0" />
  <metadata
     id="metadata4432">
    <rdf:RDF>
      <cc:Work
         rdf:about="">
        <dc:format>image/svg+xml</dc:format>
        <dc:type
           rdf:resource="http://purl.org/dc/dcmitype/StillImage" />
        <dc:title></dc:title>
      </cc:Work>
    </rdf:RDF>
  </metadata>
  <g
     transform="matrix(0.50907359,0,0,0.50907359,7.9099759,5.0928745)"
     id="g3" />
  <path
     id="path3008-8"
     d="m 46.828175,26.158992 c -0.56106,0.560679 -0.561061,1.479621 -2e-6,2.040301 l 2.119998,2.119997 -4.335636,2e-6 c 0.120513,0.951341 0.118653,1.917828 0,2.869171 l 4.335637,-2e-6 -2.12,2.119999 c -0.561065,0.561448 -0.577003,1.464063 -0.0159,2.02436 0.279574,0.280341 0.652489,0.414436 1.020149,0.414436 0.367277,0 0.73981,-0.133706 1.020148,-0.414436 l 4.558791,-4.558792 c 0.0674,-0.0674 0.138645,-0.144041 0.191285,-0.223155 0.02341,-0.03527 0.02793,-0.07479 0.04782,-0.111582 0.02532,-0.0456 0.05903,-0.09597 0.0797,-0.143465 0.01879,-0.0479 0.03286,-0.09482 0.04782,-0.143449 0.0115,-0.041 0.02346,-0.0854 0.03188,-0.127532 0.03675,-0.185739 0.0527,-0.37215 0.0159,-0.557893 -0.0079,-0.04213 -0.03599,-0.07057 -0.04785,-0.111549 -0.01488,-0.04827 -0.02909,-0.09631 -0.04783,-0.143449 -0.02074,-0.0482 -0.05475,-0.0983 -0.07973,-0.143431 -0.01991,-0.03679 -0.02481,-0.07638 -0.04785,-0.111549 -0.05243,-0.07929 -0.123845,-0.156168 -0.191265,-0.223171 L 48.852449,26.17501 c -0.561063,-0.561063 -1.464821,-0.577013 -2.024357,-0.0159 z M 25.516874,46.259517 c -0.561061,0.561061 -0.561061,1.478851 0,2.040298 l 4.558795,4.558793 c 0.06701,0.0674 0.144193,0.137732 0.223153,0.191285 0.03562,0.02376 0.07481,0.02754 0.111582,0.04782 0.04519,0.02453 0.09597,0.06018 0.143466,0.0797 0.04749,0.01991 0.09443,0.034 0.143465,0.04782 0.04098,0.01268 0.08462,0.02307 0.127516,0.03188 0.09306,0.018 0.177148,0.0159 0.270975,0.0159 0.09382,-7e-6 0.177533,0.0022 0.270978,-0.0159 0.0425,-0.0083 0.08692,-0.01925 0.127515,-0.03188 0.04902,-0.01387 0.09597,-0.02789 0.143449,-0.04782 0.04788,-0.0195 0.0979,-0.0548 0.143465,-0.0797 0.03638,-0.0203 0.07559,-0.02444 0.111583,-0.04782 0.07852,-0.05362 0.155745,-0.123879 0.223151,-0.191283 l 4.558795,-4.558793 c 0.561064,-0.561447 0.561064,-1.479236 0,-2.040298 -0.561065,-0.561065 -1.46406,-0.545124 -2.02436,0.0159 l -2.119997,2.119997 0,-4.271874 c -0.950798,0.123913 -1.917307,0.115253 -2.869172,-2e-6 l 0,4.271878 -2.119998,-2.119994 c -0.560289,-0.561065 -1.463286,-0.577003 -2.024351,-0.0159 z m 0.02963,-30.857765 c -0.561065,0.560681 -0.561062,1.479617 0,2.0403 0.280342,0.279955 0.65249,0.414436 1.02015,0.414432 0.367276,0 0.724252,-0.149656 1.004209,-0.430374 l 2.120001,-2.119999 -2e-6,4.271878 c 0.956723,-0.113663 1.913708,-0.127922 2.869169,-2e-6 l 0,-4.271876 2.119999,2.119999 c 0.280343,0.280339 0.636936,0.430373 1.004211,0.430376 0.36766,-2e-6 0.739809,-0.133706 1.020147,-0.414434 0.561066,-0.560683 0.56107,-1.479623 2e-6,-2.0403 L 32.1456,10.842959 c -0.0674,-0.06701 -0.144058,-0.137867 -0.223173,-0.191263 -0.03638,-0.02451 -0.07371,-0.02667 -0.111549,-0.04785 -0.04364,-0.02378 -0.09709,-0.06096 -0.143432,-0.07973 -0.049,-0.02072 -0.09287,-0.03329 -0.143448,-0.04783 -0.03946,-0.01099 -0.07058,-0.03941 -0.111549,-0.04785 -0.09303,-0.01879 -0.176382,-0.0159 -0.270974,-0.0159 -0.09458,0 -0.193473,0.01319 -0.286922,0.03188 -0.04063,0.0081 -0.08809,0.02079 -0.127516,0.03187 -0.05052,0.01455 -0.09443,0.02715 -0.143448,0.04782 -0.04631,0.01872 -0.08423,0.04002 -0.127516,0.06375 -0.03866,0.02102 -0.09076,0.03924 -0.127515,0.06375 -0.07928,0.05325 -0.156117,0.124251 -0.223153,0.191283 l -4.558789,4.558794 z M 8.9831852,30.754299 c -0.067403,0.06701 -0.1388479,0.143838 -0.1912833,0.223153 -0.023764,0.03521 -0.027908,0.07481 -0.047816,0.111583 -0.024898,0.04519 -0.059774,0.09521 -0.079699,0.143465 -0.019164,0.04711 -0.033659,0.09519 -0.047816,0.143465 -0.012178,0.04098 -0.023443,0.08538 -0.031883,0.127516 -0.036754,0.185363 -0.036754,0.355824 0,0.541953 0.00829,0.04213 0.019637,0.08653 0.031883,0.127516 0.014546,0.04864 0.028669,0.09558 0.047816,0.143465 0.019908,0.04748 0.055174,0.0979 0.079699,0.143466 0.019925,0.03677 0.024086,0.07635 0.047816,0.111582 0.052468,0.07928 0.1234899,0.155745 0.191285,0.223153 l 4.5587921,4.558791 c 0.280341,0.28034 0.652876,0.414438 1.020151,0.414437 0.367276,1e-6 0.740193,-0.133706 1.020149,-0.414437 0.561064,-0.560296 0.545123,-1.462914 -0.0159,-2.024359 l -2.119997,-2.119998 4.208117,0 c -0.122036,-0.951188 -0.149031,-1.917677 -0.0319,-2.86917 l -4.176235,0 2.119997,-2.119997 c 0.561063,-0.560683 0.577003,-1.463681 0.0159,-2.02436 -0.560297,-0.561066 -1.479237,-0.561065 -2.0403,0 l -4.5587917,4.558793 z m 38.3554288,7.458142 c -0.884738,-3.01e-4 -1.609528,0.724487 -1.609228,1.609227 l 0,3.344178 -3.41961,-3.419608 c -0.655295,0.845392 -1.419053,1.606211 -2.262977,2.262975 l 3.419613,3.419608 -3.344181,0 c -0.885349,3.03e-4 -1.609833,0.699642 -1.609227,1.584084 -6.01e-4,0.441617 0.187758,0.841507 0.477739,1.131488 0.289678,0.289678 0.688967,0.478041 1.131488,0.477739 l 7.191235,0 c 0.106322,-2e-6 0.222957,-0.0042 0.326877,-0.02513 0.04626,-0.0093 0.08102,-0.03697 0.125723,-0.05029 0.05592,-0.01607 0.122238,-0.02914 0.176013,-0.05029 0.0526,-0.02297 0.100706,-0.04888 0.150857,-0.07544 0.04139,-0.02327 0.08586,-0.04886 0.125722,-0.07544 0.175493,-0.117502 0.335092,-0.251952 0.452595,-0.427451 0.02686,-0.03956 0.02728,-0.08405 0.05025,-0.125723 0.0263,-0.04985 0.05301,-0.09891 0.07542,-0.150857 0.02167,-0.05438 0.03434,-0.120716 0.05025,-0.17601 0.01336,-0.0447 0.04068,-0.07982 0.05025,-0.125722 0.02119,-0.103904 0.02549,-0.220851 0.02517,-0.326874 l 0,-7.191235 c 0,-0.885045 -0.700233,-1.610438 -1.584077,-1.609229 z m -32.148108,0 c -0.885046,0 -1.608926,0.72388 -1.609229,1.609227 l 0,7.191237 c -3.03e-4,0.106018 0.0051,0.22236 0.02514,0.326874 0.0093,0.04682 0.0373,0.08073 0.05029,0.125722 0.01624,0.05499 0.02823,0.123152 0.05029,0.17601 0.02175,0.05316 0.04768,0.101299 0.07544,0.150874 0.02236,0.04228 0.04853,0.08494 0.07544,0.125722 0.0592,0.0876 0.127143,0.152295 0.201154,0.226298 0.074,0.07398 0.138391,0.141655 0.226296,0.201152 0.04017,0.02689 0.08374,0.05336 0.125722,0.07544 0.04954,0.02777 0.0977,0.0537 0.150857,0.07542 0.05316,0.02238 0.120429,0.034 0.176008,0.05029 0.0447,0.01268 0.07891,0.04034 0.125723,0.05029 0.104225,0.01964 0.22055,0.02513 0.326873,0.02513 l 7.191238,0 c 0.885348,-3.01e-4 1.609228,-0.724181 1.609228,-1.609227 0,-0.885046 -0.724788,-1.584686 -1.609228,-1.584084 l -3.344176,0 3.36932,-3.369319 c -0.847632,-0.652177 -1.60311,-1.421314 -2.262964,-2.26297 l -3.36932,3.36932 0,-3.344176 c 6e-4,-0.884437 -0.69903,-1.60922 -1.584076,-1.60922 z m 24.93173,-23.730022 c -0.884745,-3.02e-4 -1.609528,0.724486 -1.609227,1.609227 3.04e-4,0.44192 0.187758,0.841509 0.477739,1.131488 0.289681,0.289679 0.689267,0.453202 1.131488,0.452596 l 3.344181,0 -3.369324,3.369321 c 0.844235,0.664939 1.61028,1.408486 2.262975,2.262975 l 3.369323,-3.36932 0,3.344177 c 0,0.442221 0.162916,0.841809 0.452592,1.131488 0.289984,0.289981 0.688968,0.478042 1.131488,0.477739 0.884747,3.03e-4 1.609536,-0.724482 1.609229,-1.609227 l 0,-7.191237 c -3.01e-4,-0.106017 -0.0049,-0.222359 -0.02517,-0.326873 -0.0093,-0.04802 -0.03711,-0.07919 -0.05025,-0.125723 -0.01573,-0.05316 -0.02848,-0.124674 -0.05025,-0.17601 -0.02233,-0.05499 -0.04699,-0.09951 -0.0754,-0.150874 -0.02241,-0.03987 -0.02459,-0.08675 -0.05025,-0.125722 -0.05852,-0.08819 -0.126551,-0.151686 -0.201153,-0.226297 -0.07461,-0.07461 -0.16295,-0.142248 -0.25145,-0.201153 -0.0384,-0.02569 -0.08586,-0.05308 -0.125723,-0.07544 -0.0513,-0.0284 -0.0959,-0.05308 -0.150856,-0.07544 -0.0513,-0.02177 -0.098,-0.03488 -0.150874,-0.05029 -0.04709,-0.01387 -0.102534,-0.04063 -0.150857,-0.05028 -0.104512,-0.02055 -0.221145,-0.02514 -0.326875,-0.02514 l -7.191238,0 z m -24.931725,0 c -0.106018,-3.02e-4 -0.222965,0.0039 -0.326876,0.02514 -0.04651,0.009 -0.08102,0.03699 -0.125722,0.05028 -0.05527,0.01607 -0.122255,0.02794 -0.17601,0.05029 -0.05227,0.02204 -0.10162,0.04854 -0.150874,0.07544 -0.04198,0.02265 -0.08584,0.04885 -0.125722,0.07542 -0.175197,0.117215 -0.309644,0.25165 -0.42745,0.427452 -0.02659,0.03987 -0.05275,0.08372 -0.07544,0.125722 -0.02689,0.04985 -0.05279,0.09802 -0.07544,0.150857 -0.02175,0.05316 -0.03371,0.120733 -0.05029,0.17601 -0.01336,0.0447 -0.04124,0.07921 -0.05029,0.125723 -0.02114,0.103903 -0.02546,0.220247 -0.02514,0.326875 l 0,7.191235 c 0,0.442221 0.188061,0.841812 0.477739,1.131488 0.28968,0.289681 0.689267,0.478345 1.131488,0.477739 0.884442,6e-4 1.583783,-0.72388 1.584084,-1.609227 l 0,-3.344176 3.319033,3.319032 c 0.653982,-0.846463 1.394977,-1.630048 2.237831,-2.28812 l -3.293887,-3.293887 3.344174,0 c 0.884745,3.01e-4 1.609533,-0.699341 1.609229,-1.584084 6.04e-4,-0.884442 -0.724179,-1.609229 -1.609225,-1.609229 l -7.191236,0 z"
     inkscape:connector-curvature="0" />
</svg>
