<?xml version="1.0" encoding="UTF-8" standalone="no"?>
<!-- Created with Inkscape (http://www.inkscape.org/) -->

<svg
   xmlns:dc="http://purl.org/dc/elements/1.1/"
   xmlns:cc="http://creativecommons.org/ns#"
   xmlns:rdf="http://www.w3.org/1999/02/22-rdf-syntax-ns#"
   xmlns:svg="http://www.w3.org/2000/svg"
   xmlns="http://www.w3.org/2000/svg"
   xmlns:sodipodi="http://sodipodi.sourceforge.net/DTD/sodipodi-0.dtd"
   xmlns:inkscape="http://www.inkscape.org/namespaces/inkscape"
   width="64px"
   height="64px"
   id="svg4427"
   version="1.1"
   inkscape:version="0.48.5 r10040"
   sodipodi:docname="Win - hollow.svg">
  <defs
     id="defs4429">
    <clipPath
       id="clippath_id2794739">
      <path
         inkscape:connector-curvature="0"
         d="M 0,0 76,0 76,76 0,76 0,0"
         id="path2992" />
    </clipPath>
  </defs>
  <sodipodi:namedview
     id="base"
     pagecolor="#ffffff"
     bordercolor="#666666"
     borderopacity="1.0"
     inkscape:pageopacity="0.0"
     inkscape:pageshadow="2"
     inkscape:zoom="5.5"
     inkscape:cx="32"
     inkscape:cy="32"
     inkscape:current-layer="svg4427"
     showgrid="true"
     inkscape:document-units="px"
     inkscape:grid-bbox="true"
     inkscape:window-width="1920"
     inkscape:window-height="1003"
     inkscape:window-x="-9"
     inkscape:window-y="-9"
     inkscape:window-maximized="1" />
  <metadata
     id="metadata4432">
    <rdf:RDF>
      <cc:Work
         rdf:about="">
        <dc:format>image/svg+xml</dc:format>
        <dc:type
           rdf:resource="http://purl.org/dc/dcmitype/StillImage" />
        <dc:title />
      </cc:Work>
    </rdf:RDF>
  </metadata>
  <path
     id="path2994"
     style="fill:#000000;fill-rule:nonzero"
     d="m 30,33 0,16.5 23,3 0,-19.5 -23,0 z m 3.8125,3.25 15.28125,0 0,12.96875 -15.28125,-2 0,-10.96875 z M 53,11.5 l -23,3 0,16.5 23,0 0,-19.5 z m -3.6875,3.28125 0,13.34375 -15.71875,0 0,-11.28125 15.71875,-2.0625 z M 11,33 11,47 28,49.21875 28,33 11,33 z m 3.0625,2.78125 10.78125,0 0,10.28125 -10.78125,-1.4375 0,-8.84375 z M 28,14.78125 11,17 l 0,14 17,0 0,-16.21875 z m -3.28125,3.28125 0,10.0625 -10.53125,0 0,-8.6875 10.53125,-1.375 z" />
  <svg
     inkscape:version="0.48.5 r10040"
     width="76"
     height="76"
     clip-path="url(#clippath_id2794739)"
     id="svg2987"
     version="1.1"
     transform="translate(-8.7272727,-5.2727273)">
    <defs
       id="defs2989">
      <clipPath
         id="clipPath3035" />
    </defs>
  </svg>
</svg>
