<?xml version="1.0" encoding="UTF-8" standalone="no"?>
<!-- Created with Inkscape (http://www.inkscape.org/) -->

<svg
   xmlns:dc="http://purl.org/dc/elements/1.1/"
   xmlns:cc="http://creativecommons.org/ns#"
   xmlns:rdf="http://www.w3.org/1999/02/22-rdf-syntax-ns#"
   xmlns:svg="http://www.w3.org/2000/svg"
   xmlns="http://www.w3.org/2000/svg"
   xmlns:sodipodi="http://sodipodi.sourceforge.net/DTD/sodipodi-0.dtd"
   xmlns:inkscape="http://www.inkscape.org/namespaces/inkscape"
   width="64px"
   height="64px"
   id="svg6950"
   version="1.1"
   inkscape:version="0.48.5 r10040"
   sodipodi:docname="New document 32">
  <defs
     id="defs6952" />
  <sodipodi:namedview
     id="base"
     pagecolor="#ffffff"
     bordercolor="#666666"
     borderopacity="1.0"
     inkscape:pageopacity="0.0"
     inkscape:pageshadow="2"
     inkscape:zoom="5.5"
     inkscape:cx="32"
     inkscape:cy="32"
     inkscape:current-layer="svg6950"
     showgrid="true"
     inkscape:document-units="px"
     inkscape:grid-bbox="true"
     inkscape:window-width="1920"
     inkscape:window-height="1003"
     inkscape:window-x="-9"
     inkscape:window-y="-9"
     inkscape:window-maximized="1" />
  <metadata
     id="metadata6955">
    <rdf:RDF>
      <cc:Work
         rdf:about="">
        <dc:format>image/svg+xml</dc:format>
        <dc:type
           rdf:resource="http://purl.org/dc/dcmitype/StillImage" />
        <dc:title></dc:title>
      </cc:Work>
    </rdf:RDF>
  </metadata>
  <path
     inkscape:connector-curvature="0"
     id="path6925"
     d="M 17.300102,14.005154 H 11.928449 V 8.5023272 c 0,-1.2254056 -0.969784,-2.2188711 -2.1659791,-2.2188711 -1.196195,0 -2.1659789,0.9934655 -2.1659789,2.2188711 V 14.005154 H 2.2254796 c -1.1961954,0 -2.16597896,0.993465 -2.16597896,2.218871 0,1.225405 0.96978356,2.218871 2.16597896,2.218871 h 5.3716528 v 5.502826 c 0,1.225406 0.9697839,2.218872 2.1659789,2.218872 1.1961947,0 2.1659787,-0.993466 2.1659787,-2.218872 v -5.502826 h 5.371653 c 1.196195,0 2.16598,-0.993466 2.16598,-2.218871 -6.42e-4,-1.225406 -0.970426,-2.218871 -2.166621,-2.218871 z M 53.032018,12.289586 H 21.693634 c 0.872933,1.021719 1.419399,2.334513 1.454676,3.786602 h 29.883708 c 4.076684,0 7.392677,3.397626 7.392677,7.573203 v 15.147064 c 0,4.176235 -3.316635,7.573206 -7.392677,7.573206 h -4.795042 l -0.175741,1.691914 c -0.228977,2.199159 -0.255273,5.160501 0.563784,8.184263 -3.782286,-1.728709 -5.662204,-6.79328 -6.215084,-8.560755 L 41.998162,46.369661 H 16.066706 c -4.076684,0 -7.3926774,-3.397628 -7.3926774,-7.573206 V 29.838182 C 7.1507238,29.543165 5.8397202,28.644972 4.9776903,27.393942 v 11.402513 c 0,6.264354 4.9746315,11.360464 11.0896577,11.360464 h 23.278019 c 1.35526,3.581601 5.447337,10.541774 11.970929,10.463584 2.132626,0.05191 3.532784,-0.306844 3.532784,-0.306844 -0.859465,-1.010549 -1.657997,-2.47578 -1.657997,-2.47578 -1.325115,-2.560539 -1.625927,-5.380614 -1.565637,-7.68096 h 1.407213 c 6.115026,0 11.089658,-5.09611 11.089658,-11.360464 V 23.649391 C 64.121676,17.385039 59.147044,12.289586 53.032018,12.289586 z" />
</svg>
