<?xml version="1.0" encoding="UTF-8" standalone="no"?>
<!-- Created with Inkscape (http://www.inkscape.org/) -->

<svg
   xmlns:dc="http://purl.org/dc/elements/1.1/"
   xmlns:cc="http://creativecommons.org/ns#"
   xmlns:rdf="http://www.w3.org/1999/02/22-rdf-syntax-ns#"
   xmlns:svg="http://www.w3.org/2000/svg"
   xmlns="http://www.w3.org/2000/svg"
   xmlns:sodipodi="http://sodipodi.sourceforge.net/DTD/sodipodi-0.dtd"
   xmlns:inkscape="http://www.inkscape.org/namespaces/inkscape"
   width="64px"
   height="64px"
   id="svg6986"
   version="1.1"
   inkscape:version="0.48.5 r10040"
   sodipodi:docname="New document 34">
  <defs
     id="defs6988" />
  <sodipodi:namedview
     id="base"
     pagecolor="#ffffff"
     bordercolor="#666666"
     borderopacity="1.0"
     inkscape:pageopacity="0.0"
     inkscape:pageshadow="2"
     inkscape:zoom="5.5"
     inkscape:cx="34.727273"
     inkscape:cy="32"
     inkscape:current-layer="svg6986"
     showgrid="true"
     inkscape:document-units="px"
     inkscape:grid-bbox="true"
     inkscape:window-width="1920"
     inkscape:window-height="1003"
     inkscape:window-x="-9"
     inkscape:window-y="-9"
     inkscape:window-maximized="1" />
  <metadata
     id="metadata6991">
    <rdf:RDF>
      <cc:Work
         rdf:about="">
        <dc:format>image/svg+xml</dc:format>
        <dc:type
           rdf:resource="http://purl.org/dc/dcmitype/StillImage" />
        <dc:title></dc:title>
      </cc:Work>
    </rdf:RDF>
  </metadata>
  <path
     id="path7010"
     style="fill:#000000"
     d="m 54.727688,22.353475 c -5.064889,0 -9.177837,4.118966 -9.177837,9.202599 0,5.081488 4.113661,9.204745 9.177837,9.204745 5.067028,0 9.181403,-4.123257 9.181403,-9.204745 0,-5.083633 -4.114375,-9.202599 -9.181403,-9.202599 z m -22.675412,0 c -5.066314,0 -9.174984,4.118966 -9.174984,9.202599 0,5.081488 4.10867,9.204745 9.174984,9.204745 5.068454,0 9.17855,-4.123257 9.17855,-9.204745 0,-5.083633 -4.109383,-9.202599 -9.17855,-9.202599 z m -22.6704192,0 c -5.0705925,0 -9.18140226,4.118966 -9.18140226,9.202599 0,5.081488 4.11080976,9.204745 9.18140226,9.204745 5.0641752,0 9.1778372,-4.123257 9.1778372,-9.204745 0,-5.083633 -4.113662,-9.202599 -9.1778372,-9.202599 z"
     inkscape:connector-curvature="0" />
</svg>
