<?xml version="1.0" encoding="UTF-8" standalone="no"?>
<!-- Created with Inkscape (http://www.inkscape.org/) -->

<svg
   xmlns:dc="http://purl.org/dc/elements/1.1/"
   xmlns:cc="http://creativecommons.org/ns#"
   xmlns:rdf="http://www.w3.org/1999/02/22-rdf-syntax-ns#"
   xmlns:svg="http://www.w3.org/2000/svg"
   xmlns="http://www.w3.org/2000/svg"
   xmlns:sodipodi="http://sodipodi.sourceforge.net/DTD/sodipodi-0.dtd"
   xmlns:inkscape="http://www.inkscape.org/namespaces/inkscape"
   width="64px"
   height="64px"
   id="svg6840"
   version="1.1"
   inkscape:version="0.48.5 r10040"
   sodipodi:docname="New document 27">
  <defs
     id="defs6842" />
  <sodipodi:namedview
     id="base"
     pagecolor="#ffffff"
     bordercolor="#666666"
     borderopacity="1.0"
     inkscape:pageopacity="0.0"
     inkscape:pageshadow="2"
     inkscape:zoom="5.5"
     inkscape:cx="32"
     inkscape:cy="32"
     inkscape:current-layer="svg6840"
     showgrid="true"
     inkscape:document-units="px"
     inkscape:grid-bbox="true"
     inkscape:window-width="1920"
     inkscape:window-height="1003"
     inkscape:window-x="-9"
     inkscape:window-y="-9"
     inkscape:window-maximized="1" />
  <metadata
     id="metadata6845">
    <rdf:RDF>
      <cc:Work
         rdf:about="">
        <dc:format>image/svg+xml</dc:format>
        <dc:type
           rdf:resource="http://purl.org/dc/dcmitype/StillImage" />
        <dc:title></dc:title>
      </cc:Work>
    </rdf:RDF>
  </metadata>
  <path
     inkscape:connector-curvature="0"
     d="m 53.50909,0.181818 c -5.091061,0 -9.218182,4.2980666 -9.218182,9.6000003 0,0.4623517 0.03535,0.9151007 0.09602,1.3599997 -1.372864,0.811313 -4.257591,2.445709 -6.875227,3.56 -2.591179,1.10265 -5.69634,2.011762 -7.240114,2.44 -1.665672,-2.486928 -4.434248,-4.1 -7.56659,-4.1 -5.090722,0 -9.218183,4.29842 -9.218183,9.6 0,3.063553 1.387896,5.782417 3.533637,7.54 -0.397468,1.607256 -1.242106,4.839485 -2.285341,7.56 -1.074676,2.80131 -2.687953,5.883596 -3.437613,7.28 -0.266789,-0.02418 -0.533781,-0.04 -0.806591,-0.04 -5.0910591,0 -9.2181799,4.298067 -9.2181799,9.6 0,5.301933 4.1271208,9.6 9.2181799,9.6 5.091061,0 9.218181,-4.298067 9.218181,-9.6 0,-3.288005 -1.593692,-6.189825 -4.01375,-7.92 0.397664,-1.606564 1.263847,-4.845843 2.304546,-7.56 1.014215,-2.644634 2.472166,-5.510978 3.264772,-7 0.469964,0.07692 0.949632,0.14 1.440342,0.14 5.090721,0 9.218182,-4.29842 9.218182,-9.6 0,-0.311138 -0.02982,-0.616443 -0.05762,-0.92 1.33007,-0.788931 4.28309,-2.495248 6.971249,-3.64 2.666252,-1.133893 5.87716,-2.067475 7.374545,-2.48 1.684952,2.28675 4.31607,3.78 7.297728,3.78 5.091061,0 9.218181,-4.298066 9.218181,-9.5999997 -2e-6,-5.3019337 -4.127124,-9.6000003 -9.218184,-9.6000003 z"
     id="path6827" />
</svg>
