<?xml version="1.0" encoding="UTF-8" standalone="no"?>
<!-- Created with Inkscape (http://www.inkscape.org/) -->

<svg
   xmlns:dc="http://purl.org/dc/elements/1.1/"
   xmlns:cc="http://creativecommons.org/ns#"
   xmlns:rdf="http://www.w3.org/1999/02/22-rdf-syntax-ns#"
   xmlns:svg="http://www.w3.org/2000/svg"
   xmlns="http://www.w3.org/2000/svg"
   xmlns:sodipodi="http://sodipodi.sourceforge.net/DTD/sodipodi-0.dtd"
   xmlns:inkscape="http://www.inkscape.org/namespaces/inkscape"
   width="64px"
   height="64px"
   id="svg3470"
   version="1.1"
   inkscape:version="0.48.5 r10040"
   sodipodi:docname="Return.xaml">
  <defs
     id="defs3472" />
  <sodipodi:namedview
     id="base"
     pagecolor="#ffffff"
     bordercolor="#666666"
     borderopacity="1.0"
     inkscape:pageopacity="0.0"
     inkscape:pageshadow="2"
     inkscape:zoom="5.5"
     inkscape:cx="32"
     inkscape:cy="32"
     inkscape:current-layer="svg3470"
     showgrid="true"
     inkscape:document-units="px"
     inkscape:grid-bbox="true"
     inkscape:window-width="1920"
     inkscape:window-height="1003"
     inkscape:window-x="-9"
     inkscape:window-y="-9"
     inkscape:window-maximized="1" />
  <metadata
     id="metadata3475">
    <rdf:RDF>
      <cc:Work
         rdf:about="">
        <dc:format>image/svg+xml</dc:format>
        <dc:type
           rdf:resource="http://purl.org/dc/dcmitype/StillImage" />
        <dc:title></dc:title>
      </cc:Work>
    </rdf:RDF>
  </metadata>
  <path
     inkscape:connector-curvature="0"
     id="path3189"
     style="fill-rule:evenodd"
     d="m 30.671858,16.192659 c 4.175789,2.116203 -0.843286,8.955307 -2.690725,16.015874 H 46.48093 c 0.205741,-0.221462 0.412329,-0.442924 0.637544,-0.645523 l 0.03555,-24.9490362 c 0,-3.531103 2.951501,-6.38715591 6.593041,-6.38715591 h 3.296096 c 3.640692,0 6.592193,2.85605291 6.592193,6.38715591 0,0 0,19.4411702 0,31.9308622 0,5.290504 -4.427251,9.579504 -9.888289,9.579504 l -25.826052,0.05577 c 1.795792,7.609305 7.306785,12.457704 2.752531,15.910065 C 27.227593,66.702627 0.36436358,43.734454 0.36436358,40.545388 c 0,-3.188247 26.58298142,-26.240903 30.30749442,-24.352726 z" />
</svg>
